<svg width="78" height="82" viewBox="0 0 78 82" fill="none" xmlns="http://www.w3.org/2000/svg">
<g filter="url(#filter0_d_84_166)">
<path d="M4.5 34.6428C4.5 15.589 19.9462 0.142822 39 0.142822C58.0538 0.142822 73.5 15.589 73.5 34.6428C73.5 53.6966 58.0538 69.1428 39 69.1428C19.9462 69.1428 4.5 53.6966 4.5 34.6428Z" fill="white"/>
</g>
<g clip-path="url(#clip0_84_166)">
<path d="M53.1496 47.0774L45.9358 39.8667C47.6396 37.7892 48.6667 35.1199 48.6667 32.2332C48.6667 32.0158 48.6667 31.7863 48.6425 31.5689C48.6063 30.9046 48.0263 30.3852 47.3738 30.4215C46.7092 30.4577 46.2017 31.0254 46.2258 31.6897C46.2258 31.8709 46.2379 32.052 46.2379 32.2332C46.2379 37.5597 41.9 41.8958 36.5712 41.8958C33.5625 41.8958 30.8679 40.5189 29.1038 38.3569C29.1038 38.3569 28.5479 37.9221 27.7625 36.1949C27.2188 34.9871 26.9046 33.6464 26.9046 32.2453C26.9167 26.8946 31.2546 22.5706 36.5833 22.5706C38.2871 22.5706 39.9546 23.0175 41.4167 23.8629C41.61 23.9716 41.8154 24.02 42.0208 24.02C42.4317 24.02 42.8425 23.8025 43.0721 23.416C43.4104 22.8363 43.205 22.0995 42.6371 21.7613C40.8004 20.7105 38.71 20.1428 36.5833 20.1428C29.9254 20.1428 24.5 25.566 24.5 32.2332C24.5 38.9004 29.9254 44.3115 36.5833 44.3115C39.4833 44.3115 42.1417 43.2848 44.22 41.5818L51.4338 48.7926C51.6633 49.0341 51.9775 49.1428 52.2917 49.1428C52.6058 49.1428 52.9079 49.022 53.1496 48.7926C53.6208 48.3215 53.6208 47.5606 53.1496 47.0774Z" fill="#0E0B3D"/>
<path d="M29.1159 38.3448L34.2634 32.2211L36.5955 34.5522C37.0788 35.0354 37.7434 35.289 38.4201 35.2649C39.0967 35.2407 39.7372 34.9267 40.1842 34.4194L50.7813 22.1357C51.2163 21.6285 51.1559 20.8675 50.6605 20.4327C50.153 19.9979 49.3917 20.0462 48.9567 20.5535L38.2992 32.8371L35.9672 30.506C35.4838 30.0229 34.8072 29.7572 34.1305 29.7934C33.4417 29.8296 32.8013 30.1437 32.3663 30.6751L27.7747 36.1828C28.5601 37.91 29.1159 38.3448 29.1159 38.3448Z" fill="#5379F6"/>
</g>
<defs>
<filter id="filter0_d_84_166" x="0.5" y="0.142822" width="77" height="81" filterUnits="userSpaceOnUse" color-interpolation-filters="sRGB">
<feFlood flood-opacity="0" result="BackgroundImageFix"/>
<feColorMatrix in="SourceAlpha" type="matrix" values="0 0 0 0 0 0 0 0 0 0 0 0 0 0 0 0 0 0 127 0" result="hardAlpha"/>
<feMorphology radius="4" operator="erode" in="SourceAlpha" result="effect1_dropShadow_84_166"/>
<feOffset dy="8"/>
<feGaussianBlur stdDeviation="4"/>
<feColorMatrix type="matrix" values="0 0 0 0 0.0745098 0 0 0 0 0.0980392 0 0 0 0 0.152941 0 0 0 0.08 0"/>
<feBlend mode="normal" in2="BackgroundImageFix" result="effect1_dropShadow_84_166"/>
<feBlend mode="normal" in="SourceGraphic" in2="effect1_dropShadow_84_166" result="shape"/>
</filter>
<clipPath id="clip0_84_166">
<rect width="29" height="29" fill="white" transform="translate(24.5 20.1428)"/>
</clipPath>
</defs>
</svg>
