<svg width="78" height="81" viewBox="0 0 78 81" fill="none" xmlns="http://www.w3.org/2000/svg">
<g filter="url(#filter0_d_84_142)">
<path d="M4.5 34.5C4.5 15.4462 19.9462 0 39 0C58.0538 0 73.5 15.4462 73.5 34.5C73.5 53.5538 58.0538 69 39 69C19.9462 69 4.5 53.5538 4.5 34.5Z" fill="white"/>
</g>
<g clip-path="url(#clip0_84_142)">
<path d="M33.8332 33.2083H29.9582C29.1832 33.2083 28.6665 32.6917 28.6665 31.9167C28.6665 31.1417 29.1832 30.625 29.9582 30.625H33.8332C34.6082 30.625 35.1248 31.1417 35.1248 31.9167C35.1248 32.6917 34.6082 33.2083 33.8332 33.2083Z" fill="#0E0B3D"/>
<path d="M54.1126 47.6751L50.8834 44.8334C51.5292 43.6709 52.0459 42.2501 52.0459 40.8292C52.0459 36.5667 48.5584 33.0792 44.2959 33.0792C40.0334 33.0792 36.5459 36.5667 36.5459 40.8292C36.5459 45.0917 40.0334 48.5792 44.2959 48.5792C48.5584 48.5792 47.9126 47.9334 49.2042 46.7709L52.4334 49.6126C52.6917 49.8709 52.9501 49.8709 53.3376 49.8709C53.7251 49.8709 54.1126 49.7417 54.3709 49.4834C54.8876 48.9667 54.7584 48.0626 54.2417 47.6751H54.1126ZM48.9459 40.5709L45.4584 43.9292C44.8126 44.4459 44.0376 44.8334 43.2626 44.8334C42.4876 44.8334 41.7126 44.5751 41.0667 43.9292L39.2584 42.2501C38.7417 41.7334 38.7417 40.9584 39.2584 40.4417C39.7751 39.9251 40.5501 39.9251 41.0667 40.4417L42.8751 42.1209C43.0042 42.2501 43.3917 42.2501 43.5209 42.1209L47.0084 38.7626C47.5251 38.2459 48.3001 38.2459 48.8167 38.7626C49.3334 39.2792 49.3334 40.0542 48.8167 40.5709H48.9459Z" fill="#5379F6"/>
<path d="M49.075 30.3666C48.6875 28.8166 47.9125 27.3958 46.75 26.2333L42.2292 21.7124C40.55 20.0333 38.225 19.1291 35.7708 19.1291H29.9583C26.3417 18.9999 23.5 21.8416 23.5 25.4583V43.5416C23.5 47.1583 26.3417 49.9999 29.9583 49.9999H36.4167C37.1917 49.9999 37.7083 49.4833 37.7083 48.7083C37.7083 47.9333 37.1917 47.4166 36.4167 47.4166H29.9583C27.7625 47.4166 26.0833 45.7374 26.0833 43.5416V25.4583C26.0833 23.2624 27.7625 21.5833 29.9583 21.5833H35.7708C36.0292 21.5833 36.1583 21.5833 36.4167 21.5833V28.0416C36.4167 30.2374 38.0958 31.9166 40.2917 31.9166H47.7833C48.1708 31.9166 48.5583 31.7874 48.8167 31.3999C49.075 31.1416 49.2042 30.6249 49.075 30.2374V30.3666ZM40.2917 29.3333C39.5167 29.3333 39 28.8166 39 28.0416V22.4874C39.5167 22.7458 39.9042 23.1333 40.2917 23.5208L44.8125 28.0416C45.2 28.4291 45.5875 28.9458 45.8458 29.3333H40.2917Z" fill="#0E0B3D"/>
<path d="M32.5415 35.7916H29.9582C29.1832 35.7916 28.6665 36.3083 28.6665 37.0833C28.6665 37.8583 29.1832 38.375 29.9582 38.375H32.5415C33.3165 38.375 33.8332 37.8583 33.8332 37.0833C33.8332 36.3083 33.3165 35.7916 32.5415 35.7916Z" fill="#0E0B3D"/>
<path d="M32.5415 40.9584H29.9582C29.1832 40.9584 28.6665 41.475 28.6665 42.25C28.6665 43.025 29.1832 43.5417 29.9582 43.5417H32.5415C33.3165 43.5417 33.8332 43.025 33.8332 42.25C33.8332 41.475 33.3165 40.9584 32.5415 40.9584Z" fill="#0E0B3D"/>
</g>
<defs>
<filter id="filter0_d_84_142" x="0.5" y="0" width="77" height="81" filterUnits="userSpaceOnUse" color-interpolation-filters="sRGB">
<feFlood flood-opacity="0" result="BackgroundImageFix"/>
<feColorMatrix in="SourceAlpha" type="matrix" values="0 0 0 0 0 0 0 0 0 0 0 0 0 0 0 0 0 0 127 0" result="hardAlpha"/>
<feMorphology radius="4" operator="erode" in="SourceAlpha" result="effect1_dropShadow_84_142"/>
<feOffset dy="8"/>
<feGaussianBlur stdDeviation="4"/>
<feColorMatrix type="matrix" values="0 0 0 0 0.0745098 0 0 0 0 0.0980392 0 0 0 0 0.152941 0 0 0 0.08 0"/>
<feBlend mode="normal" in2="BackgroundImageFix" result="effect1_dropShadow_84_142"/>
<feBlend mode="normal" in="SourceGraphic" in2="effect1_dropShadow_84_142" result="shape"/>
</filter>
<clipPath id="clip0_84_142">
<rect width="31" height="31" fill="white" transform="translate(23.5 19)"/>
</clipPath>
</defs>
</svg>
