<svg width="78" height="82" viewBox="0 0 78 82" fill="none" xmlns="http://www.w3.org/2000/svg">
<g filter="url(#filter0_d_84_178)">
<path d="M4.5 34.6428C4.5 15.589 19.9462 0.142822 39 0.142822C58.0538 0.142822 73.5 15.589 73.5 34.6428C73.5 53.6966 58.0538 69.1428 39 69.1428C19.9462 69.1428 4.5 53.6966 4.5 34.6428Z" fill="white"/>
</g>
<g clip-path="url(#clip0_84_178)">
<path d="M34.4771 25.6031C35.5487 25.6031 36.4146 26.469 36.4146 27.5406C36.4146 28.6123 35.5487 29.4781 34.4771 29.4781C33.4054 29.4781 32.5396 28.6123 32.5396 27.5406C32.5396 26.469 33.4054 25.6031 34.4771 25.6031Z" fill="#0E0B3D"/>
<path d="M43.9345 29.7083L43.4804 27.8737C43.3411 27.3045 42.8204 26.8928 42.227 26.8928C41.6337 26.8928 41.119 27.2924 40.9737 27.8737L40.5196 29.6961L38.7093 30.1079C38.128 30.235 37.7163 30.7557 37.7163 31.3491C37.7163 31.9424 38.1038 32.4571 38.6729 32.6145L40.5196 33.117L40.9858 34.9637C41.1251 35.5329 41.6458 35.9446 42.2392 35.9446C42.8325 35.9446 43.3472 35.545 43.4925 34.9637L43.9466 33.1292L45.7812 32.675C46.3503 32.5358 46.762 32.0151 46.762 31.4217C46.762 30.8284 46.3624 30.3137 45.7812 30.1684L43.9466 29.7143L43.9345 29.7022V29.7083Z" fill="#5379F6"/>
<path d="M44.952 25.4458L47.2225 26.4024L48.1246 28.6608C48.3184 29.1512 48.7967 29.4721 49.3234 29.4721C49.8502 29.4721 50.3285 29.1512 50.5223 28.6608L51.4244 26.4145L53.6707 25.5124C54.1611 25.3186 54.482 24.8403 54.482 24.3135C54.482 23.7868 54.1611 23.3084 53.6707 23.1147L51.4244 22.2125L50.5223 19.9663C50.3406 19.4637 49.8623 19.1428 49.3355 19.1428C48.8088 19.1428 48.3305 19.4637 48.1367 19.9542L47.2467 22.1883L45.0125 23.042C44.5221 23.2237 44.183 23.702 44.1709 24.2288C44.1709 24.7555 44.4676 25.2338 44.958 25.4458H44.952Z" fill="#5379F6"/>
<path d="M53.2225 29.4782C52.5141 29.4782 51.9328 30.0594 51.9328 30.7678V41.8661L49.9166 39.8499C48.1729 38.1182 45.3453 38.1182 43.6137 39.8499L42.8629 40.6006C42.1666 41.2969 41.0162 41.2969 40.3199 40.6006L33.1148 33.3956C31.3711 31.6639 28.5436 31.6639 26.8119 33.3956L26.0914 34.1161V25.6032C26.0914 23.4719 27.8352 21.7282 29.9664 21.7282H42.8811C43.5895 21.7282 44.1707 21.1469 44.1707 20.4385C44.1707 19.7301 43.5834 19.1428 42.875 19.1428H29.9604C26.3941 19.1428 23.5 22.037 23.5 25.6032V43.6885C23.5 47.2547 26.3941 50.1489 29.9604 50.1489H48.0457C51.6119 50.1489 54.5061 47.2547 54.5061 43.6885V30.7739H54.5182C54.5182 30.0655 53.9369 29.4842 53.2285 29.4842L53.2225 29.4782ZM51.5816 45.1961C50.9883 46.5887 49.6199 47.5575 48.0154 47.5575H29.9301C27.7988 47.5575 26.0551 45.8137 26.0551 43.6825V37.7549L28.6102 35.1999C29.3488 34.4793 30.5355 34.4793 31.2561 35.1999L38.4611 42.4049C40.1686 44.1124 42.9537 44.1124 44.6611 42.4049L45.4119 41.6541C46.1506 40.9336 47.3373 40.9336 48.0578 41.6541L51.5998 45.1961H51.5756H51.5816Z" fill="#0E0B3D"/>
</g>
<defs>
<filter id="filter0_d_84_178" x="0.5" y="0.142822" width="77" height="81" filterUnits="userSpaceOnUse" color-interpolation-filters="sRGB">
<feFlood flood-opacity="0" result="BackgroundImageFix"/>
<feColorMatrix in="SourceAlpha" type="matrix" values="0 0 0 0 0 0 0 0 0 0 0 0 0 0 0 0 0 0 127 0" result="hardAlpha"/>
<feMorphology radius="4" operator="erode" in="SourceAlpha" result="effect1_dropShadow_84_178"/>
<feOffset dy="8"/>
<feGaussianBlur stdDeviation="4"/>
<feColorMatrix type="matrix" values="0 0 0 0 0.0745098 0 0 0 0 0.0980392 0 0 0 0 0.152941 0 0 0 0.08 0"/>
<feBlend mode="normal" in2="BackgroundImageFix" result="effect1_dropShadow_84_178"/>
<feBlend mode="normal" in="SourceGraphic" in2="effect1_dropShadow_84_178" result="shape"/>
</filter>
<clipPath id="clip0_84_178">
<rect width="31" height="31" fill="white" transform="translate(23.5 19.1428)"/>
</clipPath>
</defs>
</svg>
