<svg width="78" height="82" viewBox="0 0 78 82" fill="none" xmlns="http://www.w3.org/2000/svg">
<g filter="url(#filter0_d_84_190)">
<path d="M4.5 34.6428C4.5 15.589 19.9462 0.142822 39 0.142822C58.0538 0.142822 73.5 15.589 73.5 34.6428C73.5 53.6966 58.0538 69.1428 39 69.1428C19.9462 69.1428 4.5 53.6966 4.5 34.6428Z" fill="white"/>
</g>
<g clip-path="url(#clip0_84_190)">
<path d="M50.75 48.8948C50.75 49.5862 50.1875 50.1428 49.502 50.1428C48.8164 50.1428 48.2539 49.5862 48.2539 48.8948C48.2539 46.135 46.0098 43.8967 43.2559 43.8967H35.7559C32.9961 43.8967 30.7578 46.1409 30.7578 48.8948C30.7578 51.6487 30.1953 50.1428 29.5098 50.1428C28.8242 50.1428 28.2617 49.5862 28.2617 48.8948C28.2617 44.7581 31.625 41.3948 35.7617 41.3948H43.2617C47.3984 41.3948 50.7617 44.7581 50.7617 48.8948H50.75Z" fill="#0E0B3D"/>
<path d="M50.123 27.6428H49.4961C49.4961 24.8831 47.252 22.6448 44.498 22.6448H40.748V21.3967C40.748 20.7053 40.1855 20.1487 39.5 20.1487C38.8145 20.1487 38.252 20.7053 38.252 21.3967V22.6448H34.502C31.7422 22.6448 29.5039 24.8889 29.5039 27.6428H28.877C27.8457 27.6428 27.002 28.4866 27.002 29.5178V32.0198C27.002 33.051 27.8457 33.8948 28.877 33.8948H29.5039C29.5039 36.6545 31.748 38.8928 34.502 38.8928H44.5039C47.2637 38.8928 49.502 36.6487 49.502 33.8948H50.1289C51.1602 33.8948 52.0039 33.051 52.0039 32.0198V29.5178C52.0039 28.4866 51.1602 27.6428 50.1289 27.6428H50.123ZM47 33.8948C47 35.2717 45.8809 36.3967 44.498 36.3967H34.4961C33.1191 36.3967 31.9941 35.2776 31.9941 33.8948V27.6428C31.9941 26.2659 33.1133 25.1409 34.4961 25.1409H44.498C45.875 25.1409 47 26.26 47 27.6428V33.8948Z" fill="#0E0B3D"/>
<path d="M36.377 28.8909C35.3398 28.8909 34.502 29.7288 34.502 30.7659C34.502 31.803 35.3398 32.6409 36.377 32.6409C37.4141 32.6409 38.252 31.803 38.252 30.7659C38.252 29.7288 37.4141 28.8909 36.377 28.8909Z" fill="#5379F6"/>
<path d="M42.623 28.8909C41.5859 28.8909 40.748 29.7288 40.748 30.7659C40.748 31.803 41.5859 32.6409 42.623 32.6409C43.6602 32.6409 44.498 31.803 44.498 30.7659C44.498 29.7288 43.6602 28.8909 42.623 28.8909Z" fill="#5379F6"/>
</g>
<defs>
<filter id="filter0_d_84_190" x="0.5" y="0.142822" width="77" height="81" filterUnits="userSpaceOnUse" color-interpolation-filters="sRGB">
<feFlood flood-opacity="0" result="BackgroundImageFix"/>
<feColorMatrix in="SourceAlpha" type="matrix" values="0 0 0 0 0 0 0 0 0 0 0 0 0 0 0 0 0 0 127 0" result="hardAlpha"/>
<feMorphology radius="4" operator="erode" in="SourceAlpha" result="effect1_dropShadow_84_190"/>
<feOffset dy="8"/>
<feGaussianBlur stdDeviation="4"/>
<feColorMatrix type="matrix" values="0 0 0 0 0.0745098 0 0 0 0 0.0980392 0 0 0 0 0.152941 0 0 0 0.08 0"/>
<feBlend mode="normal" in2="BackgroundImageFix" result="effect1_dropShadow_84_190"/>
<feBlend mode="normal" in="SourceGraphic" in2="effect1_dropShadow_84_190" result="shape"/>
</filter>
<clipPath id="clip0_84_190">
<rect width="30" height="30" fill="white" transform="translate(24.5 20.1428)"/>
</clipPath>
</defs>
</svg>
