<svg width="78" height="81" viewBox="0 0 78 81" fill="none" xmlns="http://www.w3.org/2000/svg">
<g filter="url(#filter0_d_84_155)">
<path d="M4.5 34.5C4.5 15.4462 19.9462 0 39 0C58.0538 0 73.5 15.4462 73.5 34.5C73.5 53.5538 58.0538 69 39 69C19.9462 69 4.5 53.5538 4.5 34.5Z" fill="white"/>
</g>
<g clip-path="url(#clip0_84_155)">
<path d="M53.7502 40.125C53.7502 40.125 42.8752 35.125 42.7502 35.125C41.8752 34.875 40.8752 35.125 40.1252 35.75C39.3752 36.375 39.2502 37.375 39.6252 38.5L44.5002 49.375C44.7502 49.875 45.1252 50.125 45.6252 50.125C46.1252 50.125 46.5002 49.875 46.7502 49.375L49.1252 44.75L53.7502 42.375C54.1252 42.125 54.5002 41.75 54.5002 41.25C54.5002 40.75 54.2502 40.375 53.7502 40.125ZM47.7502 42.625C47.5002 42.625 47.2502 43 47.2502 43.125L45.8752 45.75L42.1252 37.375L50.5002 41.125L47.8752 42.5L47.7502 42.625Z" fill="#5379F6"/>
<path d="M39.5 20C31.25 20 24.5 26.75 24.5 35C24.5 43.25 31.25 50 39.5 50C47.75 50 40.375 50 40.875 50C41.625 50 42.125 49.375 42 48.625C42 48 41.375 47.375 40.625 47.5C40.375 47.5 40.25 47.5 40 47.5C39.125 46.625 37 44.375 35.5 41.25H36.375C37.125 41.25 37.625 40.75 37.625 40C37.625 39.25 37.125 38.75 36.375 38.75H34.5C34.125 37.5 33.875 36.25 33.875 35C33.875 33.75 34.125 32.5 34.5 31.25H44.625C44.75 31.75 44.875 32.25 45 32.75C45.125 33.375 45.75 33.875 46.5 33.75C47.125 33.625 47.625 33 47.5 32.25C47.5 31.875 47.375 31.625 47.25 31.25H51.5C51.875 32.375 52.125 33.75 52.125 35C52.125 36.25 52.125 35.75 52.125 36.125C52.125 36.75 52.625 37.375 53.25 37.5C54 37.5 54.5 37 54.625 36.375C54.625 35.875 54.625 35.5 54.625 35C54.625 26.75 47.875 20 39.625 20H39.5ZM27.625 38.75C27.25 37.625 27 36.25 27 35C27 33.75 27.25 32.375 27.625 31.25H31.875C31.625 32.5 31.375 33.75 31.375 35C31.375 36.25 31.5 37.5 31.875 38.75H27.625ZM36.25 47.125C33 46.25 30.375 44.125 28.625 41.25H32.625C33.625 43.625 35 45.625 36.125 47.125H36.25ZM32.75 28.75H28.75C30.375 25.875 33.125 23.75 36.375 22.875C35.25 24.375 33.875 26.375 32.875 28.75H32.75ZM35.5 28.75C36.75 26.125 38.5 24.125 39.5 23C40.5 24.125 42.25 26.125 43.5 28.75H35.375H35.5ZM46.25 28.75C45.25 26.375 43.875 24.375 42.75 22.875C46 23.75 48.625 25.875 50.375 28.75H46.375H46.25Z" fill="#0E0B3D"/>
</g>
<defs>
<filter id="filter0_d_84_155" x="0.5" y="0" width="77" height="81" filterUnits="userSpaceOnUse" color-interpolation-filters="sRGB">
<feFlood flood-opacity="0" result="BackgroundImageFix"/>
<feColorMatrix in="SourceAlpha" type="matrix" values="0 0 0 0 0 0 0 0 0 0 0 0 0 0 0 0 0 0 127 0" result="hardAlpha"/>
<feMorphology radius="4" operator="erode" in="SourceAlpha" result="effect1_dropShadow_84_155"/>
<feOffset dy="8"/>
<feGaussianBlur stdDeviation="4"/>
<feColorMatrix type="matrix" values="0 0 0 0 0.0745098 0 0 0 0 0.0980392 0 0 0 0 0.152941 0 0 0 0.08 0"/>
<feBlend mode="normal" in2="BackgroundImageFix" result="effect1_dropShadow_84_155"/>
<feBlend mode="normal" in="SourceGraphic" in2="effect1_dropShadow_84_155" result="shape"/>
</filter>
<clipPath id="clip0_84_155">
<rect width="30" height="30" fill="white" transform="translate(24.5 20)"/>
</clipPath>
</defs>
</svg>
