<svg width="78" height="81" viewBox="0 0 78 81" fill="none" xmlns="http://www.w3.org/2000/svg">
<g filter="url(#filter0_d_84_130)">
<path d="M4.5 34.5C4.5 15.4462 19.9462 0 39 0C58.0538 0 73.5 15.4462 73.5 34.5C73.5 53.5538 58.0538 69 39 69C19.9462 69 4.5 53.5538 4.5 34.5Z" fill="white"/>
</g>
<g clip-path="url(#clip0_84_130)">
<path d="M47.8312 20.3313H29.1687C25.4875 20.3313 22.5 23.3188 22.5 27V43C22.5 46.6813 25.4875 49.6688 29.1687 49.6688H47.8375C51.5187 49.6688 54.5062 46.6813 54.5062 43V27C54.5062 23.3188 51.5187 20.3313 47.8375 20.3313H47.8312ZM29.1687 23H47.8375C50.0375 23 51.8375 24.8 51.8375 27V29.6688H25.1688V27C25.1688 24.8 26.9688 23 29.1687 23ZM47.8312 47H29.1687C26.9688 47 25.1688 45.2001 25.1688 43V32.3313H51.8375V43C51.8375 45.2001 50.0375 47 47.8375 47H47.8312ZM46.5 26.3313C46.5 25.225 47.3937 24.3313 48.5 24.3313C49.6063 24.3313 50.5 25.225 50.5 26.3313C50.5 27.4375 49.6063 28.3313 48.5 28.3313C47.3937 28.3313 46.5 27.4375 46.5 26.3313ZM41.1688 26.3313C41.1688 25.225 42.0625 24.3313 43.1688 24.3313C44.275 24.3313 45.1688 25.225 45.1688 26.3313C45.1688 27.4375 44.275 28.3313 43.1688 28.3313C42.0625 28.3313 41.1688 27.4375 41.1688 26.3313ZM35.8313 26.3313C35.8313 25.225 36.725 24.3313 37.8313 24.3313C38.9375 24.3313 39.8312 25.225 39.8312 26.3313C39.8312 27.4375 38.9375 28.3313 37.8313 28.3313C36.725 28.3313 35.8313 27.4375 35.8313 26.3313Z" fill="#0E0B3D"/>
<path d="M46.5 26.3313C46.5 25.225 47.3937 24.3313 48.5 24.3313C49.6063 24.3313 50.5 25.225 50.5 26.3313C50.5 27.4375 49.6063 28.3313 48.5 28.3313C47.3937 28.3313 46.5 27.4375 46.5 26.3313Z" fill="#5379F6"/>
<path d="M41.1689 26.3313C41.1689 25.225 42.0627 24.3313 43.1689 24.3313C44.2752 24.3313 45.1689 25.225 45.1689 26.3313C45.1689 27.4375 44.2752 28.3313 43.1689 28.3313C42.0627 28.3313 41.1689 27.4375 41.1689 26.3313Z" fill="#5379F6"/>
<path d="M35.8311 26.3313C35.8311 25.225 36.7248 24.3313 37.8311 24.3313C38.9373 24.3313 39.8311 25.225 39.8311 26.3313C39.8311 27.4375 38.9373 28.3313 37.8311 28.3313C36.7248 28.3313 35.8311 27.4375 35.8311 26.3313Z" fill="#5379F6"/>
</g>
<defs>
<filter id="filter0_d_84_130" x="0.5" y="0" width="77" height="81" filterUnits="userSpaceOnUse" color-interpolation-filters="sRGB">
<feFlood flood-opacity="0" result="BackgroundImageFix"/>
<feColorMatrix in="SourceAlpha" type="matrix" values="0 0 0 0 0 0 0 0 0 0 0 0 0 0 0 0 0 0 127 0" result="hardAlpha"/>
<feMorphology radius="4" operator="erode" in="SourceAlpha" result="effect1_dropShadow_84_130"/>
<feOffset dy="8"/>
<feGaussianBlur stdDeviation="4"/>
<feColorMatrix type="matrix" values="0 0 0 0 0.0745098 0 0 0 0 0.0980392 0 0 0 0 0.152941 0 0 0 0.08 0"/>
<feBlend mode="normal" in2="BackgroundImageFix" result="effect1_dropShadow_84_130"/>
<feBlend mode="normal" in="SourceGraphic" in2="effect1_dropShadow_84_130" result="shape"/>
</filter>
<clipPath id="clip0_84_130">
<rect width="32" height="32" fill="white" transform="translate(22.5 19)"/>
</clipPath>
</defs>
</svg>
