<svg width="350" height="423" viewBox="0 0 350 423" fill="none" xmlns="http://www.w3.org/2000/svg">
<mask id="mask0_102_508" style="mask-type:luminance" maskUnits="userSpaceOnUse" x="0" y="-164" width="496" height="572">
<path d="M0.702254 398L388.938 407.717L495.602 -153.708L107.366 -163.425L0.702254 398Z" fill="white"/>
<path d="M495.007 -153.226L388.531 407.21L1.29714 397.518L107.773 -162.918L495.007 -153.226Z" stroke="white"/>
</mask>
<g mask="url(#mask0_102_508)">
<path d="M346.855 405.065C346.855 405.065 312.834 319.773 186.922 331.598C45.7415 344.86 4.67084 246.306 51.3385 180.883C98.0061 115.46 252.538 105.288 251.497 -2.61902C250.456 -110.526 444.246 -154.409 444.246 -154.409" stroke="#0A0A0A" stroke-opacity="0.3" stroke-width="2" stroke-miterlimit="10"/>
<path d="M411.794 312.762C411.794 312.762 310.694 273.444 200.57 283.935C90.4467 294.426 89.2219 234.98 106.326 211.745C141.819 163.535 283.195 157.593 307.395 78.8935C325.583 19.7339 286.908 -61.3289 417.53 -100.578" stroke="#0A0A0A" stroke-opacity="0.3" stroke-width="2" stroke-miterlimit="10"/>
<path d="M380.225 271.835C380.225 271.835 281.633 282.093 308.617 225.35C339.544 160.311 385.69 162.637 356.098 78.4059C345.573 48.4468 361.336 -70.6463 443.043 -44.2666" stroke="#0A0A0A" stroke-opacity="0.3" stroke-width="2" stroke-miterlimit="10"/>
<path d="M142.307 217.342C145.194 202.731 171.414 191.46 200.872 192.167C230.33 192.875 251.871 205.293 248.984 219.904C246.098 234.515 219.877 245.786 190.419 245.078C160.961 244.371 139.421 231.952 142.307 217.342Z" stroke="#0A0A0A" stroke-opacity="0.3" stroke-width="2" stroke-miterlimit="10"/>
</g>
</svg>
