<svg width="779" height="440" viewBox="0 0 779 440" fill="none" xmlns="http://www.w3.org/2000/svg">
<mask id="mask0_102_527" style="mask-type:luminance" maskUnits="userSpaceOnUse" x="0" y="17" width="779" height="489">
<path d="M183.901 17.5817L0.641846 413.541L595.307 505.33L778.566 109.371L183.901 17.5817Z" fill="white"/>
<path d="M595.022 504.791L1.35436 413.155L184.186 18.1207L777.854 109.756L595.022 504.791Z" stroke="white"/>
</mask>
<g mask="url(#mask0_102_527)">
<path d="M12.2017 378.879C12.2017 378.879 126.23 340.771 169.565 209.762C218.151 62.8684 350.707 16.9989 405.228 63.6859C459.748 110.373 401.543 271.293 526.79 266.902C652.036 262.511 615.038 463.357 615.038 463.357" stroke="#2148E5" stroke-opacity="1" stroke-width="2" stroke-miterlimit="10"/>
<path d="M115.738 425.399C115.738 425.399 203.668 323.984 239.4 215.102C275.133 106.219 342.607 103.24 361.389 119.51C400.356 153.273 346.008 293.279 424.189 314.938C482.959 331.217 590.947 290.463 578.751 418.817" stroke="#2148E5" stroke-opacity="1" stroke-width="2" stroke-miterlimit="10"/>
<path d="M178.172 376.833C178.172 376.833 217.697 252.16 272.885 284.45C336.143 321.461 308.921 380.056 427.634 339.672C469.857 325.308 607.276 341.253 531.833 445.759" stroke="#2148E5" stroke-opacity="1" stroke-width="2" stroke-miterlimit="10"/>
<path d="M301.684 155.616C314.852 157.727 316.309 180.127 304.937 205.647C293.565 231.167 273.671 250.145 260.502 248.033C247.334 245.922 245.878 223.521 257.25 198.001C268.622 172.481 288.516 153.504 301.684 155.616Z" stroke="#2148E5" stroke-opacity="1" stroke-width="2" stroke-miterlimit="10"/>
</g>
</svg>
