<?xml version="1.0" encoding="UTF-8"?>
<svg id="Warstwa_2" xmlns="http://www.w3.org/2000/svg" viewBox="0 0 111.64 114.22">
  <defs>
    <style>
      .cls-1 {
        fill: #fce8e3;
      }

      .cls-2 {
        fill: #fff;
      }

      .cls-3 {
        fill: #e5cfca;
      }

      .cls-4 {
        fill: #5379f6;
      }

      .cls-5 {
        fill: #f7f8fb;
      }

      .cls-6 {
        fill: #0e0b3d;
      }
    </style>
  </defs>
  <g id="OBJECTS">
    <g>
      <circle class="cls-4" cx="55.82" cy="58.4" r="55.82"/>
      <g>
        <path class="cls-6" d="M88.32,53.92C92.27,30.94,82.81,1.73,56.78.06c-8.3-.53-16.41,2.52-20.6,8.41-14.36,5.66-15.57,30.88-13.96,39.56,4.4,23.8-16.81,19.7-11.43,42.04l44.33-2.44h1.7l43.54.56c3.67-16.85-13.84-15.72-12.05-34.26Z"/>
        <rect class="cls-1" x="42.72" y="51.05" width="26.15" height="33.36"/>
        <path class="cls-5" d="M103.79,86.93c-12.31-5.17-34.76-9.07-34.76-9.07-8.62,7.26-19.52,7.21-26.3,0,0,0-22.74,3.37-35.57,7.86,9.17,16.29,26.27,27.52,46.08,28.42.89.03,1.77.06,2.67.06,20.37-.03,38.17-10.97,47.89-27.28Z"/>
        <g>
          <path class="cls-2" d="M78.94,47.02c-.97,0-1.76,1.41-1.76,3.14s.79,3.14,1.76,3.14,1.76-1.41,1.76-3.14-.79-3.14-1.76-3.14ZM78.94,51.92c-.67,0-1.21-.97-1.21-2.16s.54-2.16,1.21-2.16,1.21.97,1.21,2.16-.54,2.16-1.21,2.16Z"/>
          <path class="cls-2" d="M30.8,50.16c0,1.73.79,3.14,1.76,3.14s1.76-1.41,1.76-3.14-.79-3.14-1.76-3.14-1.76,1.41-1.76,3.14ZM31.35,49.76c0-1.19.54-2.16,1.21-2.16s1.21.97,1.21,2.16-.54,2.16-1.21,2.16-1.21-.97-1.21-2.16Z"/>
          <path class="cls-1" d="M55.77,10.65h0c-16.86.02-20.69,12.64-20.34,25.35,0,9.16-.06,15.92.79,18.18.85,2.26,6.76,15.89,19.54,15.92h0c12.78-.02,18.69-13.65,19.54-15.92.85-2.27.8-9.02.8-18.18.35-12.71-3.48-25.33-20.34-25.35Z"/>
          <path class="cls-3" d="M55.77,70.48c-5.01,0-9.53-2.05-13.44-6.05l.54-.52c3.76,3.86,8.1,5.82,12.9,5.83,4.72,0,9-1.91,12.72-5.64l.53.53c-3.86,3.88-8.32,5.85-13.25,5.86Z"/>
          <path class="cls-1" d="M36.17,35.57s-3.39-4.99-6.87-2.07c-3.48,2.92-.09,19.48,6.87,16.56,6.96-2.92,0-14.49,0-14.49Z"/>
          <path class="cls-1" d="M75.43,35.57s3.39-4.99,6.87-2.07c3.48,2.92.09,19.48-6.87,16.56-6.96-2.92,0-14.49,0-14.49Z"/>
          <rect class="cls-3" x="35.06" y="44.89" width=".75" height="5.37" transform="translate(-3.42 2.75) rotate(-4.24)"/>
          <rect class="cls-3" x="73.18" y="46.91" width="5.94" height=".75" transform="translate(23.34 119.71) rotate(-85.74)"/>
          <path class="cls-3" d="M31.03,42.07c-.8-2.66-.81-4.51-.02-5.49.58-.73,1.39-.69,1.42-.69l-.05.75.02-.37-.02.37s-.46-.02-.8.42c-.34.44-.78,1.66.16,4.8l-.72.22Z"/>
          <path class="cls-3" d="M80.85,42.07l-.72-.22c.94-3.14.51-4.35.16-4.8-.34-.44-.78-.42-.8-.42l-.04-.75s.83-.05,1.42.69c.79.99.78,2.84-.02,5.49Z"/>
          <path class="cls-2" d="M34.05,50.98c-.12,0-.25-.02-.36-.04-.03,0-.06-.03-.08-.05-.21.62-.59,1.04-1.03,1.04-.67,0-1.21-.97-1.21-2.16s.54-2.15,1.2-2.16c.4-.05.3-.6,0-.58-.97,0-1.76,1.41-1.76,3.14s.79,3.14,1.76,3.14c.81,0,1.49-.99,1.7-2.32-.07,0-.14,0-.22,0Z"/>
          <path class="cls-2" d="M78.95,47.02c-.3-.01-.4.54,0,.58.67,0,1.2.97,1.2,2.16s-.54,2.16-1.21,2.16c-.37,0-.7-.31-.92-.79-.06.05-.12.1-.19.15-.15.09-.3.18-.46.27.29,1.03.88,1.75,1.57,1.75.97,0,1.76-1.41,1.76-3.14s-.78-3.13-1.76-3.14Z"/>
          <path class="cls-6" d="M35.32,34.55c-.16-8.93,6.51-13.57,6.51-13.57,6,10.52,22.54,14.09,37.65,8.87,0,0-1.47-25.27-25.07-23.79-23.6,1.48-19.08,28.48-19.08,28.48Z"/>
        </g>
      </g>
    </g>
  </g>
</svg>