<?xml version="1.0" encoding="UTF-8"?>
<svg id="Warstwa_2" xmlns="http://www.w3.org/2000/svg" viewBox="0 0 111.64 117.97">
  <defs>
    <style>
      .cls-1 {
        fill: #fce8e3;
      }

      .cls-2 {
        fill: #fff;
      }

      .cls-3 {
        fill: #e5cfca;
      }

      .cls-4 {
        fill: #5379f6;
      }

      .cls-5 {
        fill: #f7f8fb;
      }

      .cls-6 {
        fill: #0e0b3d;
      }
    </style>
  </defs>
  <g id="OBJECTS">
    <g>
      <circle class="cls-4" cx="55.82" cy="62.15" r="55.82" transform="translate(-17.49 102.2) rotate(-76.72)"/>
      <g>
        <rect class="cls-1" x="39.27" y="54.8" width="33.09" height="33.36"/>
        <g>
          <path class="cls-1" d="M84.74,31.38c-1.63-3.9-4.96-1.98-4.96-1.98C81.71,11.69,72.7,0,55.82,0s-25.89,11.69-23.97,29.4c0,0-3.33-1.91-4.96,1.98-1.63,3.9,1.35,13.03,3.19,15.94,1.84,2.9,5.1,2.22,5.1,2.22,0,0,.21,6.14,1.06,8.41.85,2.27,6.77,15.92,19.57,15.92s18.72-13.65,19.57-15.92c.85-2.27,1.06-8.66,1.06-8.66,0,0,3.26.94,5.1-1.97,1.84-2.9,4.82-12.04,3.19-15.94Z"/>
          <path class="cls-3" d="M55.82,74.23c-8.05,0-15.49-8.64-16.9-10.37l.58-.47c1.37,1.69,8.61,10.09,16.32,10.09s14.91-8.28,16.26-9.94l.58.47c-1.39,1.71-8.73,10.22-16.84,10.22Z"/>
          <rect class="cls-3" x="34.65" y="44.81" width=".75" height="4.73" transform="translate(-3.06 2.44) rotate(-3.82)"/>
          <rect class="cls-3" x="74.4" y="46.68" width="4.48" height=".75" transform="translate(23.65 119.71) rotate(-85.44)"/>
          <path class="cls-3" d="M29.11,40.17c-1.08-4.16-.91-6.71.53-8.04l.51.55c-1.2,1.11-1.31,3.49-.31,7.3l-.73.19Z"/>
          <path class="cls-3" d="M82.7,40.17l-.73-.19c.99-3.81.89-6.2-.31-7.3l.51-.55c1.45,1.33,1.62,3.88.53,8.04Z"/>
          <path class="cls-6" d="M83.02,12.92c-6.25-5.05-12.49-10.08-17.32-11.31-2.9-1.05-6.2-1.61-9.88-1.61-11.48,0-21.07,3.53-22.55,14.42-5.23,2.21-4.27,10.74-3.16,14.51,0,0,.89-.02,1.74.47h0c2.23,1.45,2.74,5.4,2.39,9.31,5.01.03,1.22-16.14,5.15-20.06,14.88,9.37,34.73,4.43,34.73,4.43.56,6.1-.26,15.64,3.26,15.63-.35-3.74-.36-7.83,2.39-9.31h0c.38-3.55.32-6.85-.14-9.86,1.74-1.63,3.25-3.83,3.38-6.62Z"/>
          <g>
            <path class="cls-2" d="M43.01,49.37c-5.72,0-10.37-4.65-10.37-10.37s4.65-10.37,10.37-10.37,10.37,4.65,10.37,10.37-4.65,10.37-10.37,10.37ZM43.01,29.37c-5.31,0-9.62,4.32-9.62,9.62s4.32,9.62,9.62,9.62,9.62-4.32,9.62-9.62-4.32-9.62-9.62-9.62Z"/>
            <path class="cls-2" d="M68.63,49.37c-5.72,0-10.37-4.65-10.37-10.37s4.65-10.37,10.37-10.37,10.37,4.65,10.37,10.37-4.65,10.37-10.37,10.37ZM68.63,29.37c-5.31,0-9.62,4.32-9.62,9.62s4.32,9.62,9.62,9.62,9.62-4.32,9.62-9.62-4.32-9.62-9.62-9.62Z"/>
            <path class="cls-2" d="M58.69,36.75c-1.06-.98-2.28-1.47-3.43-1.36-.92.09-1.7.54-2.27,1.31l-.6-.45c.69-.93,1.68-1.5,2.8-1.61,1.36-.13,2.79.42,4.01,1.55l-.51.55Z"/>
          </g>
        </g>
        <path class="cls-5" d="M103.53,91.14c-15.76-7.03-31.12-9.52-31.12-9.52-7.88,8.22-26.16,8.34-33.13,0,0,0-15.4,2.49-31.16,9.52,9.8,16.08,27.5,26.83,47.71,26.83s37.91-10.74,47.71-26.83Z"/>
        <path class="cls-2" d="M55.29,92.67c-9.14,0-17.07-3.76-22.12-9.62l.57-.49c9.12,10.58,27.86,14.1,46.02.36l.45.6c-8.51,6.44-17.15,9.15-24.92,9.15Z"/>
      </g>
    </g>
  </g>
</svg>