<?xml version="1.0" encoding="utf-8"?>
<!DOCTYPE svg PUBLIC "-//W3C//DTD SVG 1.0//EN" "http://www.w3.org/TR/2001/REC-SVG-20010904/DTD/svg10.dtd">
<svg version="1.0" xmlns="http://www.w3.org/2000/svg" width="512px" height="512px" viewBox="0 0 512 512" preserveAspectRatio="xMidYMid meet">
 <g fill="#ffffff">
  <path d="M255.5 490.4 c-9.2 -0.9 -28.3 -3.5 -32 -4.4 -2.2 -0.5 -7.9 -1.9 -12.6 -3 -63.5 -14.8 -120.8 -57.5 -150.9 -112.5 -1.8 -3.3 -3.6 -6.4 -4 -7 -0.4 -0.5 -2.2 -4.6 -4 -8.9 -1.7 -4.4 -3.6 -8.7 -4 -9.5 -1 -1.9 -5.1 -14.2 -7.4 -22.1 -3 -10.4 -6.4 -29.5 -7.5 -42.3 -1.5 -17 -1.4 -27.2 0.4 -45.2 5 -51.7 26.3 -97.5 61.9 -133 26.7 -26.6 54.8 -44 91.1 -56.3 11.7 -4 14.2 -4.7 27.5 -7.8 33.7 -7.7 75.9 -8.9 110 -3.3 17.3 2.9 44.9 10.9 58.7 17 6.5 2.8 21.9 10.4 26.8 13.2 4.1 2.3 5 2.9 17 10.5 6.2 4 21.8 16.1 30 23.3 1.7 1.5 4.4 3.8 6 5.3 3 2.6 3 2.6 -3 8.1 -11.6 10.9 -29.9 28 -32 30 -4.7 4.5 -31.2 29.3 -34.4 32.2 -3.4 3.1 -3.4 3.1 -15 -6.1 -25 -19.9 -42.7 -28.3 -72.6 -34.3 -10.1 -2.1 -42.5 -2.3 -53.5 -0.4 -31.8 5.5 -57.4 17.7 -76.4 36.5 -9.2 9 -14.4 15.7 -20.2 26.1 -14.3 25.5 -19.4 55.9 -14.4 85.7 4.4 26.4 15 48.1 32.4 66.5 6.7 7.1 20.4 18.2 27.1 21.9 1.1 0.6 4.2 2.3 6.8 3.8 31.3 17.3 78.5 21.5 115.2 10.2 22.1 -6.8 37.1 -15.5 60 -34.8 5.3 -4.4 7 -5.4 8 -4.5 0.6 0.7 6.1 5.7 12 11.2 6 5.5 11.3 10.5 11.9 11 0.6 0.6 4.3 3.9 8.1 7.5 17.6 16 30.5 28 36.7 34 6.8 6.5 6.8 6.5 -4.5 16.2 -21.6 18.5 -33.4 26.7 -54.1 37.2 -26.3 13.4 -51 21.3 -81.6 26.2 -10 1.6 -53.2 2.8 -63.5 1.8z"/>
 </g>
 <g fill="#ffffff">
  <path d="M259.6 337 c-20.6 -3.7 -39.8 -15.2 -51.5 -30.6 -9.7 -12.8 -16.1 -30.8 -16.1 -45.1 0.1 -6.8 2.8 -19.5 6 -27.3 7.1 -17.9 24.2 -34.6 43 -42.3 13 -5.3 17.5 -6.1 33.5 -6.1 16 0.1 20.3 0.9 34.4 6.9 17 7.1 31.4 20.7 39.5 37.1 20.8 42.3 -2.9 91.4 -51 105.5 -7.9 2.3 -29.7 3.4 -37.8 1.9z"/>
 </g>
</svg>