<?xml version="1.0" encoding="UTF-8"?>
<svg version="1.1" xmlns="http://www.w3.org/2000/svg" width="1280" height="796">
<path d="M0 0 C33 0 66 0 100 0 C100 0.66 100 1.32 100 2 C101.16402344 1.94779297 101.16402344 1.94779297 102.3515625 1.89453125 C110.99290611 1.67798207 118.62690862 2.98166532 127 5 C128.68554631 5.3430758 130.37291651 5.67739344 132.0625 6 C136.94870123 6.96606266 141.79551873 8.08181858 146.64453125 9.21875 C148.84730371 9.73161902 151.05301848 10.2320424 153.26171875 10.71875 C160.97777576 12.43136096 168.48139733 14.56634703 176 17 C177.09828125 17.35191406 177.09828125 17.35191406 178.21875 17.7109375 C180.48704808 18.45249649 182.74371307 19.22254043 185 20 C185.65645508 20.22478027 186.31291016 20.44956055 186.98925781 20.68115234 C189.28633462 21.46973851 191.58087939 22.2653578 193.875 23.0625 C194.62555664 23.32015137 195.37611328 23.57780273 196.14941406 23.84326172 C199.40067938 24.98127824 202.1192286 26.07948573 205 28 C206.99210672 28.6898951 208.99322888 29.35400146 211 30 C213.02922139 30.79131799 215.05022532 31.60402881 217.0625 32.4375 C218.06410156 32.84871094 219.06570313 33.25992188 220.09765625 33.68359375 C222.88127615 34.94615082 225.38259768 36.42955861 228 38 C229.6653323 38.66999296 231.33214491 39.3363121 233 40 C235.43346152 41.24701139 237.84575013 42.51192975 240.25 43.8125 C240.91749268 44.17142334 241.58498535 44.53034668 242.27270508 44.90014648 C247.20577841 47.55788986 252.12632807 50.23455393 257 53 C258.39798828 53.78117187 258.39798828 53.78117187 259.82421875 54.578125 C266.10972025 58.15144468 271.96695383 62.02038485 277.72265625 66.3984375 C279.99090479 68.15644767 279.99090479 68.15644767 283 69 C283.33 69.66 283.66 70.32 284 71 C285.64821244 72.03013277 287.32111559 73.02065076 289 74 C290.61256457 75.00751521 292.21624763 76.02933508 293.8125 77.0625 C294.60269531 77.56910156 295.39289062 78.07570313 296.20703125 78.59765625 C296.79871094 79.06042969 297.39039063 79.52320312 298 80 C298 80.66 298 81.32 298 82 C298.8353125 82.0928125 298.8353125 82.0928125 299.6875 82.1875 C302.31534019 83.1107952 303.57629186 84.47229007 305.453125 86.4765625 C308.67463423 89.64926098 312.41661625 92.25273912 316 95 C318.07532958 96.61367464 320.04078628 98.24173128 322 100 C322 100.66 322 101.32 322 102 C322.53625 102.226875 323.0725 102.45375 323.625 102.6875 C328.31073086 105.27698284 332.43251864 109.02088618 336 113 C336 113.66 336 114.32 336 115 C336.99 115.33 337.98 115.66 339 116 C340.68933922 117.6436814 342.35259924 119.3142876 344 121 C345.09526581 121.9066941 346.19939786 122.80279382 347.3125 123.6875 C348.199375 124.450625 349.08625 125.21375 350 126 C350 126.66 350 127.32 350 128 C350.99 128.33 351.98 128.66 353 129 C353.33 129.99 353.66 130.98 354 132 C352.87232399 133.73361778 352.87232399 133.73361778 351.10635376 135.63754272 C350.45391315 136.34524181 349.80147255 137.0529409 349.12926102 137.78208542 C345.56123328 141.49867098 341.95351502 145.16833597 338.29833984 148.79931641 C337.45678848 149.6394075 336.61523712 150.4794986 335.7481842 151.345047 C333.46288323 153.62558137 331.1754062 155.90390605 328.88706923 158.18139315 C326.48099186 160.57741118 324.07821744 162.97673635 321.67520142 165.37582397 C315.57811047 171.46186935 309.47677805 177.54365439 303.375 183.625 C296.77840771 190.19952113 290.18257576 196.7747949 283.59161723 203.35496461 C281.20486866 205.73756415 278.81705817 208.11907896 276.42673874 210.49809647 C273.76320629 213.1496498 271.10273671 215.80424176 268.44287109 218.45947266 C267.65833054 219.23884689 266.87378998 220.01822113 266.06547546 220.82121277 C262.96058605 223.92580185 259.91508135 227.01258557 257.12857056 230.40878296 C254.96048776 233.04810025 252.65837676 234.87329859 250 237 C249.175 237.99 248.35 238.98 247.5 240 C245.16481763 242.80221884 242.83099035 244.73520772 240 247 C238.30911778 248.97956942 236.64169528 250.97945196 235 253 C232.9375 255.4375 232.9375 255.4375 231 257 C227.40900451 256.63939794 225.52710533 254.96250032 222.9375 252.5625 C220.66243606 250.47083853 218.58492291 248.72328194 216 247 C216 246.34 216 245.68 216 245 C213.525 244.01 213.525 244.01 211 243 C211 242.34 211 241.68 211 241 C210.41734375 240.731875 209.8346875 240.46375 209.234375 240.1875 C206.97213399 238.98519009 205.19423682 237.66174087 203.25 236 C202.63640625 235.484375 202.0228125 234.96875 201.390625 234.4375 C200 233 200 233 200 231 C198.68 230.67 197.36 230.34 196 230 C196 229.34 196 228.68 196 228 C195.2575 227.731875 194.515 227.46375 193.75 227.1875 C191.10938051 226.04723249 189.14447156 224.90619694 187 223 C187 222.34 187 221.68 187 221 C186.46375 220.938125 185.9275 220.87625 185.375 220.8125 C182.60437429 219.86465436 180.9260165 218.28415616 178.7421875 216.3828125 C175.45199606 213.77131526 171.70301833 211.95589692 168 210 C165.77074961 208.79182113 163.54158714 207.58348004 161.3125 206.375 C153.67701518 202.25426216 145.91274139 198.55147896 138 195 C137.34515625 194.69707031 136.6903125 194.39414063 136.015625 194.08203125 C132.56509544 192.5229617 129.17194145 191.50808561 125.48828125 190.6640625 C122.16341213 189.77673479 118.93675273 188.62661309 115.6875 187.5 C110.23590736 185.62440223 104.87660942 184.2237287 99.171875 183.359375 C97 183 97 183 94 182 C91.18770517 181.63675708 88.38122371 181.30293588 85.5625 181 C84.04269638 180.83583556 82.52315239 180.66924587 81.00390625 180.5 C80.33174072 180.4278125 79.6595752 180.355625 78.96704102 180.28125 C77 180 77 180 75.15745544 179.49150085 C72.87384318 178.97125958 70.85403193 178.86629038 68.51367188 178.85473633 C67.63175171 178.84835648 66.74983154 178.84197662 65.84118652 178.83540344 C64.89328247 178.83429062 63.94537842 178.8331778 62.96875 178.83203125 C61.98185181 178.82870285 60.99495361 178.82537445 59.97814941 178.82194519 C57.88680486 178.81688322 55.79545224 178.81453664 53.70410156 178.81469727 C50.53957337 178.81252714 47.37540328 178.79440903 44.2109375 178.77539062 C34.24725968 178.74808099 24.78917454 178.9526118 15 181 C12.87820065 181.20339689 10.75318887 181.38077373 8.625 181.5 C4.40440212 181.81122132 0.99165729 182.55620906 -3 184 C-4.70391692 184.33574718 -6.41308096 184.64528053 -8.125 184.9375 C-23.76509919 187.50992066 -23.76509919 187.50992066 -38 194 C-39.5159375 194.4021875 -39.5159375 194.4021875 -41.0625 194.8125 C-45.18943268 195.90775814 -48.80093187 197.80623906 -52.5703125 199.78125 C-55 201 -55 201 -57.375 201.9140625 C-60.70635207 203.29221112 -63.76786535 205.06194312 -66.875 206.875 C-68.05989583 207.55989583 -69.24479167 208.24479167 -70.4296875 208.9296875 C-71.01371338 209.26935547 -71.59773926 209.60902344 -72.19946289 209.95898438 C-74.05972889 211.03453342 -75.92991075 212.09146501 -77.80078125 213.1484375 C-80.92707432 214.87034967 -80.92707432 214.87034967 -83.3125 216.75 C-85 218 -85 218 -87 218 C-87 218.66 -87 219.32 -87 220 C-87.639375 220.103125 -88.27875 220.20625 -88.9375 220.3125 C-89.9584375 220.6528125 -89.9584375 220.6528125 -91 221 C-91.33 221.99 -91.66 222.98 -92 224 C-93.71984423 225.35881908 -95.50066206 226.64151033 -97.3125 227.875 C-101.29161012 230.58440742 -104.08286269 233.17949114 -107 237 C-108.42593069 238.13426305 -109.85209565 239.26823891 -111.28125 240.3984375 C-114.34261034 243.25106873 -116.75394156 246.65397281 -119.265625 249.98828125 C-119.83796875 250.65214844 -120.4103125 251.31601563 -121 252 C-121.66 252 -122.32 252 -123 252 C-123.3403125 252.804375 -123.3403125 252.804375 -123.6875 253.625 C-125 256 -125 256 -127.5625 259.0625 C-130.13537799 261.80205688 -130.13537799 261.80205688 -131 265 C-131.66 265 -132.32 265 -133 265 C-133.25910156 265.71285156 -133.51820313 266.42570312 -133.78515625 267.16015625 C-135.07235797 270.16914548 -136.63674345 272.70732071 -138.4375 275.4375 C-140.87970291 279.21410244 -143.09097874 282.92163641 -145 287 C-149.51555024 296.21052632 -149.51555024 296.21052632 -151.6875 299.75 C-153.25182391 302.43169813 -154.08649019 305.03109312 -155 308 C-156.53997362 312.72872335 -158.15288734 317.38221835 -160 322 C-161.66001811 326.50189694 -163.06242841 330.95863224 -163.96484375 335.67578125 C-164.6342723 339.12196884 -165.31851443 342.56329983 -166.03515625 346 C-166.20466797 346.825 -166.37417969 347.65 -166.54882812 348.5 C-166.89143514 350.16744098 -167.23779455 351.83411533 -167.58789062 353.5 C-167.75611328 354.325 -167.92433594 355.15 -168.09765625 356 C-168.24726807 356.721875 -168.39687988 357.44375 -168.55102539 358.1875 C-169.84104833 366.26855722 -170.15888586 374.284445 -170.16796875 382.45703125 C-170.17129715 383.52185226 -170.17462555 384.58667328 -170.17805481 385.6837616 C-170.18308786 387.92336601 -170.18546426 390.16297783 -170.18530273 392.40258789 C-170.18748718 395.79260862 -170.20567653 399.18230235 -170.22460938 402.57226562 C-170.25257907 413.25314917 -170.18078668 423.50943808 -168 434 C-167.74578682 435.5094982 -167.49660536 437.01985783 -167.25390625 438.53125 C-165.05084436 451.32842474 -162.37970441 463.7438917 -158 476 C-157.7421875 476.72960937 -157.484375 477.45921875 -157.21875 478.2109375 C-155.6568716 482.50610309 -153.85432894 486.67193178 -151.97265625 490.8359375 C-151.10051583 492.77636237 -150.2624285 494.72667518 -149.4375 496.6875 C-148.06223532 499.85658817 -146.57077203 502.92390478 -145 506 C-144.54625 506.969375 -144.0925 507.93875 -143.625 508.9375 C-142.36796426 511.30652889 -141.14325316 513.24315859 -139.5625 515.375 C-137.21590726 518.54148659 -135.52024568 521.81494782 -133.89453125 525.3984375 C-133.09173378 527.18863512 -133.09173378 527.18863512 -131 528 C-129.97353945 529.6505019 -128.97847164 531.32060397 -128 533 C-126.68737021 534.88955175 -125.35322993 536.76430885 -124 538.625 C-122.9790625 540.03652344 -122.9790625 540.03652344 -121.9375 541.4765625 C-120.13073417 543.95285329 -120.13073417 543.95285329 -118.25 545.7109375 C-117 547 -117 547 -117 549 C-116.01 549.33 -115.02 549.66 -114 550 C-114 550.66 -114 551.32 -114 552 C-113.01 552.33 -112.02 552.66 -111 553 C-109.66104368 554.66215268 -108.32869858 556.32963607 -107 558 C-105.93545062 558.91807575 -104.8514876 559.81408513 -103.75 560.6875 C-102.8425 561.450625 -101.935 562.21375 -101 563 C-101 563.66 -101 564.32 -101 565 C-100.401875 565.28875 -99.80375 565.5775 -99.1875 565.875 C-97 567 -97 567 -94 569 C-94 569.66 -94 570.32 -94 571 C-93.401875 571.103125 -92.80375 571.20625 -92.1875 571.3125 C-89.63907646 572.11343311 -88.84465955 573.10572858 -87 575 C-82.26413451 578.86075991 -77.35276217 582.07113013 -72 585 C-70.33333333 586 -68.66666667 587 -67 588 C-66.34 588.33 -65.68 588.66 -65 589 C-65 589.66 -65 590.32 -65 591 C-63.77603516 591.37318359 -63.77603516 591.37318359 -62.52734375 591.75390625 C-58.38886696 593.21589307 -54.51247309 595.0341089 -50.5625 596.9375 C-42.5055615 600.79766876 -34.52533248 604.29558939 -26 607 C-24.96101563 607.33257813 -23.92203125 607.66515625 -22.8515625 608.0078125 C-16.60254198 609.97428749 -10.40998442 611.65597101 -4 613 C-3.01 613.33 -2.02 613.66 -1 614 C1.45797196 614.36163266 3.91005177 614.69545041 6.375 615 C13.58572778 615.91022994 13.58572778 615.91022994 16.43359375 616.52734375 C20.16338228 617.21426066 23.90654521 617.37996856 27.6875 617.5625 C28.97853638 617.6251001 28.97853638 617.6251001 30.2956543 617.68896484 C58.70123671 619.28582714 58.70123671 619.28582714 86.70703125 615.53125 C89.55802592 614.87071291 92.4152794 614.47393961 95.3125 614.0625 C108.32965194 612.10992721 120.95827849 608.46219442 132.9140625 602.9375 C135.59628942 601.73200476 138.33441461 600.72769504 141.09375 599.71484375 C148.46416005 596.95093998 155.26798316 593.52630171 161.88671875 589.30078125 C163.92831954 588.04412124 166.00302625 586.92663464 168.125 585.8125 C178.33978955 580.19259848 187.46165087 572.88434792 196 565 C200.7 561 200.7 561 203 561 C203 560.34 203 559.68 203 559 C207.47058824 555 207.47058824 555 210 555 C210.33 554.01 210.66 553.02 211 552 C212.77734375 550.17578125 212.77734375 550.17578125 214.9375 548.3125 C215.64777344 547.68988281 216.35804688 547.06726563 217.08984375 546.42578125 C219 545 219 545 221 545 C221 544.34 221 543.68 221 543 C223.16262568 540.17195103 224.42280619 539.12280719 227.9375 538.375 C231.54610882 539.11145078 232.57819737 540.41739409 234.69921875 543.33984375 C236.08518211 545.10871591 237.54803474 546.36570056 239.3125 547.75 C240.199375 548.4925 241.08625 549.235 242 550 C242 550.66 242 551.32 242 552 C242.99 552.33 243.98 552.66 245 553 C247.1875 554.9375 247.1875 554.9375 249 557 C249 557.66 249 558.32 249 559 C249.598125 559.268125 250.19625 559.53625 250.8125 559.8125 C252.99847854 560.99917406 254.41332594 562.09599113 256 564 C256 564.66 256 565.32 256 566 C256.56328506 566.23764069 257.12657013 566.47528137 257.70692444 566.72012329 C260.51735292 568.28875976 262.42258215 570.19055774 264.68920898 572.47802734 C265.61374374 573.40594086 266.5382785 574.33385437 267.49082947 575.28988647 C268.49261299 576.30520843 269.49436703 577.32055949 270.49609375 578.3359375 C271.53163816 579.37775741 272.5677028 580.41906045 273.60426331 581.45986938 C276.33066079 584.19955673 279.05143787 586.94475232 281.77062988 589.69158936 C286.11777893 594.08187562 290.47161032 598.46550799 294.82881355 602.84581375 C296.34505374 604.37222285 297.85780152 605.9020298 299.370224 607.43222046 C300.29791092 608.36643829 301.22559784 609.30065613 302.18139648 610.26318359 C302.99317856 611.08321869 303.80496063 611.90325378 304.64134216 612.74813843 C306.98928682 615.05549541 306.98928682 615.05549541 309.68006897 617.14370728 C312 619 312 619 313.9375 621.4375 C316.33246245 624.4130594 319.04002051 626.59501666 322 629 C324.375 631.1875 324.375 631.1875 326 633 C326 633.66 326 634.32 326 635 C326.99 635.33 327.98 635.66 329 636 C330.35386936 637.65002828 331.68678142 639.3174387 333 641 C333.99 641.66 334.98 642.32 336 643 C336 643.66 336 644.32 336 645 C336.99 645.33 337.98 645.66 339 646 C340.35386936 647.65002828 341.68678142 649.3174387 343 651 C343.99 651.66 344.98 652.32 346 653 C346 653.66 346 654.32 346 655 C346.99 655.33 347.98 655.66 349 656 C349 656.66 349 657.32 349 658 C350.32 658.66 351.64 659.32 353 660 C353 660.66 353 661.32 353 662 C353.99 661.67 354.98 661.34 356 661 C356 662.98 356 664.96 356 667 C354.02 667.33 352.04 667.66 350 668 C349.67 668.99 349.34 669.98 349 671 C347.109375 672.61328125 347.109375 672.61328125 344.75 674.3125 C341.97437489 676.39640781 339.51918346 678.32830633 337.375 681.0625 C334.61304351 684.47860408 331.58893372 687.45068184 328 690 C327.34 690 326.68 690 326 690 C325.34 691.32 324.68 692.64 324 694 C323.34 694 322.68 694 322 694 C322 694.66 322 695.32 322 696 C320.5390625 697.5078125 320.5390625 697.5078125 318.625 699.125 C317.68527344 699.93324219 317.68527344 699.93324219 316.7265625 700.7578125 C315 702 315 702 313 702 C313 702.66 313 703.32 313 704 C312.01 704.33 311.02 704.66 310 705 C308.85298645 706.15761441 307.70869961 707.31808009 306.57958984 708.49316406 C303.28262131 711.6382784 299.49501147 714.20465763 295.8125 716.875 C294.96187988 717.49632812 294.11125977 718.11765625 293.23486328 718.7578125 C287.53880801 722.90911939 281.82497235 727.03086599 276 731 C275.24847656 731.51820313 274.49695313 732.03640625 273.72265625 732.5703125 C269.22568174 735.62979259 264.65597915 738.37778881 259.84765625 740.921875 C257.84494937 741.98547317 257.84494937 741.98547317 256 744 C255.29875 744.268125 254.5975 744.53625 253.875 744.8125 C251.42641874 745.82387052 249.56949561 746.87348649 247.375 748.3125 C243.27024357 750.94794021 238.98323499 752.91464106 234.52734375 754.8828125 C231.63307022 756.16219771 228.81810418 757.56096808 226 759 C224.31382284 759.85677508 222.62619664 760.71070155 220.9375 761.5625 C220.12152344 761.97628906 219.30554688 762.39007812 218.46484375 762.81640625 C216.00994481 763.9952246 213.53511368 765.00682284 211 766 C208.00969889 767.25568499 205.02191977 768.5171746 202.03515625 769.78125 C199.0529623 770.97873328 196.05743279 772.01253184 193 773 C192.26136719 773.24621094 191.52273438 773.49242187 190.76171875 773.74609375 C189.29062479 774.2364584 187.81924082 774.72595338 186.34765625 775.21484375 C184.83251608 775.72157116 183.31932187 776.23417269 181.80859375 776.75390625 C176.74960344 778.48247002 171.66073977 779.93080673 166.48046875 781.25390625 C164.02014111 781.91532473 164.02014111 781.91532473 161.95703125 783.03125 C159.78402667 784.10690895 157.8850835 784.52011039 155.5 784.9375 C145.47715322 786.60319557 145.47715322 786.60319557 136 790 C133.81737861 790.34492954 131.62862168 790.65149598 129.4375 790.9375 C125.36484465 791.48797069 121.41134874 792.07964054 117.4375 793.125 C111.7088003 794.51377569 105.85387516 794.16285897 100 794 C100 794.66 100 795.32 100 796 C67.99 796 35.98 796 3 796 C3 795.34 3 794.68 3 794 C2.16339844 794.03480469 1.32679688 794.06960938 0.46484375 794.10546875 C-8.77859655 794.32043248 -16.9772892 793.0649496 -26 791 C-27.72769696 790.63873193 -29.45671222 790.28365756 -31.1875 789.9375 C-31.95835937 789.78152344 -32.72921875 789.62554688 -33.5234375 789.46484375 C-37.41281655 788.73481834 -41.32475465 788.14770024 -45.23828125 787.5625 C-48.01989501 786.99594783 -50.37312378 786.05735898 -53 785 C-54.80369951 784.62193198 -56.61742807 784.28914618 -58.4375 784 C-62.47702198 783.35643462 -66.1394889 782.35387683 -70 781 C-71.06734375 780.64421875 -72.1346875 780.2884375 -73.234375 779.921875 C-75.05139193 779.31620269 -76.86834329 778.71032819 -78.68432617 778.1015625 C-82.32534185 776.88278317 -85.97172222 775.68506894 -89.62890625 774.515625 C-96.88715055 772.17735298 -103.83937292 769.84788972 -110.57421875 766.21875 C-113.52197525 764.73775157 -116.53650126 763.59524581 -119.625 762.4375 C-124.61095491 760.56050299 -129.31312459 758.52109905 -134 756 C-135.04414063 755.45085938 -136.08828125 754.90171875 -137.1640625 754.3359375 C-142.63057611 751.43609393 -147.85543277 748.44189086 -153 745 C-153.78375 744.690625 -154.5675 744.38125 -155.375 744.0625 C-159.21689895 742.50744566 -162.52297346 740.23815322 -166 738 C-166.94230469 737.41347656 -167.88460937 736.82695313 -168.85546875 736.22265625 C-170.31919922 735.30806641 -170.31919922 735.30806641 -171.8125 734.375 C-172.72644531 733.80523438 -173.64039063 733.23546875 -174.58203125 732.6484375 C-177 731 -177 731 -178.53125 729.45703125 C-180.39011894 727.61299371 -182.38437209 726.54751062 -184.6875 725.3125 C-185.49574219 724.87550781 -186.30398438 724.43851563 -187.13671875 723.98828125 C-187.75160156 723.66214844 -188.36648438 723.33601562 -189 723 C-189 722.34 -189 721.68 -189 721 C-190.32 720.67 -191.64 720.34 -193 720 C-193 719.34 -193 718.68 -193 718 C-193.72960937 717.7525 -194.45921875 717.505 -195.2109375 717.25 C-198.26848452 715.8796708 -200.18466414 714.28100121 -202.625 712 C-205.04266466 709.75561506 -207.24663477 707.83557682 -210 706 C-210 705.34 -210 704.68 -210 704 C-210.99 704 -211.98 704 -213 704 C-214.18171622 702.88581042 -215.35395897 701.75878638 -216.4609375 700.5703125 C-218.94439157 698.03643297 -221.70246573 695.82104983 -224.42578125 693.55078125 C-224.94527344 693.03902344 -225.46476562 692.52726563 -226 692 C-226 691.34 -226 690.68 -226 690 C-226.99 689.67 -227.98 689.34 -229 689 C-229 688.34 -229 687.68 -229 687 C-229.598125 686.731875 -230.19625 686.46375 -230.8125 686.1875 C-232.99847854 685.00082594 -234.41332594 683.90400887 -236 682 C-236 681.34 -236 680.68 -236 680 C-236.99 679.67 -237.98 679.34 -239 679 C-240.36639342 677.3603279 -241.6949419 675.68889872 -243 674 C-243.7425 673.2575 -244.485 672.515 -245.25 671.75 C-252.36307702 664.63692298 -258.70705194 656.83593052 -265 649 C-265.69609375 648.13737549 -265.69609375 648.13737549 -266.40625 647.25732422 C-267.88093904 645.42621931 -269.34770465 643.58902567 -270.8125 641.75 C-271.26858643 641.18385986 -271.72467285 640.61771973 -272.19458008 640.03442383 C-275.22713124 636.20056838 -277.61215962 632.26400068 -280 628 C-280.94828661 626.68549529 -281.92324784 625.38930325 -282.9375 624.125 C-285.65994739 620.58926453 -287.83126417 616.91778582 -289.921875 612.98046875 C-291.07885028 610.78491137 -291.07885028 610.78491137 -293 608 C-293 607.01 -293 606.02 -293 605 C-293.99 604.67 -294.98 604.34 -296 604 C-296.70105843 602.34750513 -297.35800351 600.67632417 -298 599 C-298.8109573 597.65294006 -299.64634716 596.32041624 -300.5 595 C-302.3787714 592.06647974 -303.79240136 589.27776773 -305 586 C-305.98126556 583.99074195 -306.9849911 581.99242489 -308 580 C-308.85667014 578.31376953 -309.71064868 576.62616997 -310.5625 574.9375 C-310.97628906 574.12152344 -311.39007813 573.30554688 -311.81640625 572.46484375 C-312.9944588 570.01153959 -314.01168432 567.534885 -315 565 C-316.28431959 561.96433552 -317.57273843 558.93607515 -318.94140625 555.9375 C-322.62596983 547.84590939 -325.68728254 539.59009343 -328 531 C-329.0152679 527.27735103 -330.10310675 523.65651679 -331.5 520.0625 C-333.0091922 516.1159624 -334.03348546 512.10768681 -335 508 C-335.499133 506.04144551 -335.99919978 504.08312885 -336.5 502.125 C-337.62920105 497.6194878 -338.5958542 493.11166183 -339.46875 488.55078125 C-340.05516532 485.73512533 -340.77078009 482.96947397 -341.5 480.1875 C-342.87852702 474.79871255 -343.7926411 469.41525118 -344.5703125 463.91015625 C-344.82516564 462.18410544 -345.11812518 460.46187824 -345.49221802 458.75769043 C-347.84153759 445.99887598 -347.14898088 432.45397905 -347.1328125 419.53125 C-347.13348853 417.59704578 -347.13446103 415.66284163 -347.13571167 413.7286377 C-347.13717459 409.70140768 -347.13507978 405.67420004 -347.13037109 401.64697266 C-347.1246747 396.53049181 -347.1279613 391.41406346 -347.13394356 386.29758453 C-347.13758742 382.31145851 -347.13639317 378.32534457 -347.13381577 374.33921814 C-347.13315703 372.45450331 -347.13393724 370.56978732 -347.13629532 368.68507385 C-347.16635753 337.91919017 -347.16635753 337.91919017 -344.53515625 329.1875 C-343.45545318 324.7741152 -343.08789182 320.19164323 -342.5625 315.68359375 C-341.99820004 311.98821277 -341.07184106 308.57700684 -340 305 C-339.66429548 303.46321933 -339.34941931 301.92163172 -339.0625 300.375 C-337.11171432 290.41259068 -334.68801541 280.64398595 -331.9375 270.875 C-331.68000977 269.94969482 -331.42251953 269.02438965 -331.15722656 268.07104492 C-330.90811523 267.19939697 -330.65900391 266.32774902 -330.40234375 265.4296875 C-330.18054443 264.64835449 -329.95874512 263.86702148 -329.73022461 263.06201172 C-329 261 -329 261 -327 258 C-326.5063579 256.09125055 -326.01697981 254.18109116 -325.56640625 252.26171875 C-324.29395023 247.18067024 -322.91519772 242.37279658 -320 238 C-319.31974363 236.00458132 -318.65509503 234.00382009 -318 232 C-315.96405664 226.95861643 -313.59287906 222.15599455 -311.0859375 217.33203125 C-310.09791951 215.21028038 -309.47260863 213.28427504 -309 211 C-308.34 211 -307.68 211 -307 211 C-306.79375 210.0925 -306.5875 209.185 -306.375 208.25 C-304.7603156 202.49175049 -301.7554744 197.27699342 -299 192 C-298.34 192 -297.68 192 -297 192 C-296.73316406 191.113125 -296.46632813 190.22625 -296.19140625 189.3125 C-295.05786979 186.16089699 -293.77640982 183.78227491 -291.9375 181 C-291.32132812 180.05769531 -290.70515625 179.11539063 -290.0703125 178.14453125 C-289.38710938 177.10683594 -288.70390625 176.06914062 -288 175 C-286.43192748 172.56606708 -284.8730209 170.1262796 -283.3125 167.6875 C-281.88102955 165.45429332 -280.44238272 163.22622841 -279 161 C-278.64083496 160.4220166 -278.28166992 159.8440332 -277.91162109 159.24853516 C-276.9925923 157.79839865 -276.00187427 156.39418714 -275 155 C-274.34 155 -273.68 155 -273 155 C-272.90589844 154.43796875 -272.81179688 153.8759375 -272.71484375 153.296875 C-271.8240591 150.43468169 -270.41128118 148.60229539 -268.5625 146.25 C-267.63630859 145.05117188 -267.63630859 145.05117188 -266.69140625 143.828125 C-266.13324219 143.22484375 -265.57507813 142.6215625 -265 142 C-264.34 142 -263.68 142 -263 142 C-262.62488281 141.16275391 -262.62488281 141.16275391 -262.2421875 140.30859375 C-260.79552582 137.61998666 -259.05579053 135.42680765 -257.125 133.0625 C-256.44695312 132.22847656 -255.76890625 131.39445313 -255.0703125 130.53515625 C-254.38710938 129.69855469 -253.70390625 128.86195313 -253 128 C-252.29875 127.11828125 -251.5975 126.2365625 -250.875 125.328125 C-249.03401347 123.0422334 -247.18202464 120.96382217 -245 119 C-244.34 119 -243.68 119 -243 119 C-242.505 117.515 -242.505 117.515 -242 116 C-240.0625 113.8125 -240.0625 113.8125 -238 112 C-237.34 112 -236.68 112 -236 112 C-235.505 110.515 -235.505 110.515 -235 109 C-234.34 109 -233.68 109 -233 109 C-232.505 107.515 -232.505 107.515 -232 106 C-230.3603279 104.63360658 -228.68889872 103.3050581 -227 102 C-226.2575 101.2575 -225.515 100.515 -224.75 99.75 C-219.2294159 94.2294159 -213.56660524 89.22138908 -207 85 C-206.4225 84.4225 -205.845 83.845 -205.25 83.25 C-204.63125 82.63125 -204.63125 82.63125 -204 82 C-203.34 82 -202.68 82 -202 82 C-201.67 81.01 -201.34 80.02 -201 79 C-198.9375 78.3125 -198.9375 78.3125 -197 78 C-197 77.34 -197 76.68 -197 76 C-195.34765625 74.703125 -195.34765625 74.703125 -193.0625 73.25 C-192.24136719 72.72019531 -191.42023438 72.19039063 -190.57421875 71.64453125 C-189.29998047 70.83048828 -189.29998047 70.83048828 -188 70 C-186.45564622 68.9832364 -184.91387642 67.96253472 -183.375 66.9375 C-182.63121094 66.44378906 -181.88742187 65.95007813 -181.12109375 65.44140625 C-179.1898007 64.12898059 -177.31281772 62.76554171 -175.4375 61.375 C-166.60740291 55 -166.60740291 55 -162 55 C-162 54.34 -162 53.68 -162 53 C-158.07407404 50.94356259 -154.23429756 49.31061591 -150 48 C-150 47.34 -150 46.68 -150 46 C-148.77217138 45.37237545 -147.54266164 44.74803935 -146.3125 44.125 C-145.62800781 43.77695312 -144.94351563 43.42890625 -144.23828125 43.0703125 C-142.68902326 42.32948058 -141.11128281 41.64646942 -139.515625 41.01171875 C-137.06858507 40.02758312 -134.77702968 38.90278868 -132.4375 37.6875 C-127.72961136 35.30914441 -122.94162622 33.24053553 -118.05859375 31.25 C-116.06407708 30.43487186 -114.07657653 29.60229406 -112.09765625 28.75 C-104.20788423 25.36110463 -96.16056141 22.64018163 -88 20 C-86.520194 19.50189537 -85.04091759 19.00221056 -83.5625 18.5 C-63.79641721 11.93631027 -63.79641721 11.93631027 -54 10 C-51.68710343 9.50183766 -49.37463892 9.00166709 -47.0625 8.5 C-41.38256561 7.28892657 -35.70378945 6.09322631 -30 5 C-29.38253906 4.87592773 -28.76507812 4.75185547 -28.12890625 4.62402344 C-18.65013435 2.72916497 -9.71911376 1.54362422 0 2 C0 1.34 0 0.68 0 0 Z " fill="#0C323C" transform="translate(607,0)"/>
<path d="M0 0 C1.68680703 0.54382081 3.37418638 1.08587464 5.0625 1.625 C8.80484021 2.88444142 12.39558853 4.38951828 16 6 C16 6.66 16 7.32 16 8 C16.721875 8.103125 17.44375 8.20625 18.1875 8.3125 C21.25958758 9.06345474 23.36003721 10.2875917 26 12 C26.66 12.33 27.32 12.66 28 13 C28 13.66 28 14.32 28 15 C28.70125 15.24105469 29.4025 15.48210937 30.125 15.73046875 C33.47602659 17.21020196 36.08302313 19.09872291 39 21.3125 C40.010625 22.07175781 41.02125 22.83101563 42.0625 23.61328125 C46.109181 26.90120956 49.67275513 30.49218232 53 34.5 C54.79029468 36.62454407 56.5667393 38.55291639 58.5625 40.5 C66 48.12820513 66 48.12820513 66 52 C66.99 52.33 67.98 52.66 69 53 C70.46484375 55.22265625 70.46484375 55.22265625 71.9375 58.0625 C72.45699219 59.05636719 72.97648438 60.05023438 73.51171875 61.07421875 C74.00285156 62.03972656 74.49398437 63.00523437 75 64 C75.39832031 64.76957031 75.79664063 65.53914063 76.20703125 66.33203125 C79.45716311 72.69839441 81.77225229 79.21989827 84 86 C84.33 86.969375 84.66 87.93875 85 88.9375 C85.33 89.948125 85.66 90.95875 86 92 C86.24878906 92.66902344 86.49757813 93.33804688 86.75390625 94.02734375 C94.2101014 115.67552388 91.73512264 146.52385424 85 168 C84.34 168.99 83.68 169.98 83 171 C82.32741333 173.33163378 81.66152556 175.6652039 81 178 C78.34358387 184.99056877 74.63324093 191.47668107 71 198 C70.4740625 198.95648438 69.948125 199.91296875 69.40625 200.8984375 C68.9421875 201.59195313 68.478125 202.28546875 68 203 C67.34 203 66.68 203 66 203 C65.814375 203.9590625 65.814375 203.9590625 65.625 204.9375 C65.41875 205.618125 65.2125 206.29875 65 207 C64.34 207.33 63.68 207.66 63 208 C62.17628906 209.52173828 62.17628906 209.52173828 61.3359375 211.07421875 C58.79039405 215.67613901 55.3505697 219.14167228 51.625 222.8125 C50.92544189 223.50666016 50.22588379 224.20082031 49.50512695 224.91601562 C32.94885288 241 32.94885288 241 26 241 C26 241.66 26 242.32 26 243 C23.03 243.99 23.03 243.99 20 245 C20 245.66 20 246.32 20 247 C18.50919922 247.63615234 18.50919922 247.63615234 16.98828125 248.28515625 C14.3917872 249.39552052 11.80842516 250.53094657 9.23046875 251.68359375 C-16.41460616 262.94496109 -47.73255654 267.26049792 -74.8359375 258.65625 C-76.91209794 258.02665622 -78.84897074 257.68535522 -81 257.4375 C-84 257 -84 257 -87 255 C-88.61261719 254.54560547 -88.61261719 254.54560547 -90.2578125 254.08203125 C-96.5594443 252.25995191 -102.20484358 249.01982495 -108 246 C-108.83144531 245.58621094 -109.66289063 245.17242188 -110.51953125 244.74609375 C-116.03189031 241.89555852 -120.60401873 238.21755459 -125.3359375 234.21875 C-128.33507324 231.72093607 -131.4457268 229.43597173 -134.63671875 227.19140625 C-135.31154297 226.60166016 -135.31154297 226.60166016 -136 226 C-136 225.34 -136 224.68 -136 224 C-137.32 223.34 -138.64 222.68 -140 222 C-140 221.34 -140 220.68 -140 220 C-140.99 219.67 -141.98 219.34 -143 219 C-147.65865849 214.56832951 -150.92985116 209.59205681 -154 204 C-154.72896484 203.27296875 -154.72896484 203.27296875 -155.47265625 202.53125 C-158.42795122 199.56839674 -160.07875982 195.6807433 -162 192 C-162.32226562 191.3827002 -162.64453125 190.76540039 -162.9765625 190.12939453 C-164.05634284 188.04931769 -165.12372815 185.96330523 -166.1875 183.875 C-166.53256592 183.20637939 -166.87763184 182.53775879 -167.2331543 181.84887695 C-169.35935103 177.6240694 -170.77460896 173.56472683 -172 169 C-172.33 168.67 -172.66 168.34 -173 168 C-173.80858109 164.69772764 -174.37107872 161.34057462 -175 158 C-175.17789063 157.14792969 -175.35578125 156.29585937 -175.5390625 155.41796875 C-177.0993848 147.65128985 -177.65476829 139.90664813 -178 132 C-178.04253906 131.04738281 -178.08507812 130.09476563 -178.12890625 129.11328125 C-178.27307754 122.37567652 -177.72033056 115.70530208 -177.125 109 C-177.00741333 107.61820557 -177.00741333 107.61820557 -176.88745117 106.20849609 C-176.76140503 104.89872803 -176.76140503 104.89872803 -176.6328125 103.5625 C-176.55949707 102.78003906 -176.48618164 101.99757813 -176.41064453 101.19140625 C-175.96806203 98.82956287 -175.13514009 97.10540728 -174 95 C-173.64249764 93.61500938 -173.33120099 92.21742232 -173.0625 90.8125 C-171.46054697 83.28332074 -169.12615384 76.77296908 -165.18359375 70.140625 C-163.93780956 68.00226166 -163.93780956 68.00226166 -163.06640625 65.58203125 C-161.84086028 62.61468368 -160.26093354 60.11993902 -158.5 57.4375 C-156.02906498 53.67861787 -156.02906498 53.67861787 -153.90625 49.72265625 C-153 48 -153 48 -151 47 C-150.566875 46.278125 -150.13375 45.55625 -149.6875 44.8125 C-146.8187723 40.03128717 -143.15374329 35.72404571 -139 32 C-138.34 32 -137.68 32 -137 32 C-136.67 31.01 -136.34 30.02 -136 29 C-133.671875 26.80859375 -133.671875 26.80859375 -130.75 24.4375 C-129.79609375 23.65246094 -128.8421875 22.86742187 -127.859375 22.05859375 C-125.25696635 20.18500173 -123.02038092 19.01965414 -120 18 C-120 17.34 -120 16.68 -120 16 C-116.87417737 13.69056869 -113.3838893 11.90265539 -110 10 C-109.4323291 9.67128906 -108.8646582 9.34257812 -108.27978516 9.00390625 C-100.55769386 4.54197288 -93.22499381 1.08379303 -84.51171875 -1.11328125 C-81.71085292 -1.82050766 -79.01102203 -2.62554174 -76.26171875 -3.5 C-70.93604896 -5.11199972 -65.63641206 -5.98305196 -60.125 -6.6875 C-59.15248291 -6.8127002 -58.17996582 -6.93790039 -57.17797852 -7.06689453 C-37.45495434 -9.49408964 -18.66842034 -6.57369002 0 0 Z " fill="#FF1212" transform="translate(694,270)"/>
</svg>
