<?xml version="1.0" encoding="UTF-8" standalone="no"?>
<!-- Created with Inkscape (http://www.inkscape.org/) -->

<svg
   xmlns:dc="http://purl.org/dc/elements/1.1/"
   xmlns:cc="http://creativecommons.org/ns#"
   xmlns:rdf="http://www.w3.org/1999/02/22-rdf-syntax-ns#"
   xmlns:svg="http://www.w3.org/2000/svg"
   xmlns="http://www.w3.org/2000/svg"
   xmlns:sodipodi="http://sodipodi.sourceforge.net/DTD/sodipodi-0.dtd"
   xmlns:inkscape="http://www.inkscape.org/namespaces/inkscape"
   version="1.1"
   id="svg2"
   xml:space="preserve"
   width="263.71783"
   height="296.16959"
   viewBox="0 0 263.71783 296.16958"
   sodipodi:docname="logo.svg"
   inkscape:version="0.92.3 (2405546, 2018-03-11)"><metadata
     id="metadata8"><rdf:RDF><cc:Work
         rdf:about=""><dc:format>image/svg+xml</dc:format><dc:type
           rdf:resource="http://purl.org/dc/dcmitype/StillImage" /><dc:title></dc:title></cc:Work></rdf:RDF></metadata><defs
     id="defs6"><clipPath
       clipPathUnits="userSpaceOnUse"
       id="clipPath18"><path
         d="M 0,595.28 H 841.89 V 0 H 0 Z"
         id="path16"
         inkscape:connector-curvature="0" /></clipPath></defs><sodipodi:namedview
     pagecolor="#ffffff"
     bordercolor="#666666"
     borderopacity="1"
     objecttolerance="10"
     gridtolerance="10"
     guidetolerance="10"
     inkscape:pageopacity="0"
     inkscape:pageshadow="2"
     inkscape:window-width="1920"
     inkscape:window-height="1050"
     id="namedview4"
     showgrid="false"
     inkscape:zoom="3.2353102"
     inkscape:cx="154.84846"
     inkscape:cy="159.14856"
     inkscape:window-x="1920"
     inkscape:window-y="0"
     inkscape:window-maximized="1"
     inkscape:current-layer="g14"
     fit-margin-top="50"
     fit-margin-left="50"
     fit-margin-right="50"
     fit-margin-bottom="50" /><g
     id="g10"
     inkscape:groupmode="layer"
     inkscape:label="Logo 1"
     transform="matrix(1.3333333,0,0,-1.3333333,-158.53371,599.92619)"><g
       id="g12"><g
         id="g14"
         clip-path="url(#clipPath18)"
         transform="translate(3.278388,13.113552)"><path
           style="fill:#ffffff;fill-opacity:1;stroke:none;stroke-width:0.75px;stroke-linecap:butt;stroke-linejoin:miter;stroke-opacity:1"
           d="m 182.15339,382.77126 h 69.77693 l 18.77718,-24.5726 v -26.65897 l -15.76356,-15.29992 15.53174,-16.69083 V 258.0537 H 158.73987 v 98.29042 z"
           id="path910"
           inkscape:connector-curvature="0" /><g
           id="g20"
           transform="translate(325.7881,310.1064)" /><g
           id="g26"
           transform="translate(445.6787,280.6133)" /><g
           id="g30"
           transform="translate(473.9473,337.1514)" /><g
           id="g40"
           transform="translate(664.6201,309.0986)" /><g
           id="g46"
           transform="translate(164.5469,263.6299)"><path
             d="M 0,0 H 31.509 V 93.266 L 15.977,109.732 0,93.224 Z M 37.222,-11.426 H -5.712 c -3.156,0 -5.713,2.559 -5.713,5.713 V 95.536 c 0,1.483 0.576,2.907 1.608,3.972 l 21.742,22.466 c 1.085,1.121 2.568,1.719 4.141,1.74 1.561,-0.01 3.049,-0.658 4.119,-1.793 L 41.377,99.456 c 1,-1.06 1.557,-2.463 1.557,-3.92 V -5.713 c 0,-3.154 -2.558,-5.713 -5.712,-5.713"
             style="fill:#527aba;fill-opacity:1;fill-rule:nonzero;stroke:none"
             id="path48"
             inkscape:connector-curvature="0" /></g><g
           id="g50"
           transform="translate(270.1978,252.2305)"><path
             d="m 0,0 h -68.524 c -3.155,0 -5.712,2.558 -5.712,5.712 v 98.425 c 0,3.155 2.557,5.713 5.712,5.713 3.155,0 5.712,-2.558 5.712,-5.713 V 11.425 h 57.099 v 34.32 l -14.436,14.588 c -1.079,1.09 -1.674,2.566 -1.652,4.1 0.021,1.532 0.659,2.992 1.768,4.05 l 14.32,13.667 v 25.818 c 0,3.155 2.558,5.713 5.713,5.713 3.155,0 5.712,-2.558 5.712,-5.713 V 79.705 c 0,-1.561 -0.639,-3.055 -1.768,-4.133 L -7.937,64.234 4.06,52.113 C 5.119,51.044 5.712,49.599 5.712,48.095 V 5.712 C 5.712,2.558 3.155,0 0,0"
             style="fill:#527aba;fill-opacity:1;fill-rule:nonzero;stroke:none"
             id="path52"
             inkscape:connector-curvature="0" /></g><g
           id="g54"
           transform="translate(270.2012,354.4854)"><path
             d="m 0,0 c -1.659,0 -3.304,0.719 -4.434,2.106 l -16.67,20.472 -67.255,-0.086 h -0.007 c -3.152,0 -5.708,2.552 -5.713,5.705 -0.004,3.155 2.551,5.716 5.705,5.72 l 69.976,0.09 h 0.007 c 1.718,0 3.345,-0.774 4.43,-2.106 L 4.426,9.32 C 6.418,6.874 6.05,3.275 3.604,1.283 2.544,0.42 1.268,0 0,0"
             style="fill:#527aba;fill-opacity:1;fill-rule:nonzero;stroke:none"
             id="path56"
             inkscape:connector-curvature="0" /></g><g
           id="g58"
           transform="translate(252.2925,376.9771)"><path
             d="m 0,0 h -70.458 c -3.155,0 -5.712,2.558 -5.712,5.712 v 10.929 c 0,3.155 2.557,5.713 5.712,5.713 H 0 c 3.155,0 5.712,-2.558 5.712,-5.713 V 5.712 C 5.712,2.558 3.155,0 0,0"
             style="fill:#527aba;fill-opacity:1;fill-rule:nonzero;stroke:none"
             id="path60"
             inkscape:connector-curvature="0" /></g><rect
           style="opacity:0;fill:#782121;fill-opacity:0;stroke:#000000;stroke-width:0.02993997;stroke-miterlimit:4;stroke-dasharray:none;stroke-opacity:1"
           id="rect906"
           width="22.93828"
           height="57.768593"
           x="164.54691"
           y="-356.85388"
           transform="scale(1,-1)" /></g></g></g></svg>