<svg width="215" height="215" viewBox="0 0 215 215" fill="none" xmlns="http://www.w3.org/2000/svg">
<path d="M10.8927 9.26679V5.2024C10.8927 4.98682 10.807 4.78006 10.6546 4.62761C10.5021 4.47517 10.2954 4.38953 10.0798 4.38953C9.8642 4.38953 9.65744 4.47517 9.505 4.62761C9.35255 4.78006 9.26691 4.98682 9.26691 5.2024V9.26679H5.20253C4.98694 9.26679 4.78018 9.35243 4.62773 9.50488C4.47529 9.65732 4.38965 9.86408 4.38965 10.0797C4.38965 10.2953 4.47529 10.502 4.62773 10.6545C4.78018 10.8069 4.98694 10.8925 5.20253 10.8925H9.26691V14.9569C9.26691 15.1725 9.35255 15.3793 9.505 15.5317C9.65744 15.6842 9.8642 15.7698 10.0798 15.7698C10.2954 15.7698 10.5021 15.6842 10.6546 15.5317C10.807 15.3793 10.8927 15.1725 10.8927 14.9569V10.8925H14.9571C15.1726 10.8925 15.3794 10.8069 15.5318 10.6545C15.6843 10.502 15.7699 10.2953 15.7699 10.0797C15.7699 9.86408 15.6843 9.65732 15.5318 9.50488C15.3794 9.35243 15.1726 9.26679 14.9571 9.26679H10.8927Z" fill="#E2E8F0"/>
<path d="M49.9107 9.26679V5.2024C49.9107 4.98682 49.8251 4.78006 49.6726 4.62761C49.5202 4.47517 49.3134 4.38953 49.0979 4.38953C48.8823 4.38953 48.6755 4.47517 48.5231 4.62761C48.3706 4.78006 48.285 4.98682 48.285 5.2024V9.26679H44.2206C44.005 9.26679 43.7982 9.35243 43.6458 9.50488C43.4934 9.65732 43.4077 9.86408 43.4077 10.0797C43.4077 10.2953 43.4934 10.502 43.6458 10.6545C43.7982 10.8069 44.005 10.8925 44.2206 10.8925H48.285V14.9569C48.285 15.1725 48.3706 15.3793 48.5231 15.5317C48.6755 15.6842 48.8823 15.7698 49.0979 15.7698C49.3134 15.7698 49.5202 15.6842 49.6726 15.5317C49.8251 15.3793 49.9107 15.1725 49.9107 14.9569V10.8925H53.9751C54.1907 10.8925 54.3975 10.8069 54.5499 10.6545C54.7024 10.502 54.788 10.2953 54.788 10.0797C54.788 9.86408 54.7024 9.65732 54.5499 9.50488C54.3975 9.35243 54.1907 9.26679 53.9751 9.26679H49.9107Z" fill="#E2E8F0"/>
<path d="M88.9288 9.26679V5.2024C88.9288 4.98682 88.8432 4.78006 88.6907 4.62761C88.5383 4.47517 88.3315 4.38953 88.1159 4.38953C87.9003 4.38953 87.6936 4.47517 87.5411 4.62761C87.3887 4.78006 87.303 4.98682 87.303 5.2024V9.26679H83.2387C83.0231 9.26679 82.8163 9.35243 82.6639 9.50488C82.5114 9.65732 82.4258 9.86408 82.4258 10.0797C82.4258 10.2953 82.5114 10.502 82.6639 10.6545C82.8163 10.8069 83.0231 10.8925 83.2387 10.8925H87.303V14.9569C87.303 15.1725 87.3887 15.3793 87.5411 15.5317C87.6936 15.6842 87.9003 15.7698 88.1159 15.7698C88.3315 15.7698 88.5383 15.6842 88.6907 15.5317C88.8432 15.3793 88.9288 15.1725 88.9288 14.9569V10.8925H92.9932C93.2088 10.8925 93.4155 10.8069 93.568 10.6545C93.7204 10.502 93.8061 10.2953 93.8061 10.0797C93.8061 9.86408 93.7204 9.65732 93.568 9.50488C93.4155 9.35243 93.2088 9.26679 92.9932 9.26679H88.9288Z" fill="#E2E8F0"/>
<path d="M127.947 9.26679V5.2024C127.947 4.98682 127.861 4.78006 127.709 4.62761C127.557 4.47517 127.35 4.38953 127.134 4.38953C126.919 4.38953 126.712 4.47517 126.559 4.62761C126.407 4.78006 126.321 4.98682 126.321 5.2024V9.26679H122.257C122.041 9.26679 121.835 9.35243 121.682 9.50488C121.53 9.65732 121.444 9.86408 121.444 10.0797C121.444 10.2953 121.53 10.502 121.682 10.6545C121.835 10.8069 122.041 10.8925 122.257 10.8925H126.321V14.9569C126.321 15.1725 126.407 15.3793 126.559 15.5317C126.712 15.6842 126.919 15.7698 127.134 15.7698C127.35 15.7698 127.557 15.6842 127.709 15.5317C127.861 15.3793 127.947 15.1725 127.947 14.9569V10.8925H132.011C132.227 10.8925 132.434 10.8069 132.586 10.6545C132.739 10.502 132.824 10.2953 132.824 10.0797C132.824 9.86408 132.739 9.65732 132.586 9.50488C132.434 9.35243 132.227 9.26679 132.011 9.26679H127.947Z" fill="#E2E8F0"/>
<path d="M166.965 9.26679V5.2024C166.965 4.98682 166.88 4.78006 166.727 4.62761C166.575 4.47517 166.368 4.38953 166.153 4.38953C165.937 4.38953 165.73 4.47517 165.578 4.62761C165.425 4.78006 165.34 4.98682 165.34 5.2024V9.26679H161.275C161.06 9.26679 160.853 9.35243 160.7 9.50488C160.548 9.65732 160.462 9.86408 160.462 10.0797C160.462 10.2953 160.548 10.502 160.7 10.6545C160.853 10.8069 161.06 10.8925 161.275 10.8925H165.34V14.9569C165.34 15.1725 165.425 15.3793 165.578 15.5317C165.73 15.6842 165.937 15.7698 166.153 15.7698C166.368 15.7698 166.575 15.6842 166.727 15.5317C166.88 15.3793 166.965 15.1725 166.965 14.9569V10.8925H171.03C171.245 10.8925 171.452 10.8069 171.605 10.6545C171.757 10.502 171.843 10.2953 171.843 10.0797C171.843 9.86408 171.757 9.65732 171.605 9.50488C171.452 9.35243 171.245 9.26679 171.03 9.26679H166.965Z" fill="#E2E8F0"/>
<path d="M205.983 9.26679V5.2024C205.983 4.98682 205.898 4.78006 205.745 4.62761C205.593 4.47517 205.386 4.38953 205.171 4.38953C204.955 4.38953 204.748 4.47517 204.596 4.62761C204.443 4.78006 204.358 4.98682 204.358 5.2024V9.26679H200.293C200.078 9.26679 199.871 9.35243 199.719 9.50488C199.566 9.65732 199.48 9.86408 199.48 10.0797C199.48 10.2953 199.566 10.502 199.719 10.6545C199.871 10.8069 200.078 10.8925 200.293 10.8925H204.358V14.9569C204.358 15.1725 204.443 15.3793 204.596 15.5317C204.748 15.6842 204.955 15.7698 205.171 15.7698C205.386 15.7698 205.593 15.6842 205.745 15.5317C205.898 15.3793 205.983 15.1725 205.983 14.9569V10.8925H210.048C210.263 10.8925 210.47 10.8069 210.623 10.6545C210.775 10.502 210.861 10.2953 210.861 10.0797C210.861 9.86408 210.775 9.65732 210.623 9.50488C210.47 9.35243 210.263 9.26679 210.048 9.26679H205.983Z" fill="#E2E8F0"/>
<path d="M10.8927 48.2849V44.2205C10.8927 44.0049 10.807 43.7981 10.6546 43.6457C10.5021 43.4932 10.2954 43.4076 10.0798 43.4076C9.8642 43.4076 9.65744 43.4932 9.505 43.6457C9.35255 43.7981 9.26691 44.0049 9.26691 44.2205V48.2849H5.20253C4.98694 48.2849 4.78018 48.3705 4.62773 48.5229C4.47529 48.6754 4.38965 48.8821 4.38965 49.0977C4.38965 49.3133 4.47529 49.5201 4.62773 49.6725C4.78018 49.825 4.98694 49.9106 5.20253 49.9106H9.26691V53.975C9.26691 54.1906 9.35255 54.3973 9.505 54.5498C9.65744 54.7022 9.8642 54.7879 10.0798 54.7879C10.2954 54.7879 10.5021 54.7022 10.6546 54.5498C10.807 54.3973 10.8927 54.1906 10.8927 53.975V49.9106H14.9571C15.1726 49.9106 15.3794 49.825 15.5318 49.6725C15.6843 49.5201 15.7699 49.3133 15.7699 49.0977C15.7699 48.8821 15.6843 48.6754 15.5318 48.5229C15.3794 48.3705 15.1726 48.2849 14.9571 48.2849H10.8927Z" fill="#E2E8F0"/>
<path d="M49.9107 48.2849V44.2205C49.9107 44.0049 49.8251 43.7981 49.6726 43.6457C49.5202 43.4932 49.3134 43.4076 49.0979 43.4076C48.8823 43.4076 48.6755 43.4932 48.5231 43.6457C48.3706 43.7981 48.285 44.0049 48.285 44.2205V48.2849H44.2206C44.005 48.2849 43.7982 48.3705 43.6458 48.5229C43.4934 48.6754 43.4077 48.8821 43.4077 49.0977C43.4077 49.3133 43.4934 49.5201 43.6458 49.6725C43.7982 49.825 44.005 49.9106 44.2206 49.9106H48.285V53.975C48.285 54.1906 48.3706 54.3973 48.5231 54.5498C48.6755 54.7022 48.8823 54.7879 49.0979 54.7879C49.3134 54.7879 49.5202 54.7022 49.6726 54.5498C49.8251 54.3973 49.9107 54.1906 49.9107 53.975V49.9106H53.9751C54.1907 49.9106 54.3975 49.825 54.5499 49.6725C54.7024 49.5201 54.788 49.3133 54.788 49.0977C54.788 48.8821 54.7024 48.6754 54.5499 48.5229C54.3975 48.3705 54.1907 48.2849 53.9751 48.2849H49.9107Z" fill="#E2E8F0"/>
<path d="M88.9288 48.2849V44.2205C88.9288 44.0049 88.8432 43.7981 88.6907 43.6457C88.5383 43.4932 88.3315 43.4076 88.1159 43.4076C87.9003 43.4076 87.6936 43.4932 87.5411 43.6457C87.3887 43.7981 87.303 44.0049 87.303 44.2205V48.2849H83.2387C83.0231 48.2849 82.8163 48.3705 82.6639 48.5229C82.5114 48.6754 82.4258 48.8821 82.4258 49.0977C82.4258 49.3133 82.5114 49.5201 82.6639 49.6725C82.8163 49.825 83.0231 49.9106 83.2387 49.9106H87.303V53.975C87.303 54.1906 87.3887 54.3973 87.5411 54.5498C87.6936 54.7022 87.9003 54.7879 88.1159 54.7879C88.3315 54.7879 88.5383 54.7022 88.6907 54.5498C88.8432 54.3973 88.9288 54.1906 88.9288 53.975V49.9106H92.9932C93.2088 49.9106 93.4155 49.825 93.568 49.6725C93.7204 49.5201 93.8061 49.3133 93.8061 49.0977C93.8061 48.8821 93.7204 48.6754 93.568 48.5229C93.4155 48.3705 93.2088 48.2849 92.9932 48.2849H88.9288Z" fill="#E2E8F0"/>
<path d="M127.947 48.2849V44.2205C127.947 44.0049 127.861 43.7981 127.709 43.6457C127.557 43.4932 127.35 43.4076 127.134 43.4076C126.919 43.4076 126.712 43.4932 126.559 43.6457C126.407 43.7981 126.321 44.0049 126.321 44.2205V48.2849H122.257C122.041 48.2849 121.835 48.3705 121.682 48.5229C121.53 48.6754 121.444 48.8821 121.444 49.0977C121.444 49.3133 121.53 49.5201 121.682 49.6725C121.835 49.825 122.041 49.9106 122.257 49.9106H126.321V53.975C126.321 54.1906 126.407 54.3973 126.559 54.5498C126.712 54.7022 126.919 54.7879 127.134 54.7879C127.35 54.7879 127.557 54.7022 127.709 54.5498C127.861 54.3973 127.947 54.1906 127.947 53.975V49.9106H132.011C132.227 49.9106 132.434 49.825 132.586 49.6725C132.739 49.5201 132.824 49.3133 132.824 49.0977C132.824 48.8821 132.739 48.6754 132.586 48.5229C132.434 48.3705 132.227 48.2849 132.011 48.2849H127.947Z" fill="#E2E8F0"/>
<path d="M166.965 48.2849V44.2205C166.965 44.0049 166.88 43.7981 166.727 43.6457C166.575 43.4932 166.368 43.4076 166.153 43.4076C165.937 43.4076 165.73 43.4932 165.578 43.6457C165.425 43.7981 165.34 44.0049 165.34 44.2205V48.2849H161.275C161.06 48.2849 160.853 48.3705 160.7 48.5229C160.548 48.6754 160.462 48.8821 160.462 49.0977C160.462 49.3133 160.548 49.5201 160.7 49.6725C160.853 49.825 161.06 49.9106 161.275 49.9106H165.34V53.975C165.34 54.1906 165.425 54.3973 165.578 54.5498C165.73 54.7022 165.937 54.7879 166.153 54.7879C166.368 54.7879 166.575 54.7022 166.727 54.5498C166.88 54.3973 166.965 54.1906 166.965 53.975V49.9106H171.03C171.245 49.9106 171.452 49.825 171.605 49.6725C171.757 49.5201 171.843 49.3133 171.843 49.0977C171.843 48.8821 171.757 48.6754 171.605 48.5229C171.452 48.3705 171.245 48.2849 171.03 48.2849H166.965Z" fill="#3559C7"/>
<path d="M205.983 48.2849V44.2205C205.983 44.0049 205.898 43.7981 205.745 43.6457C205.593 43.4932 205.386 43.4076 205.171 43.4076C204.955 43.4076 204.748 43.4932 204.596 43.6457C204.443 43.7981 204.358 44.0049 204.358 44.2205V48.2849H200.293C200.078 48.2849 199.871 48.3705 199.719 48.5229C199.566 48.6754 199.48 48.8821 199.48 49.0977C199.48 49.3133 199.566 49.5201 199.719 49.6725C199.871 49.825 200.078 49.9106 200.293 49.9106H204.358V53.975C204.358 54.1906 204.443 54.3973 204.596 54.5498C204.748 54.7022 204.955 54.7879 205.171 54.7879C205.386 54.7879 205.593 54.7022 205.745 54.5498C205.898 54.3973 205.983 54.1906 205.983 53.975V49.9106H210.048C210.263 49.9106 210.47 49.825 210.623 49.6725C210.775 49.5201 210.861 49.3133 210.861 49.0977C210.861 48.8821 210.775 48.6754 210.623 48.5229C210.47 48.3705 210.263 48.2849 210.048 48.2849H205.983Z" fill="#E2E8F0"/>
<path d="M10.8927 87.303V83.2387C10.8927 83.0231 10.807 82.8163 10.6546 82.6639C10.5021 82.5114 10.2954 82.4258 10.0798 82.4258C9.8642 82.4258 9.65744 82.5114 9.505 82.6639C9.35255 82.8163 9.26691 83.0231 9.26691 83.2387V87.303H5.20253C4.98694 87.303 4.78018 87.3887 4.62773 87.5411C4.47529 87.6936 4.38965 87.9003 4.38965 88.1159C4.38965 88.3315 4.47529 88.5383 4.62773 88.6907C4.78018 88.8432 4.98694 88.9288 5.20253 88.9288H9.26691V92.9932C9.26691 93.2088 9.35255 93.4155 9.505 93.568C9.65744 93.7204 9.8642 93.8061 10.0798 93.8061C10.2954 93.8061 10.5021 93.7204 10.6546 93.568C10.807 93.4155 10.8927 93.2088 10.8927 92.9932V88.9288H14.9571C15.1726 88.9288 15.3794 88.8432 15.5318 88.6907C15.6843 88.5383 15.7699 88.3315 15.7699 88.1159C15.7699 87.9003 15.6843 87.6936 15.5318 87.5411C15.3794 87.3887 15.1726 87.303 14.9571 87.303H10.8927Z" fill="#E2E8F0"/>
<path d="M49.9107 87.303V83.2387C49.9107 83.0231 49.8251 82.8163 49.6726 82.6639C49.5202 82.5114 49.3134 82.4258 49.0979 82.4258C48.8823 82.4258 48.6755 82.5114 48.5231 82.6639C48.3706 82.8163 48.285 83.0231 48.285 83.2387V87.303H44.2206C44.005 87.303 43.7982 87.3887 43.6458 87.5411C43.4934 87.6936 43.4077 87.9003 43.4077 88.1159C43.4077 88.3315 43.4934 88.5383 43.6458 88.6907C43.7982 88.8432 44.005 88.9288 44.2206 88.9288H48.285V92.9932C48.285 93.2088 48.3706 93.4155 48.5231 93.568C48.6755 93.7204 48.8823 93.8061 49.0979 93.8061C49.3134 93.8061 49.5202 93.7204 49.6726 93.568C49.8251 93.4155 49.9107 93.2088 49.9107 92.9932V88.9288H53.9751C54.1907 88.9288 54.3975 88.8432 54.5499 88.6907C54.7024 88.5383 54.788 88.3315 54.788 88.1159C54.788 87.9003 54.7024 87.6936 54.5499 87.5411C54.3975 87.3887 54.1907 87.303 53.9751 87.303H49.9107Z" fill="#E2E8F0"/>
<path d="M88.9288 87.303V83.2387C88.9288 83.0231 88.8432 82.8163 88.6907 82.6639C88.5383 82.5114 88.3315 82.4258 88.1159 82.4258C87.9003 82.4258 87.6936 82.5114 87.5411 82.6639C87.3887 82.8163 87.303 83.0231 87.303 83.2387V87.303H83.2387C83.0231 87.303 82.8163 87.3887 82.6639 87.5411C82.5114 87.6936 82.4258 87.9003 82.4258 88.1159C82.4258 88.3315 82.5114 88.5383 82.6639 88.6907C82.8163 88.8432 83.0231 88.9288 83.2387 88.9288H87.303V92.9932C87.303 93.2088 87.3887 93.4155 87.5411 93.568C87.6936 93.7204 87.9003 93.8061 88.1159 93.8061C88.3315 93.8061 88.5383 93.7204 88.6907 93.568C88.8432 93.4155 88.9288 93.2088 88.9288 92.9932V88.9288H92.9932C93.2088 88.9288 93.4155 88.8432 93.568 88.6907C93.7204 88.5383 93.8061 88.3315 93.8061 88.1159C93.8061 87.9003 93.7204 87.6936 93.568 87.5411C93.4155 87.3887 93.2088 87.303 92.9932 87.303H88.9288Z" fill="#E2E8F0"/>
<path d="M127.947 87.303V83.2387C127.947 83.0231 127.861 82.8163 127.709 82.6639C127.557 82.5114 127.35 82.4258 127.134 82.4258C126.919 82.4258 126.712 82.5114 126.559 82.6639C126.407 82.8163 126.321 83.0231 126.321 83.2387V87.303H122.257C122.041 87.303 121.835 87.3887 121.682 87.5411C121.53 87.6936 121.444 87.9003 121.444 88.1159C121.444 88.3315 121.53 88.5383 121.682 88.6907C121.835 88.8432 122.041 88.9288 122.257 88.9288H126.321V92.9932C126.321 93.2088 126.407 93.4155 126.559 93.568C126.712 93.7204 126.919 93.8061 127.134 93.8061C127.35 93.8061 127.557 93.7204 127.709 93.568C127.861 93.4155 127.947 93.2088 127.947 92.9932V88.9288H132.011C132.227 88.9288 132.434 88.8432 132.586 88.6907C132.739 88.5383 132.824 88.3315 132.824 88.1159C132.824 87.9003 132.739 87.6936 132.586 87.5411C132.434 87.3887 132.227 87.303 132.011 87.303H127.947Z" fill="#E2E8F0"/>
<path d="M166.965 87.303V83.2387C166.965 83.0231 166.88 82.8163 166.727 82.6639C166.575 82.5114 166.368 82.4258 166.153 82.4258C165.937 82.4258 165.73 82.5114 165.578 82.6639C165.425 82.8163 165.34 83.0231 165.34 83.2387V87.303H161.275C161.06 87.303 160.853 87.3887 160.7 87.5411C160.548 87.6936 160.462 87.9003 160.462 88.1159C160.462 88.3315 160.548 88.5383 160.7 88.6907C160.853 88.8432 161.06 88.9288 161.275 88.9288H165.34V92.9932C165.34 93.2088 165.425 93.4155 165.578 93.568C165.73 93.7204 165.937 93.8061 166.153 93.8061C166.368 93.8061 166.575 93.7204 166.727 93.568C166.88 93.4155 166.965 93.2088 166.965 92.9932V88.9288H171.03C171.245 88.9288 171.452 88.8432 171.605 88.6907C171.757 88.5383 171.843 88.3315 171.843 88.1159C171.843 87.9003 171.757 87.6936 171.605 87.5411C171.452 87.3887 171.245 87.303 171.03 87.303H166.965Z" fill="#E2E8F0"/>
<path d="M205.983 87.303V83.2387C205.983 83.0231 205.898 82.8163 205.745 82.6639C205.593 82.5114 205.386 82.4258 205.171 82.4258C204.955 82.4258 204.748 82.5114 204.596 82.6639C204.443 82.8163 204.358 83.0231 204.358 83.2387V87.303H200.293C200.078 87.303 199.871 87.3887 199.719 87.5411C199.566 87.6936 199.48 87.9003 199.48 88.1159C199.48 88.3315 199.566 88.5383 199.719 88.6907C199.871 88.8432 200.078 88.9288 200.293 88.9288H204.358V92.9932C204.358 93.2088 204.443 93.4155 204.596 93.568C204.748 93.7204 204.955 93.8061 205.171 93.8061C205.386 93.8061 205.593 93.7204 205.745 93.568C205.898 93.4155 205.983 93.2088 205.983 92.9932V88.9288H210.048C210.263 88.9288 210.47 88.8432 210.623 88.6907C210.775 88.5383 210.861 88.3315 210.861 88.1159C210.861 87.9003 210.775 87.6936 210.623 87.5411C210.47 87.3887 210.263 87.303 210.048 87.303H205.983Z" fill="#E2E8F0"/>
<path d="M10.8927 126.321V122.257C10.8927 122.041 10.807 121.834 10.6546 121.682C10.5021 121.529 10.2954 121.444 10.0798 121.444C9.8642 121.444 9.65744 121.529 9.505 121.682C9.35255 121.834 9.26691 122.041 9.26691 122.257V126.321H5.20253C4.98694 126.321 4.78018 126.407 4.62773 126.559C4.47529 126.712 4.38965 126.918 4.38965 127.134C4.38965 127.35 4.47529 127.556 4.62773 127.709C4.78018 127.861 4.98694 127.947 5.20253 127.947H9.26691V132.011C9.26691 132.227 9.35255 132.434 9.505 132.586C9.65744 132.738 9.8642 132.824 10.0798 132.824C10.2954 132.824 10.5021 132.738 10.6546 132.586C10.807 132.434 10.8927 132.227 10.8927 132.011V127.947H14.9571C15.1726 127.947 15.3794 127.861 15.5318 127.709C15.6843 127.556 15.7699 127.35 15.7699 127.134C15.7699 126.918 15.6843 126.712 15.5318 126.559C15.3794 126.407 15.1726 126.321 14.9571 126.321H10.8927Z" fill="#E2E8F0"/>
<path d="M49.9107 126.321V122.257C49.9107 122.041 49.8251 121.834 49.6726 121.682C49.5202 121.529 49.3134 121.444 49.0979 121.444C48.8823 121.444 48.6755 121.529 48.5231 121.682C48.3706 121.834 48.285 122.041 48.285 122.257V126.321H44.2206C44.005 126.321 43.7982 126.407 43.6458 126.559C43.4934 126.712 43.4077 126.918 43.4077 127.134C43.4077 127.35 43.4934 127.556 43.6458 127.709C43.7982 127.861 44.005 127.947 44.2206 127.947H48.285V132.011C48.285 132.227 48.3706 132.434 48.5231 132.586C48.6755 132.738 48.8823 132.824 49.0979 132.824C49.3134 132.824 49.5202 132.738 49.6726 132.586C49.8251 132.434 49.9107 132.227 49.9107 132.011V127.947H53.9751C54.1907 127.947 54.3975 127.861 54.5499 127.709C54.7024 127.556 54.788 127.35 54.788 127.134C54.788 126.918 54.7024 126.712 54.5499 126.559C54.3975 126.407 54.1907 126.321 53.9751 126.321H49.9107Z" fill="#E2E8F0"/>
<path d="M88.9288 126.321V122.257C88.9288 122.041 88.8432 121.834 88.6907 121.682C88.5383 121.529 88.3315 121.444 88.1159 121.444C87.9003 121.444 87.6936 121.529 87.5411 121.682C87.3887 121.834 87.303 122.041 87.303 122.257V126.321H83.2387C83.0231 126.321 82.8163 126.407 82.6639 126.559C82.5114 126.712 82.4258 126.918 82.4258 127.134C82.4258 127.35 82.5114 127.556 82.6639 127.709C82.8163 127.861 83.0231 127.947 83.2387 127.947H87.303V132.011C87.303 132.227 87.3887 132.434 87.5411 132.586C87.6936 132.738 87.9003 132.824 88.1159 132.824C88.3315 132.824 88.5383 132.738 88.6907 132.586C88.8432 132.434 88.9288 132.227 88.9288 132.011V127.947H92.9932C93.2088 127.947 93.4155 127.861 93.568 127.709C93.7204 127.556 93.8061 127.35 93.8061 127.134C93.8061 126.918 93.7204 126.712 93.568 126.559C93.4155 126.407 93.2088 126.321 92.9932 126.321H88.9288Z" fill="#E2E8F0"/>
<path d="M127.947 126.321V122.257C127.947 122.041 127.861 121.834 127.709 121.682C127.557 121.529 127.35 121.444 127.134 121.444C126.919 121.444 126.712 121.529 126.559 121.682C126.407 121.834 126.321 122.041 126.321 122.257V126.321H122.257C122.041 126.321 121.835 126.407 121.682 126.559C121.53 126.712 121.444 126.918 121.444 127.134C121.444 127.35 121.53 127.556 121.682 127.709C121.835 127.861 122.041 127.947 122.257 127.947H126.321V132.011C126.321 132.227 126.407 132.434 126.559 132.586C126.712 132.738 126.919 132.824 127.134 132.824C127.35 132.824 127.557 132.738 127.709 132.586C127.861 132.434 127.947 132.227 127.947 132.011V127.947H132.011C132.227 127.947 132.434 127.861 132.586 127.709C132.739 127.556 132.824 127.35 132.824 127.134C132.824 126.918 132.739 126.712 132.586 126.559C132.434 126.407 132.227 126.321 132.011 126.321H127.947Z" fill="#E2E8F0"/>
<path d="M166.965 126.321V122.257C166.965 122.041 166.88 121.834 166.727 121.682C166.575 121.529 166.368 121.444 166.153 121.444C165.937 121.444 165.73 121.529 165.578 121.682C165.425 121.834 165.34 122.041 165.34 122.257V126.321H161.275C161.06 126.321 160.853 126.407 160.7 126.559C160.548 126.712 160.462 126.918 160.462 127.134C160.462 127.35 160.548 127.556 160.7 127.709C160.853 127.861 161.06 127.947 161.275 127.947H165.34V132.011C165.34 132.227 165.425 132.434 165.578 132.586C165.73 132.738 165.937 132.824 166.153 132.824C166.368 132.824 166.575 132.738 166.727 132.586C166.88 132.434 166.965 132.227 166.965 132.011V127.947H171.03C171.245 127.947 171.452 127.861 171.605 127.709C171.757 127.556 171.843 127.35 171.843 127.134C171.843 126.918 171.757 126.712 171.605 126.559C171.452 126.407 171.245 126.321 171.03 126.321H166.965Z" fill="#E2E8F0"/>
<path d="M205.983 126.321V122.257C205.983 122.041 205.898 121.834 205.745 121.682C205.593 121.529 205.386 121.444 205.171 121.444C204.955 121.444 204.748 121.529 204.596 121.682C204.443 121.834 204.358 122.041 204.358 122.257V126.321H200.293C200.078 126.321 199.871 126.407 199.719 126.559C199.566 126.712 199.48 126.918 199.48 127.134C199.48 127.35 199.566 127.556 199.719 127.709C199.871 127.861 200.078 127.947 200.293 127.947H204.358V132.011C204.358 132.227 204.443 132.434 204.596 132.586C204.748 132.738 204.955 132.824 205.171 132.824C205.386 132.824 205.593 132.738 205.745 132.586C205.898 132.434 205.983 132.227 205.983 132.011V127.947H210.048C210.263 127.947 210.47 127.861 210.623 127.709C210.775 127.556 210.861 127.35 210.861 127.134C210.861 126.918 210.775 126.712 210.623 126.559C210.47 126.407 210.263 126.321 210.048 126.321H205.983Z" fill="#5FCF73"/>
<path d="M10.8927 165.339V161.275C10.8927 161.059 10.807 160.852 10.6546 160.7C10.5021 160.548 10.2954 160.462 10.0798 160.462C9.8642 160.462 9.65744 160.548 9.505 160.7C9.35255 160.852 9.26691 161.059 9.26691 161.275V165.339H5.20253C4.98694 165.339 4.78018 165.425 4.62773 165.577C4.47529 165.73 4.38965 165.936 4.38965 166.152C4.38965 166.368 4.47529 166.574 4.62773 166.727C4.78018 166.879 4.98694 166.965 5.20253 166.965H9.26691V171.029C9.26691 171.245 9.35255 171.452 9.505 171.604C9.65744 171.757 9.8642 171.842 10.0798 171.842C10.2954 171.842 10.5021 171.757 10.6546 171.604C10.807 171.452 10.8927 171.245 10.8927 171.029V166.965H14.9571C15.1726 166.965 15.3794 166.879 15.5318 166.727C15.6843 166.574 15.7699 166.368 15.7699 166.152C15.7699 165.936 15.6843 165.73 15.5318 165.577C15.3794 165.425 15.1726 165.339 14.9571 165.339H10.8927Z" fill="#E2E8F0"/>
<path d="M49.9107 165.339V161.275C49.9107 161.059 49.8251 160.852 49.6726 160.7C49.5202 160.548 49.3134 160.462 49.0979 160.462C48.8823 160.462 48.6755 160.548 48.5231 160.7C48.3706 160.852 48.285 161.059 48.285 161.275V165.339H44.2206C44.005 165.339 43.7982 165.425 43.6458 165.577C43.4934 165.73 43.4077 165.936 43.4077 166.152C43.4077 166.368 43.4934 166.574 43.6458 166.727C43.7982 166.879 44.005 166.965 44.2206 166.965H48.285V171.029C48.285 171.245 48.3706 171.452 48.5231 171.604C48.6755 171.757 48.8823 171.842 49.0979 171.842C49.3134 171.842 49.5202 171.757 49.6726 171.604C49.8251 171.452 49.9107 171.245 49.9107 171.029V166.965H53.9751C54.1907 166.965 54.3975 166.879 54.5499 166.727C54.7024 166.574 54.788 166.368 54.788 166.152C54.788 165.936 54.7024 165.73 54.5499 165.577C54.3975 165.425 54.1907 165.339 53.9751 165.339H49.9107Z" fill="#E2E8F0"/>
<path d="M88.9288 165.339V161.275C88.9288 161.059 88.8432 160.852 88.6907 160.7C88.5383 160.548 88.3315 160.462 88.1159 160.462C87.9003 160.462 87.6936 160.548 87.5411 160.7C87.3887 160.852 87.303 161.059 87.303 161.275V165.339H83.2387C83.0231 165.339 82.8163 165.425 82.6639 165.577C82.5114 165.73 82.4258 165.936 82.4258 166.152C82.4258 166.368 82.5114 166.574 82.6639 166.727C82.8163 166.879 83.0231 166.965 83.2387 166.965H87.303V171.029C87.303 171.245 87.3887 171.452 87.5411 171.604C87.6936 171.757 87.9003 171.842 88.1159 171.842C88.3315 171.842 88.5383 171.757 88.6907 171.604C88.8432 171.452 88.9288 171.245 88.9288 171.029V166.965H92.9932C93.2088 166.965 93.4155 166.879 93.568 166.727C93.7204 166.574 93.8061 166.368 93.8061 166.152C93.8061 165.936 93.7204 165.73 93.568 165.577C93.4155 165.425 93.2088 165.339 92.9932 165.339H88.9288Z" fill="#E2E8F0"/>
<path d="M127.947 165.339V161.275C127.947 161.059 127.861 160.852 127.709 160.7C127.557 160.548 127.35 160.462 127.134 160.462C126.919 160.462 126.712 160.548 126.559 160.7C126.407 160.852 126.321 161.059 126.321 161.275V165.339H122.257C122.041 165.339 121.835 165.425 121.682 165.577C121.53 165.73 121.444 165.936 121.444 166.152C121.444 166.368 121.53 166.574 121.682 166.727C121.835 166.879 122.041 166.965 122.257 166.965H126.321V171.029C126.321 171.245 126.407 171.452 126.559 171.604C126.712 171.757 126.919 171.842 127.134 171.842C127.35 171.842 127.557 171.757 127.709 171.604C127.861 171.452 127.947 171.245 127.947 171.029V166.965H132.011C132.227 166.965 132.434 166.879 132.586 166.727C132.739 166.574 132.824 166.368 132.824 166.152C132.824 165.936 132.739 165.73 132.586 165.577C132.434 165.425 132.227 165.339 132.011 165.339H127.947Z" fill="#E2E8F0"/>
<path d="M166.965 165.339V161.275C166.965 161.059 166.88 160.852 166.727 160.7C166.575 160.548 166.368 160.462 166.153 160.462C165.937 160.462 165.73 160.548 165.578 160.7C165.425 160.852 165.34 161.059 165.34 161.275V165.339H161.275C161.06 165.339 160.853 165.425 160.7 165.577C160.548 165.73 160.462 165.936 160.462 166.152C160.462 166.368 160.548 166.574 160.7 166.727C160.853 166.879 161.06 166.965 161.275 166.965H165.34V171.029C165.34 171.245 165.425 171.452 165.578 171.604C165.73 171.757 165.937 171.842 166.153 171.842C166.368 171.842 166.575 171.757 166.727 171.604C166.88 171.452 166.965 171.245 166.965 171.029V166.965H171.03C171.245 166.965 171.452 166.879 171.605 166.727C171.757 166.574 171.843 166.368 171.843 166.152C171.843 165.936 171.757 165.73 171.605 165.577C171.452 165.425 171.245 165.339 171.03 165.339H166.965Z" fill="#E2E8F0"/>
<path d="M205.983 165.339V161.275C205.983 161.059 205.898 160.852 205.745 160.7C205.593 160.548 205.386 160.462 205.171 160.462C204.955 160.462 204.748 160.548 204.596 160.7C204.443 160.852 204.358 161.059 204.358 161.275V165.339H200.293C200.078 165.339 199.871 165.425 199.719 165.577C199.566 165.73 199.48 165.936 199.48 166.152C199.48 166.368 199.566 166.574 199.719 166.727C199.871 166.879 200.078 166.965 200.293 166.965H204.358V171.029C204.358 171.245 204.443 171.452 204.596 171.604C204.748 171.757 204.955 171.842 205.171 171.842C205.386 171.842 205.593 171.757 205.745 171.604C205.898 171.452 205.983 171.245 205.983 171.029V166.965H210.048C210.263 166.965 210.47 166.879 210.623 166.727C210.775 166.574 210.861 166.368 210.861 166.152C210.861 165.936 210.775 165.73 210.623 165.577C210.47 165.425 210.263 165.339 210.048 165.339H205.983Z" fill="#E2E8F0"/>
<path d="M10.8927 204.357V200.293C10.8927 200.077 10.807 199.871 10.6546 199.718C10.5021 199.566 10.2954 199.48 10.0798 199.48C9.8642 199.48 9.65744 199.566 9.505 199.718C9.35255 199.871 9.26691 200.077 9.26691 200.293V204.357H5.20253C4.98694 204.357 4.78018 204.443 4.62773 204.595C4.47529 204.748 4.38965 204.955 4.38965 205.17C4.38965 205.386 4.47529 205.592 4.62773 205.745C4.78018 205.897 4.98694 205.983 5.20253 205.983H9.26691V210.047C9.26691 210.263 9.35255 210.47 9.505 210.622C9.65744 210.775 9.8642 210.86 10.0798 210.86C10.2954 210.86 10.5021 210.775 10.6546 210.622C10.807 210.47 10.8927 210.263 10.8927 210.047V205.983H14.9571C15.1726 205.983 15.3794 205.897 15.5318 205.745C15.6843 205.592 15.7699 205.386 15.7699 205.17C15.7699 204.955 15.6843 204.748 15.5318 204.595C15.3794 204.443 15.1726 204.357 14.9571 204.357H10.8927Z" fill="#E2E8F0"/>
<path d="M49.9107 204.357V200.293C49.9107 200.077 49.8251 199.871 49.6726 199.718C49.5202 199.566 49.3134 199.48 49.0979 199.48C48.8823 199.48 48.6755 199.566 48.5231 199.718C48.3706 199.871 48.285 200.077 48.285 200.293V204.357H44.2206C44.005 204.357 43.7982 204.443 43.6458 204.595C43.4934 204.748 43.4077 204.955 43.4077 205.17C43.4077 205.386 43.4934 205.592 43.6458 205.745C43.7982 205.897 44.005 205.983 44.2206 205.983H48.285V210.047C48.285 210.263 48.3706 210.47 48.5231 210.622C48.6755 210.775 48.8823 210.86 49.0979 210.86C49.3134 210.86 49.5202 210.775 49.6726 210.622C49.8251 210.47 49.9107 210.263 49.9107 210.047V205.983H53.9751C54.1907 205.983 54.3975 205.897 54.5499 205.745C54.7024 205.592 54.788 205.386 54.788 205.17C54.788 204.955 54.7024 204.748 54.5499 204.595C54.3975 204.443 54.1907 204.357 53.9751 204.357H49.9107Z" fill="#E2E8F0"/>
<path d="M88.9288 204.357V200.293C88.9288 200.077 88.8432 199.871 88.6907 199.718C88.5383 199.566 88.3315 199.48 88.1159 199.48C87.9003 199.48 87.6936 199.566 87.5411 199.718C87.3887 199.871 87.303 200.077 87.303 200.293V204.357H83.2387C83.0231 204.357 82.8163 204.443 82.6639 204.595C82.5114 204.748 82.4258 204.955 82.4258 205.17C82.4258 205.386 82.5114 205.592 82.6639 205.745C82.8163 205.897 83.0231 205.983 83.2387 205.983H87.303V210.047C87.303 210.263 87.3887 210.47 87.5411 210.622C87.6936 210.775 87.9003 210.86 88.1159 210.86C88.3315 210.86 88.5383 210.775 88.6907 210.622C88.8432 210.47 88.9288 210.263 88.9288 210.047V205.983H92.9932C93.2088 205.983 93.4155 205.897 93.568 205.745C93.7204 205.592 93.8061 205.386 93.8061 205.17C93.8061 204.955 93.7204 204.748 93.568 204.595C93.4155 204.443 93.2088 204.357 92.9932 204.357H88.9288Z" fill="#9333EA"/>
<path d="M127.947 204.357V200.293C127.947 200.077 127.861 199.871 127.709 199.718C127.557 199.566 127.35 199.48 127.134 199.48C126.919 199.48 126.712 199.566 126.559 199.718C126.407 199.871 126.321 200.077 126.321 200.293V204.357H122.257C122.041 204.357 121.835 204.443 121.682 204.595C121.53 204.748 121.444 204.955 121.444 205.17C121.444 205.386 121.53 205.592 121.682 205.745C121.835 205.897 122.041 205.983 122.257 205.983H126.321V210.047C126.321 210.263 126.407 210.47 126.559 210.622C126.712 210.775 126.919 210.86 127.134 210.86C127.35 210.86 127.557 210.775 127.709 210.622C127.861 210.47 127.947 210.263 127.947 210.047V205.983H132.011C132.227 205.983 132.434 205.897 132.586 205.745C132.739 205.592 132.824 205.386 132.824 205.17C132.824 204.955 132.739 204.748 132.586 204.595C132.434 204.443 132.227 204.357 132.011 204.357H127.947Z" fill="#E2E8F0"/>
<path d="M166.965 204.357V200.293C166.965 200.077 166.88 199.871 166.727 199.718C166.575 199.566 166.368 199.48 166.153 199.48C165.937 199.48 165.73 199.566 165.578 199.718C165.425 199.871 165.34 200.077 165.34 200.293V204.357H161.275C161.06 204.357 160.853 204.443 160.7 204.595C160.548 204.748 160.462 204.955 160.462 205.17C160.462 205.386 160.548 205.592 160.7 205.745C160.853 205.897 161.06 205.983 161.275 205.983H165.34V210.047C165.34 210.263 165.425 210.47 165.578 210.622C165.73 210.775 165.937 210.86 166.153 210.86C166.368 210.86 166.575 210.775 166.727 210.622C166.88 210.47 166.965 210.263 166.965 210.047V205.983H171.03C171.245 205.983 171.452 205.897 171.605 205.745C171.757 205.592 171.843 205.386 171.843 205.17C171.843 204.955 171.757 204.748 171.605 204.595C171.452 204.443 171.245 204.357 171.03 204.357H166.965Z" fill="#E2E8F0"/>
<path d="M205.983 204.357V200.293C205.983 200.077 205.898 199.871 205.745 199.718C205.593 199.566 205.386 199.48 205.171 199.48C204.955 199.48 204.748 199.566 204.596 199.718C204.443 199.871 204.358 200.077 204.358 200.293V204.357H200.293C200.078 204.357 199.871 204.443 199.719 204.595C199.566 204.748 199.48 204.955 199.48 205.17C199.48 205.386 199.566 205.592 199.719 205.745C199.871 205.897 200.078 205.983 200.293 205.983H204.358V210.047C204.358 210.263 204.443 210.47 204.596 210.622C204.748 210.775 204.955 210.86 205.171 210.86C205.386 210.86 205.593 210.775 205.745 210.622C205.898 210.47 205.983 210.263 205.983 210.047V205.983H210.048C210.263 205.983 210.47 205.897 210.623 205.745C210.775 205.592 210.861 205.386 210.861 205.17C210.861 204.955 210.775 204.748 210.623 204.595C210.47 204.443 210.263 204.357 210.048 204.357H205.983Z" fill="#E2E8F0"/>
</svg>
