<?xml version="1.0" encoding="UTF-8" standalone="no"?>
<svg
   xmlns:dc="http://purl.org/dc/elements/1.1/"
   xmlns:cc="http://creativecommons.org/ns#"
   xmlns:rdf="http://www.w3.org/1999/02/22-rdf-syntax-ns#"
   xmlns:svg="http://www.w3.org/2000/svg"
   xmlns="http://www.w3.org/2000/svg"
   xmlns:sodipodi="http://sodipodi.sourceforge.net/DTD/sodipodi-0.dtd"
   xmlns:inkscape="http://www.inkscape.org/namespaces/inkscape"
   data-name="Layer 1"
   width="513.81934"
   height="644.97162"
   viewBox="0 0 513.81934 644.97162"
   version="1.1"
   id="svg88"
   sodipodi:docname="software.svg"
   inkscape:version="0.92.3 (2405546, 2018-03-11)">
  <metadata
     id="metadata94">
    <rdf:RDF>
      <cc:Work
         rdf:about="">
        <dc:format>image/svg+xml</dc:format>
        <dc:type
           rdf:resource="http://purl.org/dc/dcmitype/StillImage" />
      </cc:Work>
    </rdf:RDF>
  </metadata>
  <defs
     id="defs92">
    <clipPath
       clipPathUnits="userSpaceOnUse"
       id="clipPath18">
      <path
         d="M 0,595.28 H 841.89 V 0 H 0 Z"
         id="path16-3"
         inkscape:connector-curvature="0" />
    </clipPath>
  </defs>
  <sodipodi:namedview
     pagecolor="#ffffff"
     bordercolor="#666666"
     borderopacity="1"
     objecttolerance="10"
     gridtolerance="10"
     guidetolerance="10"
     inkscape:pageopacity="0"
     inkscape:pageshadow="2"
     inkscape:window-width="1920"
     inkscape:window-height="1050"
     id="namedview90"
     showgrid="false"
     inkscape:zoom="4.1397716"
     inkscape:cx="220.17779"
     inkscape:cy="566.8496"
     inkscape:window-x="1920"
     inkscape:window-y="0"
     inkscape:window-maximized="1"
     inkscape:current-layer="svg88" />
  <path
     d="M467.4095,264.94912H345.59016V156.5624H467.4095Z"
     id="path2"
     fill="#fff"
     transform="translate(-343.09033 -127.51419)" />
  <path
     d="M469.90967,267.44922H343.09033V154.0625H469.90967Zm-121.81934-5H464.90967V159.0625H348.09033Z"
     transform="translate(-343.09033 -127.51419)"
     fill="#ccc"
     id="path4" />
  <polygon
     points="147.753 586.078 135.493 586.077 129.66 538.789 147.755 538.79 147.753 586.078"
     fill="#ffb7b7"
     id="polygon6" />
  <path
     d="M493.96951,725.47582l-39.53076-.00146v-.5a15.3873,15.3873,0,0,1,15.38647-15.38623h.001l24.144.001Z"
     transform="translate(-343.09033 -127.51419)"
     fill="#2f2e41"
     id="path8" />
  <polygon
     points="262.162 578.548 250.187 581.177 234.349 536.24 252.023 532.36 262.162 578.548"
     fill="#ffb7b7"
     id="polygon10" />
  <path
     d="M610.85474,716.99943l-38.6113,8.47639-.10723-.48836a15.38732,15.38732,0,0,1,11.72872-18.328l.00095-.00021,23.58248-5.177Z"
     transform="translate(-343.09033 -127.51419)"
     fill="#2f2e41"
     id="path12" />
  <path
     d="M456.43436,547.47725l-60.55575,13.06184c-11.614-21.89446-14.22377-44.76462-14.32048-66.39235l60.55543-13.0618A135.60092,135.60092,0,0,0,456.43436,547.47725Z"
     transform="translate(-343.09033 -127.51419)"
     fill="#527aba"
     id="path14" />
  <polygon
     points="52.282 378.755 51.766 376.455 83.236 370.097 83.752 372.397 52.282 378.755"
     fill="#fff"
     id="polygon16" />
  <polygon
     points="54.346 387.953 53.83 385.654 85.3 379.296 85.816 381.596 54.346 387.953"
     fill="#fff"
     id="polygon18" />
  <polygon
     points="56.41 397.152 55.894 394.852 87.364 388.495 87.88 390.794 56.41 397.152"
     fill="#fff"
     id="polygon20" />
  <polygon
     points="58.474 406.351 57.958 404.051 89.428 397.693 89.944 399.993 58.474 406.351"
     fill="#fff"
     id="polygon22" />
  <polygon
     points="60.538 415.549 60.022 413.25 91.492 406.892 92.008 409.191 60.538 415.549"
     fill="#fff"
     id="polygon24" />
  <path
     d="M594.50133,493.81605a11.62615,11.62615,0,0,0-4.982-17.117L590.068,450.137l-16.06037-4.27033-.248,37.52166a11.68915,11.68915,0,0,0,20.74163,10.42776Z"
     transform="translate(-343.09033 -127.51419)"
     fill="#ffb7b7"
     id="path26" />
  <circle
     cx="126.71087"
     cy="22.45943"
     r="22.45944"
     fill="#527aba"
     id="circle40" />
  <polygon
     points="125.91 33.403 117.404 23.006 118.742 21.912 125.784 30.52 138.091 12.471 139.518 13.444 125.91 33.403"
     id="polygon42"
     fill="#fff"
     style="stroke-width:0.1;stroke-miterlimit:4;stroke-dasharray:none" />
  <path
     d="M854.4095,455.94912H732.59016V347.5624H854.4095Z"
     transform="translate(-343.09033 -127.51419)"
     fill="#fff"
     id="path44" />
  <path
     d="M856.90967,458.44922H730.09033V345.0625H856.90967Zm-121.81934-5H851.90967V350.0625H735.09033Z"
     transform="translate(-343.09033 -127.51419)"
     fill="#e6e6e6"
     id="path46" />
  <path
     d="M854.4095,264.94912H732.59016V156.5624H854.4095Z"
     transform="translate(-343.09033 -127.51419)"
     fill="#fff"
     id="path48" />
  <path
     d="M856.90967,267.44922H730.09033V154.0625H856.90967Zm-121.81934-5H851.90967V159.0625H735.09033Z"
     transform="translate(-343.09033 -127.51419)"
     fill="#e6e6e6"
     id="path50" />
  <path
     d="M660.4095,455.94912H538.59016V347.5624H660.4095Z"
     transform="translate(-343.09033 -127.51419)"
     fill="#fff"
     id="path52" />
  <path
     d="M662.90967,458.44922H536.09033V345.0625H662.90967Zm-121.81934-5H657.90967V350.0625H541.09033Z"
     transform="translate(-343.09033 -127.51419)"
     fill="#ccc"
     id="path54" />
  <path
     d="M467.4095,455.94912H345.59016V347.5624H467.4095Z"
     transform="translate(-343.09033 -127.51419)"
     fill="#fff"
     id="path56" />
  <path
     d="M469.90967,458.44922H343.09033V345.0625H469.90967Zm-121.81934-5H464.90967V350.0625H348.09033Z"
     transform="translate(-343.09033 -127.51419)"
     fill="#e6e6e6"
     id="path58" />
  <path
     d="M660.4095,264.94912H538.59016V156.5624H660.4095Z"
     transform="translate(-343.09033 -127.51419)"
     fill="#fff"
     id="path60" />
  <path
     d="M662.90967,267.44922H536.09033V154.0625H662.90967Zm-121.81934-5H657.90967V159.0625H541.09033Z"
     transform="translate(-343.09033 -127.51419)"
     fill="#e6e6e6"
     id="path62" />
  <path
     d="M643.49868,769.27237l16.27423-31.54126c30.03216,4.94037,35.33276,3.93085,61.57648.52368l6.97775,34.231A378.16618,378.16618,0,0,0,643.49868,769.27237Z"
     transform="translate(-343.09033 -127.51419)"
     fill="#e6e6e6"
     id="path64" />
  <polygon
     points="368.304 636.07 367.794 618.336 369.658 618.406 370.168 636.14 368.304 636.07"
     fill="#fff"
     id="polygon66" />
  <polygon
     points="360.847 635.787 360.336 618.053 362.201 618.124 362.711 635.858 360.847 635.787"
     fill="#fff"
     id="polygon68" />
  <polygon
     points="353.389 635.505 352.879 617.771 354.743 617.841 355.254 635.575 353.389 635.505"
     fill="#fff"
     id="polygon70" />
  <path
     d="M468.39226,451.99393s-5.9104,2.36413,0,92.2019l2.36414,146.57733h23.64148l26.60977-199.19855,32.494,92.81177,29.55188,109.933L606.695,688.409s-24.82361-222.23023-46.101-236.4151S468.39226,451.99393,468.39226,451.99393Z"
     transform="translate(-343.09033 -127.51419)"
     fill="#2f2e41"
     id="path72" />
  <circle
     cx="172.77673"
     cy="117.94477"
     r="24.56942"
     fill="#ffb8b8"
     id="circle74" />
  <path
     d="M539.31676,285.32126s-21.27734-10.63867-41.37262-3.54624-30.734,15.367-30.734,15.367l13.00281,68.56036-17.73108,92.20188s91.01984-7.09247,99.29431,0,8.27454-8.27454,8.27454-8.27454l-7.09247-87.47357,13.00287-55.55753Z"
     transform="translate(-343.09033 -127.51419)"
     fill="#3f3d56"
     id="path76" />
  <path
     d="M494.95892,243.76409,500.16,257.05253c2.13134,5.44539,4.57243,11.27134,9.56836,14.31034,6.16828,3.75216,14.40559,1.92259,20.37269-2.142a31.81312,31.81312,0,0,0-14.31932-57.90282l-.24691,4.44763-5.45772-4.57469a5.306,5.306,0,0,1-8.24787,1.16642c1.43367,2.97177-.221,6.59623-2.61041,8.87276-2.93577,2.79666-11.332,6.15776-10.98353,11.15707C488.46775,235.72354,493.60571,240.30664,494.95892,243.76409Z"
     transform="translate(-343.09033 -127.51419)"
     fill="#2f2e41"
     id="path78" />
  <path
     d="M449.51256,495.38894a11.62611,11.62611,0,0,0,.02419-17.82728l7.98411-25.33966-14.21547-8.60766L432.53288,479.5572a11.68915,11.68915,0,0,0,16.97968,15.83174Z"
     transform="translate(-343.09033 -127.51419)"
     fill="#ffb7b7"
     id="path80" />
  <path
     d="M475.48467,297.142h-8.27454s-13.00283,8.27453-13.00283,20.09527-18.91318,150.12363-18.91318,150.12363l20.09527,3.54621,17.73114-96.93021,13.00287-26.00568Z"
     transform="translate(-343.09033 -127.51419)"
     fill="#3f3d56"
     id="path82" />
  <path
     d="M553.5017,306.59863h22.45941s7.09247,7.09244,10.63867,23.64151,7.09247,81.5632,7.09247,81.5632l-2.36413,59.1038H573.597l-2.36413-76.8349L559.4121,344.42508Z"
     transform="translate(-343.09033 -127.51419)"
     fill="#3f3d56"
     id="path84" />
  <path
     d="M726.988,726.57461h-381a1,1,0,0,1,0-2h381a1,1,0,0,1,0,2Z"
     transform="translate(-343.09033 -127.51419)"
     fill="#cbcbcb"
     id="path86" />
  <g
     clip-path="url(#clipPath18)"
     id="g14"
     transform="matrix(0.18647827,0,0,-0.18647827,-15.393371,142.881)">
    <g
       transform="translate(320.1934,264.4717)"
       id="g46" />
    <g
       transform="translate(492.9414,245.833)"
       id="g50" />
    <g
       transform="translate(492.9473,413.0273)"
       id="g54" />
    <g
       transform="translate(463.666,449.8052)"
       id="g58">
      <path
         id="path60-5"
         style="fill:#527aba;fill-opacity:1;fill-rule:nonzero;stroke:none;stroke-width:1.46846557"
         d="M 47.465606,-9.3501692 H -121.70897 c -7.57728,0 -13.71694,6.139655 -13.71694,13.7154687 V 30.603843 c 0,7.575813 6.13966,13.718405 13.71694,13.718405 H 47.465606 c 7.574346,0 13.712532,-6.142592 13.712532,-13.718405 V 4.3652995 c 0,-7.5758137 -6.138186,-13.7154687 -13.712532,-13.7154687 M 90.464188,-63.357249 c -3.98101,0 -7.93118,1.72251 -10.64491,5.055927 L 39.796251,-9.1459052 -121.69091,-9.3500222 h -0.0176 c -7.56994,0 -13.70372,6.12497 -13.71693,13.6978469 -0.0103,7.5714083 6.12496,13.7184053 13.69931,13.7301533 l 168.013019,0.22027 h 0.02349 c 4.116109,0 8.026633,-1.859078 10.630223,-5.058864 l 44.147948,-54.215749 c 4.78573,-5.879736 3.90318,-14.517251 -1.969212,-19.301512 -2.54779,-2.072005 -5.61542,-3.079372 -8.65514,-3.079372 m -0.009,-245.519071 H -74.075765 c -7.574346,0 -13.716937,6.13819 -13.716937,13.71253 v 236.326038 c 0,7.574345 6.142591,13.718405 13.716937,13.718405 7.577282,0 13.718405,-6.14406 13.718405,-13.718405 V -281.44832 H 76.737118 v 82.40882 l -34.66313,35.02437 c -2.588905,2.61828 -4.01919,6.16168 -3.963389,9.84459 0.04993,3.67704 1.578601,7.18227 4.242397,9.72271 l 34.384122,32.81581 v 61.989799 c 0,7.577282 6.14259,13.718405 13.71841,13.718405 7.57728,0 13.715462,-6.141123 13.715462,-13.718405 v -67.857789 c 0,-3.749 -1.53014,-7.33646 -4.243862,-9.92243 l -28.527883,-27.22535 28.805425,-29.10205 c 2.54191,-2.56981 3.96632,-6.03686 3.96632,-9.64929 v -101.76466 c 0,-7.57434 -6.138182,-13.71253 -13.715462,-13.71253 m -253.674498,27.37029 h 75.655348 v 223.935123 l -37.296088,39.535499 -38.35926,-39.633886 z m 89.369348,-27.43681 H -176.93443 c -7.57729,0 -13.71841,6.14406 -13.71841,13.7184 v 243.104477 c 0,3.558092 1.38623,6.981085 3.8606,9.536216 l 52.20542,53.942614 c 2.60652,2.694634 6.16755,4.130793 9.94444,4.179253 3.74606,-0.02643 7.31884,-1.580069 9.88865,-4.304073 l 50.885269,-53.941146 c 2.399473,-2.543382 3.735776,-5.910574 3.735776,-9.412864 V -295.22444 c 0,-7.57434 -6.139654,-13.7184 -13.716937,-13.7184"
         inkscape:connector-curvature="0" />
    </g>
  </g>
</svg>
