<svg xmlns="http://www.w3.org/2000/svg" width="360" height="360" viewBox="0 0 360 360" version="1.1"><path d="M 162 82.467 L 162 97.935 178.500 97.717 L 195 97.500 195 82.250 L 195 67 178.500 67 L 162 67 162 82.467 M 83 118.500 L 83 134 99.500 134 L 116 134 116 118.500 L 116 103 99.500 103 L 83 103 83 118.500 M 122.691 103.643 C 122.311 104.023, 122 111.008, 122 119.167 L 122 134 139.026 134 L 156.052 134 155.776 118.750 L 155.500 103.500 139.441 103.226 C 130.608 103.076, 123.070 103.263, 122.691 103.643 M 162 118.500 L 162 134 178.500 134 L 195 134 195 118.500 L 195 103 178.500 103 L 162 103 162 118.500 M 265.976 119.158 C 259.967 128.455, 257.492 137.353, 257.536 149.500 C 257.566 158.026, 257.967 160.452, 260.255 165.960 C 263.269 173.220, 263.371 173.011, 255.500 175.744 C 250.884 177.347, 241.615 177.503, 134.827 177.768 L 19.153 178.056 18.417 184.778 C 17.415 193.915, 19.320 211.560, 22.487 222.500 C 32.999 258.803, 58.009 282.258, 95 290.504 C 105.071 292.749, 135.463 293.609, 150.233 292.068 C 197.750 287.108, 238.451 266.564, 265 234.139 C 273.600 223.636, 283.258 208.333, 288.140 197.475 L 291.500 190.002 297.568 190.001 C 305.080 190, 316.454 187.096, 322.248 183.701 C 328.389 180.102, 334.306 173.328, 338.386 165.227 L 341.877 158.295 335.773 154.684 C 327.984 150.077, 321.638 148.793, 308.591 149.185 L 298.124 149.500 297.530 146.320 C 296.224 139.333, 290.107 129.342, 283.163 122.856 C 279.421 119.360, 274.933 115.690, 273.190 114.700 L 270.021 112.900 265.976 119.158 M 43 155 L 43 170 60 170 L 77 170 77 155 L 77 140 60 140 L 43 140 43 155 M 83 155 L 83 170 99.500 170 L 116 170 116 155 L 116 140 99.500 140 L 83 140 83 155 M 122 155 L 122 170 139 170 L 156 170 156 155 L 156 140 139 140 L 122 140 122 155 M 162 155 L 162 170 178.500 170 L 195 170 195 155 L 195 140 178.500 140 L 162 140 162 155 M 201 155 L 201 170 218 170 L 235 170 235 155 L 235 140 218 140 L 201 140 201 155" stroke="none" fill="#0b9bec" fill-rule="evenodd"/></svg>