<svg xmlns="http://www.w3.org/2000/svg" width="468" height="332" viewBox="0 0 468 332" version="1.1"><path d="" stroke="none" fill="#109cec" fill-rule="evenodd"/><path d="M 208 28 L 208 50 232 50 L 256 50 256 28 L 256 6 232 6 L 208 6 208 28 M 95 80 L 95 102 119.500 102 L 144 102 144 80 L 144 58 119.500 58 L 95 58 95 80 M 151.230 79.750 L 151.500 101.500 175.750 101.768 L 200 102.036 200 80.018 L 200 58 175.480 58 L 150.961 58 151.230 79.750 M 208 80 L 208 102 232 102 L 256 102 256 80 L 256 58 232 58 L 208 58 208 80 M 357.151 78.783 C 347.511 93.492, 343.949 105.284, 343.944 122.500 C 343.941 134.358, 345.419 141.833, 349.562 150.902 C 350.919 153.874, 351.905 156.428, 351.755 156.579 C 350.174 158.159, 333.902 162.256, 326.246 163 C 320.589 163.551, 251.189 163.959, 160.830 163.974 L 5.159 164 4.450 170.626 C 3.291 181.445, 4.617 206.411, 6.901 216.770 C 12.423 241.818, 22.731 263.359, 37.715 281.162 C 59.258 306.758, 90.438 322.076, 130.974 326.976 C 142.009 328.310, 173.381 328.282, 188 326.926 C 278.985 318.486, 348.369 272.768, 385.371 196.878 L 392.500 182.256 402.462 181.533 C 429.423 179.575, 446.870 169.358, 458.148 148.922 C 465.091 136.342, 465.090 136.815, 458.186 132.126 C 454.937 129.920, 449.480 127.172, 446.058 126.019 C 437.006 122.970, 421.236 121.432, 410.792 122.579 L 402.211 123.522 400.992 118.011 C 399.635 111.873, 395.639 103.231, 391.168 96.765 C 387.154 90.959, 375.821 80.254, 368.354 75.215 L 362.208 71.067 357.151 78.783 M 39 131.500 L 39 153 63.500 153 L 88 153 88 131.500 L 88 110 63.500 110 L 39 110 39 131.500 M 95 131.500 L 95 153 119.500 153 L 144 153 144 131.500 L 144 110 119.500 110 L 95 110 95 131.500 M 151.230 131.250 L 151.500 152.500 175.750 152.768 L 200 153.036 200 131.518 L 200 110 175.480 110 L 150.960 110 151.230 131.250 M 208 131.500 L 208 153 232 153 L 256 153 256 131.500 L 256 110 232 110 L 208 110 208 131.500 M 264 131.500 L 264 153 288 153 L 312 153 312 131.500 L 312 110 288 110 L 264 110 264 131.500" stroke="none" fill="#0c9cec" fill-rule="evenodd"/></svg>