<?xml version="1.0" encoding="UTF-8"?>
<svg id="Warstwa_2" data-name="Warstwa 2" xmlns="http://www.w3.org/2000/svg" viewBox="0 0 85.62 60">
  <defs>
    <style>
      .cls-1 {
        fill: #0c9cec;
        fill-rule: evenodd;
        stroke-width: 0px;
      }
    </style>
  </defs>
  <g id="Warstwa_1-2" data-name="Warstwa 1">
    <g id="surface1">
      <path class="cls-1" d="M38.02,4.1v4.1h8.95V0h-8.95v4.1M16.96,13.79v4.1h9.13v-8.2h-9.13v4.1M27.44,13.74l.05,4.05,4.52.05,4.52.05v-8.21h-9.14l.05,4.05M38.02,13.79v4.1h8.95v-8.2h-8.95v4.1M65.83,13.56c-1.8,2.74-2.46,4.94-2.46,8.15,0,2.21.28,3.6,1.05,5.29.25.55.44,1.03.41,1.06-.29.29-3.33,1.06-4.75,1.2-1.05.1-13.99.18-30.83.18H.21s-.13,1.24-.13,1.24c-.22,2.02.03,6.67.46,8.6,1.03,4.67,2.95,8.68,5.74,12,4.02,4.77,9.83,7.62,17.38,8.54,2.06.25,7.9.24,10.63,0,16.96-1.57,29.89-10.09,36.79-24.24l1.33-2.73,1.86-.13c5.03-.36,8.28-2.27,10.38-6.08,1.29-2.34,1.29-2.26,0-3.13-.61-.41-1.62-.92-2.26-1.14-1.69-.57-4.63-.86-6.57-.64l-1.6.18-.23-1.03c-.25-1.14-1-2.75-1.83-3.96-.75-1.08-2.86-3.08-4.25-4.02l-1.15-.77-.94,1.44M6.52,23.39v4.01h9.13v-8.01H6.52v4.01M16.96,23.39v4.01h9.13v-8.01h-9.13v4.01M27.44,23.34l.05,3.96,4.52.05,4.52.05v-8.02h-9.14l.05,3.96M38.02,23.39v4.01h8.95v-8.01h-8.95v4.01M48.46,23.39v4.01h8.95v-8.01h-8.95v4.01"/>
    </g>
  </g>
</svg>