<?xml version="1.0" encoding="UTF-8"?>
<svg id="Warstwa_2" data-name="Warstwa 2" xmlns="http://www.w3.org/2000/svg" viewBox="0 0 58.33 59.99">
  <defs>
    <style>
      .cls-1 {
        fill: #ff2c1c;
        fill-rule: evenodd;
        stroke-width: 0px;
      }
    </style>
  </defs>
  <g id="Warstwa_1-2" data-name="Warstwa 1">
    <g id="surface1">
      <path class="cls-1" d="M11.4.31c-.31.17-2.93,1.68-5.82,3.34C.55,6.55.31,6.69.16,6.92l-.16.23v19.58c0,19.45,0,19.58.1,19.77.05.11.17.24.26.31.16.12,22.34,12.88,22.73,13.08.27.14.59.14.86,0,.4-.2,22.57-12.96,22.73-13.08.09-.07.2-.2.26-.31.1-.19.1-.3.1-6.47v-6.28l5.43-3.12c2.99-1.72,5.5-3.19,5.59-3.27.3-.29.29.14.28-7.1,0-6.35,0-6.65-.09-6.83-.05-.11-.14-.24-.21-.3-.06-.06-2.69-1.59-5.84-3.4-4.12-2.37-5.79-3.31-5.96-3.34-.2-.04-.27-.03-.47.05-.39.17-11.43,6.53-11.6,6.69-.32.29-.3-.14-.3,6.73v6.26l-.18.11c-.1.06-2.21,1.28-4.69,2.7l-4.5,2.59-.02-12.2-.02-12.2-.12-.18c-.07-.1-.22-.24-.34-.32-.24-.16-11.09-6.4-11.34-6.52-.09-.04-.27-.08-.42-.08-.23,0-.33.04-.82.31M7.55,4.73c-2.56,1.47-4.66,2.69-4.66,2.7,0,.02,2.51,1.47,8.37,4.83l.96.55,4.65-2.68c2.56-1.47,4.65-2.69,4.64-2.72-.01-.03-9.13-5.3-9.26-5.35-.03,0-2.15,1.19-4.71,2.66M41.42,11.11c-2.53,1.46-4.61,2.67-4.62,2.69-.01.02,2.08,1.25,4.64,2.72l4.66,2.68,4.66-2.68c2.56-1.48,4.67-2.69,4.68-2.7.02-.02-9.23-5.34-9.32-5.35-.04,0-2.15,1.18-4.69,2.64M1.91,27.3v18.21l10.3,5.92c5.66,3.26,10.31,5.92,10.33,5.92s.03-2.42.03-5.37v-5.37l-5.27-2.98c-2.9-1.64-5.38-3.05-5.52-3.14-.15-.1-.3-.25-.37-.37l-.12-.21-.02-12.73-.02-12.73-1.91-1.1c-1.05-.61-3.1-1.78-4.55-2.62-1.45-.83-2.69-1.55-2.75-1.59l-.11-.07v18.21M17.85,11.8l-4.69,2.7v11.75c0,10.57,0,11.75.08,11.73.04-.02,2.15-1.22,4.7-2.68l4.62-2.65v-11.77c0-6.47,0-11.77,0-11.77,0,0-2.12,1.22-4.7,2.7M35.77,20.82v5.33l4.65,2.67c2.56,1.47,4.66,2.67,4.67,2.67s.03-2.39.03-5.32v-5.32s-4.63-2.67-4.63-2.67c-2.55-1.47-4.65-2.67-4.67-2.68-.02,0-.04,2.38-.04,5.31M51.7,18.18l-4.65,2.68v5.34s-.02,5.34-.02,5.34l.24-.14c.13-.07,2.24-1.29,4.7-2.7l4.46-2.57v-5.32c0-2.92-.02-5.32-.04-5.32s-2.13,1.21-4.69,2.68M24.52,33.72c-5.64,3.24-10.27,5.91-10.29,5.93-.05.05,9.25,5.3,9.33,5.27.09-.03,20.5-11.67,20.55-11.72.03-.03-9.21-5.38-9.3-5.38-.02,0-4.65,2.65-10.29,5.9M34.76,40.75l-10.29,5.87v5.37c0,2.95.01,5.37.03,5.37s4.66-2.67,10.33-5.92l10.29-5.92v-5.32c0-2.93-.02-5.32-.04-5.32s-4.67,2.65-10.33,5.88"/>
    </g>
  </g>
</svg>