<svg xmlns="http://www.w3.org/2000/svg" width="1200" height="1228" viewBox="0 0 1200 1228" version="1.1"><path d="M 232.977 6.417 C 226.664 9.946, 173.125 40.691, 114 74.739 C 11.185 133.946, 6.358 136.852, 3.250 141.435 L 0 146.226 0 546.653 C 0 944.487, 0.013 947.105, 1.991 950.982 C 3.086 953.128, 5.448 955.972, 7.241 957.301 C 10.493 959.713, 463.724 1220.797, 471.710 1224.859 C 477.172 1227.637, 483.830 1227.636, 489.290 1224.857 C 497.425 1220.716, 950.538 959.713, 953.759 957.313 C 955.552 955.977, 957.914 953.128, 959.009 950.982 C 960.966 947.146, 961 944.908, 961 818.666 L 961 690.253 1072.026 626.377 C 1133.091 591.244, 1184.457 561.150, 1186.174 559.500 C 1192.357 553.558, 1192.002 562.436, 1191.978 414.282 C 1191.957 284.410, 1191.876 278.326, 1190.110 274.500 C 1189.095 272.300, 1187.192 269.536, 1185.882 268.357 C 1184.572 267.179, 1130.857 235.917, 1066.517 198.886 C 982.224 150.373, 948.201 131.285, 944.765 130.581 C 940.764 129.762, 939.233 129.928, 935.248 131.616 C 927.262 135, 701.731 265.111, 698.131 268.411 C 691.603 274.396, 692 265.481, 692 406.002 L 692 534.067 688.292 536.284 C 686.253 537.503, 643.165 562.361, 592.542 591.524 L 500.500 644.549 500 394.951 L 499.500 145.353 497 141.647 C 495.625 139.608, 492.475 136.645, 490 135.062 C 485.022 131.877, 263.407 4.267, 258.300 1.644 C 256.512 0.725, 252.750 0, 249.776 0 C 245.091 0, 243.078 0.769, 232.977 6.417 M 154.290 96.761 C 101.925 126.867, 59.078 151.725, 59.075 152 C 59.070 152.418, 110.406 182.069, 230.159 250.819 L 249.876 262.138 344.965 207.399 C 397.264 177.293, 439.929 152.292, 439.777 151.841 C 439.539 151.138, 253.255 43.422, 250.500 42.395 C 249.950 42.190, 206.656 66.654, 154.290 96.761 M 846.409 227.261 C 794.659 257.092, 752.134 281.867, 751.909 282.316 C 751.684 282.765, 794.329 307.788, 846.675 337.923 L 941.849 392.712 1037.098 337.849 C 1089.485 307.674, 1132.481 282.853, 1132.643 282.690 C 1133.134 282.200, 943.953 173.519, 942.159 173.261 C 941.247 173.129, 898.159 197.429, 846.409 227.261 M 39 558.257 L 39 930.744 249.381 1051.872 C 365.090 1118.492, 460.040 1173, 460.381 1173 C 460.721 1173, 461 1123.605, 461 1063.233 L 461 953.466 353.250 892.553 C 293.987 859.051, 243.230 830.164, 240.457 828.360 C 237.464 826.413, 234.414 823.336, 232.957 820.790 L 230.500 816.500 230 556.124 L 229.500 295.748 190.500 273.255 C 169.050 260.883, 127.200 236.793, 97.500 219.720 C 67.800 202.648, 42.487 188.025, 41.250 187.225 L 39 185.770 39 558.257 M 364.750 241.256 L 269 296.440 269 536.827 C 269 752.948, 269.156 777.154, 270.541 776.623 C 271.389 776.297, 314.572 751.612, 366.504 721.766 L 460.926 667.500 460.963 426.750 C 460.983 294.337, 460.887 186.016, 460.750 186.036 C 460.613 186.056, 417.413 210.905, 364.750 241.256 M 731 425.749 L 731 534.664 825.963 589.332 C 878.193 619.399, 921.168 644, 921.463 644 C 921.759 644, 921.995 595.063, 921.990 535.250 L 921.980 426.500 827.336 372 C 775.283 342.025, 732.312 317.350, 731.847 317.167 C 731.381 316.983, 731 365.845, 731 425.749 M 1056.500 371.868 L 961.500 426.633 961.246 535.839 L 960.991 645.046 965.803 642.273 C 968.450 640.748, 1011.651 615.875, 1061.805 587 L 1152.995 534.500 1152.997 425.750 C 1152.999 365.938, 1152.662 317.023, 1152.250 317.052 C 1151.838 317.080, 1108.750 341.747, 1056.500 371.868 M 500.958 689.565 C 385.756 755.875, 291.152 810.470, 290.727 810.887 C 289.680 811.915, 479.679 919.337, 481.386 918.682 C 483.202 917.985, 900.293 679.974, 901.257 679.085 C 901.956 678.439, 713.040 569, 711.227 569 C 710.781 569, 616.160 623.254, 500.958 689.565 M 710.250 833.329 L 500 953.455 500 1063.228 C 500 1123.602, 500.290 1173, 500.644 1173 C 500.998 1173, 595.948 1118.500, 711.644 1051.889 L 922 930.777 922 821.889 C 922 762, 921.663 713.046, 921.250 713.101 C 920.837 713.157, 825.888 767.259, 710.250 833.329" stroke="none" fill="#ff2c1c" fill-rule="evenodd"/><path d="" stroke="none" fill="#fc2c1c" fill-rule="evenodd"/></svg>