<?xml version="1.0" encoding="UTF-8"?>
<svg id="Warstwa_2" data-name="Warstwa 2" xmlns="http://www.w3.org/2000/svg" viewBox="0 0 114.03 60">
  <defs>
    <style>
      .cls-1 {
        fill: #5c5d86;
      }

      .cls-1, .cls-2, .cls-3, .cls-4 {
        fill-rule: evenodd;
        stroke-width: 0px;
      }

      .cls-2 {
        fill: #000;
      }

      .cls-3 {
        fill: #fbfbfb;
      }

      .cls-4 {
        fill: #464b8a;
      }
    </style>
  </defs>
  <g id="Warstwa_1-2" data-name="Warstwa 1">
    <g id="surface1">
      <path class="cls-4" d="M87.35,4.73c.01.08.06.6.11,1.15l.08,1,.14.06c.08.03.52.2.99.36,4.9,1.75,9.55,4.11,13.06,6.62,2.97,2.12,5.45,4.56,7.09,6.98,1.7,2.5,2.68,5.07,2.94,7.71.07.71.06,2.23-.02,2.94-.8,7.02-6.65,13.49-16.59,18.37-9.41,4.62-21.34,7.31-34.55,7.79l-1.41.05-1.13.56c-1.05.53-2.47,1.18-3.2,1.48l-.31.13.3.03c.81.08,5.1.03,7.56-.1,11.6-.58,22.34-2.95,31.39-6.94,1.14-.5,3.58-1.71,4.63-2.3,2.98-1.67,5.41-3.35,7.63-5.3.66-.58,2.11-2.02,2.7-2.69,2.11-2.38,3.58-4.84,4.43-7.42.63-1.89.85-3.26.85-5.29,0-1.4-.05-1.91-.3-3.14-1.71-8.56-10.41-16.33-23.92-21.35-.75-.28-2.41-.86-2.46-.86-.01,0-.01.07,0,.15M26.97,16.75c1.74,0,4.61,0,6.37,0s.33-.01-3.17-.01-4.94,0-3.2.01M58.12,16.75c.83,0,2.17,0,2.98,0s.13-.01-1.5-.01-2.3,0-1.47.01M78.07,16.75c1.74,0,4.61,0,6.37,0s.33-.01-3.17-.01-4.94,0-3.2.01M30.6,21.47c.64,0,1.67,0,2.29,0,.62,0,.1-.01-1.16-.01s-1.77,0-1.13.01M80.54,21.47s1.68.03,3.8,0c.45,0-.21-.02-1.48-.02-1.26,0-2.31,0-2.32.02"/>
      <path class="cls-2" d="M51.69,8.79s-5.72,29.49-5.8,29.88l-.03.13h6.46l.03-.1c.01-.06.76-3.89,1.66-8.51s1.64-8.45,1.66-8.51l.03-.11,3.26.02c3.1.02,3.28.02,3.69.11,1.53.34,1.99.89,1.99,2.39,0,.75.12.03-1.44,8.07-.7,3.62-1.28,6.6-1.28,6.61s1.47.02,3.27.02c3.08,0,3.27,0,3.3-.08.08-.25,2.79-14.35,2.85-14.81.1-.74.1-1.93,0-2.52-.22-1.33-.79-2.32-1.73-3.02-1.16-.86-2.91-1.37-5.31-1.55-.35-.03-2.15-.05-4.14-.05-2.93,0-3.52-.01-3.52-.06,0-.03.34-1.81.76-3.95.42-2.14.76-3.91.76-3.95,0-.05-.68-.06-3.23-.06-1.98,0-3.23.02-3.23.04M23.8,16.87c-.05.2-5.8,29.82-5.8,29.86,0,.02,1.45.04,3.25.04h3.25l.03-.15c.02-.08.36-1.87.77-3.97l.74-3.82,3.6-.03c3.96-.03,4.64-.07,6.16-.32,2.21-.37,3.91-1.11,5.58-2.43.6-.47,1.74-1.62,2.22-2.22,1.74-2.2,2.69-4.76,2.9-7.88.06-.93,0-1.9-.16-2.74-.68-3.35-3.1-5.52-6.94-6.2-1.25-.22-1.48-.23-8.76-.23h-6.82l-.02.1M74.84,17.26c-.05.27-1.36,6.97-2.9,14.9-1.54,7.92-2.81,14.45-2.82,14.51l-.03.1h3.27s3.27-.02,3.27-.02l.77-3.96c.42-2.18.77-3.96.77-3.97,0,0,1.63-.02,3.63-.03,3.81-.02,4.45-.05,5.82-.26,2.69-.41,4.75-1.39,6.65-3.15,2.35-2.19,3.68-4.73,4.19-7.95.28-1.77.24-3.31-.11-4.7-.69-2.73-2.77-4.7-5.82-5.5-.61-.16-1.69-.34-2.41-.41-.33-.03-3.05-.05-7.36-.05h-6.83l-.1.49M29.45,21.47s-2.46,12.48-2.46,12.58c0,.02,1.17.03,2.67.02,2.06-.02,2.8-.04,3.24-.1,2.6-.33,4.14-1.14,5.21-2.74.42-.62.7-1.22.98-2.05.38-1.13.58-2.22.63-3.34.04-1.03-.07-1.7-.4-2.38-.51-1.05-1.66-1.66-3.61-1.9-.72-.09-6.2-.16-6.25-.08M80.54,21.49s-.56,2.84-1.21,6.22c-.66,3.39-1.2,6.21-1.22,6.26l-.02.1h2.19c2.99,0,3.93-.07,5.18-.37.64-.15,1.23-.37,1.77-.65,1.6-.83,2.68-2.45,3.26-4.87.27-1.13.32-1.54.32-2.66,0-1.14-.05-1.43-.37-2.08-.24-.49-.77-1.01-1.3-1.27-.68-.33-1.32-.5-2.35-.63-.81-.1-6.21-.15-6.24-.06"/>
      <path class="cls-2" d="M51.69,8.79s-5.72,29.49-5.8,29.88l-.03.13h6.46l.03-.1c.01-.06.76-3.89,1.66-8.51s1.64-8.45,1.66-8.51l.03-.11,3.26.02c3.1.02,3.28.02,3.69.11,1.53.34,1.99.89,1.99,2.39,0,.75.12.03-1.44,8.07-.7,3.62-1.28,6.6-1.28,6.61s1.47.02,3.27.02c3.08,0,3.27,0,3.3-.08.08-.25,2.79-14.35,2.85-14.81.1-.74.1-1.93,0-2.52-.22-1.33-.79-2.32-1.73-3.02-1.16-.86-2.91-1.37-5.31-1.55-.35-.03-2.15-.05-4.14-.05-2.93,0-3.52-.01-3.52-.06,0-.03.34-1.81.76-3.95.42-2.14.76-3.91.76-3.95,0-.05-.68-.06-3.23-.06-1.98,0-3.23.02-3.23.04M23.8,16.87c-.05.2-5.8,29.82-5.8,29.86,0,.02,1.45.04,3.25.04h3.25l.03-.15c.02-.08.36-1.87.77-3.97l.74-3.82,3.6-.03c3.96-.03,4.64-.07,6.16-.32,2.21-.37,3.91-1.11,5.58-2.43.6-.47,1.74-1.62,2.22-2.22,1.74-2.2,2.69-4.76,2.9-7.88.06-.93,0-1.9-.16-2.74-.68-3.35-3.1-5.52-6.94-6.2-1.25-.22-1.48-.23-8.76-.23h-6.82l-.02.1M74.84,17.26c-.05.27-1.36,6.97-2.9,14.9-1.54,7.92-2.81,14.45-2.82,14.51l-.03.1h3.27s3.27-.02,3.27-.02l.77-3.96c.42-2.18.77-3.96.77-3.97,0,0,1.63-.02,3.63-.03,3.81-.02,4.45-.05,5.82-.26,2.69-.41,4.75-1.39,6.65-3.15,2.35-2.19,3.68-4.73,4.19-7.95.28-1.77.24-3.31-.11-4.7-.69-2.73-2.77-4.7-5.82-5.5-.61-.16-1.69-.34-2.41-.41-.33-.03-3.05-.05-7.36-.05h-6.83l-.1.49M29.45,21.47s-2.46,12.48-2.46,12.58c0,.02,1.17.03,2.67.02,2.06-.02,2.8-.04,3.24-.1,2.6-.33,4.14-1.14,5.21-2.74.42-.62.7-1.22.98-2.05.38-1.13.58-2.22.63-3.34.04-1.03-.07-1.7-.4-2.38-.51-1.05-1.66-1.66-3.61-1.9-.72-.09-6.2-.16-6.25-.08M80.54,21.49s-.56,2.84-1.21,6.22c-.66,3.39-1.2,6.21-1.22,6.26l-.02.1h2.19c2.99,0,3.93-.07,5.18-.37.64-.15,1.23-.37,1.77-.65,1.6-.83,2.68-2.45,3.26-4.87.27-1.13.32-1.54.32-2.66,0-1.14-.05-1.43-.37-2.08-.24-.49-.77-1.01-1.3-1.27-.68-.33-1.32-.5-2.35-.63-.81-.1-6.21-.15-6.24-.06"/>
      <path class="cls-3" d="M53.68.03c-7.76.27-14.77,1.23-21.49,2.95-5.35,1.37-9.84,2.99-14.21,5.15-2.18,1.08-3.69,1.93-5.43,3.07-1.4.92-2.83,1.97-2.87,2.12-.04.15.29,2.21.36,2.29.01.01.34-.22.72-.52,7.54-5.93,18.83-10.12,32.15-11.94,3.97-.54,8.08-.84,12.79-.92l1.7-.03-.14-.37c-.14-.39-.6-1.48-.71-1.69l-.06-.12h-1.23c-.67,0-1.39.02-1.59.02M51.2,7.6c-.26.12-.5.34-.61.57-.06.13-.57,2.64-1.52,7.52-.78,4.03-1.43,7.35-1.44,7.37,0,.03-.05-.12-.09-.32-.23-1.07-.8-2.35-1.39-3.18-.17-.24-.51-.65-.77-.91-.8-.83-1.47-1.33-2.55-1.86-1.44-.72-3.14-1.13-5.15-1.26-.99-.06-13.96-.06-14.19,0-.26.07-.6.32-.74.55-.12.19-.4,1.62-3.09,15.41-2.26,11.61-2.95,15.26-2.94,15.42.05.44.33.82.76,1.02.2.1.25.1,3.76.1,3.32,0,3.56,0,3.73-.08.26-.12.56-.42.66-.66.05-.12.4-1.8.77-3.73l.68-3.51,3.3-.02c3.53-.02,3.98-.05,5.47-.29,1.6-.26,2.79-.63,4.05-1.26,2.05-1.03,4.06-2.85,5.43-4.9.19-.28.34-.5.34-.48s-.24,1.27-.53,2.77c-.29,1.5-.53,2.84-.53,2.97,0,.44.24.82.65,1.06l.21.12h7.24l.21-.12c.27-.16.47-.38.56-.64.04-.11.78-3.85,1.65-8.31l1.57-8.11h2.56c2.24,0,2.62.01,2.99.08.6.11.93.25,1.01.42.09.19.12.88.05,1.37-.03.22-.65,3.47-1.38,7.22-1.39,7.13-1.36,6.98-1.2,7.36.09.21.36.5.58.62l.19.1h3.67c3.43,0,3.68,0,3.82-.08.09-.05.15-.06.15-.03,0,.03-.29,1.54-.65,3.36s-.65,3.42-.65,3.56c0,.47.29.9.74,1.11.21.1.24.1,3.76.1h3.55l.26-.13c.29-.14.5-.37.61-.65.04-.1.37-1.76.75-3.69l.68-3.5,3.27-.03c3.64-.03,4.34-.07,5.93-.37,2.71-.5,4.9-1.62,6.88-3.54,2.56-2.47,3.92-5.16,4.46-8.83.12-.8.17-2.61.09-3.35-.29-2.8-1.61-5.07-3.78-6.52-1.7-1.13-3.64-1.72-6.26-1.9-.4-.03-3.34-.05-7.34-.05-7.48,0-6.97-.02-7.36.33-.11.1-.24.26-.29.36-.05.1-.3,1.29-.62,2.91-.29,1.51-.54,2.75-.55,2.76s-.02-.06-.02-.16c0-.1-.03-.36-.07-.58-.52-2.99-2.58-4.7-6.4-5.34-1.26-.21-1.83-.24-5-.26l-3.02-.02.03-.12c.01-.07.31-1.56.65-3.33.48-2.49.62-3.26.6-3.43-.05-.45-.44-.92-.84-1.03-.11-.03-1.4-.05-3.68-.05-3.31,0-3.52,0-3.69.09M51.67,8.83s-1.32,6.78-2.91,14.97-2.9,14.91-2.91,14.94c-.02.05.65.06,3.24.06h3.26l1.67-8.58c.92-4.72,1.68-8.59,1.7-8.61.02-.02,1.44-.03,3.15-.02,2.67.02,3.17.03,3.55.1.82.15,1.3.34,1.65.65.22.2.43.62.5,1,.07.38.06,1.1-.02,1.65-.04.26-.65,3.46-1.37,7.13l-1.3,6.66h3.3c1.81.02,3.3.02,3.31.01.02-.02,2.76-14.16,2.84-14.65.1-.63.14-1.9.07-2.45-.24-1.87-1.05-3.06-2.65-3.86-.99-.49-2.15-.79-3.9-.99-.55-.06-1.3-.08-4.44-.1-3.49-.02-3.77-.03-3.75-.1.01-.04.35-1.79.76-3.88s.75-3.85.76-3.9l.02-.1h-3.25c-3.06,0-3.25,0-3.28.08M23.8,16.77c-.07.2-5.83,29.98-5.8,30,.02.02,1.49.03,3.28.02h3.25s.47-2.44.47-2.44c.26-1.34.61-3.13.78-4l.31-1.57h3.33c3.44,0,4.31-.03,5.6-.19,3.19-.4,5.39-1.44,7.56-3.61.95-.95,1.67-1.89,2.29-3,1.42-2.56,2.04-6.19,1.51-8.84-.67-3.34-3.2-5.56-7.08-6.21-1.2-.2-1.15-.2-8.44-.22-5.72-.01-7.03,0-7.04.04M74.9,16.82c-.08.35-5.8,29.84-5.8,29.91,0,.08.15.08,3.25.08,1.79,0,3.26-.02,3.27-.04.01-.02.37-1.82.79-4l.77-3.97,3.78-.02c3.84-.02,4.19-.03,5.5-.22,2.39-.34,4.36-1.16,6.1-2.55.53-.42,1.74-1.64,2.16-2.17,1.77-2.23,2.73-4.84,2.93-7.96.12-1.96-.24-3.7-1.08-5.12-1.21-2.06-3.34-3.36-6.3-3.84-1.08-.18-1.17-.18-8.33-.2l-7.02-.02-.02.11M29.44,21.54c-.03.1-2.41,12.35-2.41,12.43,0,.07.26.07,2.76.05,2.25-.02,2.86-.03,3.31-.1,2.32-.33,3.77-1.06,4.82-2.45.36-.47.92-1.58,1.13-2.25.47-1.45.72-3.13.63-4.23-.06-.63-.15-1.02-.37-1.49-.14-.31-.25-.45-.53-.74-.3-.3-.44-.39-.84-.59-.54-.26-1.25-.46-2.08-.58-.7-.1-6.39-.15-6.42-.05M80.54,21.58c-.04.14-2.41,12.39-2.41,12.43,0,.02,1.25.02,2.78.01,2.29-.02,2.88-.03,3.31-.1,1.81-.26,3.08-.76,4.01-1.58,1.18-1.03,2.01-2.76,2.4-4.99.3-1.73.23-2.92-.23-3.88-.49-1.02-1.56-1.6-3.43-1.88-.44-.06-1.02-.08-3.47-.1l-2.94-.02-.03.11M30.45,22.82c-.01.06-.45,2.28-.96,4.94-.52,2.66-.95,4.88-.96,4.94l-.02.1h1.71c1.72,0,2.36-.03,3.15-.17,2.14-.36,3.32-1.17,4.12-2.83.59-1.22.97-2.86.98-4.22,0-1.58-.4-2.17-1.77-2.56-.84-.24-1.2-.27-3.8-.29l-2.42-.02-.03.11M81.57,22.74s-.43,2.26-.96,4.98-.96,4.98-.96,5.02c0,.06.28.06,2.01.05,1.74-.02,2.08-.03,2.61-.12,1.09-.17,1.89-.43,2.55-.82.43-.25,1.1-.9,1.39-1.35.83-1.27,1.45-3.66,1.36-5.27-.04-.79-.2-1.27-.54-1.61s-1.12-.64-2.15-.8c-.39-.06-.95-.08-2.9-.1-1.33-.01-2.42,0-2.42.01"/>
      <path class="cls-1" d="M56.56.13c.11.21.57,1.3.71,1.69l.14.37-1.7.03c-.94.02-2.22.05-2.85.08-17.25.67-32.63,5.34-42.09,12.78-.38.3-.71.54-.72.52-.07-.07-.4-2.14-.36-2.28.03-.1.06-.12-.45.28-1.48,1.18-3.26,2.9-4.36,4.21C2.17,21.04.66,24.22.13,27.8c-.12.81-.17,2.71-.09,3.58.66,7.24,6.07,13.94,15.58,19.25,1.65.92,4.44,2.25,6.51,3.09,8.95,3.66,20.29,5.9,31.36,6.21l1,.03.35-.15c.86-.36,2.18-.97,3.22-1.49l1.13-.56,1.41-.05c16.07-.58,30.46-4.51,40.11-10.97,6.62-4.43,10.38-9.62,11.02-15.19.08-.71.09-2.23.02-2.94-.75-7.56-7.45-14.57-18.74-19.58-1.08-.48-3.19-1.32-4.35-1.74-.47-.17-.91-.33-.99-.36l-.14-.06-.08-1c-.12-1.39-.09-1.28-.37-1.39-1.36-.51-5.33-1.59-7.98-2.18C72.39.83,64.81,0,58.02,0h-1.52l.07.13M51.2,7.6c-.26.12-.5.34-.61.57-.06.13-.57,2.64-1.52,7.52-.78,4.03-1.43,7.35-1.44,7.37,0,.03-.05-.12-.09-.32-.23-1.07-.8-2.35-1.39-3.18-.17-.24-.51-.65-.77-.91-.8-.83-1.47-1.33-2.55-1.86-1.44-.72-3.14-1.13-5.15-1.26-.99-.06-13.96-.06-14.19,0-.26.07-.6.32-.74.55-.12.19-.4,1.62-3.09,15.41-2.26,11.61-2.95,15.26-2.94,15.42.05.44.33.82.76,1.02.2.1.25.1,3.76.1,3.32,0,3.56,0,3.73-.08.26-.12.56-.42.66-.66.05-.12.4-1.8.77-3.73l.68-3.51,3.3-.02c3.53-.02,3.98-.05,5.47-.29,1.6-.26,2.79-.63,4.05-1.26,2.05-1.03,4.06-2.85,5.43-4.9.19-.28.34-.5.34-.48s-.24,1.27-.53,2.77c-.29,1.5-.53,2.84-.53,2.97,0,.44.24.82.65,1.06l.21.12h7.24l.21-.12c.27-.16.47-.38.56-.64.04-.11.78-3.85,1.65-8.31l1.57-8.11h2.56c2.24,0,2.62.01,2.99.08.6.11.93.25,1.01.42.09.19.12.88.05,1.37-.03.22-.65,3.47-1.38,7.22-1.39,7.13-1.36,6.98-1.2,7.36.09.21.36.5.58.62l.19.1h3.67c3.43,0,3.68,0,3.82-.08.09-.05.15-.06.15-.03,0,.03-.29,1.54-.65,3.36s-.65,3.42-.65,3.56c0,.47.29.9.74,1.11.21.1.24.1,3.76.1h3.55l.26-.13c.29-.14.5-.37.61-.65.04-.1.37-1.76.75-3.69l.68-3.5,3.27-.03c3.64-.03,4.34-.07,5.93-.37,2.71-.5,4.9-1.62,6.88-3.54,2.56-2.47,3.92-5.16,4.46-8.83.12-.8.17-2.61.09-3.35-.29-2.8-1.61-5.07-3.78-6.52-1.7-1.13-3.64-1.72-6.26-1.9-.4-.03-3.34-.05-7.34-.05-7.48,0-6.97-.02-7.36.33-.11.1-.24.26-.29.36-.05.1-.3,1.29-.62,2.91-.29,1.51-.54,2.75-.55,2.76s-.02-.06-.02-.16c0-.1-.03-.36-.07-.58-.52-2.99-2.58-4.7-6.4-5.34-1.26-.21-1.83-.24-5-.26l-3.02-.02.03-.12c.01-.07.31-1.56.65-3.33.48-2.49.62-3.26.6-3.43-.05-.45-.44-.92-.84-1.03-.11-.03-1.4-.05-3.68-.05-3.31,0-3.52,0-3.69.09M30.45,22.82c-.01.06-.45,2.28-.96,4.94-.52,2.66-.95,4.88-.96,4.94l-.02.1h1.71c1.72,0,2.36-.03,3.15-.17,2.14-.36,3.32-1.17,4.12-2.83.59-1.22.97-2.86.98-4.22,0-1.58-.4-2.17-1.77-2.56-.84-.24-1.2-.27-3.8-.29l-2.42-.02-.03.11M81.57,22.74s-.43,2.26-.96,4.98-.96,4.98-.96,5.02c0,.06.28.06,2.01.05,1.74-.02,2.08-.03,2.61-.12,1.09-.17,1.89-.43,2.55-.82.43-.25,1.1-.9,1.39-1.35.83-1.27,1.45-3.66,1.36-5.27-.04-.79-.2-1.27-.54-1.61s-1.12-.64-2.15-.8c-.39-.06-.95-.08-2.9-.1-1.33-.01-2.42,0-2.42.01M26.99,34c0,.08.13.08,2.26.07h2.26s-2.22-.02-2.22-.02c-1.71,0-2.23-.03-2.26-.07-.03-.04-.04-.03-.04.02M79.22,34.07c.61,0,1.62,0,2.25,0,.63,0,.13-.01-1.11-.01s-1.75,0-1.14.01M17.98,46.73s.67.06,3.28.06,3.27-.01,3.28-.06c0-.03,0-.04-.01-.01-.02.03-1.1.05-3.27.05s-3.25-.02-3.27-.05c-.01-.03-.02-.02-.01.01M72.36,46.76l-3.28.02h3.26c2.14.02,3.27,0,3.29-.02.02-.03.02-.04.01-.03,0,0-1.49.02-3.29.03"/>
    </g>
  </g>
</svg>