<svg xmlns="http://www.w3.org/2000/svg" width="2560" height="1383" viewBox="0 0 2560 1383" version="1.1"><path d="M 1942.301 139.250 C 1942.592 141.037, 1943.654 152.348, 1944.661 164.383 L 1946.492 186.267 1949.496 187.609 C 1951.148 188.347, 1960.825 191.926, 1971 195.563 C 2077.921 233.778, 2179.395 285.197, 2256.091 340.025 C 2320.895 386.351, 2375.015 439.664, 2410.875 492.500 C 2447.946 547.122, 2469.257 603.095, 2474.975 660.856 C 2476.502 676.287, 2476.232 709.453, 2474.452 725 C 2456.906 878.247, 2329.443 1019.493, 2112.500 1126.090 C 1907.157 1226.987, 1646.777 1285.699, 1358.667 1296.070 L 1327.834 1297.179 1303.167 1309.505 C 1280.187 1320.988, 1249.255 1335.255, 1233.333 1341.714 L 1226.500 1344.486 1233 1345.132 C 1250.687 1346.891, 1344.196 1345.680, 1398 1342.995 C 1651.149 1330.365, 1885.399 1278.575, 2083.006 1191.550 C 2107.817 1180.624, 2161.028 1154.140, 2184 1141.284 C 2249.127 1104.837, 2301.986 1068.109, 2350.412 1025.656 C 2364.905 1012.951, 2396.358 981.590, 2409.241 967 C 2455.195 914.956, 2487.258 861.279, 2506.007 805 C 2519.735 763.793, 2524.530 733.762, 2524.448 689.500 C 2524.392 659.041, 2523.334 647.826, 2517.981 620.936 C 2480.766 434.011, 2290.874 264.401, 1996 154.706 C 1979.552 148.587, 1943.407 136, 1942.284 136 C 1942.003 136, 1942.011 137.463, 1942.301 139.250 M 624.672 401.750 C 662.716 401.895, 725.266 401.895, 763.672 401.750 C 802.077 401.605, 770.950 401.486, 694.500 401.486 C 618.050 401.486, 586.627 401.605, 624.672 401.750 M 1304.323 401.750 C 1322.375 401.902, 1351.625 401.902, 1369.323 401.749 C 1387.020 401.596, 1372.250 401.471, 1336.500 401.472 C 1300.750 401.472, 1286.270 401.597, 1304.323 401.750 M 1739.672 401.750 C 1777.716 401.895, 1840.266 401.895, 1878.672 401.750 C 1917.077 401.605, 1885.950 401.486, 1809.500 401.486 C 1733.050 401.486, 1701.627 401.605, 1739.672 401.750 M 703.820 504.749 C 717.745 504.906, 740.245 504.906, 753.820 504.749 C 767.394 504.592, 756 504.464, 728.500 504.464 C 701 504.464, 689.894 504.592, 703.820 504.749 M 1793.654 504.750 C 1793.232 505.431, 1830.264 505.419, 1876.500 504.723 C 1886.400 504.574, 1871.914 504.350, 1844.309 504.226 C 1816.704 504.102, 1793.909 504.337, 1793.654 504.750" stroke="none" fill="#464b8a" fill-rule="evenodd"/><path d="M 1164 227.938 C 1164 228.717, 1039.223 871.758, 1037.424 880.250 L 1036.841 883 1107.312 883 L 1177.783 883 1178.338 880.750 C 1178.644 879.513, 1194.921 795.925, 1214.511 695 C 1234.101 594.075, 1250.380 510.461, 1250.688 509.190 L 1251.247 506.880 1322.373 507.278 C 1389.967 507.656, 1393.972 507.780, 1403 509.763 C 1436.488 517.120, 1446.514 529.203, 1446.343 562 C 1446.258 578.326, 1449.041 562.712, 1414.932 738.278 C 1399.570 817.355, 1387 882.268, 1387 882.528 C 1387 882.787, 1419.145 883, 1458.433 883 C 1525.597 883, 1529.897 882.895, 1530.390 881.250 C 1532.032 875.768, 1591.242 568.061, 1592.623 557.830 C 1594.801 541.695, 1594.813 515.723, 1592.649 502.844 C 1587.752 473.695, 1575.467 452.275, 1554.875 436.978 C 1529.668 418.253, 1491.389 407.033, 1439.050 403.029 C 1431.474 402.449, 1392.063 402, 1348.800 402 C 1284.967 402, 1272 401.772, 1272 400.649 C 1272 399.906, 1279.422 361.094, 1288.494 314.399 C 1297.565 267.705, 1304.990 228.938, 1304.994 228.250 C 1304.999 227.262, 1290.237 227, 1234.500 227 C 1191.260 227, 1164 227.363, 1164 227.938 M 555.513 404.250 C 554.517 408.514, 429 1055.266, 429 1056.132 C 429 1056.614, 460.534 1057, 499.955 1057 L 570.909 1057 571.529 1053.750 C 571.869 1051.963, 579.445 1012.925, 588.364 967 L 604.580 883.500 683.040 882.866 C 769.492 882.168, 784.189 881.403, 817.500 875.870 C 865.624 867.876, 902.799 851.667, 939.293 822.766 C 952.380 812.403, 977.380 787.409, 987.720 774.351 C 1025.801 726.264, 1046.344 670.455, 1051.068 602.264 C 1052.476 581.944, 1051.212 560.738, 1047.503 542.417 C 1032.686 469.241, 979.803 421.978, 896 407.016 C 868.628 402.129, 863.720 402, 704.858 402 L 556.038 402 555.513 404.250 M 1669.167 412.750 C 1668.004 418.663, 1639.568 565.025, 1605.975 738 C 1572.382 910.975, 1544.646 1053.516, 1544.338 1054.757 L 1543.780 1057.013 1615.059 1056.757 L 1686.338 1056.500 1703.157 970 C 1712.407 922.425, 1719.981 883.443, 1719.988 883.373 C 1719.995 883.304, 1755.662 883.012, 1799.250 882.724 C 1882.357 882.176, 1896.362 881.542, 1926.345 876.973 C 1985.117 868.017, 2030.112 846.660, 2071.406 808.118 C 2122.659 760.283, 2151.814 704.951, 2162.887 634.500 C 2168.955 595.893, 2168.171 562.262, 2160.497 531.987 C 2145.366 472.299, 2100.002 429.385, 2033.582 411.929 C 2020.215 408.416, 1996.698 404.438, 1981 403.035 C 1973.754 402.387, 1914.339 402.006, 1820.390 402.003 L 1671.280 402 1669.167 412.750 M 678.636 504.780 C 678.046 505.735, 625 777.284, 625 779.349 C 625 779.838, 650.499 779.994, 683.250 779.705 C 728.286 779.308, 744.336 778.829, 754 777.593 C 810.771 770.331, 844.409 752.640, 867.714 717.789 C 876.767 704.250, 882.948 691.244, 888.997 673.005 C 897.206 648.254, 901.657 624.488, 902.670 600 C 903.598 577.555, 901.117 562.942, 893.841 548 C 882.660 525.040, 857.515 511.799, 814.966 506.465 C 799.364 504.509, 679.717 503.030, 678.636 504.780 M 1793.568 505.114 C 1793.307 505.876, 1781.375 567.025, 1767.051 641 C 1752.728 714.975, 1740.773 776.513, 1740.485 777.750 L 1739.962 780 1787.731 779.996 C 1852.960 779.992, 1873.407 778.542, 1900.721 771.985 C 1914.675 768.635, 1927.553 763.894, 1939.302 757.782 C 1974.117 739.669, 1997.843 704.253, 2010.501 651.500 C 2016.441 626.745, 2017.505 617.874, 2017.455 593.500 C 2017.403 568.618, 2016.261 562.203, 2009.354 548 C 2004.117 537.230, 1992.572 525.943, 1981 520.278 C 1966.232 513.049, 1952.221 509.266, 1929.724 506.431 C 1912.032 504.202, 1794.269 503.063, 1793.568 505.114" stroke="none" fill="#000000" fill-rule="evenodd"/><path d="M 1164 227.938 C 1164 228.717, 1039.223 871.758, 1037.424 880.250 L 1036.841 883 1107.312 883 L 1177.783 883 1178.338 880.750 C 1178.644 879.513, 1194.921 795.925, 1214.511 695 C 1234.101 594.075, 1250.380 510.461, 1250.688 509.190 L 1251.247 506.880 1322.373 507.278 C 1389.967 507.656, 1393.972 507.780, 1403 509.763 C 1436.488 517.120, 1446.514 529.203, 1446.343 562 C 1446.258 578.326, 1449.041 562.712, 1414.932 738.278 C 1399.570 817.355, 1387 882.268, 1387 882.528 C 1387 882.787, 1419.145 883, 1458.433 883 C 1525.597 883, 1529.897 882.895, 1530.390 881.250 C 1532.032 875.768, 1591.242 568.061, 1592.623 557.830 C 1594.801 541.695, 1594.813 515.723, 1592.649 502.844 C 1587.752 473.695, 1575.467 452.275, 1554.875 436.978 C 1529.668 418.253, 1491.389 407.033, 1439.050 403.029 C 1431.474 402.449, 1392.063 402, 1348.800 402 C 1284.967 402, 1272 401.772, 1272 400.649 C 1272 399.906, 1279.422 361.094, 1288.494 314.399 C 1297.565 267.705, 1304.990 228.938, 1304.994 228.250 C 1304.999 227.262, 1290.237 227, 1234.500 227 C 1191.260 227, 1164 227.363, 1164 227.938 M 555.513 404.250 C 554.517 408.514, 429 1055.266, 429 1056.132 C 429 1056.614, 460.534 1057, 499.955 1057 L 570.909 1057 571.529 1053.750 C 571.869 1051.963, 579.445 1012.925, 588.364 967 L 604.580 883.500 683.040 882.866 C 769.492 882.168, 784.189 881.403, 817.500 875.870 C 865.624 867.876, 902.799 851.667, 939.293 822.766 C 952.380 812.403, 977.380 787.409, 987.720 774.351 C 1025.801 726.264, 1046.344 670.455, 1051.068 602.264 C 1052.476 581.944, 1051.212 560.738, 1047.503 542.417 C 1032.686 469.241, 979.803 421.978, 896 407.016 C 868.628 402.129, 863.720 402, 704.858 402 L 556.038 402 555.513 404.250 M 1669.167 412.750 C 1668.004 418.663, 1639.568 565.025, 1605.975 738 C 1572.382 910.975, 1544.646 1053.516, 1544.338 1054.757 L 1543.780 1057.013 1615.059 1056.757 L 1686.338 1056.500 1703.157 970 C 1712.407 922.425, 1719.981 883.443, 1719.988 883.373 C 1719.995 883.304, 1755.662 883.012, 1799.250 882.724 C 1882.357 882.176, 1896.362 881.542, 1926.345 876.973 C 1985.117 868.017, 2030.112 846.660, 2071.406 808.118 C 2122.659 760.283, 2151.814 704.951, 2162.887 634.500 C 2168.955 595.893, 2168.171 562.262, 2160.497 531.987 C 2145.366 472.299, 2100.002 429.385, 2033.582 411.929 C 2020.215 408.416, 1996.698 404.438, 1981 403.035 C 1973.754 402.387, 1914.339 402.006, 1820.390 402.003 L 1671.280 402 1669.167 412.750 M 678.636 504.780 C 678.046 505.735, 625 777.284, 625 779.349 C 625 779.838, 650.499 779.994, 683.250 779.705 C 728.286 779.308, 744.336 778.829, 754 777.593 C 810.771 770.331, 844.409 752.640, 867.714 717.789 C 876.767 704.250, 882.948 691.244, 888.997 673.005 C 897.206 648.254, 901.657 624.488, 902.670 600 C 903.598 577.555, 901.117 562.942, 893.841 548 C 882.660 525.040, 857.515 511.799, 814.966 506.465 C 799.364 504.509, 679.717 503.030, 678.636 504.780 M 1793.568 505.114 C 1793.307 505.876, 1781.375 567.025, 1767.051 641 C 1752.728 714.975, 1740.773 776.513, 1740.485 777.750 L 1739.962 780 1787.731 779.996 C 1852.960 779.992, 1873.407 778.542, 1900.721 771.985 C 1914.675 768.635, 1927.553 763.894, 1939.302 757.782 C 1974.117 739.669, 1997.843 704.253, 2010.501 651.500 C 2016.441 626.745, 2017.505 617.874, 2017.455 593.500 C 2017.403 568.618, 2016.261 562.203, 2009.354 548 C 2004.117 537.230, 1992.572 525.943, 1981 520.278 C 1966.232 513.049, 1952.221 509.266, 1929.724 506.431 C 1912.032 504.202, 1794.269 503.063, 1793.568 505.114" stroke="none" fill="#000000" fill-rule="evenodd"/><path d="M 1207.500 36.654 C 1038.140 42.542, 885.206 63.513, 738.500 100.965 C 621.669 130.791, 523.791 166.316, 428.500 213.481 C 380.861 237.060, 347.904 255.695, 310 280.486 C 279.440 300.473, 248.233 323.497, 247.395 326.674 C 246.562 329.832, 253.664 374.998, 255.242 376.575 C 255.536 376.870, 262.612 371.731, 270.966 365.157 C 435.432 235.725, 681.931 144.158, 972.500 104.560 C 1059.191 92.746, 1148.877 86.262, 1251.669 84.377 L 1288.837 83.695 1285.885 75.689 C 1282.737 67.151, 1272.725 43.303, 1270.405 38.817 L 1269.011 36.120 1242.255 36.248 C 1227.540 36.318, 1211.900 36.501, 1207.500 36.654 M 1153.435 201.890 C 1147.716 204.488, 1142.488 209.360, 1140.078 214.338 C 1138.708 217.170, 1127.656 271.988, 1106.973 378.544 C 1089.897 466.520, 1075.790 538.950, 1075.624 539.500 C 1075.458 540.050, 1074.531 536.900, 1073.565 532.500 C 1068.442 509.184, 1056.194 481.132, 1043.253 463.080 C 1039.539 457.899, 1032.022 448.967, 1026.549 443.230 C 1009.187 425.033, 994.467 414.276, 970.921 402.579 C 939.480 386.961, 902.487 377.898, 858.517 375.039 C 836.883 373.633, 553.885 373.627, 548.823 375.033 C 543.101 376.622, 535.835 382.050, 532.778 387.019 C 530.256 391.118, 523.986 422.453, 465.439 723.519 C 416.167 976.896, 401.001 1056.606, 401.384 1060.172 C 402.423 1069.822, 408.543 1078.012, 418 1082.408 C 422.444 1084.474, 423.467 1084.500, 500 1084.500 C 572.408 1084.500, 577.751 1084.382, 581.317 1082.708 C 587.077 1080.005, 593.536 1073.524, 595.747 1068.227 C 596.833 1065.627, 604.396 1029.002, 612.555 986.838 L 627.389 910.177 699.445 909.719 C 776.567 909.230, 786.210 908.726, 818.703 903.480 C 853.672 897.835, 879.524 889.788, 907.025 875.988 C 951.820 853.508, 995.679 813.875, 1025.512 768.916 C 1029.630 762.710, 1033 757.980, 1033 758.405 C 1033 758.831, 1027.756 786.026, 1021.347 818.840 C 1014.939 851.653, 1009.728 880.830, 1009.769 883.678 C 1009.905 893.184, 1015.040 901.541, 1024 906.839 L 1028.500 909.500 1107.500 909.500 L 1186.500 909.500 1191.113 906.788 C 1196.966 903.347, 1201.309 898.411, 1203.371 892.855 C 1204.259 890.460, 1220.445 808.850, 1239.339 711.500 L 1273.691 534.500 1329.596 534.525 C 1378.464 534.546, 1386.679 534.769, 1394.866 536.295 C 1407.909 538.725, 1415.095 541.723, 1416.933 545.500 C 1418.913 549.568, 1419.487 564.752, 1418.065 575.437 C 1417.426 580.235, 1403.877 651.218, 1387.956 733.177 C 1357.700 888.923, 1358.255 885.525, 1361.685 893.772 C 1363.584 898.340, 1369.602 904.737, 1374.432 907.322 L 1378.500 909.500 1458.500 909.500 C 1533.244 909.500, 1538.714 909.383, 1541.750 907.724 C 1543.713 906.652, 1545 906.386, 1545 907.052 C 1545 907.659, 1538.663 940.633, 1530.918 980.327 C 1523.173 1020.022, 1516.828 1055.033, 1516.818 1058.130 C 1516.786 1068.318, 1523.107 1077.843, 1532.911 1082.377 C 1537.464 1084.483, 1538.114 1084.500, 1615 1084.500 L 1692.500 1084.500 1698.230 1081.686 C 1704.582 1078.567, 1709.241 1073.598, 1711.517 1067.512 C 1712.342 1065.306, 1719.690 1029.075, 1727.845 987 L 1742.673 910.500 1814.086 909.900 C 1893.506 909.233, 1908.822 908.285, 1943.500 901.894 C 2002.745 890.973, 2050.529 866.414, 2093.731 824.679 C 2149.477 770.827, 2179.207 712.019, 2191.140 632 C 2193.730 614.632, 2194.774 575.100, 2193.072 558.844 C 2186.672 497.717, 2157.857 448.046, 2110.500 416.506 C 2073.485 391.853, 2031.130 378.982, 1974 375.024 C 1965.327 374.423, 1901.002 374.016, 1813.932 374.010 C 1650.684 373.999, 1661.754 373.498, 1653.321 381.272 C 1650.852 383.548, 1647.992 387.055, 1646.966 389.066 C 1645.863 391.228, 1640.348 417.204, 1633.476 452.602 C 1627.082 485.536, 1621.660 512.674, 1621.426 512.908 C 1621.191 513.142, 1620.999 511.571, 1620.997 509.417 C 1620.995 507.263, 1620.304 501.557, 1619.461 496.738 C 1608.047 431.488, 1563.192 394.026, 1479.757 380.062 C 1452.282 375.463, 1439.768 374.800, 1370.694 374.283 L 1304.887 373.790 1305.443 371.145 C 1305.748 369.690, 1312.115 337, 1319.590 298.500 C 1330.134 244.201, 1333.058 227.410, 1332.625 223.639 C 1331.509 213.903, 1323.029 203.491, 1314.225 201.046 C 1311.806 200.374, 1283.682 200.017, 1234 200.028 C 1161.774 200.043, 1157.273 200.147, 1153.435 201.890 M 1163.617 228.750 C 1163.333 229.713, 1134.714 376.750, 1100.020 555.500 C 1065.326 734.250, 1036.743 881.063, 1036.501 881.750 C 1036.153 882.742, 1050.741 883, 1107.292 883 L 1178.521 883 1214.865 695.750 C 1234.854 592.763, 1251.560 508.125, 1251.989 507.666 C 1252.418 507.207, 1283.308 507.024, 1320.634 507.259 C 1378.833 507.626, 1389.853 507.929, 1397.999 509.388 C 1415.798 512.575, 1426.438 516.787, 1434.037 523.653 C 1438.775 527.933, 1443.417 537.227, 1444.916 545.434 C 1446.449 553.828, 1446.260 569.509, 1444.482 581.372 C 1443.647 586.942, 1430.240 656.975, 1414.689 737 L 1386.415 882.500 1458.368 882.757 C 1497.941 882.898, 1530.431 882.898, 1530.567 882.757 C 1530.955 882.354, 1590.773 573.630, 1592.523 563 C 1594.778 549.305, 1595.567 521.546, 1594.046 509.426 C 1588.917 468.552, 1571.078 442.559, 1536.146 425.058 C 1514.589 414.259, 1489.241 407.808, 1451 403.390 C 1438.945 401.998, 1422.625 401.640, 1354.211 401.269 C 1278.108 400.856, 1271.959 400.698, 1272.415 399.161 C 1272.686 398.248, 1280.133 360.150, 1288.965 314.500 C 1297.796 268.850, 1305.251 230.488, 1305.530 229.250 L 1306.038 227 1235.086 227 C 1168.377 227, 1164.104 227.105, 1163.617 228.750 M 555.515 402.206 C 553.975 406.579, 428.327 1056.643, 428.903 1057.257 C 429.294 1057.673, 461.491 1057.898, 500.453 1057.757 L 571.293 1057.500 581.594 1004.500 C 587.260 975.350, 594.899 936.087, 598.570 917.250 L 605.246 883 677.873 882.998 C 753.031 882.997, 771.976 882.358, 800 878.884 C 869.715 870.242, 917.538 847.383, 965.032 800 C 985.812 779.268, 1001.385 758.818, 1014.899 734.516 C 1045.961 678.661, 1059.520 599.395, 1047.897 541.620 C 1033.243 468.782, 978.030 420.317, 893.500 406.093 C 867.240 401.675, 868.483 401.707, 709.236 401.302 C 584.446 400.984, 555.887 401.152, 555.515 402.206 M 1670.531 403.206 C 1668.756 410.906, 1544 1054.736, 1544 1056.200 C 1544 1057.916, 1547.292 1058, 1614.941 1058 C 1653.959 1058, 1686.109 1057.633, 1686.385 1057.185 C 1686.662 1056.737, 1694.451 1017.397, 1703.694 969.761 L 1720.500 883.152 1803 882.710 C 1886.825 882.260, 1894.495 881.956, 1923 877.951 C 1975.214 870.616, 2018.095 852.696, 2056 822.372 C 2067.538 813.142, 2093.924 786.635, 2103.156 775 C 2141.709 726.415, 2162.653 669.390, 2166.988 601.201 C 2169.705 558.449, 2161.708 520.394, 2143.506 489.467 C 2117.032 444.484, 2070.585 416.157, 2006 405.604 C 1982.388 401.746, 1980.425 401.699, 1824.280 401.302 L 1671.060 400.911 1670.531 403.206 M 678.539 506.173 C 677.782 508.369, 626 775.852, 626 777.565 C 626 779, 631.736 779.109, 686.250 778.715 C 735.315 778.360, 748.710 777.969, 758.407 776.609 C 809.077 769.504, 840.716 753.395, 863.637 723.028 C 871.444 712.685, 883.604 688.576, 888.365 674 C 898.691 642.391, 904.134 605.604, 902.023 581.701 C 900.800 567.854, 898.728 559.546, 893.905 549.144 C 890.797 542.442, 888.493 539.252, 882.265 533.030 C 875.768 526.538, 872.774 524.429, 863.928 520.112 C 852.190 514.383, 836.726 510.026, 818.641 507.351 C 803.352 505.090, 679.272 504.047, 678.539 506.173 M 1793.681 507.174 C 1792.905 510.318, 1741 777.635, 1741 778.487 C 1741 778.858, 1768.338 778.965, 1801.750 778.724 C 1851.731 778.365, 1864.539 777.990, 1874 776.607 C 1913.506 770.833, 1941.103 759.934, 1961.571 742.023 C 1987.233 719.566, 2005.334 681.871, 2013.922 633 C 2020.542 595.326, 2019.010 569.287, 2008.942 548.325 C 1998.300 526.168, 1974.905 513.389, 1934 507.390 C 1924.441 505.988, 1911.680 505.631, 1858.378 505.275 L 1794.255 504.847 1793.681 507.174 M 700.522 534.160 C 700.213 535.447, 690.753 583.975, 679.500 642 C 668.247 700.025, 658.797 748.513, 658.501 749.750 L 657.962 752 695.231 751.999 C 732.831 751.998, 746.632 751.271, 764 748.376 C 810.649 740.598, 836.499 722.847, 853.996 686.575 C 866.836 659.956, 875.133 624.120, 875.312 594.500 C 875.522 559.937, 866.660 547.069, 836.791 538.568 C 818.539 533.372, 810.591 532.770, 753.792 532.278 L 701.083 531.821 700.522 534.160 M 1816 532.496 C 1816 532.861, 1806.550 581.794, 1795 641.237 C 1783.450 700.680, 1774 749.963, 1774 750.754 C 1774 751.991, 1780.147 752.129, 1817.750 751.736 C 1855.836 751.339, 1863.222 751.008, 1874.802 749.178 C 1898.517 745.432, 1915.939 739.862, 1930.500 731.372 C 1939.934 725.872, 1954.456 711.827, 1960.869 702 C 1979.010 674.204, 1992.502 622.099, 1990.648 587 C 1989.731 569.645, 1986.238 559.238, 1978.852 551.852 C 1971.107 544.107, 1954.495 537.911, 1931.970 534.364 C 1923.547 533.038, 1911.187 532.629, 1868.750 532.274 C 1839.737 532.031, 1816 532.131, 1816 532.496" stroke="none" fill="#fbfbfb" fill-rule="evenodd"/><path d="M 1270.374 38.757 C 1272.720 43.293, 1282.717 67.097, 1285.885 75.689 L 1288.837 83.695 1251.669 84.377 C 1231.226 84.752, 1203.250 85.496, 1189.500 86.031 C 813.138 100.669, 477.405 202.692, 270.966 365.157 C 262.612 371.731, 255.536 376.870, 255.242 376.575 C 253.739 375.073, 246.544 329.853, 247.329 326.848 C 247.918 324.597, 248.626 324.152, 237.500 333.026 C 205.136 358.841, 166.463 396.244, 142.383 425.020 C 83.443 495.453, 50.486 564.851, 38.866 643 C 36.243 660.642, 35.225 702.115, 36.949 721.120 C 51.295 879.280, 169.485 1025.384, 377.005 1141.492 C 412.945 1161.600, 473.890 1190.595, 519 1209.046 C 714.320 1288.938, 961.756 1337.926, 1203.322 1344.530 L 1225.143 1345.127 1232.822 1341.945 C 1251.580 1334.171, 1280.422 1320.871, 1303.167 1309.505 L 1327.834 1297.179 1358.667 1296.070 C 1709.422 1283.445, 2023.288 1197.574, 2233.926 1056.607 C 2378.296 959.990, 2460.528 846.619, 2474.452 725 C 2476.232 709.453, 2476.502 676.287, 2474.975 660.856 C 2458.633 495.764, 2312.310 342.858, 2066 233.482 C 2042.455 223.027, 1996.335 204.618, 1971 195.563 C 1960.825 191.926, 1951.148 188.347, 1949.496 187.609 L 1946.492 186.267 1944.661 164.383 C 1942.122 134.041, 1942.754 136.426, 1936.641 134.140 C 1906.962 123.042, 1820.388 99.431, 1762.500 86.646 C 1615.734 54.233, 1450.319 36.034, 1302.224 36.006 L 1268.949 36 1270.374 38.757 M 1153.435 201.890 C 1147.716 204.488, 1142.488 209.360, 1140.078 214.338 C 1138.708 217.170, 1127.656 271.988, 1106.973 378.544 C 1089.897 466.520, 1075.790 538.950, 1075.624 539.500 C 1075.458 540.050, 1074.531 536.900, 1073.565 532.500 C 1068.442 509.184, 1056.194 481.132, 1043.253 463.080 C 1039.539 457.899, 1032.022 448.967, 1026.549 443.230 C 1009.187 425.033, 994.467 414.276, 970.921 402.579 C 939.480 386.961, 902.487 377.898, 858.517 375.039 C 836.883 373.633, 553.885 373.627, 548.823 375.033 C 543.101 376.622, 535.835 382.050, 532.778 387.019 C 530.256 391.118, 523.986 422.453, 465.439 723.519 C 416.167 976.896, 401.001 1056.606, 401.384 1060.172 C 402.423 1069.822, 408.543 1078.012, 418 1082.408 C 422.444 1084.474, 423.467 1084.500, 500 1084.500 C 572.408 1084.500, 577.751 1084.382, 581.317 1082.708 C 587.077 1080.005, 593.536 1073.524, 595.747 1068.227 C 596.833 1065.627, 604.396 1029.002, 612.555 986.838 L 627.389 910.177 699.445 909.719 C 776.567 909.230, 786.210 908.726, 818.703 903.480 C 853.672 897.835, 879.524 889.788, 907.025 875.988 C 951.820 853.508, 995.679 813.875, 1025.512 768.916 C 1029.630 762.710, 1033 757.980, 1033 758.405 C 1033 758.831, 1027.756 786.026, 1021.347 818.840 C 1014.939 851.653, 1009.728 880.830, 1009.769 883.678 C 1009.905 893.184, 1015.040 901.541, 1024 906.839 L 1028.500 909.500 1107.500 909.500 L 1186.500 909.500 1191.113 906.788 C 1196.966 903.347, 1201.309 898.411, 1203.371 892.855 C 1204.259 890.460, 1220.445 808.850, 1239.339 711.500 L 1273.691 534.500 1329.596 534.525 C 1378.464 534.546, 1386.679 534.769, 1394.866 536.295 C 1407.909 538.725, 1415.095 541.723, 1416.933 545.500 C 1418.913 549.568, 1419.487 564.752, 1418.065 575.437 C 1417.426 580.235, 1403.877 651.218, 1387.956 733.177 C 1357.700 888.923, 1358.255 885.525, 1361.685 893.772 C 1363.584 898.340, 1369.602 904.737, 1374.432 907.322 L 1378.500 909.500 1458.500 909.500 C 1533.244 909.500, 1538.714 909.383, 1541.750 907.724 C 1543.713 906.652, 1545 906.386, 1545 907.052 C 1545 907.659, 1538.663 940.633, 1530.918 980.327 C 1523.173 1020.022, 1516.828 1055.033, 1516.818 1058.130 C 1516.786 1068.318, 1523.107 1077.843, 1532.911 1082.377 C 1537.464 1084.483, 1538.114 1084.500, 1615 1084.500 L 1692.500 1084.500 1698.230 1081.686 C 1704.582 1078.567, 1709.241 1073.598, 1711.517 1067.512 C 1712.342 1065.306, 1719.690 1029.075, 1727.845 987 L 1742.673 910.500 1814.086 909.900 C 1893.506 909.233, 1908.822 908.285, 1943.500 901.894 C 2002.745 890.973, 2050.529 866.414, 2093.731 824.679 C 2149.477 770.827, 2179.207 712.019, 2191.140 632 C 2193.730 614.632, 2194.774 575.100, 2193.072 558.844 C 2186.672 497.717, 2157.857 448.046, 2110.500 416.506 C 2073.485 391.853, 2031.130 378.982, 1974 375.024 C 1965.327 374.423, 1901.002 374.016, 1813.932 374.010 C 1650.684 373.999, 1661.754 373.498, 1653.321 381.272 C 1650.852 383.548, 1647.992 387.055, 1646.966 389.066 C 1645.863 391.228, 1640.348 417.204, 1633.476 452.602 C 1627.082 485.536, 1621.660 512.674, 1621.426 512.908 C 1621.191 513.142, 1620.999 511.571, 1620.997 509.417 C 1620.995 507.263, 1620.304 501.557, 1619.461 496.738 C 1608.047 431.488, 1563.192 394.026, 1479.757 380.062 C 1452.282 375.463, 1439.768 374.800, 1370.694 374.283 L 1304.887 373.790 1305.443 371.145 C 1305.748 369.690, 1312.115 337, 1319.590 298.500 C 1330.134 244.201, 1333.058 227.410, 1332.625 223.639 C 1331.509 213.903, 1323.029 203.491, 1314.225 201.046 C 1311.806 200.374, 1283.682 200.017, 1234 200.028 C 1161.774 200.043, 1157.273 200.147, 1153.435 201.890 M 700.522 534.160 C 700.213 535.447, 690.753 583.975, 679.500 642 C 668.247 700.025, 658.797 748.513, 658.501 749.750 L 657.962 752 695.231 751.999 C 732.831 751.998, 746.632 751.271, 764 748.376 C 810.649 740.598, 836.499 722.847, 853.996 686.575 C 866.836 659.956, 875.133 624.120, 875.312 594.500 C 875.522 559.937, 866.660 547.069, 836.791 538.568 C 818.539 533.372, 810.591 532.770, 753.792 532.278 L 701.083 531.821 700.522 534.160 M 1816 532.496 C 1816 532.861, 1806.550 581.794, 1795 641.237 C 1783.450 700.680, 1774 749.963, 1774 750.754 C 1774 751.991, 1780.147 752.129, 1817.750 751.736 C 1855.836 751.339, 1863.222 751.008, 1874.802 749.178 C 1898.517 745.432, 1915.939 739.862, 1930.500 731.372 C 1939.934 725.872, 1954.456 711.827, 1960.869 702 C 1979.010 674.204, 1992.502 622.099, 1990.648 587 C 1989.731 569.645, 1986.238 559.238, 1978.852 551.852 C 1971.107 544.107, 1954.495 537.911, 1931.970 534.364 C 1923.547 533.038, 1911.187 532.629, 1868.750 532.274 C 1839.737 532.031, 1816 532.131, 1816 532.496 M 625.015 778.250 C 625.001 779.896, 627.915 779.986, 674.250 779.760 L 723.500 779.520 675.053 779.250 C 637.830 779.043, 626.424 778.693, 625.818 777.740 C 625.261 776.863, 625.026 777.013, 625.015 778.250 M 1764.681 779.749 C 1777.980 779.906, 1800.030 779.907, 1813.681 779.749 C 1827.331 779.592, 1816.450 779.463, 1789.500 779.463 C 1762.550 779.463, 1751.381 779.592, 1764.681 779.749 M 428.408 1056.225 C 428.615 1057.244, 442.989 1057.500, 500 1057.500 C 557.011 1057.500, 571.385 1057.244, 571.592 1056.225 C 571.734 1055.524, 571.621 1055.411, 571.342 1055.975 C 571.002 1056.661, 547.377 1057, 500 1057 C 452.623 1057, 428.998 1056.661, 428.658 1055.975 C 428.379 1055.411, 428.266 1055.524, 428.408 1056.225 M 1615 1057 L 1543.500 1057.520 1614.691 1057.760 C 1661.334 1057.917, 1686.095 1057.655, 1686.500 1057 C 1686.840 1056.450, 1686.979 1056.108, 1686.809 1056.240 C 1686.639 1056.372, 1654.325 1056.714, 1615 1057" stroke="none" fill="#5c5d86" fill-rule="evenodd"/></svg>