<svg xmlns="http://www.w3.org/2000/svg" width="715" height="742" viewBox="0 0 715 742" version="1.1"><path d="M 489 11.001 C 473.278 12.439, 453.282 15.780, 439.330 19.302 C 426.359 22.576, 426.025 22.607, 417.330 21.361 C 390.616 17.531, 355.832 17.323, 335.819 20.871 C 321.033 23.493, 302.154 29.755, 290.314 35.964 L 281.129 40.781 274.314 38.389 C 247.160 28.859, 206.209 21.382, 175.500 20.347 C 78.929 17.093, 18.867 64.293, 4.789 154.500 C 1.586 175.028, 1.593 215.283, 4.803 235.721 C 9.818 267.644, 21.450 322.480, 27.985 345 C 28.544 346.925, 31.028 355.700, 33.505 364.500 C 56.261 445.332, 82.726 502.483, 110.141 529.993 C 129.616 549.536, 152.024 557.544, 174.201 552.887 C 180.945 551.471, 192.789 546.058, 199.163 541.479 L 204.101 537.930 209.801 543.045 C 218.007 550.410, 232.575 557.204, 247.500 560.627 C 258.254 563.093, 261.473 563.385, 278.500 563.439 C 298.979 563.505, 303.259 562.909, 318.813 557.833 C 323.935 556.161, 328.293 554.959, 328.496 555.162 C 328.699 555.366, 329.344 567.450, 329.929 582.016 C 331.959 632.569, 334.515 650.698, 343.152 675.806 C 353.811 706.791, 365.560 722.495, 385.500 732.408 C 406.523 742.859, 428.294 743.559, 461.853 734.861 C 499.041 725.223, 522.640 706.806, 538.513 675.034 C 547.608 656.829, 555.589 626.729, 558.407 600 C 559.559 589.077, 561.073 569.155, 561.970 553.112 C 562.505 543.549, 563.087 535.580, 563.263 535.403 C 563.440 535.227, 572.115 534.880, 582.542 534.633 C 610.598 533.968, 634.301 529.177, 652.904 520.412 C 680.534 507.393, 699.918 491.244, 707.224 475.155 C 711.290 466.203, 712.004 455.626, 709.068 447.855 C 704.688 436.265, 696.665 429.038, 684.434 425.670 C 675.942 423.332, 669.357 423.568, 649.659 426.918 C 631.298 430.041, 620.257 431.224, 619.587 430.140 C 619.359 429.772, 622.110 424.302, 625.700 417.985 C 635.681 400.422, 651.927 367.522, 660.504 347.500 C 699.148 257.298, 715.329 171.624, 703.377 120.500 C 699.753 104.998, 691.780 91.915, 676.038 75.637 C 647.868 46.507, 615.481 27.806, 575.424 17.541 C 552.239 11.600, 514.055 8.710, 489 11.001 M 484.329 30.093 C 470.728 31.306, 458.327 33.622, 441 38.183 C 432.475 40.428, 424.600 42.270, 423.500 42.278 C 422.400 42.286, 415.875 41.281, 409 40.045 C 391.111 36.829, 360.608 36.100, 343.765 38.486 C 323.794 41.315, 304.831 47.875, 290.549 56.895 L 284.248 60.875 273.062 56.934 C 234.358 43.301, 183.748 35.957, 149 38.931 C 112.244 42.077, 85.092 52.873, 63.877 72.777 C 45.296 90.209, 33.989 110.958, 26.638 141.108 C 22.326 158.796, 21.496 167.682, 21.558 195.500 C 21.621 223.499, 21.364 221.301, 30.015 268 C 35.805 299.257, 50.431 356.016, 61.453 390 C 88.090 472.133, 115.314 517.851, 145.291 530.790 C 151.401 533.427, 161.250 534.183, 168.851 532.598 C 182.313 529.791, 192.108 522.277, 209.766 501.209 C 220.966 487.845, 243.654 462.201, 252.160 453.291 L 258.088 447.081 265.935 450.532 C 274.484 454.290, 285.616 457, 292.506 457 C 294.913 457, 297.167 457.461, 297.514 458.023 C 298.159 459.067, 292.894 466.037, 285.571 473.834 C 279.641 480.148, 273.878 482.632, 254.923 487.047 C 229.591 492.946, 221.096 496.971, 216.991 505.018 C 213.155 512.537, 215.567 522.024, 222.839 528.018 C 228.206 532.443, 239.883 537.751, 249.803 540.277 C 257.348 542.198, 261.150 542.492, 278.500 542.496 C 294.468 542.499, 299.774 542.148, 304.820 540.753 C 315.622 537.766, 328.017 531.859, 336.180 525.806 C 340.487 522.613, 344.121 520, 344.256 520 C 344.390 520, 344.465 527.087, 344.423 535.750 C 344.304 560.109, 345.676 607.152, 346.987 623.636 C 349.319 652.970, 353.798 670.573, 362.701 685.402 C 376.310 708.069, 392.325 718.877, 417.215 722.190 C 428.451 723.687, 440.300 722.390, 459.437 717.570 C 498.912 707.626, 519.650 687.794, 529.579 650.488 C 532.477 639.600, 540.677 583.474, 544.991 545 C 548.797 511.060, 548.853 510.729, 550.677 511.430 C 554.633 512.948, 566.897 514.122, 578.810 514.123 C 593.466 514.125, 610.574 512.016, 624.648 508.471 C 654.244 501.017, 687.570 476.908, 690.522 460.815 C 691.792 453.896, 687.489 446.664, 680.500 443.972 C 676.030 442.250, 666.783 442.558, 655 444.821 C 630.104 449.603, 604.223 450.329, 593.500 446.546 C 585.850 443.848, 585.608 443.432, 588.891 438.647 C 603.475 417.392, 632.284 362.379, 645.001 331.500 C 664.094 285.140, 677.941 237.774, 684.176 197.500 C 687.183 178.070, 687.441 139.557, 684.644 127.500 C 680.962 111.630, 674.998 102.072, 658.033 84.855 C 627.845 54.218, 584.598 34.386, 538.500 30.039 C 525.945 28.855, 497.894 28.883, 484.329 30.093" stroke="none" fill="#040404" fill-rule="evenodd"/><path d="M 495.250 29.716 C 496.762 29.945, 499.238 29.945, 500.750 29.716 C 502.262 29.487, 501.025 29.300, 498 29.300 C 494.975 29.300, 493.738 29.487, 495.250 29.716 M 525.264 29.718 C 526.784 29.947, 529.034 29.941, 530.264 29.704 C 531.494 29.467, 530.250 29.279, 527.500 29.286 C 524.750 29.294, 523.744 29.488, 525.264 29.718 M 160.789 38.741 C 164.248 38.937, 169.648 38.936, 172.789 38.738 C 175.930 38.540, 173.100 38.380, 166.500 38.382 C 159.900 38.384, 157.330 38.546, 160.789 38.741 M 502 49.739 C 489.113 50.214, 459.986 53.810, 460.015 54.923 C 460.024 55.240, 464.636 57.939, 470.265 60.920 C 505.190 79.415, 533.807 105.833, 558.092 142 C 566.344 154.290, 579.655 180.751, 583.998 193.500 C 587.324 203.266, 587.399 203.843, 587.190 218.136 C 586.989 231.880, 586.254 239.543, 582.550 266.500 C 580.402 282.135, 580.638 295.583, 583.500 320.599 C 586.398 345.937, 586.738 366.900, 584.476 380.847 C 582.893 390.608, 577.737 405.871, 573.067 414.619 C 570.853 418.766, 570.561 420.047, 571.528 421.369 C 573.884 424.591, 573.795 424.700, 586.777 402.500 C 619.500 346.541, 646.412 278.146, 659.456 217.795 C 665.904 187.965, 668.170 150.463, 664.550 133.500 C 662.188 122.434, 660.256 118.519, 652.923 109.937 C 616.728 67.576, 566.094 47.380, 502 49.739 M 350.749 58.149 C 330.635 60.450, 306.854 69.486, 292.499 80.282 C 258.835 105.599, 236.806 151.268, 229.587 210.705 C 228.900 216.367, 228.649 221, 229.030 221 C 229.411 221, 233.498 219.239, 238.112 217.086 C 271.118 201.685, 302.269 198.921, 322.110 209.633 C 333.850 215.971, 343.845 229.580, 347.351 244 C 353.752 270.322, 356.424 294.898, 355.710 320.859 C 354.913 349.843, 351.935 362.111, 337.413 396.246 C 330.068 413.508, 321 438.340, 321 441.188 C 321 441.741, 322.259 441.882, 323.929 441.516 C 325.540 441.162, 329.319 441.327, 332.328 441.884 C 346.720 444.544, 357.455 453.974, 363.077 468.895 C 365.129 474.341, 365.196 476.198, 365.442 534.500 C 365.693 593.785, 366.495 614.129, 369.583 639.500 C 371.315 653.734, 373.269 660.589, 378.673 671.389 C 386.784 687.601, 398.805 697.691, 413.799 700.875 C 429.477 704.204, 455.812 699.517, 476 689.806 C 482.699 686.583, 486.095 684.104, 492.026 678.108 C 500.953 669.084, 505.764 660.012, 509.477 645.201 C 512.257 634.111, 517.672 598.726, 521.521 566.500 C 522.967 554.400, 525.465 533.746, 527.075 520.603 C 528.684 507.459, 530.016 493.059, 530.035 488.603 C 530.142 463.841, 538.257 449.025, 555.072 442.894 L 560.885 440.774 553.088 430.637 C 543.207 417.791, 540.964 414.196, 533.768 399.667 C 530.545 393.159, 524.510 381.704, 520.358 374.211 C 503.518 343.822, 493.737 322.549, 486.468 300.500 C 475.926 268.523, 475.200 245.838, 484.171 228.730 C 488.318 220.822, 498.098 211.045, 505.241 207.666 C 517.941 201.658, 535.816 198.804, 554.789 199.755 L 565.078 200.271 562.964 194.886 C 558.169 182.671, 548.415 164.331, 540.027 151.758 C 516.520 116.524, 487.689 91.201, 452.649 75.013 C 422.387 61.031, 382.803 54.481, 350.749 58.149 M 141 60.463 C 90.785 67.828, 61.985 92.249, 48.395 138.988 C 43.565 155.598, 42.614 164.473, 42.555 193.500 C 42.493 223.784, 42.628 224.937, 51.178 267.500 C 69.664 359.517, 97.872 442.619, 124.206 482.643 C 132.224 494.829, 143.244 506.540, 150 510.053 C 155.878 513.109, 164.822 513.322, 170.500 510.540 C 175.585 508.048, 185.725 497.915, 199.043 482.016 C 211.109 467.611, 225.553 451.381, 234.725 441.923 L 241.103 435.346 234.801 428.894 C 222.324 416.117, 212.483 398.732, 207.907 381.384 C 204.984 370.302, 204.359 350.466, 206.366 332.500 C 208.838 310.373, 209.402 286.789, 208.064 261.500 C 207.154 244.298, 207.124 234.873, 207.943 224.112 C 210.974 184.326, 220.206 148.425, 234.941 119.118 C 240.453 108.154, 252.115 91.019, 259.270 83.371 C 262.714 79.689, 264.922 76.556, 264.406 76.085 C 263.496 75.253, 233.840 67.083, 224.500 65.090 C 200.357 59.938, 159.874 57.695, 141 60.463 M 658 85.500 C 660.987 88.525, 663.657 91, 663.932 91 C 664.207 91, 661.987 88.525, 659 85.500 C 656.013 82.475, 653.343 80, 653.068 80 C 652.793 80, 655.013 82.475, 658 85.500 M 707.310 153.500 C 707.315 156.800, 707.502 158.029, 707.725 156.232 C 707.947 154.435, 707.943 151.735, 707.715 150.232 C 707.486 148.729, 707.304 150.200, 707.310 153.500 M 21.343 182.500 C 21.346 186.900, 21.522 188.576, 21.733 186.224 C 21.945 183.872, 21.942 180.272, 21.727 178.224 C 21.512 176.176, 21.339 178.100, 21.343 182.500 M 21.382 202.500 C 21.384 209.100, 21.546 211.670, 21.741 208.211 C 21.937 204.752, 21.936 199.352, 21.738 196.211 C 21.540 193.070, 21.380 195.900, 21.382 202.500 M 529.347 221.095 C 517.016 223.155, 507.454 228.950, 502.549 237.334 C 495.736 248.980, 497.316 270.577, 506.986 298 C 514.681 319.823, 521.366 333.848, 541.541 370.500 C 546.082 378.750, 551.253 388.762, 553.033 392.750 C 554.812 396.738, 556.605 400, 557.018 400 C 558.042 400, 562.459 387.854, 564.110 380.500 C 566.258 370.932, 565.782 342.862, 563.084 320 C 560.323 296.604, 560.595 273.607, 563.888 252 C 565.019 244.575, 566.242 234.632, 566.604 229.905 L 567.264 221.310 561.882 220.664 C 554.582 219.787, 535.674 220.038, 529.347 221.095 M 280.535 224.535 C 265.965 226.884, 247.195 234.013, 234.750 241.925 L 228.547 245.869 228.460 284.685 C 228.390 315.918, 228.024 326.137, 226.583 337 C 223.477 360.412, 225.470 375.267, 234.045 392.624 C 244.955 414.710, 263.055 429.687, 285.270 435.013 C 289.796 436.098, 295.160 436.989, 297.189 436.993 L 300.879 437 303.528 428.250 C 306.922 417.042, 312.608 402.277, 320.569 384 C 327.049 369.124, 330.621 358.174, 333.705 343.727 C 335.905 333.421, 336.165 298.422, 334.149 284 C 331.812 267.282, 326.990 245.661, 324.400 240.286 C 317.742 226.466, 302.502 220.994, 280.535 224.535 M 524.994 230.887 C 517.562 233.288, 512.608 237.675, 513.722 240.865 C 514.913 244.274, 519.580 248.081, 524.451 249.616 C 531.421 251.813, 536.981 250.282, 542.663 244.600 C 548.008 239.255, 549.058 235.613, 546.104 232.659 C 544.287 230.842, 542.644 230.467, 535.723 230.288 C 531.200 230.172, 526.372 230.441, 524.994 230.887 M 285.140 237.097 C 280.949 239.232, 280.799 239.466, 281.288 243.112 C 282.401 251.408, 291.573 259, 300.484 259 C 306.907 259, 313.680 255.710, 316.742 251.102 C 319.734 246.600, 319.605 245.405, 315.703 241.503 C 311.742 237.542, 307.006 235.984, 297 235.350 C 290.632 234.947, 288.842 235.211, 285.140 237.097 M 610.750 449.732 C 613.087 449.943, 616.913 449.943, 619.250 449.732 C 621.587 449.522, 619.675 449.349, 615 449.349 C 610.325 449.349, 608.413 449.522, 610.750 449.732 M 563.663 461.447 C 560.453 462.767, 556.955 464.636, 555.890 465.600 C 553.134 468.094, 550.854 476.854, 551.110 483.963 L 551.330 490.040 556.915 491.753 C 561.242 493.079, 566.104 493.452, 578.500 493.405 C 603.236 493.313, 623.002 489.150, 640.010 480.450 C 650.189 475.244, 663 466.638, 663 465.007 C 663 464.569, 661.313 464.597, 659.250 465.070 C 637.651 470.018, 604.594 471.030, 590.573 467.172 C 586.214 465.973, 580.258 463.643, 577.338 461.996 C 574.419 460.348, 571.461 459.011, 570.765 459.024 C 570.069 459.037, 566.873 460.127, 563.663 461.447 M 321.132 464.542 C 319.331 466.058, 314.184 471.834, 309.695 477.377 C 298.188 491.585, 294.598 494.803, 285.429 499.124 C 277.923 502.662, 271.546 504.523, 248.570 509.879 C 243.658 511.024, 239.232 512.368, 238.733 512.867 C 237.290 514.310, 247.670 518.672, 256.511 520.336 C 282.416 525.214, 303.121 522.364, 320.509 511.527 C 328.049 506.828, 340.714 494.388, 343.557 488.889 C 346.054 484.060, 345.102 476.021, 341.415 470.809 C 337.429 465.174, 334.025 462.870, 328.818 462.283 C 325.059 461.859, 323.924 462.193, 321.132 464.542 M 649 498.500 C 646.525 499.825, 644.855 500.930, 645.290 500.955 C 646.352 501.016, 654 497.086, 654 496.480 C 654 495.817, 654.041 495.800, 649 498.500 M 344.402 536 C 344.402 544.525, 344.556 548.013, 344.743 543.750 C 344.931 539.487, 344.931 532.513, 344.743 528.250 C 344.556 523.987, 344.402 527.475, 344.402 536 M 575.768 535.725 C 577.565 535.947, 580.265 535.943, 581.768 535.715 C 583.271 535.486, 581.800 535.304, 578.500 535.310 C 575.200 535.315, 573.971 535.502, 575.768 535.725 M 561.300 566 C 561.300 569.025, 561.487 570.263, 561.716 568.750 C 561.945 567.237, 561.945 564.763, 561.716 563.250 C 561.487 561.737, 561.300 562.975, 561.300 566 M 329.349 577 C 329.349 581.675, 329.522 583.587, 329.732 581.250 C 329.943 578.913, 329.943 575.087, 329.732 572.750 C 329.522 570.413, 329.349 572.325, 329.349 577 M 345.336 589 C 345.336 593.125, 345.513 594.813, 345.728 592.750 C 345.944 590.688, 345.944 587.313, 345.728 585.250 C 345.513 583.188, 345.336 584.875, 345.336 589 M 330.310 600.500 C 330.315 603.800, 330.502 605.029, 330.725 603.232 C 330.947 601.435, 330.943 598.735, 330.715 597.232 C 330.486 595.729, 330.304 597.200, 330.310 600.500 M 346.310 611.500 C 346.315 614.800, 346.502 616.029, 346.725 614.232 C 346.947 612.435, 346.943 609.735, 346.715 608.232 C 346.486 606.729, 346.304 608.200, 346.310 611.500 M 347.286 625.500 C 347.294 628.250, 347.488 629.256, 347.718 627.736 C 347.947 626.216, 347.941 623.966, 347.704 622.736 C 347.467 621.506, 347.279 622.750, 347.286 625.500 M 517 705.500 C 514.571 707.975, 512.809 710, 513.084 710 C 513.359 710, 515.571 707.975, 518 705.500 C 520.429 703.025, 522.191 701, 521.916 701 C 521.641 701, 519.429 703.025, 517 705.500 M 422.776 722.733 C 425.128 722.945, 428.728 722.942, 430.776 722.727 C 432.824 722.512, 430.900 722.339, 426.500 722.343 C 422.100 722.346, 420.424 722.522, 422.776 722.733" stroke="none" fill="#356493" fill-rule="evenodd"/></svg>