<?xml version="1.0" encoding="UTF-8"?>
<svg id="Warstwa_2" data-name="Warstwa 2" xmlns="http://www.w3.org/2000/svg" viewBox="0 0 58.18 60">
  <defs>
    <style>
      .cls-1 {
        fill: #040404;
      }

      .cls-1, .cls-2 {
        fill-rule: evenodd;
        stroke-width: 0px;
      }

      .cls-2 {
        fill: #356493;
      }
    </style>
  </defs>
  <g id="Warstwa_1-2" data-name="Warstwa 1">
    <g>
      <path class="cls-1" d="M39.96.06c-1.29.12-2.93.39-4.08.68-1.07.27-1.09.27-1.81.17-2.19-.31-5.05-.33-6.69-.04-1.21.22-2.76.73-3.74,1.24l-.75.4-.56-.2c-2.23-.78-5.59-1.4-8.11-1.48C6.29.56,1.35,4.44.2,11.85c-.26,1.69-.26,4.99,0,6.67.41,2.62,1.37,7.12,1.9,8.97.05.16.25.88.45,1.6,1.87,6.64,4.04,11.33,6.29,13.59,1.6,1.6,3.44,2.26,5.26,1.88.55-.12,1.53-.56,2.05-.94l.41-.29.47.42c.67.6,1.87,1.16,3.1,1.44.88.2,1.15.23,2.55.23,1.68,0,2.03-.04,3.31-.46.42-.14.78-.24.8-.22.02.02.07,1.01.12,2.21.17,4.15.38,5.64,1.09,7.7.88,2.54,1.84,3.83,3.48,4.65,1.73.86,3.51.92,6.27.2,3.05-.79,4.99-2.3,6.3-4.91.75-1.49,1.4-3.97,1.63-6.16.09-.9.22-2.53.29-3.85.04-.79.09-1.44.11-1.45.01-.01.73-.04,1.58-.06,2.3-.05,4.25-.45,5.78-1.17,2.27-1.07,3.86-2.4,4.46-3.72.33-.74.39-1.6.15-2.24-.36-.95-1.02-1.55-2.02-1.82-.7-.19-1.24-.17-2.86.1-1.51.26-2.41.35-2.47.26-.02-.03.21-.48.5-1,.82-1.44,2.15-4.14,2.86-5.79,3.17-7.41,4.5-14.44,3.52-18.64-.3-1.27-.95-2.35-2.25-3.68-2.31-2.39-4.97-3.93-8.26-4.77-1.9-.49-5.04-.73-7.1-.54M39.58,1.63c-1.12.1-2.14.29-3.56.66-.7.18-1.35.34-1.44.34s-.63-.08-1.19-.18c-1.47-.26-3.97-.32-5.36-.13-1.64.23-3.2.77-4.37,1.51l-.52.33-.92-.32c-3.18-1.12-7.33-1.72-10.19-1.48-3.02.26-5.25,1.14-6.99,2.78-1.53,1.43-2.45,3.14-3.06,5.61-.35,1.45-.42,2.18-.42,4.47,0,2.3-.02,2.12.69,5.95.48,2.57,1.68,7.23,2.58,10.02,2.19,6.74,4.42,10.5,6.88,11.56.5.22,1.31.28,1.93.15,1.11-.23,1.91-.85,3.36-2.58.92-1.1,2.78-3.2,3.48-3.93l.49-.51.64.28c.7.31,1.62.53,2.18.53.2,0,.38.04.41.08.05.09-.38.66-.98,1.3-.49.52-.96.72-2.52,1.09-2.08.48-2.78.81-3.11,1.48-.32.62-.12,1.4.48,1.89.44.36,1.4.8,2.21,1.01.62.16.93.18,2.36.18,1.31,0,1.75-.03,2.16-.14.89-.25,1.9-.73,2.58-1.23.35-.26.65-.48.66-.48s.02.58.01,1.29c0,2,.1,5.86.21,7.22.19,2.41.56,3.85,1.29,5.07,1.12,1.86,2.43,2.75,4.48,3.02.92.12,1.9.02,3.47-.38,3.24-.82,4.94-2.45,5.76-5.51.24-.89.91-5.5,1.27-8.66.31-2.79.32-2.81.47-2.76.32.12,1.33.22,2.31.22,1.2,0,2.61-.17,3.76-.46,2.43-.61,5.17-2.59,5.41-3.91.1-.57-.25-1.16-.82-1.38-.37-.14-1.13-.12-2.09.07-2.04.39-4.17.45-5.05.14-.63-.22-.65-.26-.38-.65,1.2-1.75,3.56-6.26,4.61-8.8,1.57-3.81,2.7-7.7,3.22-11,.25-1.6.27-4.76.04-5.75-.3-1.3-.79-2.09-2.19-3.5-2.48-2.52-6.03-4.14-9.82-4.5-1.03-.1-3.33-.09-4.45,0"/>
      <path class="cls-2" d="M40.47,1.6c.12.02.33.02.45,0s.02-.03-.23-.03-.35.02-.23.03M42.94,1.6c.12.02.31.02.41,0,.1-.02,0-.03-.23-.03-.23,0-.31.02-.18.04M13.01,2.34c.28.02.73.02.99,0,.26-.02.03-.03-.52-.03s-.75.01-.47.03M41.03,3.25c-1.06.04-3.45.33-3.45.43,0,.03.38.25.84.49,2.87,1.52,5.22,3.69,7.21,6.66.68,1.01,1.77,3.18,2.13,4.23.27.8.28.85.26,2.02-.02,1.13-.08,1.76-.38,3.97-.18,1.28-.16,2.39.08,4.44.24,2.08.27,3.8.08,4.95-.13.8-.55,2.05-.94,2.77-.18.34-.21.45-.13.55.19.26.19.27,1.25-1.55,2.69-4.6,4.9-10.21,5.97-15.17.53-2.45.72-5.53.42-6.92-.19-.91-.35-1.23-.95-1.93-2.97-3.48-7.13-5.14-12.39-4.94M28.61,3.94c-1.65.19-3.6.93-4.78,1.82-2.76,2.08-4.57,5.83-5.17,10.71-.06.46-.08.85-.05.85s.37-.14.75-.32c2.71-1.26,5.27-1.49,6.9-.61.96.52,1.78,1.64,2.07,2.82.53,2.16.75,4.18.69,6.31-.07,2.38-.31,3.39-1.5,6.19-.6,1.42-1.35,3.46-1.35,3.69,0,.05.1.06.24.03.13-.03.44-.02.69.03,1.18.22,2.06.99,2.53,2.22.17.45.17.6.19,5.39.02,4.87.09,6.54.34,8.62.14,1.17.3,1.73.75,2.62.67,1.33,1.65,2.16,2.88,2.42,1.29.27,3.45-.11,5.11-.91.55-.26.83-.47,1.32-.96.73-.74,1.13-1.49,1.43-2.7.23-.91.67-3.82.99-6.46.12-.99.32-2.69.46-3.77.13-1.08.24-2.26.24-2.63,0-2.03.68-3.25,2.06-3.75l.48-.17-.64-.83c-.81-1.05-1-1.35-1.59-2.54-.26-.53-.76-1.48-1.1-2.09-1.38-2.5-2.19-4.24-2.78-6.05-.87-2.63-.93-4.49-.19-5.89.34-.65,1.14-1.45,1.73-1.73,1.04-.49,2.51-.73,4.07-.65l.84.04-.17-.44c-.39-1-1.19-2.51-1.88-3.54-1.93-2.89-4.3-4.97-7.18-6.3-2.49-1.15-5.74-1.69-8.37-1.38M11.38,4.13c-4.12.6-6.49,2.61-7.6,6.45-.4,1.36-.47,2.09-.48,4.48,0,2.49,0,2.58.71,6.08,1.52,7.56,3.83,14.38,6,17.67.66,1,1.56,1.96,2.12,2.25.48.25,1.22.27,1.68.04.42-.2,1.25-1.04,2.34-2.34.99-1.18,2.18-2.52,2.93-3.29l.52-.54-.52-.53c-1.02-1.05-1.83-2.48-2.21-3.9-.24-.91-.29-2.54-.13-4.01.2-1.82.25-3.75.14-5.83-.07-1.41-.08-2.19,0-3.07.25-3.27,1.01-6.22,2.22-8.62.45-.9,1.41-2.31,2-2.94.28-.3.46-.56.42-.6-.07-.07-2.51-.74-3.28-.9-1.98-.42-5.31-.61-6.86-.38M53.84,6.18c.25.25.46.45.49.45s-.16-.2-.41-.45-.46-.45-.49-.45.16.2.41.45M57.89,11.77c0,.27.02.37.03.22.02-.15.02-.37,0-.49-.02-.12-.03,0-.03.27M1.56,14.15c0,.36.01.5.03.31.02-.19.02-.49,0-.66s-.03-.01-.03.35M1.56,15.79c0,.54.01.75.03.47.02-.28.02-.73,0-.99-.02-.26-.03-.03-.03.52M43.27,17.32c-1.01.17-1.8.65-2.2,1.33-.56.96-.43,2.73.36,4.98.63,1.79,1.18,2.94,2.84,5.95.37.68.8,1.5.94,1.83.15.33.29.6.33.6.08,0,.45-1,.58-1.6.18-.79.14-3.09-.08-4.97-.23-1.92-.2-3.81.07-5.58.09-.61.19-1.43.22-1.81l.05-.71-.44-.05c-.6-.07-2.15-.05-2.67.04M22.84,17.6c-1.2.19-2.74.78-3.76,1.43l-.51.32v3.19c-.01,2.56-.04,3.4-.16,4.3-.26,1.92-.09,3.14.61,4.57.9,1.81,2.38,3.04,4.21,3.48.37.09.81.16.98.16h.3s.22-.72.22-.72c.28-.92.75-2.13,1.4-3.63.53-1.22.83-2.12,1.08-3.31.18-.85.2-3.72.04-4.9-.19-1.37-.59-3.15-.8-3.59-.55-1.13-1.8-1.58-3.6-1.29M42.92,18.12c-.61.2-1.02.56-.93.82.1.28.48.59.88.72.57.18,1.03.05,1.5-.41.44-.44.53-.74.28-.98-.15-.15-.28-.18-.85-.19-.37,0-.77.01-.88.05M23.22,18.63c-.34.18-.36.19-.32.49.09.68.84,1.3,1.58,1.3.53,0,1.08-.27,1.34-.65.25-.37.24-.47-.09-.79-.33-.33-.71-.45-1.54-.51-.52-.03-.67-.01-.97.14M49.96,36.09c.19.02.51.02.7,0,.19-.02.03-.03-.35-.03s-.54.01-.35.03M46.09,37.05c-.26.11-.55.26-.64.34-.23.2-.41.92-.39,1.51l.02.5.46.14c.36.11.75.14,1.77.14,2.03,0,3.65-.35,5.05-1.06.84-.43,1.89-1.13,1.89-1.27,0-.04-.14-.03-.31,0-1.77.41-4.49.49-5.64.17-.36-.1-.85-.29-1.09-.43-.24-.14-.48-.25-.54-.24-.06,0-.32.09-.58.2M26.17,37.31c-.15.12-.57.6-.94,1.05-.94,1.17-1.24,1.43-1.99,1.79-.62.29-1.14.44-3.03.88-.4.09-.77.2-.81.25-.12.12.73.48,1.46.61,2.13.4,3.83.17,5.26-.72.62-.39,1.66-1.41,1.89-1.86.21-.4.13-1.06-.18-1.48-.33-.46-.61-.65-1.03-.7-.31-.03-.4,0-.63.19M53.1,40.1c-.2.11-.34.2-.3.2.09,0,.72-.32.72-.37,0-.05,0-.06-.41.17M28.09,43.18c0,.7.01.99.03.64.02-.35.02-.92,0-1.27-.02-.35-.03-.06-.03.64M47.09,43.15c.15.02.37.02.49,0,.12-.02,0-.03-.27-.03-.27,0-.37.02-.22.03M45.9,45.64c0,.25.02.35.03.23s.02-.33,0-.45-.03-.02-.03.23M26.85,46.54c0,.38.01.54.03.35.02-.19.02-.51,0-.7-.02-.19-.03-.03-.03.35M28.16,47.53c0,.34.01.48.03.31.02-.17.02-.45,0-.62-.02-.17-.03-.03-.03.31M26.93,48.47c0,.27.02.37.03.22.02-.15.02-.37,0-.49-.02-.12-.03,0-.03.27M28.24,49.38c0,.27.02.37.03.22.02-.15.02-.37,0-.49-.02-.12-.03,0-.03.27M28.32,50.53c0,.23.02.31.04.18.02-.12.02-.31,0-.41-.02-.1-.03,0-.03.23M42.26,57.1c-.2.2-.34.37-.32.37s.2-.17.4-.37.34-.37.32-.37-.2.17-.4.37M34.52,58.51c.19.02.49.02.66,0,.17-.02.01-.03-.35-.03-.36,0-.5.01-.31.03"/>
    </g>
  </g>
</svg>