<?xml version="1.0" encoding="UTF-8"?>
<svg version="1.1" xmlns="http://www.w3.org/2000/svg" width="360" height="270">
<path d="M0 0 C15.42905936 -0.18692617 30.85803399 -0.32797631 46.2879591 -0.41449738 C53.45253041 -0.45573996 60.616398 -0.51195981 67.78051758 -0.60351562 C74.02522844 -0.68328352 80.2694297 -0.73487209 86.51463586 -0.75270796 C89.82149556 -0.7631342 93.12655834 -0.79180801 96.4330349 -0.84584045 C100.12575632 -0.90379314 103.81544307 -0.91191787 107.50854492 -0.90820312 C108.60330643 -0.93696533 109.69806793 -0.96572754 110.82600403 -0.99536133 C118.07417284 -0.91629592 118.07417284 -0.91629592 120.75601292 1.73793507 C122.05082501 3.78054542 123.04792342 5.78051926 124 8 C124.57886963 8.97735107 125.15773926 9.95470215 125.75415039 10.96166992 C126.28000732 11.87537354 126.80586426 12.78907715 127.34765625 13.73046875 C127.94739258 14.77114502 128.54712891 15.81182129 129.16503906 16.8840332 C129.79120117 17.97417725 130.41736328 19.06432129 131.0625 20.1875 C131.71573242 21.3221167 132.36896484 22.4567334 133.04199219 23.62573242 C137.79089225 31.87702755 142.51979507 40.1398021 147.23071289 48.4128418 C147.68567139 49.21117432 148.14062988 50.00950684 148.609375 50.83203125 C149.02509766 51.56244629 149.44082031 52.29286133 149.86914062 53.04541016 C150.82521105 54.69789285 151.82228498 56.32654948 152.828125 57.94921875 C154 60 154 60 154 62 C154.66 62 155.32 62 156 62 C156.27908203 61.27200195 156.55816406 60.54400391 156.84570312 59.79394531 C157.92201602 57.18875817 159.1219019 54.7708223 160.46875 52.296875 C160.95230957 51.40766357 161.43586914 50.51845215 161.93408203 49.60229492 C162.45083496 48.6610376 162.96758789 47.71978027 163.5 46.75 C164.03608887 45.77071533 164.57217773 44.79143066 165.12451172 43.7824707 C169.51485125 35.80198531 174.07294708 27.9341341 178.74267578 20.11474609 C180.10817868 17.81804976 181.45970593 15.51352291 182.80859375 13.20703125 C183.26927246 12.41981689 183.72995117 11.63260254 184.20458984 10.8215332 C185.09244851 9.30361734 185.97952564 7.785244 186.86572266 6.26635742 C189.88837178 1.11162822 189.88837178 1.11162822 191 0 C192.54353131 -0.09584998 194.09145108 -0.1218807 195.63795471 -0.12025452 C196.64061371 -0.12162918 197.64327271 -0.12300385 198.67631531 -0.12442017 C200.34002922 -0.11902725 200.34002922 -0.11902725 202.03735352 -0.11352539 C203.19817444 -0.11367142 204.35899536 -0.11381744 205.55499268 -0.1139679 C209.41298252 -0.11326817 213.27092478 -0.10547298 217.12890625 -0.09765625 C219.79548728 -0.09579228 222.46206564 -0.09431912 225.12864685 -0.09336853 C231.4432888 -0.09025548 237.75791351 -0.08204244 244.07254785 -0.07201904 C251.25985633 -0.0608571 258.44716561 -0.05534725 265.6344806 -0.05032361 C280.42299589 -0.0398598 295.21149765 -0.02226086 310 0 C308.67380825 3.3779741 307.24435047 6.51778979 305.453125 9.67578125 C304.94547607 10.57321045 304.43782715 11.47063965 303.91479492 12.39526367 C303.09072144 13.83929565 303.09072144 13.83929565 302.25 15.3125 C301.67290283 16.32868408 301.09580566 17.34486816 300.5012207 18.3918457 C295.87393336 26.51846838 291.16804853 34.59817899 286.44213867 42.66772461 C281.93288736 50.37549195 277.48557324 58.1175751 273.0625 65.875 C262.55816247 84.29359479 251.96360151 102.65871837 241.2668457 120.96630859 C235.10485272 131.51909994 229.00373071 142.1067682 222.90429688 152.69580078 C220.98493338 156.02614252 219.06317647 159.35509148 217.140625 162.68359375 C211.40707941 172.61104751 205.68072764 182.54221011 200 192.5 C190.62804588 208.92504162 181.17206429 225.30113204 171.625 241.625 C166.31947438 250.69676633 161.10603644 259.81453763 156 269 C155.34 269 154.68 269 154 269 C153.44054687 267.9790625 152.88109375 266.958125 152.3046875 265.90625 C146.87743183 256.04754419 141.28465365 246.29677489 135.5949707 236.58740234 C131.03387608 228.79504944 126.53406092 220.96895283 122.0625 213.125 C112.17874599 195.79128531 102.1997161 178.51287086 92.1953125 161.24853516 C89.61835828 156.80026631 87.04711269 152.34875809 84.48046875 147.89453125 C78.3456571 137.24807686 72.19935276 126.60902971 66 116 C56.22620432 99.26910014 46.5504065 82.48236552 36.95056152 65.65112305 C31.63234832 56.32710785 26.28820211 47.01931748 20.875 37.75 C20.31530518 36.79125977 19.75561035 35.83251953 19.17895508 34.84472656 C16.13548285 29.63736795 13.07969071 24.43745476 10.015625 19.2421875 C9.36480957 18.13520508 8.71399414 17.02822266 8.04345703 15.88769531 C6.78770718 13.75205762 5.52840214 11.61850542 4.26513672 9.48730469 C3.70584473 8.53500977 3.14655273 7.58271484 2.5703125 6.6015625 C2.07289551 5.75932129 1.57547852 4.91708008 1.06298828 4.04931641 C0 2 0 2 0 0 Z " fill="#4DBA87" transform="translate(25,0)"/>
<path d="M0 0 C7.34506852 -0.18561146 14.68962934 -0.32762784 22.03657055 -0.41449738 C25.4484831 -0.45619925 28.85878819 -0.51271956 32.26977539 -0.60351562 C36.19397515 -0.70731526 40.11753129 -0.74593142 44.04296875 -0.78125 C45.26396774 -0.82254028 46.48496674 -0.86383057 47.7429657 -0.90637207 C55.999274 -0.91074517 55.999274 -0.91074517 58.79408264 1.63276672 C60.10846946 3.70309137 61.07006601 5.73402669 62 8 C62.57886963 8.97735107 63.15773926 9.95470215 63.75415039 10.96166992 C64.28000732 11.87537354 64.80586426 12.78907715 65.34765625 13.73046875 C65.94739258 14.77114502 66.54712891 15.81182129 67.16503906 16.8840332 C67.79120117 17.97417725 68.41736328 19.06432129 69.0625 20.1875 C69.71573242 21.3221167 70.36896484 22.4567334 71.04199219 23.62573242 C75.79089225 31.87702755 80.51979507 40.1398021 85.23071289 48.4128418 C85.68567139 49.21117432 86.14062988 50.00950684 86.609375 50.83203125 C87.23295898 51.92765381 87.23295898 51.92765381 87.86914062 53.04541016 C88.82521105 54.69789285 89.82228498 56.32654948 90.828125 57.94921875 C92 60 92 60 92 62 C92.66 62 93.32 62 94 62 C94.27908203 61.27200195 94.55816406 60.54400391 94.84570312 59.79394531 C95.92201602 57.18875817 97.1219019 54.7708223 98.46875 52.296875 C98.95230957 51.40766357 99.43586914 50.51845215 99.93408203 49.60229492 C100.45083496 48.6610376 100.96758789 47.71978027 101.5 46.75 C102.3041333 45.281073 102.3041333 45.281073 103.12451172 43.7824707 C107.51485125 35.80198531 112.07294708 27.9341341 116.74267578 20.11474609 C118.10817868 17.81804976 119.45970593 15.51352291 120.80859375 13.20703125 C121.49961182 12.02620972 121.49961182 12.02620972 122.20458984 10.8215332 C123.09244851 9.30361734 123.97952564 7.785244 124.86572266 6.26635742 C127.88837178 1.11162822 127.88837178 1.11162822 129 0 C130.77991924 -0.09370624 132.56356739 -0.11744271 134.34594727 -0.11352539 C136.05760826 -0.11341209 136.05760826 -0.11341209 137.80384827 -0.11329651 C139.0454924 -0.10813522 140.28713654 -0.10297394 141.56640625 -0.09765625 C143.46204567 -0.09553383 143.46204567 -0.09553383 145.39598083 -0.09336853 C148.76124889 -0.08870582 152.1264499 -0.0797148 155.49169922 -0.06866455 C158.9234967 -0.05844846 162.35530109 -0.05387049 165.78710938 -0.04882812 C172.52475824 -0.0377738 179.26237525 -0.0210171 186 0 C184.67380825 3.3779741 183.24435047 6.51778979 181.453125 9.67578125 C180.94547607 10.57321045 180.43782715 11.47063965 179.91479492 12.39526367 C179.09072144 13.83929565 179.09072144 13.83929565 178.25 15.3125 C177.67290283 16.32868408 177.09580566 17.34486816 176.5012207 18.3918457 C171.87474475 26.51704339 167.17017856 34.5956416 162.44433594 42.66333008 C157.91014141 50.41246546 153.44421692 58.19910161 149 66 C143.3932565 75.8404826 137.72577539 85.6433478 132.00561523 95.41845703 C127.83298858 102.55504642 123.7148689 109.72099587 119.62158203 116.90332031 C115.47545814 124.17591648 111.30537058 131.43454935 107.125 138.6875 C106.19699585 140.29987549 106.19699585 140.29987549 105.25024414 141.94482422 C101.5640629 148.33593353 97.82032105 154.68812703 94 161 C90.53615886 159.84538629 90.40448821 159.44862549 88.79296875 156.37109375 C88.37885742 155.59620605 87.96474609 154.82131836 87.53808594 154.02294922 C87.09239258 153.16975098 86.64669922 152.31655273 86.1875 151.4375 C85.1993997 149.59355693 84.20838758 147.75117197 83.21484375 145.91015625 C82.69132324 144.93965332 82.16780273 143.96915039 81.62841797 142.96923828 C78.93011865 138.04919086 76.09238569 133.21280594 73.25 128.375 C72.05584086 126.33862887 70.86183281 124.30216914 69.66796875 122.265625 C69.0651709 121.23759766 68.46237305 120.20957031 67.84130859 119.15039062 C64.72654922 113.82118683 61.64418136 108.47337925 58.5625 103.125 C57.94020508 102.04524902 57.31791016 100.96549805 56.67675781 99.85302734 C55.41471274 97.66285466 54.15283148 95.47258757 52.89111328 93.28222656 C49.76319854 87.85340062 46.63146269 82.42677993 43.5 77 C39.73636081 70.47766725 35.97355378 63.95486238 32.21484375 57.4296875 C24.91917926 44.76768156 17.59108043 32.12534544 10.21875 19.5078125 C9.44144531 18.17411621 9.44144531 18.17411621 8.6484375 16.81347656 C7.45356065 14.77411624 6.24919417 12.74030636 5.0390625 10.70996094 C4.39710937 9.6274707 3.75515625 8.54498047 3.09375 7.4296875 C2.50271484 6.43952637 1.91167969 5.44936523 1.30273438 4.42919922 C0 2 0 2 0 0 Z " fill="#435466" transform="translate(87,0)"/>
</svg>
