<?xml version="1.0" encoding="UTF-8"?>
<svg id="Warstwa_2" data-name="Warstwa 2" xmlns="http://www.w3.org/2000/svg" viewBox="0 0 68.89 60">
  <defs>
    <style>
      .cls-1 {
        fill: #4dba87;
      }

      .cls-1, .cls-2 {
        stroke-width: 0px;
      }

      .cls-2 {
        fill: #435466;
      }
    </style>
  </defs>
  <g id="Warstwa_1-2" data-name="Warstwa 1">
    <path class="cls-1" d="M0,.22c3.43-.04,6.86-.07,10.29-.09,1.59,0,3.18-.02,4.78-.04,1.39-.02,2.78-.03,4.16-.03.73,0,1.47,0,2.2-.02.82-.01,1.64-.01,2.46-.01.24,0,.49-.01.74-.02q1.61.02,2.21.61c.29.45.51.9.72,1.39.13.22.26.43.39.66.12.2.23.41.35.62.13.23.27.46.4.7.14.24.28.48.42.73.15.25.29.5.44.76,1.06,1.83,2.11,3.67,3.15,5.51.1.18.2.35.31.54.09.16.18.32.28.49.21.37.43.73.66,1.09q.26.46.26.9h.44c.06-.16.12-.32.19-.49.24-.58.51-1.12.81-1.67.11-.2.21-.4.33-.6.11-.21.23-.42.35-.63.12-.22.24-.44.36-.66.98-1.77,1.99-3.52,3.03-5.26.3-.51.6-1.02.9-1.54.1-.17.2-.35.31-.53.2-.34.39-.67.59-1.01q.67-1.15.92-1.39c.34-.02.69-.03,1.03-.03.22,0,.45,0,.68,0q.37,0,.75,0c.26,0,.52,0,.78,0,.86,0,1.71,0,2.57,0,.59,0,1.19,0,1.78,0,1.4,0,2.81,0,4.21,0,1.6,0,3.19,0,4.79,0,3.29,0,6.57,0,9.86.01-.29.75-.61,1.45-1.01,2.15-.11.2-.23.4-.34.6q-.18.32-.37.65c-.13.23-.26.45-.39.68-1.03,1.81-2.07,3.6-3.12,5.39-1,1.71-1.99,3.43-2.97,5.16-2.33,4.09-4.69,8.17-7.07,12.24-1.37,2.35-2.73,4.7-4.08,7.05-.43.74-.85,1.48-1.28,2.22-1.27,2.21-2.55,4.41-3.81,6.63-2.08,3.65-4.18,7.29-6.31,10.92-1.18,2.02-2.34,4.04-3.47,6.08h-.44c-.12-.23-.25-.45-.38-.69-1.21-2.19-2.45-4.36-3.71-6.52-1.01-1.73-2.01-3.47-3.01-5.21-2.2-3.85-4.41-7.69-6.64-11.53-.57-.99-1.14-1.98-1.71-2.97-1.36-2.37-2.73-4.73-4.11-7.09-2.17-3.72-4.32-7.45-6.46-11.19-1.18-2.07-2.37-4.14-3.57-6.2-.12-.21-.25-.43-.38-.65-.68-1.16-1.36-2.31-2.04-3.47-.14-.25-.29-.49-.44-.75-.28-.47-.56-.95-.84-1.42-.12-.21-.25-.42-.38-.64-.11-.19-.22-.37-.33-.57q-.24-.46-.24-.9Z"/>
    <path class="cls-2" d="M13.78.22c1.63-.04,3.26-.07,4.9-.09.76,0,1.52-.02,2.27-.04.87-.02,1.74-.03,2.62-.04.27,0,.54-.02.82-.03q1.83,0,2.46.56c.29.46.51.91.71,1.41.13.22.26.43.39.66.12.2.23.41.35.62.13.23.27.46.4.7.14.24.28.48.42.73.15.25.29.5.44.76,1.06,1.83,2.11,3.67,3.15,5.51.1.18.2.35.31.54q.14.24.28.49c.21.37.43.73.66,1.09q.26.46.26.9h.44c.06-.16.12-.32.19-.49.24-.58.51-1.12.81-1.67.11-.2.21-.4.33-.6.11-.21.23-.42.35-.63q.18-.33.36-.66c.98-1.77,1.99-3.52,3.03-5.26.3-.51.6-1.02.9-1.54q.15-.26.31-.53c.2-.34.39-.67.59-1.01q.67-1.15.92-1.39c.4-.02.79-.03,1.19-.03q.38,0,.77,0c.28,0,.55,0,.84,0q.42,0,.85,0c.75,0,1.5,0,2.24,0,.76,0,1.53,0,2.29,0,1.5,0,2.99,0,4.49.01-.29.75-.61,1.45-1.01,2.15-.11.2-.23.4-.34.6q-.18.32-.37.65c-.13.23-.26.45-.39.68-1.03,1.81-2.07,3.6-3.12,5.39-1.01,1.72-2,3.45-2.99,5.19-1.25,2.19-2.51,4.37-3.78,6.54-.93,1.59-1.84,3.18-2.75,4.77-.92,1.62-1.85,3.23-2.78,4.84q-.21.36-.42.72c-.82,1.42-1.65,2.83-2.5,4.23-.77-.26-.8-.34-1.16-1.03-.09-.17-.18-.34-.28-.52-.1-.19-.2-.38-.3-.57-.22-.41-.44-.82-.66-1.23-.12-.22-.23-.43-.35-.65-.6-1.09-1.23-2.17-1.86-3.24-.27-.45-.53-.91-.8-1.36-.13-.23-.27-.46-.41-.69-.69-1.18-1.38-2.37-2.06-3.56-.14-.24-.28-.48-.42-.73-.28-.49-.56-.97-.84-1.46-.7-1.21-1.39-2.41-2.09-3.62-.84-1.45-1.67-2.9-2.51-4.35-1.62-2.81-3.25-5.62-4.89-8.43q-.17-.3-.35-.6c-.27-.45-.53-.91-.8-1.36-.14-.24-.29-.48-.43-.73-.13-.22-.26-.44-.4-.67q-.29-.54-.29-.98Z"/>
  </g>
</svg>