<svg width="652" height="281" viewBox="0 0 652 281" fill="none" xmlns="http://www.w3.org/2000/svg" aria-hidden="true">
<mask id="mask0_102_517" style="mask-type:luminance" maskUnits="userSpaceOnUse" x="-34" y="-78" width="686" height="359">
<path d="M651.99 280.812L651.99 -77.4023L-33.2127 -77.4023L-33.2127 280.812L651.99 280.812Z" fill="white"/>
<path d="M-32.7127 -76.9023L651.49 -76.9023L651.49 280.312L-32.7127 280.312L-32.7127 -76.9023Z" stroke="white"/>
</mask>
<g mask="url(#mask0_102_517)">
<path d="M651.707 -42.5537C651.707 -42.5537 548.881 4.00764 567.161 119.041C587.661 248.021 468.899 303.459 387.785 271.503C306.671 239.546 289.524 97.6071 158.14 117.453C26.7554 137.299 -32.6573 -35.2527 -32.6573 -35.2527" stroke="#2148E5" stroke-opacity="1" stroke-width="2" stroke-miterlimit="10"/>
<path d="M532.885 -77.2461C532.885 -77.2461 488.327 21.0737 504.322 118.901C520.316 216.729 448.408 228.169 419.775 216.729C360.366 192.991 348.941 66.0921 252.969 57.8723C180.826 51.6961 83.8766 100.781 32.4633 -10.5965" stroke="#2148E5" stroke-opacity="1" stroke-width="2" stroke-miterlimit="10"/>
<path d="M484.899 -33.4244C484.899 -33.4244 500.947 67.0716 430.059 49.1321C348.806 28.5708 350.082 -19.7303 247.255 25.9169C210.682 42.1523 63.3104 46.9147 93.0156 -42.5557" stroke="#2148E5" stroke-opacity="1" stroke-width="2" stroke-miterlimit="10"/>
<path d="M433.486 182.035C416.449 182.035 402.638 161.802 402.638 136.843C402.638 111.885 416.449 91.6509 433.486 91.6509C450.522 91.6509 464.334 111.885 464.334 136.843C464.334 161.802 450.522 182.035 433.486 182.035Z" stroke="#2148E5" stroke-opacity="1" stroke-width="2" stroke-miterlimit="10"/>
</g>
</svg>
