<svg xmlns="http://www.w3.org/2000/svg" xmlns:xlink="http://www.w3.org/1999/xlink" version="1.1" viewBox="153.1 195.93 572.55 147.17">
<defs>
<clipPath id="clip_0">
<path transform="matrix(1,0,0,-1,0,595.28)" d="M0 595.28H841.89V0H0Z"/>
</clipPath>
</defs>
<g id="layer_1" data-name="Warstwa 1">
<g clip-path="url(#clip_0)">
<path transform="matrix(1,0,0,-1,325.7881,285.1736)" d="M0 0C0-5.855 .922-10.187 2.768-12.989 5.358-16.965 8.801-18.952 13.096-18.952 16.397-18.952 19.209-17.541 21.534-14.72 23.858-11.898 25.021-7.453 25.021-1.384 25.021 5.076 23.85 9.734 21.508 12.592 19.166 15.448 16.166 16.877 12.511 16.877 8.925 16.877 5.944 15.483 3.567 12.697 1.188 9.911 0 5.679 0 0M-14.854-29.493V48.553H.106V20.444C4.72 25.696 10.186 28.323 16.503 28.323 23.389 28.323 29.085 25.829 33.593 20.843 38.1 15.856 40.354 8.695 40.354-.639 40.354-10.293 38.056-17.728 33.459-22.945 28.863-28.162 23.282-30.771 16.716-30.771 13.486-30.771 10.301-29.963 7.16-28.349 4.019-26.734 1.313-24.348-.958-21.188V-29.493Z" fill="#272525"/>
<path transform="matrix(1,0,0,-1,0,595.28)" d="M378.173 358.66H393.133V280.614H378.173Z" fill="#272525"/>
<path transform="matrix(1,0,0,-1,445.6787,314.66673)" d="M0 0V8.465C-2.06 5.447-4.765 3.069-8.118 1.331-11.473-.407-15.013-1.277-18.739-1.277-22.538-1.277-25.945-.443-28.961 1.225-31.979 2.893-34.161 5.234-35.51 8.252-36.859 11.268-37.533 15.438-37.533 20.763V56.538H-22.573V30.559C-22.573 22.607-22.298 17.736-21.747 15.944-21.198 14.152-20.195 12.732-18.739 11.686-17.284 10.639-15.438 10.115-13.203 10.115-10.647 10.115-8.358 10.815-6.335 12.218-4.313 13.62-2.929 15.359-2.183 17.436-1.438 19.512-1.065 24.596-1.065 32.688V56.538H13.896V0Z" fill="#272525"/>
<path transform="matrix(1,0,0,-1,473.9473,258.12864)" d="M0 0H13.789V-7.719C18.722-1.722 24.596 1.278 31.41 1.278 35.031 1.278 38.172 .533 40.834-.958 43.496-2.449 45.678-4.703 47.382-7.719 49.865-4.703 52.546-2.449 55.421-.958 58.296 .533 61.365 1.278 64.631 1.278 68.783 1.278 72.297 .435 75.172-1.251 78.047-2.937 80.193-5.413 81.613-8.678 82.643-11.091 83.157-14.995 83.157-20.39V-56.538H68.197V-24.223C68.197-18.615 67.683-14.995 66.654-13.362 65.27-11.233 63.141-10.168 60.266-10.168 58.171-10.168 56.201-10.807 54.355-12.085 52.51-13.362 51.179-15.234 50.363-17.701 49.546-20.168 49.139-24.063 49.139-29.387V-56.538H34.179V-25.554C34.179-20.053 33.912-16.504 33.381-14.906 32.848-13.309 32.023-12.121 30.904-11.339 29.787-10.559 28.27-10.168 26.354-10.168 24.045-10.168 21.969-10.79 20.124-12.031 18.278-13.274 16.957-15.066 16.158-17.408 15.359-19.751 14.96-23.637 14.96-29.067V-56.538H0Z" fill="#272525"/>
<path transform="matrix(1,0,0,-1,0,595.28)" d="M572.012 337.151H586.97207V280.613H572.012ZM572.012 358.66H586.97207V344.818H572.012Z" fill="#272525"/>
<path transform="matrix(1,0,0,-1,0,595.28)" d="M602.304 358.66H617.26406V280.614H602.304Z" fill="#272525"/>
<path transform="matrix(1,0,0,-1,0,595.28)" d="M632.596 358.66H647.556V280.614H632.596Z" fill="#272525"/>
<path transform="matrix(1,0,0,-1,664.6201,286.18144)" d="M0 0 6.714 7.427 26.039 28.424H7.618L-16.807 .073 7.618-28.425H26.039L6.714-7.427Z" fill="#527aba"/>
<path transform="matrix(1,0,0,-1,0,595.28)" d="M696.231 295.85H725.619V280.89H696.231Z" fill="#527aba"/>
<path transform="matrix(1,0,0,-1,164.5469,331.65013)" d="M0 0H31.509V93.266L15.977 109.732 0 93.224ZM37.222-11.426H-5.712C-8.868-11.426-11.425-8.867-11.425-5.713V95.536C-11.425 97.019-10.849 98.443-9.817 99.508L11.925 121.974C13.01 123.095 14.493 123.693 16.066 123.714 17.627 123.704 19.115 123.056 20.185 121.921L41.377 99.456C42.377 98.396 42.934 96.993 42.934 95.536V-5.713C42.934-8.867 40.376-11.426 37.222-11.426" fill="#527aba"/>
<path transform="matrix(1,0,0,-1,270.1978,343.04954)" d="M0 0H-68.524C-71.679 0-74.236 2.558-74.236 5.712V104.137C-74.236 107.292-71.679 109.85-68.524 109.85-65.369 109.85-62.812 107.292-62.812 104.137V11.425H-5.713V45.745L-20.149 60.333C-21.228 61.423-21.823 62.899-21.801 64.433-21.78 65.965-21.142 67.425-20.033 68.483L-5.713 82.15V107.968C-5.713 111.123-3.155 113.681 0 113.681 3.155 113.681 5.712 111.123 5.712 107.968V79.705C5.712 78.144 5.073 76.65 3.944 75.572L-7.937 64.234 4.06 52.113C5.119 51.044 5.712 49.599 5.712 48.095V5.712C5.712 2.558 3.155 0 0 0" fill="#527aba"/>
<path transform="matrix(1,0,0,-1,270.2012,240.79462)" d="M0 0C-1.659 0-3.304 .719-4.434 2.106L-21.104 22.578-88.359 22.492H-88.366C-91.518 22.492-94.074 25.044-94.079 28.197-94.083 31.352-91.528 33.913-88.374 33.917L-18.398 34.007H-18.391C-16.673 34.007-15.046 33.233-13.961 31.901L4.426 9.32C6.418 6.874 6.05 3.275 3.604 1.283 2.544 .42 1.268 0 0 0" fill="#527aba"/>
<path transform="matrix(1,0,0,-1,252.2925,218.30292)" d="M0 0H-70.458C-73.613 0-76.17 2.558-76.17 5.712V16.641C-76.17 19.796-73.613 22.354-70.458 22.354H0C3.155 22.354 5.712 19.796 5.712 16.641V5.712C5.712 2.558 3.155 0 0 0" fill="#527aba"/>
</g>
</g>
</svg>