<svg id="Warstwa_1" data-name="Warstwa 1" xmlns="http://www.w3.org/2000/svg" version="1.1" viewBox="73.18 55.57 122.73 147.15">
  <defs>
    <style>
      .cls-1 {
        stroke-width: 0px;
      }

      .cls-1, .cls-2 {
        fill: #527aba;
      }

      .cls-2 {
        stroke: #2078b0;
        stroke-linecap: round;
        stroke-linejoin: round;
        stroke-width: 16px;
      }
    </style>
  </defs>
  <path class="cls-1" d="M121.8,202.7h-42.9c-3.2,0-5.7-2.6-5.7-5.7v-101.2c0-1.5.6-2.9,1.6-4l21.7-22.5c1.1-1.1,2.6-1.7,4.1-1.7,1.6,0,3,.7,4.1,1.8l21.2,22.5c1,1.1,1.6,2.5,1.6,3.9v101.2c0,3.2-2.6,5.7-5.7,5.7ZM84.6,191.3h31.5v-93.3l-15.5-16.5-16,16.5v93.2Z"/>
  <path class="cls-1" d="M190.2,202.7h-68.5c-3.2,0-5.7-2.6-5.7-5.7v-98.4c0-3.2,2.6-5.7,5.7-5.7s5.7,2.6,5.7,5.7v92.7h57.1v-34.3l-14.4-14.6c-1.1-1.1-1.7-2.6-1.7-4.1,0-1.5.7-3,1.8-4.1l14.3-13.7v-25.8c0-3.2,2.6-5.7,5.7-5.7s5.7,2.6,5.7,5.7v28.3c0,1.6-.6,3.1-1.8,4.1l-11.9,11.3,12,12.1c1.1,1.1,1.7,2.5,1.7,4v42.4c0,3.2-2.6,5.7-5.7,5.7Z"/>
  <path class="cls-1" d="M190.2,100.4c-1.7,0-3.3-.7-4.4-2.1l-16.7-20.5h-67.3c0,0,0,0,0,0-3.2,0-5.7-2.6-5.7-5.7,0-3.2,2.6-5.7,5.7-5.7h70c0,0,0,0,0,0,1.7,0,3.3.8,4.4,2.1l18.4,22.6c2,2.4,1.6,6-.8,8-1.1.9-2.3,1.3-3.6,1.3Z"/>
  <path class="cls-2" d="M112.3,94.7"/>
  <path class="cls-1" d="M101.9,55.6h70.5c3.2,0,5.7,2.6,5.7,5.7v10.9c0,3.2-2.6,5.7-5.7,5.7h-70.5c-3.2,0-5.7-2.6-5.7-5.7v-10.9c0-3.2,2.6-5.7,5.7-5.7Z"/>
</svg>