<svg width="750" height="558" viewBox="0 0 750 558" fill="none" xmlns="http://www.w3.org/2000/svg">
<g style="mix-blend-mode:multiply" opacity="0.5">
<path d="M289.036 239.344L41.5829 382.202L0.476562 358.181L248.086 215.375L289.036 239.344Z" fill="#C2C7CD"/>
</g>
<path d="M289.296 225.006V233.718L41.6176 376.576L0.476562 352.564V343.852L248.302 209.749L289.296 225.006Z" fill="white"/>
<path d="M0 343.852V352.564C0 352.737 0.0866857 352.893 0.234051 352.98L41.3404 377C41.4184 377.044 41.4964 377.07 41.5831 377.07C41.6698 377.07 41.7478 377.044 41.8258 377.009L289.279 234.151C289.426 234.064 289.521 233.908 289.521 233.735V225.023C289.521 224.824 289.4 224.642 289.209 224.572L248.25 209.316C248.12 209.272 247.982 209.281 247.86 209.342L0.251388 343.427C0.0953542 343.514 0 343.67 0 343.852ZM0.953542 344.129L248.112 210.269L288.559 225.335V233.44L41.5831 376.03L0.953542 352.286V344.129Z" fill="black"/>
<path d="M289.036 225.006L41.5829 367.864L0.476562 343.852L248.086 201.037L289.036 225.006Z" fill="white"/>
<path d="M41.5829 376.575L0.476562 352.563V343.852L41.5829 367.863V376.575Z" fill="#C2C7CD"/>
<path d="M0 343.852V352.564C0 352.737 0.0866857 352.894 0.234051 352.98L41.3404 377.001C41.4184 377.044 41.4964 377.07 41.5831 377.07C41.6698 377.07 41.7478 377.044 41.8172 377.009C41.9645 376.923 42.0599 376.767 42.0599 376.593V367.881C42.0599 367.708 41.9732 367.552 41.8258 367.465L0.719491 343.436C0.572125 343.349 0.390086 343.349 0.24272 343.436C0.0953542 343.523 0 343.679 0 343.852ZM0.953542 344.676L41.1063 368.133V375.735L0.953542 352.287V344.684V344.676Z" fill="black"/>
<path d="M0.24272 343.436C0.0953542 343.522 0.00866857 343.678 0 343.852C0 344.025 0.0866857 344.181 0.234051 344.268L41.3404 368.288C41.4184 368.332 41.4964 368.358 41.5831 368.358C41.6698 368.358 41.7478 368.332 41.8258 368.297L289.279 225.439C289.426 225.352 289.521 225.196 289.521 225.032C289.521 224.858 289.435 224.702 289.287 224.616L248.328 200.647C248.181 200.56 247.999 200.56 247.852 200.647L0.24272 343.436ZM1.43031 343.852L248.077 201.592L288.082 225.006L41.5831 367.318L1.43031 343.852Z" fill="black"/>
<path d="M227.958 212.549L248.771 224.598C248.997 224.728 249.075 225.023 248.945 225.248C248.858 225.404 248.693 225.491 248.529 225.491C248.451 225.491 248.364 225.474 248.286 225.43L227.473 213.381C227.247 213.251 227.169 212.956 227.299 212.731C227.429 212.506 227.724 212.428 227.949 212.558L227.958 212.549Z" fill="black"/>
<path d="M207.371 224.598L228.185 236.647C228.41 236.777 228.488 237.072 228.358 237.298C228.271 237.454 228.107 237.532 227.942 237.532C227.864 237.532 227.777 237.514 227.708 237.471L206.895 225.422C206.669 225.292 206.591 224.997 206.721 224.771C206.851 224.546 207.146 224.468 207.371 224.598Z" fill="black"/>
<path d="M186.331 236.431L207.144 248.48C207.37 248.61 207.448 248.905 207.318 249.131C207.231 249.278 207.066 249.365 206.902 249.365C206.824 249.365 206.737 249.347 206.659 249.304L185.846 237.255C185.62 237.125 185.542 236.83 185.672 236.604C185.802 236.379 186.097 236.292 186.322 236.431H186.331Z" fill="black"/>
<path d="M165.517 248.255L186.33 260.304C186.555 260.434 186.633 260.729 186.503 260.954C186.417 261.11 186.252 261.188 186.087 261.188C186.009 261.188 185.922 261.171 185.844 261.128L165.031 249.078C164.806 248.948 164.728 248.654 164.858 248.428C164.988 248.203 165.283 248.125 165.508 248.255H165.517Z" fill="black"/>
<path d="M144.704 260.087L165.517 272.136C165.743 272.267 165.821 272.561 165.691 272.787C165.604 272.934 165.439 273.021 165.275 273.021C165.197 273.021 165.11 273.003 165.032 272.951L144.219 260.902C143.993 260.772 143.915 260.477 144.045 260.252C144.175 260.027 144.47 259.94 144.696 260.079L144.704 260.087Z" fill="black"/>
<path d="M124.116 272.137L144.93 284.186C145.155 284.316 145.233 284.611 145.103 284.836C145.016 284.992 144.852 285.07 144.687 285.07C144.609 285.07 144.522 285.053 144.444 285.009L123.631 272.96C123.405 272.83 123.327 272.535 123.457 272.31C123.588 272.085 123.882 271.998 124.108 272.137H124.116Z" fill="black"/>
<path d="M103.521 283.969L124.334 296.019C124.559 296.149 124.637 296.443 124.507 296.669C124.42 296.816 124.256 296.903 124.091 296.903C124.013 296.903 123.926 296.885 123.848 296.842L103.035 284.793C102.81 284.663 102.732 284.368 102.862 284.143C102.992 283.917 103.287 283.839 103.512 283.969H103.521Z" fill="black"/>
<path d="M84.4073 295.862L105.221 307.912C105.446 308.042 105.524 308.336 105.394 308.562C105.307 308.709 105.143 308.796 104.978 308.796C104.9 308.796 104.813 308.778 104.735 308.735L83.9219 296.686C83.6965 296.556 83.6185 296.261 83.7485 296.036C83.8785 295.81 84.1732 295.732 84.3986 295.862H84.4073Z" fill="black"/>
<path d="M63.8096 307.912L84.6229 319.961C84.8483 320.091 84.9263 320.386 84.7962 320.611C84.7096 320.758 84.5449 320.845 84.3801 320.845C84.3021 320.845 84.2154 320.828 84.1374 320.784L63.3242 308.735C63.0988 308.605 63.0208 308.31 63.1508 308.085C63.2809 307.86 63.5756 307.782 63.801 307.912H63.8096Z" fill="black"/>
<path d="M42.7803 319.744L63.5936 331.793C63.819 331.923 63.897 332.218 63.7669 332.444C63.6803 332.6 63.5156 332.686 63.3509 332.686C63.2728 332.686 63.1862 332.669 63.1081 332.617L42.2949 320.568C42.0695 320.438 41.9915 320.143 42.1215 319.917C42.2516 319.692 42.5463 319.614 42.7717 319.744H42.7803Z" fill="black"/>
<path d="M21.9678 331.576L42.7811 343.626C43.0065 343.756 43.0845 344.051 42.9544 344.276C42.8678 344.423 42.7031 344.51 42.5384 344.51C42.4517 344.51 42.3737 344.493 42.2956 344.441L21.4824 332.391C21.257 332.261 21.179 331.967 21.309 331.741C21.4391 331.516 21.7338 331.438 21.9592 331.568L21.9678 331.576Z" fill="black"/>
<path d="M435.994 192.039L538.673 251.324V60.4504L435.994 1.16602V192.039Z" fill="white"/>
<path d="M436.238 0.749585C436.091 0.662899 435.909 0.662899 435.761 0.749585C435.614 0.83627 435.527 0.992304 435.527 1.16568V192.039C435.527 192.212 435.614 192.368 435.761 192.455L538.441 251.739C538.51 251.783 538.597 251.8 538.675 251.8C538.753 251.8 538.839 251.783 538.917 251.739C539.065 251.653 539.16 251.497 539.16 251.323V60.45C539.16 60.2766 539.065 60.1206 538.917 60.0339L436.238 0.749585ZM538.198 250.491L436.472 191.761V1.98919L538.198 60.7187V250.491Z" fill="black"/>
<path d="M442.982 47.7677L531.688 98.9816V95.1674L442.982 43.9448V47.7677Z" fill="black"/>
<path d="M442.705 58.6816L496.858 89.9491V88.2154L442.705 56.9565V58.6816Z" fill="#C2C7CD"/>
<path d="M442.852 64.0906L496.995 95.3495V93.6245L442.852 62.3569V64.0906Z" fill="#C2C7CD"/>
<path d="M443 69.4912L507.91 106.974V105.249L443 67.7661V69.4912Z" fill="#C2C7CD"/>
<path d="M443.139 74.9007L514.689 116.206V114.481L443.139 73.167V74.9007Z" fill="#C2C7CD"/>
<path d="M443.285 80.3007L507.892 117.602V115.877L443.285 78.5757V80.3007Z" fill="#C2C7CD"/>
<path d="M443.424 85.7098L497.576 116.969V115.244L443.424 83.9761V85.7098Z" fill="#C2C7CD"/>
<path d="M476.703 172.37L530.847 203.638V201.904L476.703 170.645V172.37Z" fill="#C2C7CD"/>
<path d="M476.557 177.606L530.701 208.873V207.14L476.557 175.881V177.606Z" fill="#C2C7CD"/>
<path d="M465.643 176.626L530.561 214.109V212.384L465.643 174.901V176.626Z" fill="#C2C7CD"/>
<path d="M442.781 129.972L531.417 181.142V143.495L442.781 92.3242V129.972Z" fill="#C2C7CD"/>
<path d="M442.737 137.245L442.26 138.07L531.303 189.479L531.779 188.653L442.737 137.245Z" fill="black"/>
<path d="M442.744 175.624L442.268 176.45L531.31 227.859L531.787 227.033L442.744 175.624Z" fill="black"/>
<path d="M442.506 30.119L496.65 61.3778V59.6528L442.506 28.3853V30.119Z" fill="#C2C7CD"/>
<path d="M442.645 35.519L496.797 66.7865V65.0528L442.645 33.7939V35.519Z" fill="#C2C7CD"/>
<path d="M436.307 138.459L547.282 202.537V64.3686L436.307 0.290527V138.459Z" fill="white"/>
<path d="M436.455 0.0390086C436.368 -0.0130029 436.256 -0.0130029 436.169 0.0390086C436.082 0.09102 436.021 0.186374 436.021 0.290397V138.745H436.602V0.793174L547.005 64.5331V202.823H547.577V64.3684C547.577 64.2644 547.525 64.1691 547.43 64.1171L436.455 0.0390086Z" fill="black"/>
<path d="M444.006 36.2476L459.393 45.1329V27.3623L444.006 18.4771V36.2476Z" fill="white"/>
<path d="M444.152 18.2255C444.065 18.1735 443.953 18.1735 443.866 18.2255C443.779 18.2775 443.719 18.3729 443.719 18.4769V36.2475C443.719 36.3515 443.771 36.4469 443.866 36.4989L459.253 45.3842C459.296 45.4102 459.348 45.4188 459.4 45.4188C459.452 45.4188 459.504 45.4102 459.548 45.3842C459.634 45.3321 459.695 45.2368 459.695 45.1328V27.3622C459.695 27.2582 459.643 27.1628 459.548 27.1108L444.161 18.2255H444.152ZM459.105 44.6387L444.291 36.0828V18.9797L459.105 27.5356V44.6387Z" fill="black"/>
<path d="M461.775 33.0141L535.51 75.5855V71.7539L461.775 29.1826V33.0141Z" fill="#C2C7CD"/>
<path d="M461.775 39.6718L500.437 61.9934V58.1619L461.775 35.8403V39.6718Z" fill="#C2C7CD"/>
<path d="M461.775 46.3291L535.51 88.9004V85.0689L461.775 42.4976V46.3291Z" fill="#C2C7CD"/>
<path d="M444.006 87.7735L459.393 96.6588V78.8882L444.006 70.0029V87.7735Z" fill="white"/>
<path d="M444.152 69.7514C444.065 69.6994 443.953 69.6994 443.866 69.7514C443.779 69.8034 443.719 69.8988 443.719 70.0028V87.7734C443.719 87.8774 443.771 87.9727 443.866 88.0248L459.253 96.91C459.296 96.936 459.348 96.9447 459.4 96.9447C459.452 96.9447 459.504 96.9274 459.548 96.91C459.634 96.858 459.695 96.7627 459.695 96.6586V78.8881C459.695 78.7841 459.643 78.6887 459.548 78.6367L444.161 69.7514H444.152ZM459.105 96.1645L444.291 87.6087V70.5056L459.105 79.0615V96.1645Z" fill="black"/>
<path d="M461.775 84.54L535.51 127.111V123.28L461.775 80.7085V84.54Z" fill="#C2C7CD"/>
<path d="M461.775 91.1977L500.437 113.519V109.688L461.775 87.3662V91.1977Z" fill="#C2C7CD"/>
<path d="M461.775 97.8466L535.51 140.418V136.586L461.775 94.0151V97.8466Z" fill="#C2C7CD"/>
<path d="M444.006 113.537L459.393 122.422V104.651L444.006 95.7661V113.537Z" fill="#5379F6"/>
<path d="M444.152 95.5146C444.065 95.4626 443.953 95.4626 443.866 95.5146C443.779 95.5666 443.719 95.662 443.719 95.766V113.537C443.719 113.641 443.771 113.736 443.866 113.788L459.253 122.673C459.296 122.699 459.348 122.708 459.4 122.708C459.452 122.708 459.504 122.699 459.548 122.673C459.634 122.621 459.695 122.526 459.695 122.422V104.651C459.695 104.547 459.643 104.452 459.548 104.4L444.161 95.5146H444.152ZM459.105 121.928L444.291 113.372V96.2688L459.105 104.825V121.928Z" fill="black"/>
<path d="M461.775 110.303L535.51 152.875V149.043L461.775 106.472V110.303Z" fill="black"/>
<path d="M461.775 116.961L500.437 139.282V135.451L461.775 113.129V116.961Z" fill="black"/>
<path d="M461.775 123.61L535.51 166.181V162.35L461.775 119.778V123.61Z" fill="black"/>
<path d="M456.021 105.449L450.794 111.56L447.847 105.232C447.647 104.799 447.127 104.608 446.694 104.816C446.26 105.016 446.07 105.536 446.278 105.969L450.361 114.742L457.339 106.585C457.651 106.221 457.608 105.675 457.243 105.362C456.879 105.05 456.333 105.094 456.021 105.458V105.449Z" fill="white"/>
<path d="M444.006 61.5601L459.393 70.4454V52.6748L444.006 43.7896V61.5601Z" fill="#5379F6"/>
<path d="M444.152 43.538C444.065 43.486 443.953 43.486 443.866 43.538C443.779 43.59 443.719 43.6854 443.719 43.7894V61.56C443.719 61.664 443.771 61.7594 443.866 61.8114L459.253 70.6967C459.296 70.7227 459.348 70.7313 459.4 70.7313C459.452 70.7313 459.504 70.714 459.548 70.6967C459.634 70.6446 459.695 70.5493 459.695 70.4453V52.6747C459.695 52.5707 459.643 52.4753 459.548 52.4233L444.161 43.538H444.152ZM459.105 69.9512L444.291 61.3953V44.2922L459.105 52.8481V69.9512Z" fill="black"/>
<path d="M461.775 58.3349L535.51 100.906V97.0748L461.775 54.5034V58.3349Z" fill="black"/>
<path d="M461.775 64.9843L500.437 87.3059V83.4744L461.775 61.1528V64.9843Z" fill="black"/>
<path d="M461.775 71.6416L535.51 114.213V110.381L461.775 67.8101V71.6416Z" fill="black"/>
<path d="M456.021 53.4721L450.794 59.5834L447.847 53.2554C447.647 52.822 447.127 52.6313 446.694 52.8393C446.26 53.0387 446.07 53.5588 446.278 53.9922L450.361 62.7648L457.339 54.6077C457.651 54.2436 457.608 53.6975 457.243 53.3854C456.879 53.0734 456.333 53.1167 456.021 53.4808V53.4721Z" fill="white"/>
<path d="M355.17 142.403L466.145 206.472V87.1753L355.17 23.106V142.403Z" fill="white"/>
<path d="M355.308 22.8544C355.222 22.8024 355.109 22.8024 355.022 22.8544C354.936 22.9064 354.875 23.0018 354.875 23.1058V142.697H355.447V23.5999L465.85 87.3399V206.758H466.431V87.1752C466.431 87.0712 466.379 86.9758 466.283 86.9238L355.308 22.8544Z" fill="black"/>
<path d="M349.509 139.212L349.223 139.715L471.666 210.078L471.918 210.225L472.204 209.723L349.76 139.351L349.509 139.212Z" fill="black"/>
<path d="M362.859 58.959L378.255 67.8443V50.0738L362.859 41.1885V58.959Z" fill="#5379F6"/>
<path d="M363.008 40.937C362.921 40.8849 362.808 40.8849 362.722 40.937C362.635 40.989 362.574 41.0843 362.574 41.1883V58.9589C362.574 59.0629 362.626 59.1583 362.722 59.2103L378.108 68.0956C378.152 68.1216 378.204 68.1302 378.256 68.1302C378.308 68.1302 378.36 68.1216 378.403 68.0956C378.49 68.0436 378.55 67.9482 378.55 67.8442V50.0736C378.55 49.9696 378.498 49.8742 378.403 49.8222L363.016 40.937H363.008ZM377.97 67.3501L363.155 58.7942V41.6911L377.97 50.247V67.3501Z" fill="black"/>
<path d="M380.631 55.7255L454.366 98.2969V94.4654L380.631 51.894V55.7255Z" fill="black"/>
<path d="M380.631 62.3833L419.293 84.7048V80.8733L380.631 58.5518V62.3833Z" fill="black"/>
<path d="M380.631 69.0317L454.366 111.603V107.772L380.631 65.2002V69.0317Z" fill="black"/>
<path d="M374.875 50.871L369.648 56.9824L366.7 50.6543C366.501 50.2209 365.981 50.0302 365.547 50.2382C365.114 50.4376 364.923 50.9577 365.131 51.3911L369.214 60.1637L376.192 52.0066C376.504 51.6425 376.461 51.0964 376.097 50.7843C375.733 50.4723 375.187 50.5156 374.875 50.8797V50.871Z" fill="white"/>
<path d="M362.859 84.8256L378.255 93.7109V75.9403L362.859 67.0464V84.8256Z" fill="white"/>
<path d="M363.008 66.8037C362.921 66.7516 362.808 66.7516 362.722 66.8037C362.635 66.8557 362.574 66.951 362.574 67.055V84.8256C362.574 84.9296 362.626 85.025 362.722 85.077L378.108 93.9623C378.152 93.9883 378.204 93.997 378.256 93.997C378.308 93.997 378.36 93.9796 378.403 93.9623C378.49 93.9103 378.55 93.8149 378.55 93.7109V75.9403C378.55 75.8363 378.498 75.7409 378.403 75.6889L363.016 66.8037H363.008ZM377.97 93.2081L363.155 84.6522V67.5492L377.97 76.105V93.2081Z" fill="black"/>
<path d="M380.631 81.5923L454.366 124.164V120.332L380.631 77.7607V81.5923Z" fill="#C2C7CD"/>
<path d="M380.631 88.2412L419.293 110.563V106.731L380.631 84.4097V88.2412Z" fill="#C2C7CD"/>
<path d="M380.631 94.8984L454.366 137.47V133.638L380.631 91.0669V94.8984Z" fill="#C2C7CD"/>
<path d="M362.859 110.589L378.255 119.475V101.704L362.859 92.8101V110.589Z" fill="white"/>
<path d="M363.008 92.5673C362.921 92.5153 362.808 92.5153 362.722 92.5673C362.635 92.6193 362.574 92.7147 362.574 92.8187V110.589C362.574 110.693 362.626 110.789 362.722 110.841L378.108 119.726C378.152 119.752 378.204 119.761 378.256 119.761C378.308 119.761 378.36 119.743 378.403 119.726C378.49 119.674 378.55 119.579 378.55 119.475V101.704C378.55 101.6 378.498 101.505 378.403 101.453L363.016 92.5673H363.008ZM377.97 118.972L363.155 110.416V93.3128L377.97 101.869V118.972Z" fill="black"/>
<path d="M380.631 107.356L454.366 149.927V146.096L380.631 103.524V107.356Z" fill="#C2C7CD"/>
<path d="M380.631 114.005L419.293 136.326V132.495L380.631 110.173V114.005Z" fill="#C2C7CD"/>
<path d="M380.631 120.662L454.366 163.233V159.402L380.631 116.831V120.662Z" fill="#C2C7CD"/>
<path d="M362.859 136.351L378.255 145.237V127.458L362.859 118.572V136.351Z" fill="#5379F6"/>
<path d="M363.008 118.33C362.921 118.278 362.808 118.278 362.722 118.33C362.635 118.382 362.574 118.477 362.574 118.581V136.351C362.574 136.456 362.626 136.551 362.722 136.603L378.108 145.488C378.152 145.514 378.204 145.523 378.256 145.523C378.308 145.523 378.36 145.514 378.403 145.488C378.49 145.436 378.55 145.341 378.55 145.237V127.466C378.55 127.362 378.498 127.267 378.403 127.215L363.016 118.33H363.008ZM377.97 144.734L363.155 136.178V119.075L377.97 127.631V144.734Z" fill="black"/>
<path d="M380.631 133.118L454.366 175.689V171.858L380.631 129.287V133.118Z" fill="black"/>
<path d="M380.631 139.767L419.293 162.089V158.257L380.631 135.936V139.767Z" fill="black"/>
<path d="M380.631 146.424L454.366 188.996V185.164L380.631 142.593V146.424Z" fill="black"/>
<path d="M374.875 128.264L369.648 134.375L366.7 128.047C366.501 127.613 365.981 127.423 365.547 127.631C365.114 127.83 364.923 128.35 365.131 128.784L369.214 137.556L376.192 129.399C376.504 129.035 376.461 128.489 376.097 128.177C375.733 127.865 375.187 127.908 374.875 128.272V128.264Z" fill="white"/>
<g style="mix-blend-mode:multiply" opacity="0.5">
<path d="M418.691 442.5L324.16 387.923L378.287 356.672L472.817 411.25L418.691 442.5Z" fill="#C2C7CD"/>
</g>
<path d="M418.691 413.833L324.16 359.256L378.287 328.005L472.817 382.583L418.691 413.833Z" fill="white"/>
<path d="M472.818 382.583V400.24L418.691 431.482V413.833L472.818 382.583Z" fill="#C2C7CD"/>
<path d="M418.691 431.482V413.833L324.16 359.255V376.905L418.691 431.482Z" fill="white"/>
<g style="mix-blend-mode:multiply" opacity="0.5">
<path d="M362.805 336.691L433.098 378.083L434.364 404.106L472.817 382.582L377.697 328.404L362.805 336.691Z" fill="#C2C7CD"/>
</g>
<path d="M343.362 364.171L329.709 356.282L332.994 354.384L346.647 362.272L343.362 364.171Z" fill="#5379F6"/>
<path d="M350.731 359.88L337.078 352L340.364 350.102L354.017 357.981L350.731 359.88Z" fill="#5379F6"/>
<path d="M357.977 355.528L344.324 347.648L347.618 345.75L361.263 353.63L357.977 355.528Z" fill="#5379F6"/>
<path d="M343.362 364.647C343.284 364.647 343.198 364.63 343.119 364.586L329.466 356.707C329.319 356.62 329.232 356.464 329.232 356.291C329.232 356.117 329.328 355.961 329.466 355.875L332.752 353.976C332.899 353.889 333.081 353.889 333.229 353.976L346.882 361.856C347.029 361.943 347.116 362.099 347.116 362.272C347.116 362.445 347.02 362.601 346.882 362.688L343.596 364.586C343.527 364.63 343.44 364.647 343.354 364.647H343.362ZM330.663 356.282L343.362 363.616L345.694 362.272L332.995 354.938L330.663 356.282Z" fill="black"/>
<path d="M350.731 360.356C350.653 360.356 350.567 360.339 350.497 360.295L336.844 352.416C336.697 352.329 336.602 352.173 336.602 352C336.602 351.826 336.697 351.67 336.844 351.584L340.13 349.685C340.277 349.598 340.459 349.598 340.606 349.685L354.259 357.565C354.407 357.652 354.493 357.808 354.493 357.981C354.493 358.154 354.407 358.31 354.259 358.397L350.974 360.295C350.905 360.339 350.818 360.356 350.731 360.356ZM338.032 352L350.731 359.333L353.063 357.99L340.364 350.656L338.032 352Z" fill="black"/>
<path d="M357.977 356.005C357.899 356.005 357.813 355.979 357.735 355.944L344.082 348.064C343.934 347.977 343.848 347.821 343.848 347.648C343.848 347.475 343.934 347.319 344.082 347.232L347.367 345.334C347.514 345.247 347.696 345.247 347.844 345.334L361.497 353.213C361.644 353.3 361.74 353.456 361.74 353.629C361.74 353.803 361.644 353.959 361.497 354.045L358.211 355.944C358.142 355.987 358.055 356.005 357.977 356.005ZM345.278 347.648L357.977 354.982L360.309 353.638L347.61 346.304L345.278 347.657V347.648Z" fill="black"/>
<path d="M418.689 414.31C418.611 414.31 418.524 414.292 418.455 414.249L323.924 359.672C323.777 359.585 323.682 359.429 323.682 359.256C323.682 359.082 323.777 358.926 323.924 358.84L378.051 327.589C378.198 327.503 378.38 327.503 378.528 327.589L473.058 382.167C473.206 382.253 473.292 382.409 473.292 382.583C473.292 382.756 473.206 382.912 473.058 382.999L418.941 414.249C418.871 414.292 418.785 414.31 418.698 414.31H418.689ZM325.112 359.256L418.689 413.287L471.853 382.591L378.276 328.56L325.112 359.256Z" fill="black"/>
<path d="M418.69 431.959C418.612 431.959 418.525 431.942 418.456 431.899C418.308 431.812 418.213 431.656 418.213 431.482V413.825C418.213 413.651 418.308 413.495 418.456 413.408L472.573 382.158C472.721 382.072 472.903 382.072 473.05 382.158C473.198 382.245 473.284 382.401 473.284 382.574V400.232C473.284 400.406 473.198 400.562 473.05 400.648L418.932 431.899C418.863 431.942 418.776 431.959 418.69 431.959ZM419.166 414.111V430.659L472.331 399.964V383.415L419.166 414.111Z" fill="black"/>
<path d="M418.689 431.959C418.611 431.959 418.524 431.942 418.455 431.898L323.924 377.321C323.777 377.234 323.682 377.078 323.682 376.905V359.247C323.682 359.074 323.777 358.918 323.924 358.831C324.072 358.744 324.254 358.744 324.401 358.831L418.932 413.408C419.079 413.495 419.166 413.651 419.166 413.825V431.482C419.166 431.656 419.079 431.812 418.932 431.898C418.863 431.942 418.776 431.959 418.689 431.959ZM324.635 376.628L418.212 430.659V414.111L324.635 360.079V376.636V376.628Z" fill="black"/>
<path d="M417.159 387.507L371.502 361.137V311.458L417.159 337.827V387.507Z" fill="white"/>
<path d="M417.16 387.507L433.102 378.084V328.404L417.16 337.827V387.507Z" fill="#C2C7CD"/>
<g style="mix-blend-mode:multiply" opacity="0.5">
<path d="M371.725 321.174L371.586 324.555L416.914 361.31L417.157 347.284L371.725 321.174Z" fill="#C2C7CD"/>
</g>
<path d="M417.156 387.983C417.078 387.983 416.992 387.966 416.922 387.923L371.256 361.562C371.109 361.475 371.014 361.319 371.014 361.146V311.466C371.014 311.293 371.109 311.137 371.256 311.05C371.404 310.963 371.586 310.963 371.733 311.05L417.399 337.411C417.547 337.498 417.642 337.654 417.642 337.827V347.761H416.688V338.096L371.976 312.281V360.859L416.688 386.674V378.119H417.642V387.498C417.642 387.671 417.547 387.827 417.399 387.914C417.33 387.957 417.243 387.975 417.156 387.975V387.983Z" fill="black"/>
<path d="M417.156 387.983C417.078 387.983 416.992 387.966 416.922 387.923C416.775 387.836 416.68 387.68 416.68 387.506V375.899H417.633V386.674L432.621 377.815V329.245L417.633 338.104V365.202H416.68V337.836C416.68 337.671 416.766 337.515 416.914 337.428L432.855 328.005C433.003 327.919 433.185 327.919 433.332 328.005C433.479 328.092 433.575 328.248 433.575 328.422V378.101C433.575 378.266 433.488 378.422 433.341 378.509L417.399 387.931C417.321 387.975 417.243 388.001 417.156 388.001V387.983Z" fill="black"/>
<path d="M537.417 417.855L272.428 264.864V54.0615L537.417 207.053V417.855Z" fill="white"/>
<path d="M289.055 255.268V82.8589L520.792 216.658V389.059L289.055 255.268Z" fill="#C2C7CD"/>
<path d="M520.792 389.535C520.714 389.535 520.627 389.518 520.549 389.474L288.812 255.684C288.665 255.597 288.578 255.441 288.578 255.268V82.8585C288.578 82.6852 288.665 82.5291 288.812 82.4425C288.96 82.3558 289.142 82.3558 289.289 82.4425L405.248 149.39L404.772 150.213L404.355 149.979L289.523 83.6821V254.982L520.306 388.226V216.918L484.765 196.399L485.242 195.576L521.017 216.233C521.164 216.32 521.26 216.476 521.26 216.649V389.058C521.26 389.232 521.164 389.388 521.017 389.474C520.948 389.518 520.861 389.535 520.783 389.535H520.792Z" fill="black"/>
<path d="M537.416 417.855L555.325 407.661V196.859L537.416 207.053V417.855Z" fill="#C2C7CD"/>
<path d="M555.326 196.859L537.417 207.053L272.428 54.0615L290.346 43.876L555.326 196.859Z" fill="white"/>
<path d="M400.55 331.759C400.472 331.759 400.385 331.742 400.307 331.698L289.349 267.638C289.202 267.551 289.115 267.395 289.115 267.221V262.627C289.115 262.454 289.202 262.298 289.349 262.211C289.497 262.124 289.679 262.124 289.826 262.211L303.011 269.822L302.534 270.646L290.06 263.442V266.935L400.064 330.441V326.948L363.526 305.849L364.003 305.025L400.784 326.254C400.931 326.341 401.018 326.497 401.018 326.67V331.265C401.018 331.438 400.922 331.594 400.784 331.681C400.714 331.724 400.628 331.742 400.541 331.742L400.55 331.759Z" fill="black"/>
<path d="M298.971 253.56V98.6875L508.932 219.909V374.773L298.971 253.56Z" fill="white"/>
<path d="M508.932 375.249C508.854 375.249 508.768 375.232 508.69 375.188L298.737 253.967C298.589 253.881 298.494 253.724 298.494 253.551V98.6872C298.494 98.5138 298.589 98.3578 298.737 98.2711C298.884 98.1844 299.066 98.1844 299.214 98.2711L509.166 219.492C509.314 219.579 509.4 219.735 509.4 219.908V374.772C509.4 374.946 509.305 375.102 509.166 375.188C509.097 375.232 509.01 375.249 508.924 375.249H508.932ZM299.448 253.282L508.447 373.949V220.186L299.448 99.5193V253.282Z" fill="black"/>
<path d="M537.415 418.332C537.337 418.332 537.251 418.314 537.173 418.271L272.183 265.279C272.036 265.193 271.949 265.037 271.949 264.863V54.0612C271.949 53.8878 272.036 53.7318 272.183 53.6451C272.331 53.5584 272.513 53.5584 272.66 53.6451L537.649 206.637C537.797 206.723 537.884 206.879 537.884 207.053V417.855C537.884 418.028 537.788 418.184 537.649 418.271C537.571 418.314 537.493 418.332 537.407 418.332H537.415ZM272.903 264.586L536.939 417.023V207.33L272.903 54.8934V264.595V264.586Z" fill="black"/>
<path d="M537.416 418.332C537.33 418.332 537.252 418.315 537.174 418.272C537.026 418.185 536.939 418.029 536.939 417.855V207.053C536.939 206.88 537.035 206.724 537.182 206.637L539.176 205.502L539.644 206.334L537.893 207.331V417.032L554.857 407.384V197.683L548.971 201.029L548.503 200.196L555.1 196.443C555.247 196.356 555.43 196.356 555.577 196.443C555.724 196.53 555.811 196.686 555.811 196.859V407.653C555.811 407.826 555.716 407.982 555.568 408.069L537.65 418.263C537.581 418.306 537.494 418.324 537.416 418.324V418.332Z" fill="black"/>
<path d="M537.416 207.53C537.338 207.53 537.251 207.513 537.173 207.469L272.184 54.4777C272.036 54.391 271.941 54.2349 271.95 54.0616C271.95 53.8882 272.045 53.7322 272.192 53.6455L290.11 43.4512C290.258 43.3646 290.44 43.3646 290.587 43.4512L555.577 196.443C555.724 196.529 555.819 196.686 555.819 196.859C555.819 197.032 555.724 197.188 555.577 197.275L546.093 202.667L545.625 201.835L554.389 196.85L290.336 44.4221L273.38 54.0702L537.407 206.507L541.109 204.401L541.577 205.233L537.641 207.469C537.572 207.513 537.485 207.53 537.407 207.53H537.416Z" fill="black"/>
<path d="M317.766 388.92L376.599 425.596L377.405 409.152L370.462 375.978L352.449 366.069L320.8 368.765L317.766 388.92Z" fill="#C2C7CD"/>
<path d="M376.911 426.203L376.417 425.891L317.393 389.093L320.496 368.453L320.765 368.427L352.518 365.714L352.613 365.766L370.765 375.752L370.8 375.908L377.76 409.126L376.92 426.203H376.911ZM318.138 388.746L376.287 424.998L377.067 409.178L370.158 376.203L352.379 366.425L321.103 369.095L318.147 388.755L318.138 388.746Z" fill="black"/>
<path d="M249.777 506.951C249.777 506.951 298.798 493.055 309.217 426.662C319.637 360.27 360.552 373.784 360.552 373.784L236.349 301.332C225.895 295.23 212.762 296.01 203.192 303.421C198.06 307.392 192.746 313.295 188.022 322.059C172.193 351.393 194.966 386.518 122.791 432.453L249.777 506.951Z" fill="white"/>
<path d="M236.532 301.02C225.844 294.779 212.667 295.611 202.959 303.135C197.09 307.678 191.95 313.988 187.693 321.885C182.96 330.649 181.651 339.942 180.264 349.781C176.953 373.29 173.208 399.928 122.584 432.141L122.072 432.47L141.134 443.653L141.776 443.167L123.494 432.444C173.91 400.197 177.681 373.472 181.001 349.885C182.379 340.115 183.68 330.883 188.343 322.241C192.556 314.43 197.627 308.198 203.409 303.716C212.884 296.382 225.74 295.576 236.159 301.653L358.23 372.865C353.818 372.05 344.066 371.27 334.279 377.243C321.302 385.166 312.746 401.775 308.845 426.61C303.488 460.773 287.685 480.702 275.367 491.399C262.824 502.304 251.26 506.11 249.821 506.552L154.441 450.596L153.825 451.099L249.587 507.271L249.717 507.349L249.873 507.306C249.994 507.271 262.364 503.674 275.827 491.98C288.24 481.205 304.182 461.129 309.582 426.723C313.44 402.122 321.874 385.686 334.652 377.884C347.507 370.022 360.31 374.096 360.432 374.139L363.769 375.232L236.532 301.02Z" fill="black"/>
<path d="M360.551 373.784C365.951 379.063 368.465 384.525 367.113 401.16C365.76 417.786 375.218 435.929 396.256 422.424C417.295 408.918 420.19 391.156 420.19 353.136C420.19 315.115 419.609 356.395 419.609 335.556C419.609 314.717 430.801 259.715 480.983 231.923L352.835 158.006C352.835 158.006 323.648 168.513 304.318 208.778C295.432 227.286 291.072 247.631 291.072 268.158V280.762C291.072 313.182 286.833 324.668 282.057 327.997L360.551 373.784Z" fill="white"/>
<path d="M353.009 157.685L352.862 157.599L352.706 157.659C352.411 157.763 323.154 168.677 303.98 208.613C295.294 226.713 290.699 247.301 290.699 268.158V280.762C290.699 284.125 290.656 287.315 290.561 290.323L291.297 290.644C291.393 287.54 291.436 284.246 291.436 280.762V268.158C291.436 247.414 296.005 226.938 304.647 208.934C322.946 170.81 350.452 159.332 352.792 158.413L480.22 231.914C462.701 241.744 448.545 255.579 437.996 273.142L438.654 273.489C449.247 255.865 463.499 242.022 481.156 232.244L481.729 231.932L353.009 157.685ZM430.151 288.39C422.123 306.811 419.228 324.703 419.228 335.556C419.228 344.424 419.341 349.876 419.454 356.178C419.627 364.829 419.809 331.299 419.809 353.135C419.809 389.647 417.468 408.354 396.048 422.111C388.281 427.096 381.433 428.093 376.258 424.989C369.202 420.75 366.766 409.984 367.477 401.185C368.829 384.524 366.402 378.985 360.802 373.524L282.716 327.962C286.07 325.249 288.437 319.042 289.85 309.177L289.113 308.926C287.674 319.042 285.238 325.327 281.84 327.693L281.363 328.023L360.325 374.087C365.726 379.375 368.066 384.793 366.74 401.133C366.012 410.149 368.552 421.227 375.877 425.622C377.602 426.654 379.908 427.494 382.872 427.494C386.426 427.494 390.917 426.281 396.447 422.735C418.171 408.779 420.554 389.925 420.554 353.135C420.554 331.291 420.364 364.821 420.199 356.169C420.078 349.867 419.974 344.424 419.974 335.556C419.974 324.746 422.869 306.923 430.896 288.555L430.151 288.39Z" fill="black"/>
<path d="M197.955 324.373L218.318 336.128L231.156 320.03L210.793 308.276L197.955 324.373Z" fill="white"/>
<path d="M231.581 319.84L211.218 308.085C211.106 308.016 210.915 307.99 210.715 308.016C210.525 308.042 210.36 308.111 210.291 308.206L197.453 324.304C197.375 324.399 197.401 324.495 197.522 324.564L217.884 336.319C217.945 336.353 218.023 336.379 218.11 336.388C218.196 336.405 218.292 336.405 218.387 336.388C218.578 336.362 218.743 336.293 218.812 336.197L231.65 320.1C231.728 320.004 231.702 319.909 231.581 319.84ZM198.579 324.295L210.932 308.796L230.532 320.108L218.17 335.608L198.579 324.295Z" fill="black"/>
<path d="M315.198 369.146C315.05 369.25 314.903 369.354 314.764 369.467C313.715 370.273 312.666 371.166 311.609 372.154L231.199 325.725L233.964 322.249L315.198 369.146Z" fill="#C2C7CD"/>
<path d="M226.396 331.751L277.55 361.284L280.315 357.817L229.17 328.283L226.396 331.751Z" fill="#C2C7CD"/>
<path d="M304.336 380.476C303.513 381.62 302.698 382.842 301.9 384.134L221.586 337.775L224.36 334.307L304.336 380.476Z" fill="#C2C7CD"/>
<path d="M189.26 363.867L209.622 375.622L213.064 354.098L192.701 342.343L189.26 363.867Z" fill="#5379F6"/>
<path d="M213.324 353.803L192.961 342.049C192.849 341.979 192.684 341.971 192.554 342.031C192.407 342.083 192.311 342.196 192.294 342.326L188.853 363.841C188.835 363.971 188.896 364.084 189.017 364.153L209.371 375.908C209.432 375.943 209.501 375.96 209.57 375.969C209.648 375.969 209.718 375.951 209.787 375.925C209.934 375.873 210.021 375.761 210.047 375.639L213.489 354.115C213.515 353.994 213.445 353.873 213.333 353.803H213.324ZM189.711 363.677L193.031 342.968L212.63 354.28L209.31 374.989L189.711 363.677Z" fill="black"/>
<path d="M297.001 403.154C296.88 404.74 296.733 406.352 296.559 407.973L215.387 361.102L216.124 356.456L297.001 403.154Z" fill="black"/>
<path d="M214.096 369.155L265.24 398.689L265.986 394.051L214.833 364.518L214.096 369.155Z" fill="black"/>
<path d="M294.868 419.528C294.591 421.028 294.287 422.536 293.958 424.07L212.803 377.217L213.548 372.579L294.868 419.528Z" fill="black"/>
<path d="M208.071 354.843L199.385 361.908L196.386 354.055C196.178 353.517 195.476 353.257 194.817 353.474C194.158 353.691 193.785 354.297 193.993 354.843L198.154 365.723L209.744 356.291C210.264 355.875 210.308 355.208 209.848 354.809C209.389 354.41 208.591 354.427 208.08 354.843H208.071Z" fill="white"/>
<path d="M175.062 400.952L195.416 412.706L202.542 393.306L182.188 381.551L175.062 400.952Z" fill="white"/>
<path d="M202.863 393.054L182.509 381.3C182.388 381.231 182.214 381.213 182.058 381.257C181.894 381.3 181.772 381.395 181.729 381.508L174.612 400.908C174.569 401.021 174.612 401.134 174.733 401.203L195.096 412.957C195.157 412.992 195.226 413.01 195.304 413.018C195.382 413.018 195.46 413.018 195.538 412.992C195.703 412.949 195.824 412.853 195.867 412.741L202.993 393.341C203.028 393.228 202.993 393.124 202.863 393.054ZM175.574 400.804L182.431 382.132L202.022 393.445L195.165 412.117L175.574 400.804Z" fill="black"/>
<path d="M286.393 442.309C285.899 443.679 285.353 445.049 284.755 446.436L203.973 399.79L205.507 395.612L286.393 442.309Z" fill="#C2C7CD"/>
<path d="M201.303 407.054L252.456 436.588L253.99 432.41L202.846 402.876L201.303 407.054Z" fill="#C2C7CD"/>
<path d="M279.771 456.093C279.034 457.315 278.245 458.546 277.395 459.794L198.633 414.319L200.167 410.132L279.771 456.093Z" fill="#C2C7CD"/>
<path d="M146.646 426.203L167.009 437.966L183.263 423.836L162.9 412.082L146.646 426.203Z" fill="#5379F6"/>
<path d="M183.756 423.68L163.393 411.926C163.28 411.856 163.072 411.822 162.864 411.839C162.648 411.839 162.457 411.908 162.362 411.995L146.108 426.116C146.013 426.203 146.03 426.289 146.151 426.359L166.505 438.113C166.566 438.148 166.644 438.174 166.739 438.191C166.835 438.209 166.939 438.209 167.043 438.2C167.259 438.191 167.441 438.131 167.537 438.053L183.79 423.923C183.886 423.845 183.868 423.75 183.756 423.68ZM147.33 426.159L162.977 412.567L182.577 423.88L166.93 437.472L147.33 426.159Z" fill="black"/>
<path d="M266.87 472.701C265.847 473.767 264.772 474.842 263.663 475.926L182.49 429.055L185.992 426.003L266.87 472.701Z" fill="black"/>
<path d="M176.406 434.342L227.559 463.876L231.062 460.825L179.908 431.3L176.406 434.342Z" fill="black"/>
<path d="M255.14 483.537C253.961 484.516 252.739 485.496 251.473 486.484L170.318 439.631L173.82 436.588L255.14 483.537Z" fill="black"/>
<path d="M176.283 423.437L161.018 426.706L161.347 420.776C161.373 420.369 160.584 420.065 159.605 420.091C158.617 420.117 157.802 420.473 157.776 420.88L157.316 429.098L177.688 424.738C178.598 424.547 179.014 424.096 178.624 423.741C178.234 423.385 177.185 423.247 176.275 423.446L176.283 423.437Z" fill="white"/>
<path d="M314.193 217.1L334.556 228.855L340.971 209.047L320.608 197.292L314.193 217.1Z" fill="white"/>
<path d="M341.274 208.787L320.921 197.032C320.799 196.963 320.634 196.946 320.478 196.998C320.322 197.041 320.201 197.145 320.166 197.258L313.743 217.065C313.708 217.178 313.76 217.291 313.882 217.36L334.235 229.115C334.296 229.149 334.365 229.167 334.444 229.175C334.522 229.184 334.6 229.175 334.678 229.149C334.834 229.106 334.955 229.002 334.99 228.889L341.404 209.082C341.448 208.969 341.404 208.856 341.274 208.787ZM314.688 216.944L320.869 197.882L340.468 209.194L334.287 228.265L314.688 216.944Z" fill="black"/>
<path d="M430.362 261.258C429.573 262.454 428.793 263.693 428.012 264.968L342.566 215.635L343.945 211.361L430.362 261.258Z" fill="#C2C7CD"/>
<path d="M340.164 223.047L391.317 252.58L392.696 248.316L341.551 218.782L340.164 223.047Z" fill="#C2C7CD"/>
<path d="M422.76 274.469C422.448 275.11 422.127 275.769 421.806 276.428C421.486 277.095 421.173 277.771 420.861 278.447L337.756 230.467L339.143 226.193L422.76 274.469Z" fill="#C2C7CD"/>
<path d="M303.436 290.453L323.798 302.208V278.698L303.436 266.944V290.453Z" fill="white"/>
<path d="M323.989 278.369L303.627 266.615C303.505 266.545 303.358 266.545 303.245 266.615C303.124 266.684 303.055 266.805 303.055 266.944V290.453C303.055 290.592 303.124 290.713 303.245 290.782L323.608 302.537C323.66 302.572 323.729 302.589 323.79 302.589C323.859 302.589 323.929 302.572 323.989 302.537C324.102 302.468 324.18 302.346 324.18 302.208V278.698C324.18 278.56 324.102 278.438 323.989 278.369ZM323.408 301.549L303.818 290.236V267.603L323.408 278.915V301.549Z" fill="black"/>
<path d="M408.76 328.352C408.665 330.008 408.613 331.663 408.578 333.319L326.938 286.18V281.108L408.76 328.352Z" fill="#C2C7CD"/>
<path d="M326.945 294.978L378.09 324.512V319.441L326.945 289.907V294.978Z" fill="#C2C7CD"/>
<path d="M408.56 345.837V348.42C408.56 349.261 408.56 350.084 408.56 350.899L326.945 303.785V298.714L408.569 345.837H408.56Z" fill="#C2C7CD"/>
<path d="M299.561 324.946L319.923 336.7L322.402 314.621L302.04 302.867L299.561 324.946Z" fill="#5379F6"/>
<path d="M322.636 314.318L302.274 302.563C302.152 302.494 301.996 302.494 301.866 302.546C301.736 302.607 301.641 302.728 301.632 302.849L299.153 324.937C299.136 325.058 299.205 325.18 299.318 325.249L319.68 337.003C319.741 337.038 319.81 337.055 319.88 337.064C319.949 337.064 320.018 337.047 320.088 337.021C320.218 336.96 320.304 336.847 320.322 336.717L322.801 314.639C322.818 314.508 322.749 314.387 322.636 314.318ZM299.985 324.755L302.369 303.499L321.969 314.812L319.585 336.067L299.985 324.755Z" fill="black"/>
<path d="M408.127 364.708C408.023 366.416 407.91 368.046 407.78 369.58L324.943 321.756L325.481 316.997L408.127 364.708Z" fill="black"/>
<path d="M324.016 330.026L375.169 359.559L375.706 354.792L324.553 325.267L324.016 330.026Z" fill="black"/>
<path d="M406.211 381.213C405.881 382.86 405.535 384.342 405.162 385.669L323.088 338.286L323.625 333.527L406.211 381.213Z" fill="black"/>
<path d="M317.548 315.453L309.356 322.804L306.105 314.803C305.88 314.257 305.187 313.997 304.554 314.231C303.921 314.465 303.583 315.089 303.808 315.644L308.316 326.731L319.238 316.918C319.724 316.485 319.741 315.8 319.273 315.401C318.805 315.003 318.033 315.029 317.548 315.462V315.453Z" fill="white"/>
<path d="M303.854 250.197L324.216 261.951L327.614 240.41L307.26 228.655L303.854 250.197Z" fill="#5379F6"/>
<path d="M327.874 240.115L307.511 228.361C307.39 228.291 307.234 228.291 307.095 228.335C306.957 228.395 306.861 228.508 306.844 228.629L303.437 250.179C303.411 250.301 303.48 250.413 303.593 250.483L323.956 262.237C324.016 262.272 324.086 262.289 324.155 262.298C324.224 262.298 324.294 262.281 324.372 262.255C324.51 262.194 324.597 262.09 324.623 261.96L328.03 240.418C328.056 240.288 327.986 240.176 327.874 240.106V240.115ZM304.304 250.015L307.581 229.271L327.18 240.583L323.904 261.327L304.304 250.015Z" fill="black"/>
<path d="M413.328 290.479C413.155 292.144 412.973 293.739 412.782 295.238L329.945 247.414L330.682 242.768L413.328 290.479Z" fill="black"/>
<path d="M328.672 255.476L379.816 285.01L380.553 280.364L329.4 250.838L328.672 255.476Z" fill="black"/>
<path d="M410.719 306.586C410.32 308.189 409.904 309.637 409.47 310.929L327.396 263.546L328.133 258.9L410.719 306.586Z" fill="black"/>
<path d="M322.621 241.156L313.961 248.238L310.944 240.375C310.736 239.838 310.034 239.578 309.375 239.795C308.717 240.011 308.344 240.627 308.552 241.164L312.73 252.052L324.294 242.603C324.814 242.179 324.849 241.52 324.389 241.121C323.93 240.722 323.132 240.74 322.621 241.156Z" fill="white"/>
<path d="M129.675 289.864C130.429 291.164 127.395 294.345 122.879 296.98C118.371 299.607 114.098 300.691 113.344 299.382C112.589 298.081 115.623 294.9 120.14 292.265C124.647 289.638 128.921 288.555 129.675 289.864Z" fill="#C2C7CD"/>
<path d="M114.807 300.456C113.854 300.456 113.212 300.188 112.9 299.65C111.825 297.812 115.596 294.319 119.878 291.822C122.097 290.531 124.343 289.56 126.189 289.092C128.261 288.572 129.63 288.745 130.125 289.603C131.199 291.441 127.429 294.934 123.146 297.431C120.927 298.723 118.682 299.694 116.836 300.162C116.055 300.361 115.379 300.456 114.807 300.456ZM128.217 289.837C127.793 289.837 127.212 289.907 126.44 290.106C124.689 290.548 122.54 291.476 120.398 292.724C115.691 295.472 113.342 298.35 113.793 299.13C113.932 299.364 114.668 299.642 116.576 299.156C118.335 298.714 120.476 297.786 122.618 296.538C127.325 293.79 129.674 290.912 129.223 290.132C129.145 289.993 128.842 289.837 128.217 289.837Z" fill="black"/>
<path d="M221.569 447.242L207.691 456.708C207.153 457.072 206.425 456.907 206.096 456.352L113.516 299.694L113.542 299.668C113.542 299.668 113.516 299.633 113.516 299.616C124.143 298.697 128.339 292.1 129.431 289.985C129.492 289.864 129.665 289.864 129.735 289.985C133.843 296.929 214.999 434.343 221.864 445.959C222.124 446.401 221.994 446.964 221.569 447.259V447.242Z" fill="white"/>
<path d="M207.059 457.418C206.937 457.418 206.825 457.401 206.703 457.375C206.261 457.28 205.88 456.994 205.646 456.612L112.857 299.59L112.987 299.468L112.953 299.13L113.482 299.087C123.858 298.185 127.967 291.701 128.981 289.734C129.094 289.508 129.328 289.37 129.579 289.361C129.813 289.37 130.065 289.482 130.195 289.708C134.329 296.703 217.14 436.909 222.324 445.681C222.723 446.357 222.523 447.224 221.873 447.675L207.995 457.141C207.718 457.323 207.397 457.427 207.067 457.427L207.059 457.418ZM114.331 300.049L206.539 456.083C206.625 456.231 206.764 456.326 206.92 456.361C207.085 456.395 207.249 456.361 207.388 456.274L221.267 446.808C221.466 446.669 221.527 446.409 221.405 446.201C216.317 437.585 136.462 302.381 129.588 290.748C128.157 293.218 123.875 298.94 114.322 300.032L114.331 300.049Z" fill="black"/>
<path d="M224.499 469.034C224.551 469.58 223.936 469.927 223.494 469.597L207.179 457.496C206.235 456.863 205.628 456.049 205.402 455.069C216.229 453.084 219.818 447.059 220.737 445.031C221.717 445.568 222.323 446.418 222.488 447.458L224.491 469.034H224.499Z" fill="#C2C7CD"/>
<path d="M223.866 470.248C223.623 470.248 223.389 470.17 223.181 470.022L206.866 457.912C205.818 457.21 205.141 456.291 204.899 455.182L204.777 454.653L205.315 454.558C215.986 452.607 219.462 446.609 220.268 444.814L220.502 444.303L220.996 444.571C222.106 445.17 222.817 446.167 223.016 447.371L225.027 468.982C225.07 469.442 224.845 469.866 224.446 470.092C224.264 470.196 224.074 470.239 223.883 470.239L223.866 470.248ZM206.078 455.468C206.338 456.083 206.806 456.621 207.465 457.063L223.805 469.182C223.805 469.182 223.883 469.216 223.926 469.182C223.97 469.156 223.987 469.121 223.978 469.078L221.976 447.501C221.863 446.817 221.508 446.227 220.953 445.785C219.739 448.108 215.925 453.491 206.078 455.468Z" fill="black"/>
<path d="M222.6 462.706L222.843 462.298L222.028 461.813L221.785 462.22C220.953 463.616 219.297 464.483 217.676 464.37L217.199 464.336L217.139 465.289L217.615 465.324C219.583 465.454 221.594 464.405 222.609 462.706H222.6Z" fill="black"/>
<path d="M132.578 303.499L132.803 303.074L131.962 302.632L131.737 303.057C129.509 307.27 124.984 310.139 120.225 310.365L119.748 310.382L119.791 311.336L120.268 311.31C125.365 311.067 130.194 308.007 132.578 303.499Z" fill="black"/>
<path d="M123.216 374.357C120.97 381.413 115.171 385.097 112.623 384.282C110.065 383.467 111.721 378.474 113.975 371.418C116.22 364.362 120.112 359.291 122.669 360.105C125.218 360.92 125.469 367.3 123.224 374.357H123.216Z" fill="white"/>
<path d="M113.396 384.949C113.058 384.949 112.737 384.906 112.451 384.811C110.527 384.195 110.657 381.907 110.917 380.242C111.263 378.049 112.2 375.111 113.292 371.704L113.439 371.244C115.858 363.651 119.897 358.64 122.836 359.568C125.775 360.504 126.173 366.936 123.755 374.521C121.657 381.118 116.534 384.949 113.396 384.949ZM122.108 360.582C120.097 360.582 116.655 364.821 114.505 371.591L114.358 372.051C113.283 375.414 112.364 378.318 112.026 380.433C111.61 383.06 112.26 383.588 112.789 383.753C114.973 384.447 120.521 380.971 122.68 374.192C124.977 366.971 124.422 361.258 122.489 360.643C122.368 360.608 122.238 360.582 122.108 360.582Z" fill="black"/>
<path d="M114.295 370.898C114.841 368.913 115.543 366.815 116.401 364.613C120.476 354.167 124.463 347.042 132.1 348.94C141.809 351.35 137.102 360.652 133.028 371.106C132.039 373.637 130.869 375.96 129.612 378.015C123.64 377.945 118.17 375.119 114.295 370.898Z" fill="#5379F6"/>
<path d="M129.613 378.578C123.814 378.518 118.084 375.856 113.888 371.279C113.758 371.141 113.706 370.941 113.758 370.751C114.322 368.722 115.032 366.59 115.882 364.414C119.644 354.766 123.727 346.288 132.24 348.403C134.944 349.079 136.713 350.284 137.64 352.104C139.651 356.023 137.302 361.891 134.589 368.687C134.242 369.554 133.895 370.43 133.549 371.314C132.578 373.793 131.416 376.151 130.09 378.318C129.986 378.483 129.804 378.587 129.613 378.587V378.578ZM114.92 370.751C118.803 374.877 124.013 377.304 129.301 377.451C130.523 375.423 131.607 373.221 132.508 370.907C132.855 370.022 133.21 369.138 133.549 368.271C136.054 362.004 138.412 356.075 136.643 352.616C135.872 351.108 134.337 350.085 131.971 349.495C125.071 347.779 121.231 353.821 116.931 364.83C116.133 366.867 115.466 368.861 114.928 370.759L114.92 370.751Z" fill="black"/>
<g style="mix-blend-mode:multiply" opacity="0.5">
<path d="M167.729 509.803C154.12 517.657 132.058 517.657 118.457 509.803C104.848 501.949 104.848 489.206 118.457 481.353C132.067 473.499 154.128 473.499 167.729 481.353C181.339 489.206 181.339 501.949 167.729 509.803Z" fill="#C2C7CD"/>
</g>
<path d="M152.472 497.416C151.891 499.123 151.605 500.935 151.64 502.738C151.657 503.935 152.532 504.957 153.703 505.209C156.373 505.772 159.138 503.978 161.522 502.79C162.909 502.097 164.434 501.949 165.795 501.143C167.538 500.094 169.505 498.291 169.514 496.098C169.514 494.919 168.829 493.706 167.72 493.316C166.749 492.977 165.674 493.29 164.694 493.61C160.733 494.893 156.433 496.133 152.472 497.416Z" fill="black"/>
<path d="M118.614 487.828C118.562 488.175 118.544 488.521 118.553 488.877C118.579 489.761 118.969 490.68 119.741 491.113C121.266 491.972 123.754 491.053 125.072 490.186C126.511 489.232 128.036 488.868 129.692 488.443C131.114 488.079 132.535 487.585 133.749 486.762C134.954 485.938 136.055 484.681 136.358 483.216C136.627 481.907 135.951 480.399 134.633 479.948C133.654 479.61 132.587 479.94 131.608 480.269C128.634 481.257 125.47 482.219 122.402 483.199C120.33 483.858 118.917 485.73 118.605 487.837L118.614 487.828Z" fill="black"/>
<path d="M118.838 458.823C119.41 451.082 121.256 446.826 122.149 441.772C122.461 440.003 122.652 438.122 122.608 435.964C122.6 434.352 122.461 432.574 122.149 430.555C119.557 413.556 119.939 396.097 124.412 384.325C127.541 382.366 131.164 381.499 134.519 382.366C137.882 383.233 140.821 385.825 142.078 389.379C143.3 392.855 142.893 396.851 142.433 400.665C140.743 414.483 138.299 424.937 135.395 438.486C135.36 438.651 135.325 438.833 135.282 439.007C135.1 439.873 134.927 440.723 134.753 441.572C133.496 447.788 132.395 454.029 131.208 460.245C130.323 464.9 129.249 469.511 128.182 474.114C128.07 474.608 127.957 475.102 127.844 475.605C125.313 477.036 121.976 477.183 119.557 475.77C119.141 470.127 118.413 464.509 118.838 458.832V458.823Z" fill="#C2C7CD"/>
<path d="M127.836 475.597C127.394 477.521 126.952 479.446 126.527 481.379C126.336 482.237 125.383 484.153 124.724 484.82C124.004 485.557 122.349 486.242 121.187 486.086C119.575 485.86 119.835 483.468 119.818 481.587C119.809 480.858 119.792 480.13 119.766 479.402C119.722 478.189 119.636 476.975 119.549 475.761C121.967 477.166 125.305 477.027 127.836 475.597Z" fill="white"/>
<path d="M157.612 489.553C157.716 491.122 157.812 492.691 157.924 494.26C158.037 495.794 158.635 497.927 157.777 499.331C156.511 501.42 153.763 500.276 152.749 498.655C152.142 497.667 151.692 496.592 151.249 495.525C150.617 493.982 149.967 492.413 149.316 490.818C152.29 491.26 154.986 491.2 157.612 489.553Z" fill="white"/>
<path d="M138.74 393.271C142.416 393.219 146.143 395.031 148.423 398.282C150.651 401.489 151.37 405.667 151.969 409.698C153.442 419.511 154.118 427.868 154.665 436.762C154.786 438.547 154.89 440.359 155.003 442.214C155.15 444.789 155.297 447.459 155.462 450.241C155.956 458.65 156.364 467.076 156.806 475.493C157.031 479.714 157.265 483.919 157.525 488.123C157.56 488.6 157.586 489.076 157.621 489.553C154.985 491.2 152.298 491.261 149.325 490.819C147.305 485.878 145.32 480.729 144.323 475.64C141.74 462.629 145.129 457.948 139.729 445.898C139.078 444.442 138.446 442.968 137.848 441.503C137.05 439.57 136.296 437.646 135.602 435.704C134.467 432.575 133.444 429.445 132.568 426.342L138.766 393.263L138.74 393.271Z" fill="#C2C7CD"/>
<path d="M121.542 486.666C121.394 486.666 121.256 486.658 121.117 486.64C119.21 486.38 119.236 484.109 119.253 482.289C119.253 482.055 119.253 481.821 119.253 481.587C119.253 480.859 119.236 480.139 119.201 479.42C119.106 477.018 118.898 474.574 118.699 472.207C118.326 467.83 117.936 463.296 118.274 458.78C118.655 453.709 119.583 450.068 120.406 446.852C121.629 442.058 122.695 437.923 121.585 430.65C118.785 412.299 119.626 395.343 123.874 384.135C123.917 384.022 123.995 383.918 124.099 383.857C127.558 381.69 131.311 380.971 134.649 381.829C138.272 382.765 141.315 385.582 142.589 389.188L142.78 389.717L141.722 390.09L141.532 389.561C140.379 386.302 137.631 383.753 134.371 382.912C131.381 382.141 128.009 382.782 124.853 384.707C120.727 395.751 119.938 412.412 122.686 430.477C123.83 437.975 122.747 442.214 121.49 447.129C120.675 450.302 119.756 453.891 119.392 458.866C119.063 463.287 119.444 467.778 119.817 472.112C120.016 474.487 120.233 476.949 120.32 479.376C120.346 480.113 120.363 480.85 120.372 481.587C120.372 481.821 120.372 482.063 120.372 482.306C120.354 484.118 120.406 485.41 121.264 485.531C122.235 485.661 123.726 485.037 124.316 484.43C124.905 483.823 125.815 482.02 125.98 481.257C126.509 478.839 127.064 476.412 127.627 473.984L127.809 473.213C128.797 468.939 129.82 464.518 130.653 460.141C131.034 458.156 131.433 456.032 131.84 453.847C132.95 447.944 134.085 441.833 135.212 436.588L135.334 436.042L136.434 436.276L136.313 436.822C135.195 442.058 134.051 448.161 132.95 454.055C132.542 456.24 132.144 458.364 131.762 460.349C130.921 464.752 129.898 469.182 128.91 473.464L128.728 474.236C128.173 476.654 127.619 479.082 127.09 481.5C126.882 482.445 125.876 484.456 125.131 485.219C124.411 485.964 122.842 486.684 121.551 486.684L121.542 486.666Z" fill="black"/>
<path d="M155.827 501.021C154.492 501.021 153.036 500.172 152.281 498.949C151.657 497.944 151.198 496.86 150.738 495.733L149.742 493.324C147.375 487.602 144.93 481.682 143.76 475.752C142.72 470.482 142.642 466.503 142.573 462.992C142.469 457.756 142.391 453.24 139.201 446.132C136.262 439.561 133.835 432.956 132.006 426.498L131.85 425.96L132.925 425.657L133.081 426.194C134.901 432.6 137.302 439.154 140.223 445.672C143.5 452.989 143.587 457.609 143.691 462.975C143.76 466.434 143.83 470.36 144.852 475.536C146.005 481.361 148.424 487.229 150.773 492.899L151.77 495.309C152.221 496.427 152.654 497.424 153.226 498.351C153.772 499.235 154.891 499.894 155.827 499.894C156.451 499.894 156.945 499.6 157.292 499.036C157.847 498.135 157.656 496.73 157.491 495.491C157.431 495.066 157.379 494.667 157.353 494.294C157.214 492.249 157.075 490.211 156.954 488.166C156.694 483.953 156.46 479.74 156.234 475.527C156.096 472.857 155.957 470.187 155.818 467.526C155.523 461.779 155.229 456.023 154.891 450.267L154.587 444.936C153.902 432.895 153.304 422.501 151.415 409.776C150.79 405.606 150.062 401.61 147.964 398.602C145.867 395.594 142.33 393.748 138.758 393.826H138.195L138.178 392.716H138.741C142.685 392.647 146.578 394.649 148.883 397.961C151.12 401.159 151.883 405.294 152.524 409.611C154.431 422.389 155.021 432.808 155.714 444.875L156.018 450.206C156.356 455.962 156.65 461.718 156.954 467.474C157.092 470.144 157.231 472.805 157.37 475.475C157.595 479.679 157.829 483.892 158.089 488.096C158.219 490.142 158.349 492.179 158.488 494.225C158.514 494.572 158.566 494.953 158.618 495.352C158.809 496.774 159.026 498.386 158.263 499.626C157.717 500.527 156.858 501.021 155.853 501.021H155.836H155.827Z" fill="black"/>
<path d="M117.755 402.798C122.93 384.49 118.743 364.786 125.522 355.355C132.404 345.785 152.307 365.323 152.307 365.323C152.307 365.323 153.027 384.412 154.596 402.529C155.463 412.541 148.346 421.634 139.322 421.634C132.621 421.634 114.66 421.548 117.746 402.798H117.755Z" fill="#5379F6"/>
<path d="M139.148 422.198C134.771 422.198 124.932 422.12 119.93 416.234C117.174 412.992 116.255 408.441 117.2 402.703C119.089 396.011 119.445 389.778 119.791 383.753C120.043 379.324 120.312 374.747 121.178 370.144L121.282 369.589L122.383 369.797L122.279 370.352C121.421 374.877 121.17 379.22 120.91 383.814C120.563 389.899 120.199 396.201 118.292 402.945C117.416 408.277 118.257 412.524 120.788 415.506C125.521 421.08 135.195 421.097 139.33 421.071C143.101 421.071 146.699 419.407 149.473 416.382C152.827 412.724 154.492 407.696 154.05 402.573C152.498 384.646 151.761 365.532 151.752 365.341L151.735 364.778L152.853 364.734L152.871 365.298C152.871 365.489 153.608 384.577 155.159 402.477C155.627 407.913 153.859 413.252 150.296 417.136C147.305 420.395 143.413 422.19 139.322 422.19H139.148V422.198Z" fill="black"/>
<path d="M194.713 402.434C195.008 402.729 195.476 402.815 195.857 402.651C196.239 402.486 196.438 402.122 196.421 401.706C196.672 401.81 196.932 401.897 197.209 401.905C197.478 401.905 197.764 401.836 197.964 401.662C198.172 401.48 198.241 401.22 198.163 400.96C198.449 400.9 198.744 400.839 198.995 400.7C199.255 400.562 199.481 400.345 199.567 400.067C199.706 399.591 199.385 399.105 199.091 398.707C197.92 397.138 196.672 395.508 194.886 394.693C192.312 393.523 185.828 393.895 185.568 394.208C185.308 394.52 185.134 394.901 184.969 395.274C184.701 395.881 184.432 396.487 184.319 397.138C184.207 397.788 184.259 398.49 184.597 399.053C185.013 399.729 185.784 400.119 186.564 400.276C187.345 400.432 188.151 400.388 188.948 400.414C189.746 400.44 190.613 400.475 191.237 400.96C191.852 401.428 192.398 401.992 192.858 402.607C193.066 402.885 193.274 403.197 193.603 403.318C193.881 403.422 194.21 403.37 194.436 403.179C194.661 402.989 194.765 402.72 194.704 402.425L194.713 402.434Z" fill="white"/>
<path d="M198.639 400.379C198.111 399.33 197.573 398.255 195.527 396.738L195.077 396.4L194.4 397.302L194.851 397.64C196.672 399.001 197.114 399.868 197.625 400.882L198.015 401.654L199.021 401.142L198.631 400.379H198.639Z" fill="black"/>
<path d="M196.94 401.194C196.412 400.145 195.874 399.07 193.837 397.553L193.386 397.215L192.719 398.117L193.17 398.455C194.99 399.816 195.432 400.683 195.943 401.697L196.334 402.468L197.339 401.957L196.949 401.194H196.94Z" fill="black"/>
<path d="M195.432 402.512C194.912 401.463 194.366 400.379 192.32 398.862L191.87 398.524L191.193 399.426L191.644 399.764C193.465 401.125 193.907 402 194.418 403.006L194.808 403.769L195.814 403.257L195.424 402.495L195.432 402.512Z" fill="black"/>
<path d="M157.88 375.561C152.505 370.404 146.628 367.803 144.764 369.754C142.9 371.695 145.752 377.451 151.127 382.609C156.51 387.767 160.289 391.468 162.153 389.527C164.017 387.585 163.263 380.719 157.88 375.57V375.561Z" fill="white"/>
<path d="M189.848 398.707C190.949 396.383 175.432 387.047 166.009 382.574C156.587 378.101 154.758 383.198 155.893 385.513C158.407 390.645 161.372 390.35 170.794 394.823C180.217 399.296 188.747 401.038 189.848 398.707Z" fill="white"/>
<path d="M194.878 403.561C195.034 403.613 195.216 403.595 195.372 403.5C195.45 403.448 195.511 403.379 195.554 403.301C195.736 403.292 195.918 403.249 196.083 403.171C196.43 403.023 196.69 402.755 196.846 402.434C196.958 402.451 197.071 402.469 197.192 402.469C197.635 402.486 198.042 402.347 198.337 402.087C198.545 401.905 198.675 401.671 198.735 401.411C198.909 401.359 199.091 401.298 199.264 401.212C199.698 400.986 200.001 400.639 200.114 400.232C200.339 399.443 199.828 398.75 199.55 398.377C198.449 396.903 197.088 395.074 195.129 394.19C192.797 393.124 187.579 393.254 185.915 393.531C180.592 389.622 171.854 384.724 166.254 382.071C164.807 381.387 163.437 380.884 162.189 380.58C161.244 378.569 159.918 376.74 158.271 375.163C155.627 372.623 152.766 370.612 150.235 369.485C147.522 368.28 145.441 368.245 144.358 369.363C143.82 369.918 143.595 370.707 143.638 371.652C143.768 374.504 146.403 378.855 150.746 383.016L151.076 383.337C154.326 386.449 156.892 388.911 158.869 389.977C160.23 390.905 161.903 391.598 164.217 392.56C165.908 393.262 168.014 394.138 170.563 395.343C175.85 397.857 181.043 399.599 184.848 400.137C185.299 400.483 185.854 400.726 186.478 400.847C187.111 400.978 187.744 400.986 188.359 400.986C188.559 400.986 188.758 400.986 188.949 400.995C189.642 401.021 190.422 401.047 190.916 401.42C191.489 401.862 192 402.373 192.468 403.015C192.685 403.309 192.962 403.682 193.413 403.855C193.881 404.038 194.427 403.942 194.809 403.621C194.835 403.604 194.852 403.578 194.878 403.561ZM193.812 402.807C193.664 402.755 193.517 402.547 193.318 402.286C192.823 401.628 192.243 401.03 191.593 400.527C190.812 399.92 189.798 399.894 188.975 399.859C188.767 399.859 188.567 399.859 188.359 399.851C187.77 399.851 187.215 399.833 186.686 399.729C186.201 399.634 185.759 399.426 185.438 399.157C185.351 399.088 185.256 399.044 185.143 399.027C181.442 398.533 176.293 396.808 171.031 394.311C168.456 393.089 166.341 392.214 164.633 391.503C162.388 390.567 160.758 389.899 159.441 388.998C157.551 387.983 154.907 385.443 151.839 382.513L151.509 382.193C146.013 376.922 143.751 371.608 145.164 370.135C145.866 369.398 147.591 369.537 149.767 370.499C152.185 371.574 154.925 373.507 157.482 375.96C159.103 377.512 160.377 379.306 161.27 381.283C161.339 381.447 161.487 381.56 161.66 381.603C162.908 381.881 164.287 382.375 165.76 383.077C171.377 385.747 180.185 390.688 185.429 394.58C185.568 394.684 185.741 394.719 185.906 394.675C186.92 394.415 192.425 394.19 194.653 395.204C196.343 395.976 197.565 397.605 198.64 399.044C198.831 399.304 199.03 399.591 199.039 399.807C199.039 399.842 199.039 399.877 199.03 399.903C198.996 400.007 198.891 400.119 198.735 400.197C198.545 400.301 198.302 400.345 198.042 400.405C197.886 400.44 197.756 400.535 197.678 400.665C197.6 400.795 197.574 400.96 197.617 401.108C197.635 401.177 197.617 401.203 197.591 401.229C197.513 401.298 197.374 401.342 197.218 401.333C197.054 401.333 196.872 401.281 196.629 401.177C196.456 401.099 196.248 401.125 196.092 401.238C195.936 401.35 195.84 401.532 195.849 401.723C195.849 401.81 195.84 402.026 195.615 402.122C195.467 402.182 195.268 402.156 195.129 402.044C194.921 401.87 194.627 401.87 194.418 402.044C194.366 402.087 194.323 402.139 194.288 402.191C194.184 402.295 194.124 402.434 194.124 402.581C194.124 402.703 194.08 402.729 194.063 402.746C193.994 402.807 193.881 402.824 193.794 402.789L193.812 402.807Z" fill="black"/>
<path d="M136.626 354.21C144.055 347.449 150.253 358.744 157.864 370.369C159.294 372.553 160.542 374.729 161.617 376.853C158.852 382.288 154.379 385.937 149.082 388.165C146.985 385.842 144.896 383.137 142.928 380.138C135.325 368.514 130.783 359.524 136.626 354.21Z" fill="#5379F6"/>
<path d="M149.134 388.729C148.961 388.746 148.788 388.677 148.666 388.547C146.473 386.111 144.384 383.389 142.46 380.451L142.156 379.982L143.092 379.367L143.396 379.835C145.208 382.609 147.167 385.184 149.23 387.498C154.544 385.175 158.496 381.603 160.976 376.862C159.788 374.686 155.228 367.751 153.243 364.717L152.212 363.139L153.148 362.524L154.18 364.093C156.442 367.534 161.158 374.712 162.111 376.593C162.189 376.749 162.189 376.94 162.111 377.096C159.459 382.314 155.142 386.215 149.299 388.677C149.247 388.694 149.186 388.712 149.134 388.72V388.729Z" fill="black"/>
<path d="M139.175 350.37L138.664 345.62L130.264 345.282L130.091 349.547C128.895 349.954 127.759 350.544 126.996 351.289C127.325 352.572 129.189 353.812 131.972 353.924C134.529 354.028 140.38 353.118 141.889 352.407C141.161 351.627 140.224 350.934 139.175 350.362V350.37Z" fill="white"/>
<path d="M132.405 354.496C132.24 354.496 132.084 354.496 131.945 354.496C129.145 354.384 126.883 353.127 126.449 351.436C126.397 351.246 126.449 351.038 126.597 350.899C127.438 350.067 128.599 349.503 129.535 349.148L129.691 345.264C129.7 344.952 129.951 344.701 130.272 344.727L138.672 345.065C138.949 345.074 139.175 345.29 139.209 345.568L139.695 350.023C140.718 350.613 141.619 351.298 142.295 352.035C142.417 352.165 142.469 352.347 142.434 352.52C142.399 352.693 142.287 352.849 142.122 352.919C140.588 353.647 135.222 354.496 132.405 354.496ZM127.654 351.445C128.131 352.355 129.7 353.274 131.997 353.37C134.242 353.456 138.767 352.78 140.848 352.182C140.293 351.705 139.634 351.254 138.906 350.856C138.741 350.769 138.637 350.604 138.62 350.422L138.152 346.157L130.792 345.863L130.645 349.564C130.636 349.798 130.489 349.997 130.264 350.075C129.18 350.448 128.278 350.916 127.646 351.445H127.654Z" fill="black"/>
<path d="M126.674 341.477C128.65 346.999 135.741 349.634 140.257 348.013C144.765 346.4 143.586 339.162 141.61 333.64C139.633 328.118 135.767 326.939 131.259 328.56C126.752 330.173 124.697 335.963 126.674 341.477Z" fill="white"/>
<path d="M137.345 349.044C137.05 349.044 136.756 349.036 136.461 349.01L135.906 348.966L135.993 347.848L136.548 347.891C137.822 347.995 139.036 347.857 140.058 347.484C141.853 346.842 142.772 345.091 142.798 342.283C142.815 339.986 142.208 336.978 141.073 333.831C140.18 331.334 138.862 329.696 137.146 328.942C135.568 328.248 133.652 328.3 131.433 329.089C129.413 329.809 127.853 331.464 127.047 333.744C126.223 336.059 126.275 338.737 127.186 341.286C127.983 343.505 129.734 345.403 132.135 346.626L132.638 346.877L132.127 347.874L131.624 347.623C128.971 346.27 127.021 344.155 126.128 341.667C125.131 338.876 125.079 335.929 125.989 333.372C126.917 330.771 128.711 328.873 131.052 328.032C133.548 327.139 135.742 327.095 137.588 327.91C139.59 328.794 141.116 330.658 142.113 333.45C143.283 336.726 143.925 339.864 143.899 342.291C143.864 346.435 141.983 347.978 140.414 348.542C139.486 348.871 138.429 349.044 137.319 349.044H137.345Z" fill="black"/>
<path d="M128.13 327.685C126.969 326.679 124.897 326.402 123.371 327.052C124.134 327.234 124.949 327.13 125.738 327.121C126.535 327.121 127.419 327.269 127.853 327.789C128.338 328.37 128.59 329.072 129.69 328.69C130.367 328.448 130.479 328.049 130.41 327.546C130.341 327.061 129.873 326.662 129.838 326.15C129.794 325.44 130.289 324.746 130.8 324.191C129.075 324.703 127.965 326.281 128.121 327.693L128.13 327.685Z" fill="black"/>
<path d="M151.839 491.928C151.181 491.928 150.505 491.876 149.768 491.772L149.213 491.694L149.369 490.584L149.924 490.662C152.672 491.052 154.561 490.697 157.145 489.293L157.639 489.024L158.176 490.012L157.682 490.281C155.584 491.425 153.851 491.937 151.839 491.937V491.928Z" fill="black"/>
<path d="M123.303 477.382C122.063 477.382 120.832 477.166 119.688 476.732L119.168 476.533L119.567 475.484L120.087 475.683C122.401 476.567 125.115 476.437 127.342 475.345L127.845 475.094L128.339 476.099L127.837 476.351C126.441 477.036 124.872 477.382 123.303 477.382Z" fill="black"/>
<path d="M124.88 343.453C125.886 346.183 127.871 348.741 130.662 349.556C133.453 350.37 136.964 348.819 137.536 345.967C137.857 344.372 137.267 342.759 136.86 341.182C136.453 339.604 136.279 337.784 137.267 336.492C138.42 334.992 140.674 334.828 142.026 333.519C143.578 332.019 143.448 329.314 142.105 327.624C140.761 325.942 138.516 325.188 136.357 325.154C131.416 325.084 127.975 326.679 125.738 331.109C123.831 334.88 123.406 339.448 124.88 343.436V343.453Z" fill="black"/>
<path d="M134.008 340.055C134.008 341.503 134.779 342.673 135.724 342.673C136.669 342.673 137.441 341.503 137.441 340.055C137.441 338.607 136.669 337.437 135.724 337.437C134.779 337.437 134.008 338.607 134.008 340.055Z" fill="white"/>
<g style="mix-blend-mode:multiply" opacity="0.5">
<path d="M700.439 317.101L683.284 327.122L610.537 286.579L627.632 276.575L700.439 317.101Z" fill="#C2C7CD"/>
</g>
<path d="M597.006 155.232L611.821 147.691C613.26 146.789 614.785 146.018 616.372 145.376L616.667 145.229V145.263C627.294 141.102 640.991 142.801 655.953 151.444C689.725 170.94 717.101 218.365 717.101 257.365C717.101 276.401 710.573 289.907 699.971 296.478L700.023 296.513L699.252 296.911C698.385 297.414 697.484 297.874 696.556 298.29L678.543 307.496L682.383 301.012C674.382 300.829 665.41 298.142 655.935 292.672C622.162 273.177 594.787 225.751 594.787 186.751C594.787 174.728 597.396 164.906 601.982 157.651L596.98 155.25L597.006 155.232Z" fill="white"/>
<path d="M639.292 159.982C673.064 179.478 700.44 226.904 700.44 265.904C700.44 304.904 673.064 320.706 639.292 301.211C605.519 281.715 578.135 234.289 578.135 195.289C578.135 156.29 605.51 140.487 639.292 159.982Z" fill="white"/>
<path d="M597.006 155.233L611.821 147.691C613.26 146.79 614.785 146.018 616.372 145.377L616.667 145.229V145.264C627.294 141.103 640.991 142.802 655.953 151.445C689.725 170.94 717.101 218.366 717.101 257.366C717.101 276.402 710.573 289.908 699.971 296.478L700.023 296.513L699.252 296.912C698.385 297.415 697.484 297.874 696.556 298.29L678.543 307.496L682.383 301.012C674.382 300.83 665.41 298.143 655.935 292.673C622.162 273.177 594.787 225.751 594.787 186.752C594.787 174.728 597.396 164.907 601.982 157.651L596.98 155.25L597.006 155.233Z" fill="#C2C7CD"/>
<path d="M601.315 157.833C596.738 165.305 594.328 175.283 594.328 186.734C594.328 225.82 621.868 273.524 655.719 293.063C664.752 298.272 673.446 301.09 681.577 301.436L678.145 307.227C678.04 307.409 678.066 307.643 678.205 307.799C678.301 307.894 678.422 307.946 678.552 307.946C678.621 307.946 678.699 307.929 678.769 307.894L696.782 298.688C697.727 298.264 698.646 297.796 699.495 297.301L700.241 296.92C700.327 296.877 700.397 296.807 700.44 296.721C711.493 289.734 717.569 275.76 717.569 257.339C717.569 218.253 690.029 170.55 656.178 151.011C641.763 142.689 627.728 140.461 616.632 144.743C616.598 144.743 616.502 144.761 616.442 144.787L616.147 144.934C614.569 145.576 613.009 146.364 611.561 147.275L596.781 154.799C596.617 154.886 596.521 155.05 596.521 155.232C596.521 155.414 596.625 155.579 596.79 155.657L601.306 157.824L601.315 157.833ZM602.407 157.885C602.477 157.772 602.503 157.634 602.459 157.495C602.425 157.365 602.329 157.252 602.208 157.2L598.082 155.215L612.038 148.107C613.477 147.205 614.985 146.442 616.554 145.81L616.728 145.723C616.728 145.723 616.806 145.714 616.84 145.697C627.685 141.449 641.494 143.634 655.719 151.843C689.31 171.235 716.633 218.565 716.633 257.348C716.633 275.552 710.626 289.3 699.729 296.062C699.669 296.097 699.625 296.149 699.582 296.201L699.044 296.478C698.195 296.972 697.311 297.423 696.375 297.848L679.809 306.317L682.808 301.246C682.895 301.098 682.895 300.916 682.808 300.769C682.73 300.622 682.574 300.526 682.401 300.526C674.192 300.344 665.376 297.553 656.187 292.248C622.596 272.856 595.273 225.526 595.273 186.743C595.273 175.239 597.735 165.262 602.399 157.894L602.407 157.885Z" fill="black"/>
<path d="M639.292 159.983C673.064 179.479 700.44 226.904 700.44 265.904C700.44 304.904 673.064 320.707 639.292 301.211C605.519 281.716 578.135 234.29 578.135 195.29C578.135 156.29 605.51 140.487 639.292 159.983Z" fill="white"/>
<path d="M595.81 155.293C607.513 148.532 623.038 150.057 639.526 159.575L639.049 160.399C622.865 151.054 607.677 149.537 596.287 156.117C584.888 162.696 578.612 176.609 578.612 195.29C578.612 234.073 605.935 281.403 639.526 300.795C655.71 310.14 670.897 311.657 682.288 305.077C693.687 298.498 699.963 284.585 699.963 265.904C699.963 242.785 690.107 215.436 673.593 192.75L674.365 192.186C690.991 215.037 700.917 242.594 700.917 265.904C700.917 284.94 694.467 299.148 682.765 305.909C677.954 308.683 672.501 310.062 666.598 310.062C658.137 310.062 648.758 307.227 639.049 301.618C605.198 282.071 577.658 234.376 577.658 195.29C577.658 176.254 584.108 162.046 595.81 155.284V155.293Z" fill="black"/>
<path d="M639.293 178.507C664.206 192.888 684.404 227.875 684.404 256.646C684.404 285.416 664.206 297.076 639.293 282.695C614.379 268.313 594.182 233.327 594.182 204.556C594.182 175.785 614.379 164.126 639.293 178.507Z" fill="#C2C7CD"/>
<path d="M644.171 185.165C667.117 198.523 685.789 230.865 685.885 257.409C685.98 283.952 667.455 294.649 644.518 281.29C621.573 267.932 602.9 235.59 602.805 209.047C602.71 182.503 621.234 171.806 644.171 185.165Z" fill="white"/>
<path d="M593.703 204.548C593.703 233.423 614.048 268.66 639.057 283.102C646.243 287.254 653.178 289.343 659.446 289.343C663.823 289.343 667.863 288.321 671.434 286.257C680.111 281.247 684.888 270.732 684.888 256.637C684.888 227.762 664.543 192.524 639.534 178.082C627.328 171.035 615.834 169.917 607.157 174.918C598.479 179.929 593.703 190.444 593.703 204.539V204.548ZM594.657 204.548C594.657 190.808 599.268 180.588 607.634 175.759C611.049 173.783 614.941 172.803 619.154 172.803C625.248 172.803 632.027 174.858 639.057 178.915C663.797 193.2 683.934 228.065 683.934 256.637C683.934 270.377 679.323 280.597 670.957 285.434C662.592 290.262 651.427 289.144 639.534 282.27C614.794 267.984 594.657 233.119 594.657 204.548Z" fill="black"/>
<path d="M633.171 235.079C632.616 233.648 632.304 232.175 632.304 230.805C632.304 228.612 633.11 227.104 634.393 226.453H634.376L634.419 226.419L634.307 226.375L639.586 223.402V223.428C640.21 223.09 640.964 222.977 641.788 223.081V203.95C641.788 202.65 642.576 202.051 643.547 202.615L645.723 204.271C646.694 204.834 647.483 206.342 647.483 207.643V226.887C649.451 229.349 650.777 232.565 650.777 235.391C650.777 237.575 649.979 239.084 648.714 239.742H648.722L643.573 242.828V242.724C642.386 243.418 640.73 243.314 638.91 242.265C638.19 241.849 637.488 241.311 636.838 240.679L621.954 252.468C621.278 253.005 620.082 252.433 619.284 251.185L618.547 250.049C617.75 248.81 617.646 247.371 618.322 246.833L633.162 235.079H633.171Z" fill="#C2C7CD"/>
<path d="M640.695 200.708L642.871 202.363C643.842 202.927 644.631 204.435 644.631 205.735V226.098C644.631 227.398 643.842 227.996 642.871 227.433L640.695 225.777C639.724 225.214 638.936 223.705 638.936 222.405V202.043C638.936 200.742 639.724 200.144 640.695 200.708Z" fill="#5379F6"/>
<path d="M637.62 227.389C638.296 226.852 639.492 227.424 640.289 228.672L641.026 229.808C641.824 231.048 641.928 232.487 641.252 233.024L619.112 250.552C618.436 251.089 617.24 250.517 616.442 249.269L615.705 248.133C614.908 246.894 614.804 245.455 615.48 244.917L637.62 227.389Z" fill="#5379F6"/>
<path d="M638.451 202.034V222.396C638.451 223.853 639.318 225.5 640.428 226.158L642.577 227.797C642.933 228.005 643.271 228.1 643.583 228.1C643.826 228.1 644.051 228.04 644.259 227.918C644.797 227.606 645.109 226.939 645.109 226.08V205.718C645.109 204.244 644.233 202.589 643.106 201.938L640.982 200.309C640.358 199.945 639.777 199.91 639.301 200.179C638.763 200.491 638.451 201.158 638.451 202.016V202.034ZM639.405 202.034C639.405 201.531 639.543 201.158 639.777 201.02C639.847 200.985 639.916 200.968 639.994 200.968C640.168 200.968 640.35 201.054 640.454 201.115L642.577 202.745C643.453 203.256 644.155 204.608 644.155 205.735V226.098C644.155 226.601 644.016 226.973 643.782 227.112C643.557 227.242 643.262 227.112 643.106 227.017L640.982 225.387C640.982 225.387 640.948 225.361 640.93 225.352C640.107 224.875 639.405 223.523 639.405 222.396V202.034Z" fill="black"/>
<path d="M615.176 244.553C614.301 245.247 614.353 246.937 615.298 248.402L616.034 249.538C616.624 250.457 617.439 251.081 618.219 251.211C618.314 251.228 618.418 251.237 618.514 251.237C618.852 251.237 619.155 251.133 619.407 250.933L641.546 233.406C642.422 232.712 642.37 231.022 641.425 229.557L640.688 228.421C640.098 227.502 639.275 226.878 638.503 226.748C638.053 226.67 637.645 226.765 637.316 227.026L615.176 244.553ZM615.774 245.299L637.914 227.771C637.992 227.71 638.096 227.676 638.217 227.676C638.261 227.676 638.304 227.676 638.347 227.684C638.841 227.771 639.448 228.256 639.882 228.933L640.619 230.068C641.312 231.143 641.364 232.322 640.948 232.651L618.808 250.179C618.696 250.266 618.557 250.292 618.375 250.266C617.881 250.179 617.274 249.694 616.841 249.018L616.104 247.882C615.41 246.807 615.358 245.628 615.774 245.299Z" fill="black"/>
<path d="M636.734 221.487V221.513C637.922 220.88 639.543 220.992 641.32 222.024C644.969 224.13 647.934 229.262 647.934 233.475C647.934 235.66 647.137 237.168 645.871 237.827H645.88L640.73 240.913L640.869 239.5C640.28 239.361 639.664 239.11 639.014 238.737C635.365 236.631 632.4 231.499 632.4 227.286C632.4 226.419 632.53 225.656 632.755 225.015L631.455 224.46L636.734 221.487Z" fill="#5379F6"/>
<path d="M631.29 224.113C631.134 224.2 631.039 224.373 631.047 224.555C631.056 224.737 631.169 224.893 631.333 224.971L632.226 225.353C632.062 225.951 631.984 226.618 631.984 227.329C631.984 231.655 635.026 236.925 638.771 239.084C639.291 239.387 639.82 239.621 640.331 239.777L640.236 240.783C640.219 240.965 640.305 241.138 640.453 241.234C640.531 241.286 640.618 241.312 640.704 241.312C640.791 241.312 640.878 241.286 640.947 241.242L646.053 238.174C647.492 237.428 648.324 235.712 648.324 233.458C648.324 229.132 645.281 223.862 641.536 221.703C639.69 220.637 637.913 220.455 636.535 221.192L631.273 224.131L631.29 224.113ZM632.998 224.642L632.599 224.477L637.003 222.015C637.41 221.799 637.878 221.686 638.39 221.686C639.205 221.686 640.115 221.963 641.077 222.518C644.553 224.529 647.388 229.427 647.388 233.449C647.388 235.356 646.755 236.735 645.602 237.333L641.276 239.933L641.32 239.474C641.346 239.24 641.19 239.023 640.956 238.963C640.401 238.833 639.829 238.59 639.248 238.26C635.772 236.249 632.937 231.352 632.937 227.329C632.937 226.549 633.05 225.847 633.267 225.24C633.353 225.006 633.241 224.737 633.007 224.642H632.998Z" fill="black"/>
<path d="M636.057 225.076C639.707 227.182 642.672 232.314 642.672 236.527C642.672 240.74 639.707 242.456 636.057 240.35C632.408 238.243 629.443 233.111 629.443 228.898C629.443 224.686 632.408 222.969 636.057 225.084V225.076Z" fill="#5379F6"/>
<path d="M628.967 228.898C628.967 233.259 632.044 238.581 635.815 240.765C636.933 241.407 638.017 241.736 639.005 241.736C639.716 241.736 640.374 241.572 640.964 241.225C642.368 240.419 643.14 238.746 643.14 236.527C643.14 232.166 640.062 226.844 636.283 224.659C634.367 223.55 632.529 223.385 631.125 224.2C629.721 225.006 628.949 226.679 628.949 228.898H628.967ZM629.92 228.898C629.92 227.034 630.527 225.665 631.619 225.032C632.053 224.781 632.555 224.651 633.101 224.651C633.925 224.651 634.844 224.937 635.815 225.491C639.334 227.52 642.186 232.478 642.186 236.535C642.186 238.399 641.579 239.769 640.487 240.401C639.395 241.034 637.904 240.87 636.292 239.942C632.781 237.914 629.92 232.955 629.92 228.898Z" fill="black"/>
<path d="M632.442 226.445C633.5 225.83 634.869 225.951 636.3 226.775L636.716 227.009L636.239 227.832L635.823 227.59C634.705 226.939 633.673 226.827 632.919 227.26C632.165 227.694 631.757 228.647 631.757 229.939C631.757 232.834 633.795 236.362 636.3 237.81C637.418 238.46 638.458 238.573 639.204 238.139C639.958 237.706 640.365 236.752 640.365 235.461C640.365 234.238 639.984 232.825 639.299 231.482L639.082 231.057L639.932 230.624L640.149 231.048C640.903 232.522 641.327 234.091 641.327 235.461C641.327 237.108 640.747 238.356 639.689 238.971C639.247 239.231 638.744 239.353 638.207 239.353C637.47 239.353 636.664 239.11 635.832 238.633C633.066 237.038 630.812 233.129 630.812 229.939C630.812 228.292 631.393 227.043 632.451 226.428L632.442 226.445Z" fill="black"/>
<path d="M730.178 415.653C706.27 401.853 667.522 401.853 643.614 415.653C631.877 422.432 625.904 431.274 625.696 440.168C625.687 440.324 625.687 440.489 625.687 440.645C625.687 445.647 627.525 450.649 631.183 455.286C623.234 459.924 613.794 465.879 613.794 465.879L616.23 470.161L544.801 512.143L567.348 525.458L640.788 482.297L630.065 475.969L645.53 466.677C669.55 479.411 706.894 479.064 730.169 465.619C742.123 458.719 748.105 449.678 748.105 440.628C748.105 440.48 748.105 440.342 748.087 440.194C747.905 431.292 741.933 422.424 730.178 415.645V415.653Z" fill="#C2C7CD"/>
<path d="M724.353 409.455C714.947 404.029 701.451 400.917 687.321 400.917C673.191 400.917 659.694 404.029 650.289 409.464C642.868 413.746 641.351 417.465 641.351 418.228H641.057C643.18 420.594 646.058 422.874 649.621 424.928C659.486 430.624 673.364 433.892 687.711 433.892C702.057 433.892 715.936 430.624 725.801 424.928C729.077 423.039 731.791 420.958 733.854 418.782H733.464C733.464 417.742 731.227 413.417 724.362 409.455H724.353Z" fill="#5379F6"/>
<path d="M740.936 411.952C740.182 411.181 739.367 410.418 738.491 409.681C738.274 412.62 736.757 415.628 734.122 418.488C734.122 418.48 734.122 418.462 734.122 418.454C733.897 418.774 733.637 419.069 733.316 419.303C731.322 421.288 728.817 423.187 725.8 424.929C715.944 430.624 702.057 433.892 687.711 433.892C673.364 433.892 659.486 430.624 649.621 424.929C646.284 423.005 643.562 420.881 641.49 418.67C641.178 418.436 640.926 418.142 640.71 417.821C640.71 417.821 640.71 417.821 640.71 417.838C638.439 415.177 637.13 412.394 636.93 409.69C636.072 410.426 635.266 411.172 634.512 411.935L626.519 408.476H626.502V429.003H626.519C626.329 438.192 632.301 447.407 644.429 454.42C668.336 468.22 707.085 468.22 730.993 454.42C743.112 447.415 749.084 438.227 748.911 429.047H748.928V408.511H748.911L740.944 411.961L740.936 411.952Z" fill="white"/>
<path d="M725.793 392.959C715.937 387.264 702.05 383.996 687.704 383.996C673.357 383.996 659.479 387.264 649.614 392.959C641.526 397.631 636.889 403.457 636.889 408.944C636.889 409.186 636.889 409.438 636.923 409.681C637.114 412.385 638.432 415.168 640.703 417.829C641.032 416.373 643.052 412.836 649.944 408.857C659.453 403.37 673.08 400.223 687.322 400.223C701.565 400.223 715.192 403.37 724.701 408.857C731.003 412.498 733.829 416.719 734.124 418.488C736.759 415.627 738.276 412.619 738.493 409.681C738.519 409.438 738.528 409.186 738.528 408.944C738.528 403.448 733.881 397.631 725.793 392.959Z" fill="#C2C7CD"/>
<path d="M724.682 408.884C715.182 403.405 701.563 400.258 687.321 400.258C673.078 400.258 659.451 403.405 649.959 408.892C643.536 412.602 641.334 415.992 640.823 417.569H639.592L640.571 418.662C642.782 421.132 645.72 423.438 649.301 425.492C659.252 431.24 673.252 434.542 687.711 434.542C702.17 434.542 716.17 431.248 726.13 425.492C729.441 423.585 732.198 421.479 734.331 419.234L735.379 418.124H734.001C733.412 416.191 730.568 412.282 724.682 408.884ZM732.796 418.913C730.837 420.855 728.375 422.684 725.463 424.366C715.702 430 701.945 433.234 687.702 433.234C673.46 433.234 659.703 430 649.942 424.357C646.726 422.511 644.056 420.465 641.993 418.28V418.228C642.01 417.578 643.597 414.076 650.601 410.028C659.902 404.653 673.278 401.576 687.304 401.576C701.329 401.576 714.705 404.653 724.006 410.028C730.586 413.825 732.788 418.003 732.788 418.783V418.913H732.796Z" fill="black"/>
<path d="M741.083 411.171C740.389 410.487 739.661 409.819 738.916 409.178L737.927 408.337L737.832 409.628C737.659 412.047 736.497 414.604 734.477 417.066L734.425 416.832L733.567 418.063C733.359 418.358 733.151 418.583 732.839 418.826C730.837 420.82 728.357 422.675 725.462 424.348C715.701 429.982 701.944 433.216 687.702 433.216C673.459 433.216 659.702 429.982 649.941 424.339C646.743 422.501 644.064 420.429 641.88 418.124C641.654 417.95 641.446 417.725 641.247 417.43L640.051 415.688V415.904C638.577 413.807 637.727 411.657 637.58 409.62L637.485 408.319L636.497 409.169C635.76 409.802 635.04 410.461 634.355 411.137L626.762 407.851L625.834 407.427V429.289C625.791 439.024 632.249 448.126 644.09 454.965C656.114 461.9 671.908 465.376 687.702 465.376C703.496 465.376 719.29 461.909 731.313 454.965C742.999 448.221 749.448 439.266 749.561 429.679V407.383L748.616 407.903L741.083 411.163V411.171ZM748.26 428.379H748.234L748.252 429.046C748.425 438.382 742.184 447.181 730.663 453.838C706.981 467.508 668.449 467.508 644.758 453.838C633.228 447.181 626.987 438.365 627.178 429.011V428.569H627.16V409.464L634.667 412.706L634.988 412.385C635.456 411.917 635.942 411.449 636.445 410.989C636.895 413.417 638.161 415.852 640.215 418.254L640.259 418.306C640.423 418.531 640.597 418.73 640.753 418.886L641.368 419.606V419.476C643.501 421.669 646.171 423.689 649.3 425.492C659.252 431.239 673.251 434.542 687.71 434.542C702.17 434.542 716.169 431.248 726.129 425.492C729.12 423.767 731.695 421.842 733.706 419.831C733.723 419.823 733.741 419.805 733.749 419.797L733.766 419.857L734.087 419.511C734.209 419.398 734.33 419.268 734.434 419.129L734.616 418.93C736.983 416.355 738.482 413.633 738.985 410.981C739.496 411.449 739.999 411.926 740.476 412.411L740.788 412.732L748.269 409.498V428.37L748.26 428.379Z" fill="black"/>
<path d="M726.122 392.387C716.17 386.64 702.162 383.337 687.702 383.337C673.243 383.337 659.244 386.64 649.292 392.387C640.988 397.181 636.229 403.214 636.229 408.944C636.229 409.213 636.237 409.481 636.263 409.724C636.463 412.567 637.789 415.437 640.199 418.254L641.048 419.251L641.334 417.968C641.421 417.569 642.427 413.946 650.254 409.421C659.66 403.985 673.174 400.873 687.304 400.873C701.433 400.873 714.948 403.985 724.353 409.421C730.673 413.07 733.221 417.179 733.455 418.592L733.681 419.918L734.591 418.93C737.339 415.948 738.908 412.767 739.124 409.75C739.159 409.481 739.168 409.213 739.168 408.944C739.168 403.214 734.409 397.181 726.104 392.387H726.122ZM737.833 409.637C737.651 412.099 736.463 414.7 734.374 417.205C733.351 414.977 730.412 411.397 725.029 408.294C715.425 402.746 701.676 399.573 687.321 399.573C672.966 399.573 659.218 402.755 649.613 408.294C643.553 411.796 641.317 414.882 640.502 416.538C638.751 414.24 637.746 411.874 637.589 409.62C637.563 409.403 637.563 409.178 637.563 408.961C637.563 403.717 642.08 398.1 649.968 393.54C659.729 387.905 673.486 384.672 687.72 384.672C701.954 384.672 715.719 387.905 725.48 393.54C733.36 398.091 737.885 403.717 737.885 408.961C737.885 409.178 737.885 409.403 737.85 409.646L737.833 409.637Z" fill="black"/>
<path d="M644.681 437.325C642.921 436.233 641.361 436.701 640.398 437.16C633.637 440.368 614.609 452.365 614.609 452.365L623.035 467.171L649.37 451.351C650.133 450.648 650.567 449.418 650.515 447.753C650.402 443.922 647.793 439.258 644.681 437.325Z" fill="black"/>
<path d="M618.51 452.841C615.398 450.908 612.971 452.443 613.084 456.274C613.197 460.106 615.806 464.769 618.918 466.702C622.03 468.636 624.457 467.093 624.344 463.27C624.232 459.438 621.622 454.775 618.51 452.841Z" fill="black"/>
<path d="M543.959 481.577L564.313 493.601L630.619 454.636L610.265 442.612L543.959 481.577Z" fill="white"/>
<path d="M564.312 493.601V516.391L630.679 477.426L630.584 454.645L564.312 493.601Z" fill="#C2C7CD"/>
<path d="M543.959 504.367L564.313 516.391V493.592L543.959 481.578V504.367Z" fill="white"/>
<path d="M610.603 442.04C610.395 441.919 610.143 441.919 609.935 442.04L543.629 481.005C543.43 481.118 543.309 481.335 543.309 481.569C543.309 481.803 543.43 482.02 543.629 482.141L563.983 494.164C564.087 494.225 564.2 494.251 564.321 494.251C564.443 494.251 564.547 494.216 564.651 494.164L580.15 485.218L579.491 484.083L564.321 492.838L545.259 481.578L610.265 443.375L629.327 454.636L584.684 481.083L585.351 482.21L630.948 455.19C631.147 455.078 631.269 454.861 631.269 454.627C631.269 454.393 631.147 454.176 630.948 454.064L610.594 442.04H610.603Z" fill="black"/>
<path d="M630.915 454.072C630.707 453.951 630.455 453.959 630.256 454.072L583.897 481.534L584.564 482.67L629.944 455.789L630.031 477.044L564.982 515.229V493.974L582.258 483.996L581.599 482.861L563.993 493.029C563.794 493.15 563.664 493.367 563.664 493.601V516.391C563.664 516.625 563.785 516.841 563.993 516.963C564.097 517.023 564.21 517.049 564.323 517.049C564.436 517.049 564.557 517.015 564.661 516.963L631.028 477.997C631.236 477.876 631.357 477.659 631.357 477.425L631.262 454.636C631.262 454.402 631.132 454.185 630.924 454.063L630.915 454.072Z" fill="black"/>
<path d="M544.289 481.005C544.09 480.893 543.838 480.884 543.63 481.005C543.431 481.127 543.301 481.343 543.301 481.577V504.367C543.301 504.601 543.422 504.818 543.622 504.939L563.975 516.962C564.079 517.023 564.192 517.058 564.305 517.058C564.417 517.058 564.53 517.032 564.634 516.971C564.842 516.858 564.964 516.642 564.964 516.399V493.609C564.964 493.375 564.842 493.159 564.643 493.037L544.289 481.014V481.005ZM563.655 515.229L544.618 503.986V482.722L563.655 493.965V515.229Z" fill="black"/>
<path d="M730.993 383.961C707.085 370.161 668.336 370.161 644.429 383.961C632.691 390.74 626.719 399.582 626.519 408.476C626.502 408.632 626.502 408.797 626.502 408.953C626.502 417.985 632.483 427.035 644.429 433.935C668.336 447.736 707.085 447.736 730.993 433.935C742.947 427.035 748.928 417.985 748.928 408.944C748.928 408.797 748.928 408.658 748.911 408.51C748.729 399.608 742.756 390.74 731.002 383.961H730.993ZM738.482 409.681C738.274 412.567 736.801 415.515 734.252 418.332C734.044 418.618 733.81 418.878 733.524 419.086C731.496 421.149 728.912 423.126 725.792 424.929C715.936 430.624 702.049 433.892 687.702 433.892C673.356 433.892 659.477 430.624 649.612 424.929C646.448 423.108 643.856 421.097 641.819 419.008C641.291 418.67 640.866 418.219 640.58 417.682C638.378 415.064 637.104 412.333 636.913 409.672C636.887 409.429 636.878 409.178 636.878 408.935C636.878 403.448 641.525 397.623 649.604 392.95C659.469 387.255 673.347 383.987 687.693 383.987C702.04 383.987 715.918 387.255 725.783 392.95C733.871 397.623 738.517 403.439 738.517 408.935C738.517 409.178 738.517 409.429 738.482 409.672V409.681Z" fill="white"/>
<path d="M731.323 383.389C707.276 369.502 668.146 369.502 644.1 383.389C632.545 390.064 626.069 398.958 625.861 408.415C625.844 408.597 625.844 408.771 625.844 408.953C625.844 418.635 632.328 427.711 644.1 434.507C656.123 441.451 671.917 444.927 687.711 444.927C703.505 444.927 719.3 441.451 731.323 434.507C743.104 427.711 749.588 418.635 749.588 408.953C749.588 408.797 749.588 408.64 749.57 408.484C749.362 398.975 742.887 390.072 731.323 383.398V383.389ZM730.655 433.363C706.973 447.042 668.441 447.042 644.75 433.363C633.403 426.81 627.153 418.141 627.153 408.953C627.153 408.814 627.153 408.675 627.17 408.493C627.369 399.478 633.62 390.965 644.75 384.533C656.591 377.694 672.151 374.278 687.703 374.278C703.254 374.278 718.814 377.694 730.655 384.533C741.812 390.974 748.053 399.495 748.244 408.528V408.58C748.261 408.701 748.261 408.823 748.261 408.944C748.261 418.133 742.011 426.81 730.655 433.363Z" fill="black"/>
<path d="M726.122 392.387C716.17 386.64 702.162 383.337 687.702 383.337C673.243 383.337 659.244 386.64 649.292 392.387C640.988 397.181 636.229 403.214 636.229 408.944C636.229 409.213 636.237 409.481 636.263 409.724C636.463 412.498 637.728 415.298 640.034 418.055C640.363 418.644 640.823 419.138 641.404 419.511C643.545 421.695 646.197 423.706 649.283 425.483C659.235 431.231 673.235 434.533 687.694 434.533C702.153 434.533 716.153 431.239 726.113 425.483C729.234 423.68 731.886 421.687 733.915 419.598C734.227 419.363 734.513 419.077 734.747 418.757C737.443 415.775 738.916 412.741 739.142 409.724C739.168 409.464 739.176 409.195 739.176 408.927C739.176 403.197 734.417 397.163 726.113 392.37L726.122 392.387ZM737.833 409.611V409.637C737.633 412.316 736.229 415.168 733.733 417.942C733.533 418.202 733.342 418.41 733.056 418.627C731.028 420.69 728.479 422.614 725.463 424.357C715.702 429.991 701.945 433.225 687.702 433.225C673.46 433.225 659.703 429.991 649.951 424.348C646.943 422.614 644.368 420.664 642.297 418.54L642.184 418.445C641.75 418.167 641.404 417.803 641.17 417.361L641.092 417.248C638.942 414.691 637.763 412.125 637.581 409.594C637.555 409.377 637.555 409.152 637.555 408.935C637.555 403.691 642.071 398.073 649.959 393.514C659.72 387.879 673.477 384.646 687.711 384.646C701.945 384.646 715.711 387.879 725.471 393.514C733.351 398.065 737.876 403.691 737.876 408.935C737.876 409.152 737.876 409.377 737.841 409.594L737.833 409.611Z" fill="black"/>
<g style="mix-blend-mode:multiply" opacity="0.5">
<path d="M326.615 516.33L398.798 558L470.982 516.33L398.798 474.652L326.615 516.33Z" fill="#C2C7CD"/>
</g>
<path d="M326.615 494.746V511.138L398.798 552.808L470.982 511.138V494.746L398.798 469.459L326.615 494.746Z" fill="white"/>
<path d="M398.686 552.808L470.981 511.138V494.746L398.798 536.425L398.686 552.808Z" fill="black"/>
<path d="M471.129 494.321L398.946 469.034C398.851 469 398.747 469 398.643 469.034L326.46 494.321C326.278 494.381 326.156 494.555 326.156 494.745V511.138C326.156 511.302 326.243 511.45 326.382 511.528L398.565 553.206C398.634 553.249 398.712 553.267 398.79 553.267C398.868 553.267 398.946 553.249 399.016 553.206L471.199 511.536C471.337 511.458 471.424 511.302 471.424 511.146V494.754C471.424 494.563 471.303 494.39 471.121 494.329L471.129 494.321ZM470.523 510.877L398.799 552.287L327.075 510.877V495.075L398.799 469.953L470.523 495.075V510.877Z" fill="black"/>
<path d="M326.615 494.745L398.798 536.424L470.982 494.745L398.798 453.076L326.615 494.745Z" fill="white"/>
<path d="M471.207 494.356L399.023 452.677C398.885 452.599 398.711 452.599 398.573 452.677L326.389 494.356C326.251 494.434 326.164 494.59 326.164 494.746C326.164 494.902 326.251 495.058 326.389 495.136L398.573 536.814C398.642 536.858 398.72 536.875 398.798 536.875C398.876 536.875 398.954 536.858 399.023 536.814L471.207 495.136C471.345 495.058 471.432 494.902 471.432 494.746C471.432 494.59 471.345 494.434 471.207 494.356ZM398.798 535.895L327.525 494.746L398.798 453.596L470.071 494.746L398.798 535.895Z" fill="black"/>
<path d="M399.258 535.965H398.348V545.76H399.258V535.965Z" fill="black"/>
<path d="M441.127 489.354L390.398 498.673C387.85 499.141 385.735 496.705 386.558 494.252L391.447 479.585C392.262 477.149 390.884 474.513 388.387 473.803C386.012 473.126 383.55 474.661 382.77 477.001L375.627 498.439C373.685 504.264 378.704 510.029 384.738 508.919L442.765 498.257C445.227 497.806 446.848 495.448 446.397 492.986C445.947 490.524 443.597 488.903 441.127 489.354Z" fill="#5379F6"/>
<path d="M441.042 488.903L390.314 498.222C389.282 498.412 388.251 498.048 387.557 497.259C386.864 496.462 386.656 495.396 386.985 494.39L391.874 479.723C392.307 478.423 392.195 477.036 391.553 475.822C390.912 474.609 389.837 473.733 388.511 473.36C385.997 472.641 383.214 474.21 382.339 476.854L375.196 498.291C374.233 501.178 374.849 504.272 376.851 506.57C378.498 508.459 380.813 509.499 383.249 509.499C383.769 509.499 384.298 509.456 384.818 509.352L442.854 498.69C445.55 498.196 447.344 495.595 446.85 492.891C446.356 490.195 443.747 488.4 441.051 488.894L441.042 488.903ZM442.681 497.806L384.644 508.468C381.975 508.962 379.305 508.026 377.528 505.971C375.742 503.917 375.187 501.152 376.054 498.577L383.197 477.14C383.925 474.947 386.196 473.646 388.259 474.227C389.343 474.539 390.227 475.25 390.747 476.247C391.267 477.235 391.363 478.371 391.007 479.437L386.118 494.104C385.685 495.413 385.962 496.809 386.864 497.858C387.765 498.898 389.117 499.366 390.47 499.123L441.198 489.805C443.409 489.406 445.532 490.871 445.94 493.073C446.347 495.283 444.882 497.407 442.672 497.814L442.681 497.806Z" fill="black"/>
<g style="mix-blend-mode:multiply" opacity="0.5">
<path d="M13.0799 296.001C3.50982 291.702 3.50982 284.723 13.0799 280.415C22.65 276.116 38.1754 276.116 47.7455 280.415C57.3156 284.715 57.3156 291.693 47.7455 296.001C38.1754 300.301 22.65 300.301 13.0799 296.001Z" fill="#C2C7CD"/>
</g>
<path d="M47.9104 292.291C40.4554 296.591 28.3714 296.591 20.9164 292.291C17.1889 290.141 15.3252 287.315 15.3252 284.498H15.2559V223.021H53.5709V284.498H53.5016C53.5016 287.315 51.6378 290.141 47.9104 292.291Z" fill="#C2C7CD"/>
<path d="M53.9699 284.732C54.0132 284.663 54.0479 284.585 54.0479 284.506V223.029C54.0479 222.769 53.8312 222.552 53.5711 222.552H15.2561C14.996 222.552 14.7793 222.769 14.7793 223.029V284.506C14.7793 284.602 14.8053 284.689 14.8573 284.767C14.97 287.792 17.0245 290.601 20.6826 292.716C24.4708 294.9 29.4465 295.992 34.4136 295.992C39.3894 295.992 44.3651 294.9 48.1533 292.716C51.8201 290.601 53.8832 287.775 53.9786 284.741L53.9699 284.732ZM53.025 284.498C53.025 287.263 51.1266 289.881 47.6765 291.875C40.3689 296.096 28.4756 296.096 21.1594 291.875C17.7093 289.881 15.8109 287.263 15.8109 284.498C15.8109 284.402 15.7849 284.324 15.7415 284.246V223.497H53.103V284.281C53.0597 284.35 53.0337 284.42 53.0337 284.506L53.025 284.498Z" fill="black"/>
<path d="M20.9154 230.814C13.4605 226.514 13.4605 219.536 20.9154 215.228C28.3704 210.92 40.4544 210.92 47.9094 215.228C55.3643 219.527 55.3643 226.506 47.9094 230.814C40.4544 235.113 28.3704 235.113 20.9154 230.814Z" fill="#C2C7CD"/>
<path d="M48.1436 231.23C51.9058 229.062 53.9689 226.15 53.9689 223.021C53.9689 219.891 51.8971 216.987 48.1436 214.811C40.5673 210.442 28.2493 210.442 20.6729 214.811C16.9108 216.979 14.8477 219.9 14.8477 223.021C14.8477 226.141 16.9194 229.054 20.6729 231.23C24.4611 233.414 29.4369 234.506 34.4039 234.506C39.371 234.506 44.3555 233.414 48.1436 231.23ZM47.6669 230.397C40.3593 234.619 28.466 234.619 21.1497 230.397C17.6996 228.404 15.8012 225.786 15.8012 223.021C15.8012 220.255 17.6996 217.637 21.1497 215.644C28.4573 211.422 40.3506 211.422 47.6669 215.644C51.1169 217.637 53.0154 220.255 53.0154 223.021C53.0154 225.786 51.1169 228.404 47.6669 230.397Z" fill="black"/>
<g style="mix-blend-mode:multiply" opacity="0.5">
<path d="M63.1659 266.996C53.5958 262.696 53.5958 255.718 63.1659 251.41C72.736 247.11 88.2614 247.11 97.8315 251.41C107.402 255.709 107.402 262.688 97.8315 266.996C88.2614 271.304 72.736 271.304 63.1659 266.996Z" fill="#C2C7CD"/>
</g>
<path d="M97.9943 263.121C90.5394 267.429 78.4554 267.429 71.0004 263.121C67.2729 260.971 65.4092 258.145 65.4092 255.328H65.3398V219.25H103.655V255.328H103.586C103.586 258.145 101.722 260.971 97.9943 263.121Z" fill="#5379F6"/>
<path d="M104.056 255.554C104.099 255.484 104.134 255.406 104.134 255.328V219.25C104.134 218.99 103.917 218.773 103.657 218.773H65.342C65.0819 218.773 64.8652 218.99 64.8652 219.25V255.328C64.8652 255.424 64.8912 255.51 64.9432 255.588C65.0559 258.614 67.1104 261.422 70.7685 263.537C74.5567 265.722 79.5325 266.814 84.4995 266.814C89.4753 266.814 94.4511 265.722 98.2305 263.537C101.897 261.422 103.96 258.596 104.056 255.562V255.554ZM103.111 255.328C103.111 258.094 101.213 260.711 97.7624 262.705C90.4548 266.927 78.5529 266.927 71.2453 262.705C67.7952 260.711 65.8968 258.094 65.8968 255.328C65.8968 255.233 65.8708 255.146 65.8274 255.077V219.726H103.189V255.103C103.146 255.172 103.12 255.242 103.12 255.328H103.111Z" fill="black"/>
<path d="M71.0014 227.043C63.5464 222.734 63.5464 215.756 71.0014 211.457C78.4564 207.157 90.5403 207.157 97.9953 211.457C105.45 215.756 105.45 222.734 97.9953 227.043C90.5403 231.342 78.4564 231.342 71.0014 227.043Z" fill="#5379F6"/>
<path d="M98.2296 227.459C101.992 225.292 104.055 222.37 104.055 219.25C104.055 216.129 101.983 213.216 98.2296 211.04C90.6532 206.671 78.3352 206.671 70.7589 211.04C66.9967 213.208 64.9336 216.129 64.9336 219.25C64.9336 222.37 67.0054 225.283 70.7589 227.459C74.547 229.643 79.5228 230.735 84.4899 230.735C89.457 230.735 94.4414 229.643 98.2209 227.459H98.2296ZM97.7528 226.626C90.4452 230.848 78.5432 230.848 71.2356 226.626C67.7855 224.633 65.8871 222.015 65.8871 219.25C65.8871 216.484 67.7855 213.866 71.2356 211.873C78.5432 207.651 90.4365 207.651 97.7528 211.873C101.203 213.866 103.101 216.484 103.101 219.25C103.101 222.015 101.203 224.633 97.7528 226.626Z" fill="black"/>
<g style="mix-blend-mode:multiply" opacity="0.5">
<path d="M113.428 237.991C103.857 233.683 103.857 226.713 113.428 222.405C122.998 218.097 138.523 218.097 148.093 222.405C157.663 226.713 157.663 233.683 148.093 237.991C138.523 242.291 122.998 242.291 113.428 237.991Z" fill="#C2C7CD"/>
</g>
<path d="M148.084 233.943C140.629 238.242 128.545 238.242 121.09 233.943C117.363 231.793 115.499 228.976 115.499 226.15H115.43V130.795H153.745V226.15H153.675C153.675 228.967 151.812 231.793 148.084 233.943Z" fill="white"/>
<path d="M154.144 226.375C154.196 226.306 154.222 226.228 154.222 226.15V130.796C154.222 130.536 154.005 130.319 153.745 130.319H115.43C115.17 130.319 114.953 130.536 114.953 130.796V226.15C114.953 226.245 114.979 226.332 115.031 226.41C115.144 229.435 117.198 232.244 120.856 234.359C124.645 236.543 129.62 237.636 134.587 237.636C139.555 237.636 144.539 236.543 148.327 234.359C151.994 232.244 154.057 229.418 154.152 226.384L154.144 226.375ZM153.19 226.15C153.19 228.915 151.292 231.533 147.842 233.527C140.525 237.748 128.632 237.748 121.325 233.527C117.874 231.533 115.976 228.915 115.976 226.15C115.976 226.055 115.95 225.976 115.907 225.898V131.272H153.268V225.924C153.225 225.994 153.199 226.063 153.199 226.15H153.19Z" fill="black"/>
<path d="M121.091 138.589C113.636 134.28 113.636 127.311 121.091 123.003C128.546 118.703 140.63 118.703 148.085 123.003C155.54 127.311 155.54 134.28 148.085 138.589C140.63 142.888 128.546 142.888 121.091 138.589Z" fill="white"/>
<path d="M148.317 138.996C152.08 136.829 154.143 133.916 154.143 130.787C154.143 127.657 152.071 124.753 148.317 122.586C140.741 118.217 128.414 118.217 120.847 122.586C117.085 124.753 115.021 127.666 115.021 130.787C115.021 133.907 117.093 136.82 120.847 138.996C124.635 141.18 129.611 142.273 134.586 142.273C139.562 142.273 144.538 141.18 148.317 138.996ZM147.841 138.172C140.524 142.394 128.631 142.394 121.324 138.172C117.873 136.179 115.975 133.561 115.975 130.795C115.975 128.03 117.873 125.412 121.324 123.418C124.982 121.312 129.784 120.254 134.586 120.254C139.389 120.254 144.191 121.312 147.849 123.418C151.299 125.412 153.198 128.03 153.198 130.795C153.198 133.561 151.299 136.179 147.849 138.172H147.841Z" fill="black"/>
<g style="mix-blend-mode:multiply" opacity="0.5">
<path d="M163.168 208.986C153.598 204.686 153.598 197.708 163.168 193.4C172.738 189.091 188.263 189.091 197.833 193.4C207.404 197.699 207.404 204.677 197.833 208.986C188.263 213.294 172.738 213.294 163.168 208.986Z" fill="#C2C7CD"/>
</g>
<path d="M198.172 204.764C190.717 209.064 178.633 209.064 171.178 204.764C167.451 202.614 165.587 199.789 165.587 196.971H165.518V152.432H203.833V196.971H203.763C203.763 199.789 201.9 202.614 198.172 204.764Z" fill="#C2C7CD"/>
<path d="M204.23 197.196C204.273 197.127 204.308 197.049 204.308 196.971V152.432C204.308 152.172 204.091 151.955 203.831 151.955H165.516C165.256 151.955 165.039 152.172 165.039 152.432V196.971C165.039 197.066 165.065 197.153 165.117 197.231C165.23 200.256 167.284 203.065 170.942 205.18C174.731 207.365 179.706 208.457 184.673 208.457C189.649 208.457 194.625 207.365 198.413 205.18C202.08 203.065 204.143 200.239 204.238 197.205L204.23 197.196ZM203.285 196.971C203.285 199.736 201.386 202.354 197.936 204.348C190.629 208.569 178.727 208.569 171.419 204.348C167.969 202.354 166.071 199.736 166.071 196.971C166.071 196.876 166.045 196.789 166.001 196.72V152.909H203.363V196.754C203.319 196.824 203.293 196.893 203.293 196.98L203.285 196.971Z" fill="black"/>
<path d="M171.177 160.225C163.722 155.926 163.722 148.948 171.177 144.639C178.632 140.34 190.716 140.34 198.171 144.639C205.626 148.948 205.626 155.917 198.171 160.225C190.716 164.525 178.632 164.525 171.177 160.225Z" fill="#C2C7CD"/>
<path d="M198.405 160.632C202.168 158.465 204.231 155.553 204.231 152.432C204.231 149.311 202.159 146.399 198.405 144.223C190.829 139.854 178.511 139.845 170.935 144.223C167.172 146.39 165.109 149.303 165.109 152.432C165.109 155.561 167.181 158.465 170.935 160.632C174.723 162.817 179.699 163.909 184.666 163.909C189.641 163.909 194.617 162.817 198.405 160.632ZM197.929 159.809C190.621 164.031 178.719 164.031 171.411 159.809C167.961 157.815 166.063 155.197 166.063 152.432C166.063 149.667 167.961 147.049 171.411 145.055C175.07 142.949 179.872 141.891 184.666 141.891C189.459 141.891 194.27 142.949 197.929 145.055C201.379 147.049 203.277 149.667 203.277 152.432C203.277 155.197 201.379 157.815 197.929 159.809Z" fill="black"/>
</svg>
