<svg xmlns="http://www.w3.org/2000/svg" width="114.201" height="28" viewBox="0 0 114.201 28">
  <defs>
    <style>
      .cls-1 {
        fill: #e2e4f4;
      }

      .cls-2 {
        fill: #180c44;
      }
    </style>
  </defs>
  <g id="Group_516" data-name="Group 516" transform="translate(-1224 -1511)">
    <g id="Group_68" data-name="Group 68" transform="translate(911 -36)">
      <rect id="Rectangle_1" data-name="Rectangle 1" class="cls-1" width="114.201" height="28" rx="14" transform="translate(313 1547)"/>
    </g>
    <g id="Group_69" data-name="Group 69" transform="translate(7.998 1.564)">
      <path id="star-regular_1_" data-name="star-regular(1)" class="cls-2" d="M28.995,0A.452.452,0,0,1,29.4.255l1.3,2.67,2.895.427a.451.451,0,0,1,.365.308.455.455,0,0,1-.111.463l-2.1,2.082.5,2.94a.454.454,0,0,1-.661.476L28.993,8.239,26.408,9.62a.451.451,0,0,1-.478-.032.458.458,0,0,1-.183-.444l.5-2.94-2.1-2.081a.454.454,0,0,1,.253-.771l2.895-.427,1.3-2.67A.454.454,0,0,1,28.995,0Zm0,1.493L28,3.537a.458.458,0,0,1-.342.251l-2.235.329,1.623,1.608a.455.455,0,0,1,.128.4l-.384,2.262,1.988-1.062a.45.45,0,0,1,.427,0L31.2,8.384l-.382-2.26a.449.449,0,0,1,.128-.4l1.623-1.608-2.235-.331a.457.457,0,0,1-.342-.251Z" transform="translate(1244.108 1518.598)"/>
      <path id="star-regular_1_2" data-name="star-regular(1)" class="cls-2" d="M28.995,0A.452.452,0,0,1,29.4.255l1.3,2.67,2.895.427a.451.451,0,0,1,.365.308.455.455,0,0,1-.111.463l-2.1,2.082.5,2.94a.454.454,0,0,1-.661.476L28.993,8.239,26.408,9.62a.451.451,0,0,1-.478-.032.458.458,0,0,1-.183-.444l.5-2.94-2.1-2.081a.454.454,0,0,1,.253-.771l2.895-.427,1.3-2.67A.454.454,0,0,1,28.995,0Zm0,1.493L28,3.537a.458.458,0,0,1-.342.251l-2.235.329,1.623,1.608a.455.455,0,0,1,.128.4l-.384,2.262,1.988-1.062a.45.45,0,0,1,.427,0L31.2,8.384l-.382-2.26a.449.449,0,0,1,.128-.4l1.623-1.608-2.235-.331a.457.457,0,0,1-.342-.251Z" transform="translate(1256.331 1518.598)"/>
      <path id="star-regular_1_3" data-name="star-regular(1)" class="cls-2" d="M28.995,0A.452.452,0,0,1,29.4.255l1.3,2.67,2.895.427a.451.451,0,0,1,.365.308.455.455,0,0,1-.111.463l-2.1,2.082.5,2.94a.454.454,0,0,1-.661.476L28.993,8.239,26.408,9.62a.451.451,0,0,1-.478-.032.458.458,0,0,1-.183-.444l.5-2.94-2.1-2.081a.454.454,0,0,1,.253-.771l2.895-.427,1.3-2.67A.454.454,0,0,1,28.995,0Zm0,1.493L28,3.537a.458.458,0,0,1-.342.251l-2.235.329,1.623,1.608a.455.455,0,0,1,.128.4l-.384,2.262,1.988-1.062a.45.45,0,0,1,.427,0L31.2,8.384l-.382-2.26a.449.449,0,0,1,.128-.4l1.623-1.608-2.235-.331a.457.457,0,0,1-.342-.251Z" transform="translate(1268.553 1518.598)"/>
      <path id="star-regular_1_4" data-name="star-regular(1)" class="cls-2" d="M28.995,0A.452.452,0,0,1,29.4.255l1.3,2.67,2.895.427a.451.451,0,0,1,.365.308.455.455,0,0,1-.111.463l-2.1,2.082.5,2.94a.454.454,0,0,1-.661.476L28.993,8.239,26.408,9.62a.451.451,0,0,1-.478-.032.458.458,0,0,1-.183-.444l.5-2.94-2.1-2.081a.454.454,0,0,1,.253-.771l2.895-.427,1.3-2.67A.454.454,0,0,1,28.995,0Z" transform="translate(1219.663 1518.598)"/>
      <path id="star-regular_1_5" data-name="star-regular(1)" class="cls-2" d="M28.995,0A.452.452,0,0,1,29.4.255l1.3,2.67,2.895.427a.451.451,0,0,1,.365.308.455.455,0,0,1-.111.463l-2.1,2.082.5,2.94a.454.454,0,0,1-.661.476L28.993,8.239,26.408,9.62a.451.451,0,0,1-.478-.032.458.458,0,0,1-.183-.444l.5-2.94-2.1-2.081a.454.454,0,0,1,.253-.771l2.895-.427,1.3-2.67A.454.454,0,0,1,28.995,0Zm0,1.493L28,3.537a.458.458,0,0,1-.342.251l-2.235.329,1.623,1.608a.455.455,0,0,1,.128.4l-.384,2.262,1.988-1.062a.45.45,0,0,1,.427,0L31.2,8.384l-.382-2.26a.449.449,0,0,1,.128-.4l1.623-1.608-2.235-.331a.457.457,0,0,1-.342-.251Z" transform="translate(1231.885 1518.598)"/>
      <path id="star-regular_1_6" data-name="star-regular(1)" class="cls-2" d="M28.995,0A.452.452,0,0,1,29.4.255l1.3,2.67,2.895.427a.451.451,0,0,1,.365.308.455.455,0,0,1-.111.463l-2.1,2.082.5,2.94a.454.454,0,0,1-.661.476L28.993,8.239,26.408,9.62a.451.451,0,0,1-.478-.032.458.458,0,0,1-.183-.444l.5-2.94-2.1-2.081a.454.454,0,0,1,.253-.771l2.895-.427,1.3-2.67A.454.454,0,0,1,28.995,0Z" transform="translate(1231.885 1518.598)"/>
      <path id="star-regular_1_7" data-name="star-regular(1)" class="cls-2" d="M28.995,0A.452.452,0,0,1,29.4.255l1.3,2.67,2.895.427a.451.451,0,0,1,.365.308.455.455,0,0,1-.111.463l-2.1,2.082.5,2.94a.454.454,0,0,1-.661.476L28.993,8.239,26.408,9.62a.451.451,0,0,1-.478-.032.458.458,0,0,1-.183-.444l.5-2.94-2.1-2.081a.454.454,0,0,1,.253-.771l2.895-.427,1.3-2.67A.454.454,0,0,1,28.995,0Z" transform="translate(1244.108 1518.598)"/>
      <path id="star-regular_1_8" data-name="star-regular(1)" class="cls-2" d="M28.995,0A.452.452,0,0,1,29.4.255l1.3,2.67,2.895.427a.451.451,0,0,1,.365.308.455.455,0,0,1-.111.463l-2.1,2.082.5,2.94a.454.454,0,0,1-.661.476L28.993,8.239,26.408,9.62a.451.451,0,0,1-.478-.032.458.458,0,0,1-.183-.444l.5-2.94-2.1-2.081a.454.454,0,0,1,.253-.771l2.895-.427,1.3-2.67A.454.454,0,0,1,28.995,0Z" transform="translate(1256.331 1518.598)"/>
      <path id="star-regular_1_9" data-name="star-regular(1)" class="cls-2" d="M28.995,0A.452.452,0,0,1,29.4.255l1.3,2.67,2.895.427a.451.451,0,0,1,.365.308.455.455,0,0,1-.111.463l-2.1,2.082.5,2.94a.454.454,0,0,1-.661.476L28.993,8.239,26.408,9.62a.451.451,0,0,1-.478-.032.458.458,0,0,1-.183-.444l.5-2.94-2.1-2.081a.454.454,0,0,1,.253-.771l2.895-.427,1.3-2.67A.454.454,0,0,1,28.995,0Z" transform="translate(1268.553 1518.598)"/>
    </g>
  </g>
</svg>
