<?xml version="1.0" encoding="UTF-8"?>
<svg id="Warstwa_2" data-name="Warstwa 2" xmlns="http://www.w3.org/2000/svg" viewBox="0 0 162.64 54">
  <defs>
    <style>
      .cls-1 {
        fill: #1d1d1b;
        stroke-width: 0px;
      }
    </style>
  </defs>
  <g id="Warstwa_1-2" data-name="Warstwa 1">
    <g>
      <path class="cls-1" d="M27,0c-5.74,0-11.17,1.82-15.64,5l.75,2.04c4.21-3.14,9.39-4.95,14.89-4.95,13.73,0,24.91,11.17,24.91,24.91s-11.17,24.91-24.91,24.91S2.09,40.73,2.09,27c0-2.82.47-5.59,1.39-8.23.01-.04.03-.07.04-.11h7.67l7.87,21.38h4.95s.42,0,.42,0l-.15-21.23,7.81,21.24h4.95s.42,0,.42,0v-18.91h5.77v-2.9h-6.2v2.9h0v18.34l-7.82-21.24h-4.95s-.1,0-.1,0h-.11,0s-.21,0-.21,0l.15,21.23-7.82-21.24h-4.95s-9.39,0-9.39,0h0s-.4,0-.4,0c-.97,2.81-1.46,5.76-1.46,8.77,0,14.89,12.11,27,27,27s27-12.11,27-27S41.89,0,27,0"/>
      <path class="cls-1" d="M77.42,6.99c-.39-.39-.99-.86-1.62-1.16-.65-.3-1.42-.49-2.15-.49-2.87,0-5,2.31-5,5.19,0,3.38,2.74,5.08,5.02,5.08.84,0,1.66-.24,2.31-.58.71-.35,1.21-.82,1.44-1.04v1.72c-1.38.99-2.82,1.21-3.75,1.21-3.69,0-6.44-2.8-6.44-6.4s2.78-6.48,6.51-6.48c.75,0,2.18.09,3.68,1.23v1.72Z"/>
      <path class="cls-1" d="M80.89,10.48c0,2.86,2.26,5.13,5.06,5.13s5.06-2.28,5.06-5.13-2.26-5.13-5.06-5.13-5.06,2.28-5.06,5.13M79.47,10.48c0-3.71,2.89-6.44,6.48-6.44s6.48,2.72,6.48,6.44-2.87,6.44-6.48,6.44-6.48-2.74-6.48-6.44"/>
      <polygon class="cls-1" points="96.53 4.24 96.53 15.38 99.96 15.38 99.96 16.69 95.14 16.69 95.14 4.24 96.53 4.24"/>
      <polygon class="cls-1" points="103.39 4.24 103.39 15.38 106.83 15.38 106.83 16.69 102.01 16.69 102.01 4.24 103.39 4.24"/>
      <polygon class="cls-1" points="115.34 5.55 110.26 5.55 110.26 9.24 115.19 9.24 115.19 10.55 110.26 10.55 110.26 15.38 115.34 15.38 115.34 16.69 108.88 16.69 108.88 4.24 115.34 4.24 115.34 5.55"/>
      <path class="cls-1" d="M124.48,10.44h5.19v.3c0,1.38-.41,2.87-1.19,3.94-.37.5-1.77,2.24-4.63,2.24-3.7,0-6.46-2.82-6.46-6.44s2.78-6.44,6.49-6.44c1.19,0,2.59.3,3.81,1.23.56.43,1.08.99,1.44,1.47l-1.03.93c-.35-.5-.77-.95-1.18-1.29-.6-.49-1.53-1.04-3.02-1.04-3,0-5.09,2.26-5.09,5.15,0,3.4,2.71,5.11,5.06,5.11,1.66,0,3.1-.84,3.81-2.09.22-.39.47-.99.5-1.77h-3.69v-1.31Z"/>
      <rect class="cls-1" x="132.39" y="4.24" width="1.38" height="12.45"/>
      <path class="cls-1" d="M138.55,11.88c0,1.05,0,2.18.99,3.02.5.43,1.36.71,2.05.71s1.55-.28,2.05-.71c.99-.84.99-1.98.99-3.02v-7.63h1.38v8.01c0,1.04-.11,2.05-.78,2.99-.75,1.03-2.05,1.68-3.64,1.68s-2.89-.65-3.64-1.68c-.67-.93-.78-1.94-.78-2.99V4.24h1.38v7.63Z"/>
      <polygon class="cls-1" points="155.83 14.06 151.05 3.55 148.98 16.69 150.4 16.69 151.63 8.03 155.81 17.21 160.05 8.03 161.22 16.69 162.64 16.69 160.7 3.53 155.83 14.06"/>
      <polygon class="cls-1" points="67.97 23.17 71.26 32.5 75.16 22.53 78.85 32.5 82.49 23.17 84.02 23.17 78.8 36.27 75.14 26.3 71.22 36.27 66.44 23.17 67.97 23.17"/>
      <rect class="cls-1" x="85.96" y="23.17" width="1.38" height="12.45"/>
      <polygon class="cls-1" points="93.8 24.47 93.8 35.62 92.42 35.62 92.42 24.47 89.4 24.47 89.4 23.17 96.82 23.17 96.82 24.47 93.8 24.47"/>
      <polygon class="cls-1" points="105.33 24.47 100.26 24.47 100.26 28.17 105.18 28.17 105.18 29.48 100.26 29.48 100.26 34.31 105.33 34.31 105.33 35.62 98.88 35.62 98.88 23.17 105.33 23.17 105.33 24.47"/>
      <polygon class="cls-1" points="109.44 23.17 109.44 34.31 112.87 34.31 112.87 35.62 108.06 35.62 108.06 23.17 109.44 23.17"/>
      <path class="cls-1" d="M115.04,29.4c0,2.86,2.26,5.13,5.06,5.13s5.06-2.28,5.06-5.13-2.26-5.13-5.06-5.13-5.06,2.28-5.06,5.13M113.62,29.4c0-3.71,2.89-6.44,6.48-6.44s6.48,2.72,6.48,6.44-2.87,6.44-6.48,6.44-6.48-2.74-6.48-6.44"/>
      <polygon class="cls-1" points="129.29 35.62 129.29 22.65 139 32.82 139 23.17 140.38 23.17 140.38 36.18 130.67 26 130.67 35.62 129.29 35.62"/>
      <path class="cls-1" d="M150.1,30.8l-2.09-4.98-2.13,4.98h4.22ZM150.64,32.11h-5.3l-1.49,3.51h-1.53l5.73-13.04,5.58,13.04h-1.53l-1.46-3.51Z"/>
      <path class="cls-1" d="M68.91,47.45c0,.59,0,1.23.56,1.7.28.24.77.4,1.16.4s.87-.16,1.16-.4c.56-.47.56-1.11.56-1.7v-4.3h.78v4.51c0,.59-.06,1.16-.44,1.68-.42.58-1.16.95-2.05.95s-1.63-.37-2.05-.95c-.38-.53-.44-1.09-.44-1.68v-4.51h.78v4.3Z"/>
      <path class="cls-1" d="M78.26,47.02c-.4-.5-.98-.65-1.37-.65-.81,0-1.55.57-1.55,1.63s.76,1.62,1.53,1.62c.45,0,1.01-.2,1.41-.68v.9c-.47.35-.98.45-1.39.45-1.36,0-2.33-.97-2.33-2.28s.99-2.31,2.33-2.31c.69,0,1.15.27,1.36.42v.9Z"/>
      <polygon class="cls-1" points="80.43 49.47 83.46 49.47 83.46 50.16 78.92 50.16 82.07 46.49 79.53 46.49 79.53 45.8 83.59 45.8 80.43 49.47"/>
      <path class="cls-1" d="M87.51,47.5c-.13-.68-.64-1.14-1.28-1.14s-1.17.48-1.28,1.14h2.56ZM88.25,49.05c-.13.24-.32.5-.54.7-.4.36-.89.54-1.45.54-1.05,0-2.16-.66-2.16-2.28,0-1.3.8-2.31,2.11-2.31.85,0,1.39.42,1.65.8.27.39.43,1.06.41,1.64h-3.4c.01.9.63,1.48,1.39,1.48.36,0,.64-.11.89-.32.2-.17.36-.39.45-.6l.63.35Z"/>
      <rect class="cls-1" x="89.55" y="42.5" width=".76" height="7.66"/>
      <path class="cls-1" d="M91.84,45.8h.76v.5c.14-.18.53-.61,1.25-.61.51,0,.99.21,1.25.6.22.33.25.68.25,1.17v2.7h-.76v-2.68c0-.26-.02-.57-.2-.8-.15-.19-.38-.32-.71-.32-.26,0-.55.07-.77.34-.29.35-.32.86-.32,1.18v2.28h-.76v-4.36Z"/>
      <path class="cls-1" d="M97.64,50.16h-.76v-4.36h.76v4.36ZM97.26,43.61c.29,0,.54.24.54.54s-.24.54-.54.54-.54-.24-.54-.54.24-.54.54-.54"/>
      <path class="cls-1" d="M99.68,47.97c0,.94.53,1.64,1.43,1.64s1.45-.77,1.45-1.63c0-1.12-.78-1.62-1.45-1.62-.75,0-1.43.55-1.43,1.61M102.52,45.8h.76v4.36h-.76v-.61c-.25.33-.73.74-1.49.74-1.1,0-2.12-.78-2.12-2.31s1.01-2.28,2.12-2.28c.84,0,1.29.46,1.49.73v-.62Z"/>
      <path class="cls-1" d="M108.33,46.38h.64c.92,0,1.48-.46,1.48-1.27,0-1.11-1.04-1.22-1.55-1.22h-.58v2.49ZM108.83,43.15c.7,0,1.29.08,1.77.49.52.44.64,1.06.64,1.5,0,.99-.62,1.97-2.22,1.97h-.68v3.05h-.78v-7.01h1.27Z"/>
      <path class="cls-1" d="M112.56,47.97c0,.94.53,1.64,1.43,1.64s1.45-.77,1.45-1.63c0-1.12-.78-1.62-1.45-1.62-.75,0-1.43.55-1.43,1.61M115.4,45.8h.76v4.36h-.76v-.61c-.25.33-.73.74-1.49.74-1.1,0-2.12-.78-2.12-2.31s1.01-2.28,2.12-2.28c.84,0,1.29.46,1.49.73v-.62Z"/>
      <path class="cls-1" d="M121.03,43.52l-1.41,1.42-.47-.25,1.1-1.52.78.36ZM117.69,45.8h.76v.5c.14-.18.53-.61,1.25-.61.52,0,.99.21,1.25.6.22.33.25.68.25,1.17v2.7h-.76v-2.68c0-.26-.02-.57-.2-.8-.15-.19-.38-.32-.71-.32-.26,0-.55.07-.77.34-.29.35-.32.86-.32,1.18v2.28h-.76v-4.36Z"/>
      <path class="cls-1" d="M124.53,46.81c-.11-.25-.33-.44-.61-.44s-.53.16-.53.49c0,.32.21.41.7.62.63.26.92.46,1.09.67.19.23.23.46.23.7,0,.91-.66,1.43-1.5,1.43-.18,0-1.16-.02-1.52-1.11l.65-.27c.08.23.34.71.88.71.49,0,.71-.37.71-.69,0-.41-.29-.55-.7-.72-.53-.23-.86-.4-1.06-.64-.17-.21-.2-.42-.2-.64,0-.77.54-1.22,1.27-1.22.23,0,.85.04,1.2.79l-.62.33Z"/>
      <polygon class="cls-1" points="127.32 46.49 127.32 50.16 126.56 50.16 126.56 46.49 126.1 46.49 126.1 45.8 126.56 45.8 126.56 44.22 127.32 44.22 127.32 45.8 128.08 45.8 128.08 46.49 127.32 46.49"/>
      <polygon class="cls-1" points="129.43 45.8 130.73 48.76 132.09 45.46 133.45 48.76 134.75 45.8 135.59 45.8 133.43 50.47 132.08 47.21 130.74 50.47 128.59 45.8 129.43 45.8"/>
      <path class="cls-1" d="M137,47.99c0,1.07.76,1.62,1.53,1.62s1.53-.56,1.53-1.62-.74-1.63-1.53-1.63-1.53.57-1.53,1.63M136.23,47.99c0-1.32.98-2.3,2.31-2.3s2.31.98,2.31,2.3-.99,2.29-2.31,2.29-2.31-.97-2.31-2.29"/>
      <polygon class="cls-1" points="142.32 45.8 143.62 48.76 144.98 45.46 146.34 48.76 147.64 45.8 148.48 45.8 146.32 50.47 144.97 47.21 143.63 50.47 141.48 45.8 142.32 45.8"/>
      <path class="cls-1" d="M149.89,47.97c0,.94.53,1.64,1.43,1.64s1.45-.77,1.45-1.63c0-1.12-.78-1.62-1.45-1.62-.75,0-1.43.55-1.43,1.61M152.73,45.8h.76v4.36h-.76v-.61c-.25.33-.73.74-1.49.74-1.1,0-2.12-.78-2.12-2.31s1.01-2.28,2.12-2.28c.84,0,1.29.46,1.49.73v-.62Z"/>
    </g>
  </g>
</svg>