<?xml version="1.0" encoding="UTF-8"?>
<svg class="desktop" version="1.1" xmlns="http://www.w3.org/2000/svg" xmlns:xlink="http://www.w3.org/1999/xlink" x="0px" y="0px" width="500px" height="83.338px" viewBox="0 0 500 83.338" enable-background="new 0 0 500 83.338" xml:space="preserve">
<title>Faktoria</title>
<g>
	<path fill="#674AF5" d="M469.306,47.795c-1.877,0-3.685,0.299-5.371,0.84c5.169,3.793,8.538,9.921,8.545,16.817
		c0,6.9-3.369,13.021-8.539,16.816c1.696,0.537,3.494,0.836,5.371,0.836c9.735,0,17.627-7.903,17.627-17.652
		c-0.013-9.753-7.892-17.657-17.627-17.657"></path>
	<path fill="#BCA8FF" d="M482.372,47.795c-0.365,0-0.729,0.013-1.086,0.04c5.831,3.695,9.718,10.208,9.729,17.617
		c0,7.41-3.885,13.931-9.717,17.615c0.356,0.02,0.714,0.031,1.073,0.031c9.735,0,17.628-7.904,17.628-17.652
		c-0.017-9.754-7.893-17.657-17.628-17.657"></path>
	<path fill="#00FF00" d="M257.853,71.031c-9.736,0-17.627-7.904-17.627-17.654c0-9.751,7.891-17.656,17.627-17.656
		c9.737,0,17.614,7.905,17.627,17.656C275.479,63.127,267.59,71.031,257.853,71.031z M257.853,23.425
		c-16.518,0-29.902,13.414-29.902,29.952c0,16.537,13.393,29.948,29.902,29.948s29.903-13.411,29.903-29.948
		C287.738,36.833,274.362,23.425,257.853,23.425z"></path>
	<path fill="#00FF00" d="M450.775,47.795c-9.738,0-17.627,7.904-17.627,17.657c0,9.749,7.889,17.652,17.627,17.652
		c9.734,0,17.627-7.903,17.627-17.652C468.39,55.699,460.51,47.795,450.775,47.795z"></path>
	<path fill="#00FF00" d="M178.6,25.177h-16.521l-20.829,20.979V12.224h-12.797v69.362h12.797v-18.88l5.008-5.018l18.153,23.896
		h15.588l-24.902-32.75L178.6,25.177z"></path>
	<path fill="#00FF00" d="M319.243,35.194h5.8V23.381c-0.564-0.045-1.137-0.071-1.729-0.071c-6.396,0-11.288,2.681-14.542,7.228
		v-5.361h-12.802v56.41h12.802V50.462C308.773,40.672,313.079,35.194,319.243,35.194z"></path>
	<path fill="#00FF00" d="M347.672,25.176h-12.801v56.41h12.801V25.176z"></path>
	<path fill="#00FF00" d="M341.217,0c-4.897,0-8.874,3.982-8.874,8.887c0,4.906,3.977,8.887,8.874,8.887
		c4.896,0,8.869-3.981,8.869-8.887C350.078,3.982,346.112,0,341.217,0z"></path>
	<path fill="#00FF00" d="M214.549,81.586l2.288-9.908c-6.418-0.526-11.425-3.786-11.425-9.575V36.295h19.602l2.591-11.209h-22.191
		V12.108h-12.828v12.978h-9.794v11.209h9.794v25.459c0,13.013,8.8,19.453,21.965,19.838"></path>
	<path fill="#00FF00" d="M50.447,36.197H12.782V12.459h43.146L58.78,0.124H0v81.462h12.782V48.53h34.813L50.447,36.197z"></path>
	<path fill="#00FF00" d="M85.344,71.031c-9.735,0-17.627-7.904-17.627-17.654c0-9.751,7.892-17.654,17.627-17.654
		c9.736,0,17.615,7.903,17.629,17.654C102.973,63.127,95.08,71.031,85.344,71.031z M102.518,25.169v4.996l-1.326-2.087
		c-4.35-3.22-9.807-4.657-15.443-4.657c-16.511,0-29.903,13.412-29.903,29.95c0,16.537,13.393,29.948,29.903,29.948
		c5.571,0,10.858-1.41,15.271-4.383l1.494-2.362v4.999h12.679V25.177h-12.679L102.518,25.169z"></path>
	<path fill="#00FF00" d="M385.877,71.031c-9.735,0-17.627-7.904-17.627-17.654c0-9.751,7.892-17.654,17.627-17.654
		c9.733,0,17.613,7.903,17.627,17.654C403.504,63.127,395.611,71.031,385.877,71.031z M403.052,25.169v4.996l-1.324-2.087
		c-4.355-3.22-9.812-4.657-15.448-4.657c-16.516,0-29.904,13.412-29.904,29.95c0,16.537,13.396,29.948,29.904,29.948
		c5.572,0,10.858-1.41,15.271-4.383l1.495-2.362v4.999h12.677V25.177h-12.677L403.052,25.169z"></path>
</g>
</svg>
