<?xml version="1.0" encoding="UTF-8" standalone="no"?>
<svg
   class="desktop"
   version="1.1"
   x="0px"
   y="0px"
   width="260"
   height="85"
   viewBox="0 0 259.99999 85.000003"
   enable-background="new 0 0 500 83.338"
   xml:space="preserve"
   id="svg360"
   sodipodi:docname="faktoria.svg"
   inkscape:version="1.2.2 (b0a8486541, 2022-12-01)"
   xmlns:inkscape="http://www.inkscape.org/namespaces/inkscape"
   xmlns:sodipodi="http://sodipodi.sourceforge.net/DTD/sodipodi-0.dtd"
   xmlns="http://www.w3.org/2000/svg"
   xmlns:svg="http://www.w3.org/2000/svg"
   xmlns:rdf="http://www.w3.org/1999/02/22-rdf-syntax-ns#"
   xmlns:cc="http://creativecommons.org/ns#"
   xmlns:dc="http://purl.org/dc/elements/1.1/"><defs
   id="defs364" /><sodipodi:namedview
   id="namedview362"
   pagecolor="#ffffff"
   bordercolor="#000000"
   borderopacity="0.25"
   inkscape:showpageshadow="2"
   inkscape:pageopacity="0.0"
   inkscape:pagecheckerboard="0"
   inkscape:deskcolor="#d1d1d1"
   showgrid="false"
   inkscape:zoom="2.608"
   inkscape:cx="250.19172"
   inkscape:cy="61.924847"
   inkscape:window-width="2560"
   inkscape:window-height="1368"
   inkscape:window-x="1920"
   inkscape:window-y="0"
   inkscape:window-maximized="1"
   inkscape:current-layer="svg360" />
<title
   id="title332">Faktoria</title>
<g
   id="g358"
   transform="matrix(0.48772905,0,0,0.47540766,3.8343559,24.539877)">
	<path
   fill="#674af5"
   d="m 469.306,47.795 c -1.877,0 -3.685,0.299 -5.371,0.84 5.169,3.793 8.538,9.921 8.545,16.817 0,6.9 -3.369,13.021 -8.539,16.816 1.696,0.537 3.494,0.836 5.371,0.836 9.735,0 17.627,-7.903 17.627,-17.652 -0.013,-9.753 -7.892,-17.657 -17.627,-17.657"
   id="path334" />
	<path
   fill="#bca8ff"
   d="m 482.372,47.795 c -0.365,0 -0.729,0.013 -1.086,0.04 5.831,3.695 9.718,10.208 9.729,17.617 0,7.41 -3.885,13.931 -9.717,17.615 0.356,0.02 0.714,0.031 1.073,0.031 9.735,0 17.628,-7.904 17.628,-17.652 -0.017,-9.754 -7.893,-17.657 -17.628,-17.657"
   id="path336" />
	<path
   fill="#00ff00"
   d="m 257.853,71.031 c -9.736,0 -17.627,-7.904 -17.627,-17.654 0,-9.751 7.891,-17.656 17.627,-17.656 9.737,0 17.614,7.905 17.627,17.656 -0.001,9.75 -7.89,17.654 -17.627,17.654 z m 0,-47.606 c -16.518,0 -29.902,13.414 -29.902,29.952 0,16.537 13.393,29.948 29.902,29.948 16.509,0 29.903,-13.411 29.903,-29.948 -0.018,-16.544 -13.394,-29.952 -29.903,-29.952 z"
   id="path338" />
	<path
   fill="#00ff00"
   d="m 450.775,47.795 c -9.738,0 -17.627,7.904 -17.627,17.657 0,9.749 7.889,17.652 17.627,17.652 9.734,0 17.627,-7.903 17.627,-17.652 -0.012,-9.753 -7.892,-17.657 -17.627,-17.657 z"
   id="path340" />
	<path
   fill="#00ff00"
   d="M 178.6,25.177 H 162.079 L 141.25,46.156 V 12.224 h -12.797 v 69.362 h 12.797 v -18.88 l 5.008,-5.018 18.153,23.896 h 15.588 l -24.902,-32.75 z"
   id="path342" />
	<path
   fill="#00ff00"
   d="m 319.243,35.194 h 5.8 V 23.381 c -0.564,-0.045 -1.137,-0.071 -1.729,-0.071 -6.396,0 -11.288,2.681 -14.542,7.228 V 25.177 H 295.97 v 56.41 h 12.802 V 50.462 c 0.001,-9.79 4.307,-15.268 10.471,-15.268 z"
   id="path344" />
	<path
   fill="#00ff00"
   d="m 347.672,25.176 h -12.801 v 56.41 h 12.801 z"
   id="path346" />
	<path
   fill="#00ff00"
   d="m 341.217,0 c -4.897,0 -8.874,3.982 -8.874,8.887 0,4.906 3.977,8.887 8.874,8.887 4.896,0 8.869,-3.981 8.869,-8.887 C 350.078,3.982 346.112,0 341.217,0 Z"
   id="path348" />
	<path
   fill="#00ff00"
   d="m 214.549,81.586 2.288,-9.908 c -6.418,-0.526 -11.425,-3.786 -11.425,-9.575 V 36.295 h 19.602 l 2.591,-11.209 H 205.414 V 12.108 h -12.828 v 12.978 h -9.794 v 11.209 h 9.794 v 25.459 c 0,13.013 8.8,19.453 21.965,19.838"
   id="path350" />
	<path
   fill="#00ff00"
   d="M 50.447,36.197 H 12.782 V 12.459 H 55.928 L 58.78,0.124 H 0 V 81.586 H 12.782 V 48.53 h 34.813 z"
   id="path352" />
	<path
   fill="#00ff00"
   d="m 85.344,71.031 c -9.735,0 -17.627,-7.904 -17.627,-17.654 0,-9.751 7.892,-17.654 17.627,-17.654 9.736,0 17.615,7.903 17.629,17.654 0,9.75 -7.893,17.654 -17.629,17.654 z m 17.174,-45.862 v 4.996 l -1.326,-2.087 c -4.35,-3.22 -9.807,-4.657 -15.443,-4.657 -16.511,0 -29.903,13.412 -29.903,29.95 0,16.537 13.393,29.948 29.903,29.948 5.571,0 10.858,-1.41 15.271,-4.383 l 1.494,-2.362 v 4.999 h 12.679 V 25.177 h -12.679 z"
   id="path354" />
	<path
   fill="#00ff00"
   d="m 385.877,71.031 c -9.735,0 -17.627,-7.904 -17.627,-17.654 0,-9.751 7.892,-17.654 17.627,-17.654 9.733,0 17.613,7.903 17.627,17.654 0,9.75 -7.893,17.654 -17.627,17.654 z m 17.175,-45.862 v 4.996 l -1.324,-2.087 c -4.355,-3.22 -9.812,-4.657 -15.448,-4.657 -16.516,0 -29.904,13.412 -29.904,29.95 0,16.537 13.396,29.948 29.904,29.948 5.572,0 10.858,-1.41 15.271,-4.383 l 1.495,-2.362 v 4.999 h 12.677 V 25.177 h -12.677 z"
   id="path356" />
</g>
<metadata
   id="metadata366"><rdf:RDF><cc:Work
       rdf:about=""><dc:title>Faktoria</dc:title></cc:Work></rdf:RDF></metadata></svg>
