<?xml version="1.0" encoding="utf-8"?>
<!-- Generator: Adobe Illustrator 26.5.0, SVG Export Plug-In . SVG Version: 6.00 Build 0)  -->
<svg version="1.1" id="Warstwa_1" xmlns="http://www.w3.org/2000/svg" xmlns:xlink="http://www.w3.org/1999/xlink" x="0px" y="0px"
	 viewBox="0 0 917 141.7" style="enable-background:new 0 0 917 141.7;" xml:space="preserve">
<style type="text/css">
	.st0{fill:#E2BD36;}
	.st1{fill:#F2CA38;}
</style>
<path class="st0" d="M438.3,125.6c-43.1,0.2-86.2-0.5-129.3-0.8c-0.8,0-1.9,0.1-2.4-0.3c-1.3-1.1-2.4-2.5-3.6-3.7
	c1.2-0.7,2.5-1.9,3.8-2c6.1-0.5,12.2-0.8,18.2-0.8c13-0.1,26.1-0.1,39.1-0.2c4.6,0,9.2-0.7,13.8-0.6c6.2,0.1,12.5,0.7,18.7,0.7
	c11.8,0.4,23.4,1.1,35.1,0.3c9.4-0.8,18.7,1.4,28,2.5c1.9,0.2,3.9,0,5.8-0.2c8.3-0.8,17.1,0.3,25.2,3.2c-2.2,2.2-2.2,2.2-13.6,2.1
	c-0.3-0.2-0.5-0.6-0.8-0.6c-10-0.3-19.9-0.6-29.9-0.7C443.7,124.3,441,125.2,438.3,125.6z"/>
<g>
	<path d="M534.8,104.9c-8.1,0-15.5,0-23.2,0c0-29.5,0-58.8,0-88.5c3.7-1,7.5-0.3,11.4-0.4c3.7-0.1,7.5,0,11.7,0
		c0.4,10.5-0.1,20.8,0.3,31.9c1.4-1,1.9-1.3,2.4-1.7c6.1-5.8,13.1-7.7,21.5-6.3c9,1.5,15.9,5.9,20.3,13.7c2.1,3.7,3.5,8.1,4.2,12.3
		c1.7,9.7,0.4,19-4.8,27.8c-7.9,13.2-30.2,17.3-41.6,5.2c-0.2-0.2-2-1.5-2-1.5s-0.1,2.3-0.1,3.1
		C534.8,101.8,534.8,103.1,534.8,104.9z M560.5,72.9c-0.6-10.1-4-16.8-14.8-15.6c-3.3,0.4-5.6,1.5-7.6,4.1
		c-3.3,4.3-3.9,9.2-3.3,14.3c0.9,7.1,5.4,13.2,14.8,12.3c3.6-0.4,6.3-1.8,8.1-4.9C559.6,79.6,560.3,76.1,560.5,72.9z"/>
	<path d="M164.7,33.2c-4.1,5-8.4,10.2-12.9,15.7c-1.3-0.8-2.7-1.7-4-2.6c-4.5-3.2-9.6-5.3-15-5.9c-15.9-1.8-24.9,9.7-25.5,21.3
		c-0.4,7.5,1.7,13.9,7.5,19c7.7,6.8,17.9,6.7,26.6,3c1.7-0.7,1.8-2.2,1.8-3.8c0-4.4,0-8.8,0-13.2c0-1.3,0.1-2.6,0.2-4.1
		c7,0,13.7,0,20.6,0c0.1,1.1,0.2,1.9,0.2,2.7c0,8.8-0.1,17.6,0.1,26.4c0.1,3-1.1,4.8-3.6,6.1c-5.9,3-12.1,5.4-18.5,6.8
		c-10.4,2.3-20.8,2.7-31-1C96.2,98,87.1,87.4,83.1,72c-4.7-18,6.5-40.5,27.1-48.2c6.1-2.3,12.5-3.6,18.9-3.5
		c12.9,0.2,25.1,3.5,35.4,12C164.5,32.4,164.5,32.6,164.7,33.2z"/>
	<path d="M377.3,105c-8.1,0-15.5,0-22.9,0c-0.8-4-0.9-83.3-0.1-88.7c7.5,0,15.1,0,23.1,0c0,11.1,0,22,0,33.8
		c1.6-1.3,2.3-1.8,3.2-2.7c8.4-8.1,23-11.2,33.2-3.3c5,3.9,7.4,9.1,8.4,15.1c0.3,1.7,0.2,3.4,0.2,5.1c0,12,0,24,0,36
		c0,1.5,0,3,0,4.7c-8,0-15.5,0-23.5,0c0-1.7,0-3.2,0-4.6c0-8.8,0-17.6,0-26.4c0-1.4,0-2.7,0-4.1c-0.3-5.8-3.1-9-8.7-10.1
		c-4.5-0.9-10,2.3-11.7,7c-0.7,2-1.1,4.3-1.1,6.4c-0.1,8.8,0,17.6,0,26.4C377.3,101.1,377.3,102.8,377.3,105z"/>
	<path d="M662.6,72.6c0.8,17.6-12,30-27.2,32.6c-8.4,1.4-16.5,1-24.5-1.9c-12.8-4.7-19.6-14-20.8-27.3c-0.9-8.8,1.2-17,6.7-24.2
		c2.2-2.9,5-5.1,8.1-6.8c11.8-6.6,24.1-7.3,36.8-3C654.7,46.4,663,57.8,662.6,72.6z M638.5,78.2c0.8-3.5,0.7-7,0-10.5
		c-0.2-0.8-0.4-1.5-0.6-2.3c-1.6-5.1-5.5-7.5-10.6-8.1c-5.3-0.5-9.5,2.1-11.9,7c-2.5,5.1-2.7,10.4-0.7,15.7
		c2.1,5.5,6.3,8.6,11.9,8.6c5.5,0,9.8-3.3,11.5-8.9C638.2,79.3,638.4,78.8,638.5,78.2z"/>
	<path d="M198.7,80.3c5.6,11.1,16.1,11.6,28,1.5c4.2,3.7,8.4,7.5,12.7,11.3c-6.9,8.1-15.7,11.7-25.6,12.8c-7,0.7-13.9,0-20.5-2.8
		c-10.9-4.6-17.7-12.5-19.6-24.4c-1-6.2-0.4-12.1,1.5-17.9c2.9-8.8,8.8-15.1,17.5-18.5c10.9-4.2,21.9-4.3,32.5,0.9
		c9.4,4.6,14.6,12.2,16,22.5c0.2,1.5,0.5,3,0.7,4.8c-7.2,2.2-14.5,3.2-21.7,4.9C213.2,77.1,205.8,78.2,198.7,80.3z M218.5,63.8
		c-2-7.3-6.6-10.1-13-8.4c-5.1,1.3-8.7,7.5-7.5,13.3c5.6-1.2,11.2-2.4,16.8-3.7C216,64.7,217.1,64.2,218.5,63.8z"/>
	<path d="M485.8,82.3c3.8,3.4,7.9,7.1,12.2,10.9c-5.1,6.1-11.6,9.7-18.9,11.6c-8.6,2.2-17.2,2-25.6-0.9
		c-12.1-4.2-19.3-12.5-21.2-25.3c-1.5-10.2,0.6-19.4,7-27.5c4.7-6,11.3-9.1,18.6-10.7c6.9-1.5,13.8-1.1,20.6,0.8
		c14,3.9,22.6,17,21.4,29.8c-13.9,3.6-28.3,5.7-42.3,9.4c1.6,7.5,10.2,10.4,17,8C478.3,86.9,481.8,84.4,485.8,82.3z M477.3,64.1
		c-1.8-7.1-5.8-10.3-11.3-9.3c-6.9,1.3-10.5,6.2-9.5,13.9C463.4,67.4,470.1,66,477.3,64.1z"/>
	<path d="M737,40.4c-6.9,10.7-13.6,21.2-20.3,31.6c7.2,10.9,14.2,21.6,21.2,32.4c-4.8,0.3-18,0.7-26.5,0.4c-1.6-2.9-3.4-6-5.1-9.1
		c-1.6-2.9-3.3-5.8-5.2-9.2c-5,5.9-7.9,12.5-12.4,18.3c-8.1,0-16.3,0-25.3,0c7.2-11.1,14.2-21.8,21.4-32.8
		c-6.6-10.4-13.3-20.7-20.2-31.4c8.9-0.3,8.9-0.3,13.2-0.4c4.2-0.1,8.5,0,12.9,0c3.5,6.8,6,11.2,9.7,16.7c4.2-5.5,4.2-5.5,6-8.1
		c1.8-2.6,3.4-5.4,5.1-8.3C720,40.4,728.2,40.4,737,40.4z"/>
	<path d="M291.8,102.7c-3.5,1.1-6.7,2.5-10,2.9c-4.7,0.5-9.7,1-14.2,0c-11-2.4-16.6-9.5-16.8-20.5c-0.3-19.8-0.1-39.5-0.1-59.8
		c4-0.5,7.8-0.2,11.7-0.2c3.7-0.1,7.4,0,11.5,0v17.5h16.3v15.8h-15c-0.2,0-0.8,0-1,0c0,1.3-0.1,2.4-0.1,3.5
		c-0.1,5.8-0.1,11.5,0,17.2c0,1.5,0.2,3,0.7,4.4c1,3.4,2.4,4.5,5.9,4.4c2.3,0,4.6-0.5,7.1-0.8C289.1,92.2,290.4,97.2,291.8,102.7z"
		/>
	<path d="M342.3,102.2c-9.1,4.4-18,5.2-27.1,2.6c-7.9-2.3-13.2-9.2-13.6-17.2c-0.2-5.2-0.1-10.5-0.1-15.7c0-13.8,0-27.7,0-41.5v-5.1
		h23.1c0.9,5.7-0.2,11.5,0.6,17.3h16.2v6.3c0,0.7-0.1,1.4,0,2.1c0,0.3,0,0.7,0,1v6.3l-16.3,0c-0.1,1.6-0.1,2.4-0.1,3.5
		c0,5.9-0.1,11.8,0,17.7c0.1,7.1,2.7,9.4,9.9,8.2c1-0.2,1.9-0.6,3.3-1C339.5,91.8,340.8,96.8,342.3,102.2z"/>
	<path d="M341.4,56.9v-4.8C341.5,53.6,341.4,55.1,341.4,56.9z"/>
	<path d="M341.4,48.9v-3C341.5,47,341.5,48,341.4,48.9z"/>
</g>
<polygon class="st1" points="814,41.4 772.8,66 772.8,90.2 760.9,84 760.9,58.3 802.6,35 789.6,25.9 748.4,50.3 748.4,96.6 
	788.5,122 829,98.8 829,51.7 "/>
<path d="M341.4,48.9v3.1c0-0.3,0-0.7,0-1C341.3,50.4,341.3,49.7,341.4,48.9z"/>
</svg>
