<?xml version="1.0" encoding="UTF-8"?>
<svg xmlns="http://www.w3.org/2000/svg" version="1.1" viewBox="0 0 757.4 109.5">
  <defs>
    <style>
      .cls-1 {
        fill: #e2bd36;
      }

      .cls-2 {
        fill: #f2ca38;
      }
    </style>
  </defs>
  <!-- Generator: Adobe Illustrator 28.7.2, SVG Export Plug-In . SVG Version: 1.2.0 Build 154)  -->
  <g>
    <g id="Warstwa_1">
      <path class="cls-1" d="M361.8,109.3c-43.1.2-86.2-.5-129.3-.8-.8,0-1.9,0-2.4-.3-1.3-1.1-2.4-2.5-3.6-3.7,1.2-.7,2.5-1.9,3.8-2,6.1-.5,12.2-.8,18.2-.8,13,0,26.1,0,39.1-.2,4.6,0,9.2-.7,13.8-.6,6.2,0,12.5.7,18.7.7,11.8.4,23.4,1.1,35.1.3,9.4-.8,18.7,1.4,28,2.5,1.9.2,3.9,0,5.8-.2,8.3-.8,17.1.3,25.2,3.2q-2.2,2.2-13.6,2.1c-.3-.2-.5-.6-.8-.6-10-.3-19.9-.6-29.9-.7-2.7-.2-5.4.7-8.1,1.1Z"/>
      <g>
        <path d="M458.3,88.6h-23.2V0c3.7-1,7.5-.3,11.4-.4,3.7-.1,7.5,0,11.7,0,.4,10.5,0,20.8.3,31.9,1.4-1,1.9-1.3,2.4-1.7,6.1-5.8,13.1-7.7,21.5-6.3,9,1.5,15.9,5.9,20.3,13.7,2.1,3.7,3.5,8.1,4.2,12.3,1.7,9.7.4,19-4.8,27.8-7.9,13.2-30.2,17.3-41.6,5.2-.2-.2-2-1.5-2-1.5,0,0,0,2.3,0,3.1-.1,1.3-.1,2.6-.1,4.4ZM484,56.6c-.6-10.1-4-16.8-14.8-15.6-3.3.4-5.6,1.5-7.6,4.1-3.3,4.3-3.9,9.2-3.3,14.3.9,7.1,5.4,13.2,14.8,12.3,3.6-.4,6.3-1.8,8.1-4.9,1.9-3.5,2.6-7,2.8-10.2Z"/>
        <path d="M88.2,16.9c-4.1,5-8.4,10.2-12.9,15.7-1.3-.8-2.7-1.7-4-2.6-4.5-3.2-9.6-5.3-15-5.9-15.9-1.8-24.9,9.7-25.5,21.3-.4,7.5,1.7,13.9,7.5,19,7.7,6.8,17.9,6.7,26.6,3,1.7-.7,1.8-2.2,1.8-3.8v-13.2c0-1.3.1-2.6.2-4.1h20.6c.1,1.1.2,1.9.2,2.7,0,8.8-.1,17.6.1,26.4.1,3-1.1,4.8-3.6,6.1-5.9,3-12.1,5.4-18.5,6.8-10.4,2.3-20.8,2.7-31-1-15-5.6-24.1-16.2-28.1-31.6C1.9,37.7,13.1,15.2,33.7,7.5c6.1-2.3,12.5-3.6,18.9-3.5,12.9.2,25.1,3.5,35.4,12,0,.1,0,.3.2.9Z"/>
        <path d="M300.8,88.7h-22.9c-.8-4-.9-83.3-.1-88.7h23.1v33.8c1.6-1.3,2.3-1.8,3.2-2.7,8.4-8.1,23-11.2,33.2-3.3,5,3.9,7.4,9.1,8.4,15.1.3,1.7.2,3.4.2,5.1v40.7h-23.5v-35.1c-.3-5.8-3.1-9-8.7-10.1-4.5-.9-10,2.3-11.7,7-.7,2-1.1,4.3-1.1,6.4-.1,8.8,0,17.6,0,26.4-.1,1.5-.1,3.2-.1,5.4Z"/>
        <path d="M586.1,56.3c.8,17.6-12,30-27.2,32.6-8.4,1.4-16.5,1-24.5-1.9-12.8-4.7-19.6-14-20.8-27.3-.9-8.8,1.2-17,6.7-24.2,2.2-2.9,5-5.1,8.1-6.8,11.8-6.6,24.1-7.3,36.8-3,13,4.4,21.3,15.8,20.9,30.6ZM562,61.9c.8-3.5.7-7,0-10.5-.2-.8-.4-1.5-.6-2.3-1.6-5.1-5.5-7.5-10.6-8.1-5.3-.5-9.5,2.1-11.9,7-2.5,5.1-2.7,10.4-.7,15.7,2.1,5.5,6.3,8.6,11.9,8.6s9.8-3.3,11.5-8.9c0-.4.3-.9.4-1.5Z"/>
        <path d="M122.2,64c5.6,11.1,16.1,11.6,28,1.5,4.2,3.7,8.4,7.5,12.7,11.3-6.9,8.1-15.7,11.7-25.6,12.8-7,.7-13.9,0-20.5-2.8-10.9-4.6-17.7-12.5-19.6-24.4-1-6.2-.4-12.1,1.5-17.9,2.9-8.8,8.8-15.1,17.5-18.5,10.9-4.2,21.9-4.3,32.5.9,9.4,4.6,14.6,12.2,16,22.5.2,1.5.5,3,.7,4.8-7.2,2.2-14.5,3.2-21.7,4.9-7,1.7-14.4,2.8-21.5,4.9ZM142,47.5c-2-7.3-6.6-10.1-13-8.4-5.1,1.3-8.7,7.5-7.5,13.3,5.6-1.2,11.2-2.4,16.8-3.7,1.2-.3,2.3-.8,3.7-1.2Z"/>
        <path d="M409.3,66c3.8,3.4,7.9,7.1,12.2,10.9-5.1,6.1-11.6,9.7-18.9,11.6-8.6,2.2-17.2,2-25.6-.9-12.1-4.2-19.3-12.5-21.2-25.3-1.5-10.2.6-19.4,7-27.5,4.7-6,11.3-9.1,18.6-10.7,6.9-1.5,13.8-1.1,20.6.8,14,3.9,22.6,17,21.4,29.8-13.9,3.6-28.3,5.7-42.3,9.4,1.6,7.5,10.2,10.4,17,8,3.7-1.5,7.2-4,11.2-6.1ZM400.8,47.8c-1.8-7.1-5.8-10.3-11.3-9.3-6.9,1.3-10.5,6.2-9.5,13.9,6.9-1.3,13.6-2.7,20.8-4.6Z"/>
        <path d="M660.5,24.1c-6.9,10.7-13.6,21.2-20.3,31.6,7.2,10.9,14.2,21.6,21.2,32.4-4.8.3-18,.7-26.5.4-1.6-2.9-3.4-6-5.1-9.1-1.6-2.9-3.3-5.8-5.2-9.2-5,5.9-7.9,12.5-12.4,18.3h-25.3c7.2-11.1,14.2-21.8,21.4-32.8-6.6-10.4-13.3-20.7-20.2-31.4q8.9-.3,13.2-.4c4.2,0,8.5,0,12.9,0,3.5,6.8,6,11.2,9.7,16.7q4.2-5.5,6-8.1c1.8-2.6,3.4-5.4,5.1-8.3,8.5,0,16.7,0,25.5,0Z"/>
        <path d="M215.3,86.4c-3.5,1.1-6.7,2.5-10,2.9-4.7.5-9.7,1-14.2,0-11-2.4-16.6-9.5-16.8-20.5-.3-19.8-.1-39.5-.1-59.8,4-.5,7.8-.2,11.7-.2,3.7-.1,7.4,0,11.5,0v17.5h16.3v15.8h-16c0,1.3-.1,2.4-.1,3.5-.1,5.8-.1,11.5,0,17.2,0,1.5.2,3,.7,4.4,1,3.4,2.4,4.5,5.9,4.4,2.3,0,4.6-.5,7.1-.8,1.3,5.1,2.6,10.1,4,15.6Z"/>
        <path d="M265.8,85.9c-9.1,4.4-18,5.2-27.1,2.6-7.9-2.3-13.2-9.2-13.6-17.2-.2-5.2-.1-10.5-.1-15.7V9h23.1c.9,5.7-.2,11.5.6,17.3h16.2v6.3c0,.7-.1,1.4,0,2.1v7.3h-16.3c-.1,1.6-.1,2.4-.1,3.5,0,5.9-.1,11.8,0,17.7.1,7.1,2.7,9.4,9.9,8.2,1-.2,1.9-.6,3.3-1,1.3,5.1,2.6,10.1,4.1,15.5Z"/>
        <path d="M264.9,40.6v-4.8c.1,1.5,0,3,0,4.8Z"/>
        <path d="M264.9,32.6v-3c.1,1.1.1,2.1,0,3Z"/>
      </g>
      <polygon class="cls-2" points="737.5 25.1 696.3 49.7 696.3 73.9 684.4 67.7 684.4 42 726.1 18.7 713.1 9.6 671.9 34 671.9 80.3 712 105.7 752.5 82.5 752.5 35.4 737.5 25.1"/>
      <path d="M264.9,32.6v3.1-1c-.1-.6-.1-1.3,0-2.1Z"/>
    </g>
  </g>
</svg>