<?xml version="1.0" encoding="UTF-8" standalone="no"?>
<svg
   version="1.1"
   viewBox="0 -70 734.4459 241.075"
   id="svg279"
   sodipodi:docname="getthebox.svg"
   width="734.44598"
   height="241.075"
   inkscape:version="1.2.2 (b0a8486541, 2022-12-01)"
   xmlns:inkscape="http://www.inkscape.org/namespaces/inkscape"
   xmlns:sodipodi="http://sodipodi.sourceforge.net/DTD/sodipodi-0.dtd"
   xmlns="http://www.w3.org/2000/svg"
   xmlns:svg="http://www.w3.org/2000/svg">
  <sodipodi:namedview
     id="namedview281"
     pagecolor="#ffffff"
     bordercolor="#000000"
     borderopacity="0.25"
     inkscape:showpageshadow="2"
     inkscape:pageopacity="0.0"
     inkscape:pagecheckerboard="0"
     inkscape:deskcolor="#d1d1d1"
     showgrid="false"
     inkscape:zoom="1.7216794"
     inkscape:cx="391.76864"
     inkscape:cy="100.7737"
     inkscape:window-width="1920"
     inkscape:window-height="1008"
     inkscape:window-x="0"
     inkscape:window-y="0"
     inkscape:window-maximized="1"
     inkscape:current-layer="svg279" />
  <defs
     id="defs244">
    <style
       id="style242">
      .cls-1 {
        fill: #e2bd36;
      }

      .cls-2 {
        fill: #f2ca38;
      }
    </style>
  </defs>
  <!-- Generator: Adobe Illustrator 28.7.2, SVG Export Plug-In . SVG Version: 1.2.0 Build 154)  -->
  <g
     id="g277"
     transform="matrix(0.95724551,0,0,1.0777719,-1.8143606,28.167367)">
    <g
       id="Warstwa_1">
      <path
         class="cls-1"
         d="m 361.8,109.3 c -43.1,0.2 -86.2,-0.5 -129.3,-0.8 -0.8,0 -1.9,0 -2.4,-0.3 -1.3,-1.1 -2.4,-2.5 -3.6,-3.7 1.2,-0.7 2.5,-1.9 3.8,-2 6.1,-0.5 12.2,-0.8 18.2,-0.8 13,0 26.1,0 39.1,-0.2 4.6,0 9.2,-0.7 13.8,-0.6 6.2,0 12.5,0.7 18.7,0.7 11.8,0.4 23.4,1.1 35.1,0.3 9.4,-0.8 18.7,1.4 28,2.5 1.9,0.2 3.9,0 5.8,-0.2 8.3,-0.8 17.1,0.3 25.2,3.2 q -2.2,2.2 -13.6,2.1 c -0.3,-0.2 -0.5,-0.6 -0.8,-0.6 -10,-0.3 -19.9,-0.6 -29.9,-0.7 -2.7,-0.2 -5.4,0.7 -8.1,1.1 z"
         id="path246" />
      <g
         id="g270">
        <path
           d="M 458.3,88.6 H 435.1 V 0 c 3.7,-1 7.5,-0.3 11.4,-0.4 3.7,-0.1 7.5,0 11.7,0 0.4,10.5 0,20.8 0.3,31.9 1.4,-1 1.9,-1.3 2.4,-1.7 6.1,-5.8 13.1,-7.7 21.5,-6.3 9,1.5 15.9,5.9 20.3,13.7 2.1,3.7 3.5,8.1 4.2,12.3 1.7,9.7 0.4,19 -4.8,27.8 -7.9,13.2 -30.2,17.3 -41.6,5.2 -0.2,-0.2 -2,-1.5 -2,-1.5 0,0 0,2.3 0,3.1 -0.1,1.3 -0.1,2.6 -0.1,4.4 z M 484,56.6 C 483.4,46.5 480,39.8 469.2,41 c -3.3,0.4 -5.6,1.5 -7.6,4.1 -3.3,4.3 -3.9,9.2 -3.3,14.3 0.9,7.1 5.4,13.2 14.8,12.3 3.6,-0.4 6.3,-1.8 8.1,-4.9 1.9,-3.5 2.6,-7 2.8,-10.2 z"
           id="path248" />
        <path
           d="m 88.2,16.9 c -4.1,5 -8.4,10.2 -12.9,15.7 -1.3,-0.8 -2.7,-1.7 -4,-2.6 -4.5,-3.2 -9.6,-5.3 -15,-5.9 -15.9,-1.8 -24.9,9.7 -25.5,21.3 -0.4,7.5 1.7,13.9 7.5,19 7.7,6.8 17.9,6.7 26.6,3 1.7,-0.7 1.8,-2.2 1.8,-3.8 V 50.4 c 0,-1.3 0.1,-2.6 0.2,-4.1 h 20.6 c 0.1,1.1 0.2,1.9 0.2,2.7 0,8.8 -0.1,17.6 0.1,26.4 0.1,3 -1.1,4.8 -3.6,6.1 -5.9,3 -12.1,5.4 -18.5,6.8 -10.4,2.3 -20.8,2.7 -31,-1 C 19.7,81.7 10.6,71.1 6.6,55.7 1.9,37.7 13.1,15.2 33.7,7.5 39.8,5.2 46.2,3.9 52.6,4 65.5,4.2 77.7,7.5 88,16 c 0,0.1 0,0.3 0.2,0.9 z"
           id="path250" />
        <path
           d="M 300.8,88.7 H 277.9 C 277.1,84.7 277,5.4 277.8,0 h 23.1 v 33.8 c 1.6,-1.3 2.3,-1.8 3.2,-2.7 8.4,-8.1 23,-11.2 33.2,-3.3 5,3.9 7.4,9.1 8.4,15.1 0.3,1.7 0.2,3.4 0.2,5.1 V 88.7 H 322.4 V 53.6 c -0.3,-5.8 -3.1,-9 -8.7,-10.1 -4.5,-0.9 -10,2.3 -11.7,7 -0.7,2 -1.1,4.3 -1.1,6.4 -0.1,8.8 0,17.6 0,26.4 -0.1,1.5 -0.1,3.2 -0.1,5.4 z"
           id="path252" />
        <path
           d="m 586.1,56.3 c 0.8,17.6 -12,30 -27.2,32.6 -8.4,1.4 -16.5,1 -24.5,-1.9 -12.8,-4.7 -19.6,-14 -20.8,-27.3 -0.9,-8.8 1.2,-17 6.7,-24.2 2.2,-2.9 5,-5.1 8.1,-6.8 11.8,-6.6 24.1,-7.3 36.8,-3 13,4.4 21.3,15.8 20.9,30.6 z M 562,61.9 c 0.8,-3.5 0.7,-7 0,-10.5 -0.2,-0.8 -0.4,-1.5 -0.6,-2.3 -1.6,-5.1 -5.5,-7.5 -10.6,-8.1 -5.3,-0.5 -9.5,2.1 -11.9,7 -2.5,5.1 -2.7,10.4 -0.7,15.7 2.1,5.5 6.3,8.6 11.9,8.6 5.6,0 9.8,-3.3 11.5,-8.9 0,-0.4 0.3,-0.9 0.4,-1.5 z"
           id="path254" />
        <path
           d="m 122.2,64 c 5.6,11.1 16.1,11.6 28,1.5 4.2,3.7 8.4,7.5 12.7,11.3 -6.9,8.1 -15.7,11.7 -25.6,12.8 -7,0.7 -13.9,0 -20.5,-2.8 -10.9,-4.6 -17.7,-12.5 -19.6,-24.4 -1,-6.2 -0.4,-12.1 1.5,-17.9 2.9,-8.8 8.8,-15.1 17.5,-18.5 10.9,-4.2 21.9,-4.3 32.5,0.9 9.4,4.6 14.6,12.2 16,22.5 0.2,1.5 0.5,3 0.7,4.8 -7.2,2.2 -14.5,3.2 -21.7,4.9 -7,1.7 -14.4,2.8 -21.5,4.9 z M 142,47.5 c -2,-7.3 -6.6,-10.1 -13,-8.4 -5.1,1.3 -8.7,7.5 -7.5,13.3 5.6,-1.2 11.2,-2.4 16.8,-3.7 1.2,-0.3 2.3,-0.8 3.7,-1.2 z"
           id="path256" />
        <path
           d="m 409.3,66 c 3.8,3.4 7.9,7.1 12.2,10.9 -5.1,6.1 -11.6,9.7 -18.9,11.6 -8.6,2.2 -17.2,2 -25.6,-0.9 -12.1,-4.2 -19.3,-12.5 -21.2,-25.3 -1.5,-10.2 0.6,-19.4 7,-27.5 4.7,-6 11.3,-9.1 18.6,-10.7 6.9,-1.5 13.8,-1.1 20.6,0.8 14,3.9 22.6,17 21.4,29.8 -13.9,3.6 -28.3,5.7 -42.3,9.4 1.6,7.5 10.2,10.4 17,8 3.7,-1.5 7.2,-4 11.2,-6.1 z M 400.8,47.8 C 399,40.7 395,37.5 389.5,38.5 c -6.9,1.3 -10.5,6.2 -9.5,13.9 6.9,-1.3 13.6,-2.7 20.8,-4.6 z"
           id="path258" />
        <path
           d="m 660.5,24.1 c -6.9,10.7 -13.6,21.2 -20.3,31.6 7.2,10.9 14.2,21.6 21.2,32.4 -4.8,0.3 -18,0.7 -26.5,0.4 -1.6,-2.9 -3.4,-6 -5.1,-9.1 -1.6,-2.9 -3.3,-5.8 -5.2,-9.2 -5,5.9 -7.9,12.5 -12.4,18.3 H 586.9 C 594.1,77.4 601.1,66.7 608.3,55.7 601.7,45.3 595,35 588.1,24.3 Q 597,24 601.3,23.9 c 4.2,0 8.5,0 12.9,0 3.5,6.8 6,11.2 9.7,16.7 q 4.2,-5.5 6,-8.1 c 1.8,-2.6 3.4,-5.4 5.1,-8.3 8.5,0 16.7,0 25.5,0 z"
           id="path260" />
        <path
           d="m 215.3,86.4 c -3.5,1.1 -6.7,2.5 -10,2.9 -4.7,0.5 -9.7,1 -14.2,0 -11,-2.4 -16.6,-9.5 -16.8,-20.5 C 174,49 174.2,29.3 174.2,9 c 4,-0.5 7.8,-0.2 11.7,-0.2 3.7,-0.1 7.4,0 11.5,0 v 17.5 h 16.3 v 15.8 h -16 c 0,1.3 -0.1,2.4 -0.1,3.5 -0.1,5.8 -0.1,11.5 0,17.2 0,1.5 0.2,3 0.7,4.4 1,3.4 2.4,4.5 5.9,4.4 2.3,0 4.6,-0.5 7.1,-0.8 1.3,5.1 2.6,10.1 4,15.6 z"
           id="path262" />
        <path
           d="m 265.8,85.9 c -9.1,4.4 -18,5.2 -27.1,2.6 C 230.8,86.2 225.5,79.3 225.1,71.3 224.9,66.1 225,60.8 225,55.6 V 9 h 23.1 c 0.9,5.7 -0.2,11.5 0.6,17.3 h 16.2 v 6.3 c 0,0.7 -0.1,1.4 0,2.1 V 42 h -16.3 c -0.1,1.6 -0.1,2.4 -0.1,3.5 0,5.9 -0.1,11.8 0,17.7 0.1,7.1 2.7,9.4 9.9,8.2 1,-0.2 1.9,-0.6 3.3,-1 1.3,5.1 2.6,10.1 4.1,15.5 z"
           id="path264" />
        <path
           d="m 264.9,40.6 v -4.8 c 0.1,1.5 0,3 0,4.8 z"
           id="path266" />
        <path
           d="m 264.9,32.6 v -3 c 0.1,1.1 0.1,2.1 0,3 z"
           id="path268" />
      </g>
      <polygon
         class="cls-2"
         points="684.4,67.7 684.4,42 726.1,18.7 713.1,9.6 671.9,34 671.9,80.3 712,105.7 752.5,82.5 752.5,35.4 737.5,25.1 696.3,49.7 696.3,73.9 "
         id="polygon272" />
      <path
         d="m 264.9,32.6 v 3.1 -1 c -0.1,-0.6 -0.1,-1.3 0,-2.1 z"
         id="path274" />
    </g>
  </g>
</svg>
