<?xml version="1.0" encoding="UTF-8"?>
<svg id="Warstwa_2" data-name="Warstwa 2" xmlns="http://www.w3.org/2000/svg" xmlns:xlink="http://www.w3.org/1999/xlink" viewBox="0 0 132.04 54">
  <defs>
    <style>
      .cls-1 {
        fill: #ff7d00;
      }

      .cls-1, .cls-2, .cls-3 {
        stroke-width: 0px;
      }

      .cls-2 {
        fill: none;
      }

      .cls-3 {
        fill: #575757;
      }

      .cls-4 {
        clip-path: url(#clippath);
      }
    </style>
    <clipPath id="clippath">
      <rect class="cls-2" width="132.04" height="54"/>
    </clipPath>
  </defs>
  <g id="Warstwa_1-2" data-name="Warstwa 1">
    <g class="cls-4">
      <g>
        <path class="cls-3" d="M67.89,20.74c0-.74.39-1.14,1.14-1.14h1.34c.75,0,1.14.4,1.14,1.14v12.53c0,.75-.4,1.14-1.14,1.14h-1.34c-.75,0-1.14-.39-1.14-1.14v-12.53Z"/>
        <path class="cls-3" d="M77.16,20.74c0-.74.39-1.14,1.14-1.14h1.61c.64,0,1.05.23,1.36.77l3.65,6.15c.58.97,1.24,2.52,1.24,2.52h.04s-.16-1.59-.16-2.52v-5.78c0-.74.39-1.14,1.14-1.14h1.35c.75,0,1.14.4,1.14,1.14v12.53c0,.75-.39,1.14-1.14,1.14h-1.61c-.62,0-1.04-.23-1.35-.77l-3.66-6.12c-.58-.97-1.24-2.52-1.24-2.52h-.04s.17,1.59.17,2.52v5.75c0,.75-.39,1.14-1.14,1.14h-1.34c-.74,0-1.14-.39-1.14-1.14v-12.53Z"/>
        <path class="cls-3" d="M94.84,31.61l.65-.93c.41-.6.89-.65,1.57-.27.48.25,1.41.92,2.69.92,1.07,0,1.57-.46,1.57-1.04,0-2.09-6.54-1.76-6.54-6.4,0-2.73,2.28-4.53,5.28-4.53,1.72,0,3.3.6,4,1.1.6.44.66.96.35,1.56l-.5.97c-.41.8-.97.68-1.56.39-.68-.33-1.36-.68-2.34-.68-1.13,0-1.61.46-1.61,1.03,0,2.15,6.54,1.64,6.54,6.31,0,2.49-1.86,4.62-5.2,4.62-2.07,0-3.91-.85-4.7-1.47-.43-.35-.74-.8-.2-1.57Z"/>
        <path class="cls-3" d="M109.43,20.74c0-.74.39-1.14,1.14-1.14h1.34c.75,0,1.14.4,1.14,1.14v10.56h4.91c.75,0,1.14.39,1.14,1.14v.83c0,.75-.4,1.14-1.14,1.14h-7.39c-.75,0-1.14-.39-1.14-1.14v-12.53Z"/>
        <path class="cls-3" d="M124.11,28.34l-4.12-7.37c-.46-.78-.1-1.37.79-1.37h1.64c.65,0,1.06.27,1.32.85l1.29,2.71c.48,1.02.89,2.13.89,2.13h.04s.42-1.12.89-2.13l1.26-2.71c.27-.58.68-.85,1.32-.85h1.64c.89,0,1.24.58.79,1.37l-4.12,7.37v4.93c0,.75-.39,1.14-1.14,1.14h-1.34c-.75,0-1.14-.39-1.14-1.14v-4.93h0Z"/>
        <path class="cls-1" d="M3.17,23.9c-1.71,1.71-1.71,4.5,0,6.21l20.73,20.73c1.71,1.71,4.5,1.71,6.21,0l20.73-20.73c1.71-1.71,1.71-4.5,0-6.21L30.11,3.16c-1.71-1.71-4.5-1.71-6.21,0L3.17,23.9ZM52.17,31.44l-20.73,20.73c-2.45,2.44-6.43,2.44-8.87,0L1.83,31.44c-2.44-2.45-2.44-6.43,0-8.88L22.57,1.83c2.44-2.44,6.42-2.44,8.87,0l20.73,20.73c2.45,2.44,2.45,6.42,0,8.87Z"/>
        <path class="cls-1" d="M9.24,9.24c-.84.83-1.29,1.94-1.3,3.1v29.32c0,2.42,1.98,4.39,4.39,4.39h29.32c2.34,0,4.39-2.06,4.39-4.39V12.34c0-2.42-1.97-4.39-4.39-4.39H12.34c-1.16,0-2.26.46-3.1,1.29ZM46.09,46.09c-1.19,1.19-2.77,1.84-4.43,1.84H12.34c-3.46,0-6.27-2.82-6.27-6.28V12.34c0-3.34,2.93-6.28,6.28-6.28h29.32c3.46,0,6.27,2.82,6.27,6.28v29.32c0,1.67-.65,3.24-1.84,4.43Z"/>
        <path class="cls-3" d="M15.25,29.21c-.52-.52-.53-1.08,0-1.6l.94-.95c.53-.53,1.08-.52,1.61,0l7.42,7.42,3.45-3.45c.52-.52,1.07-.52,1.6,0l.58.58c.52.52.52,1.07,0,1.6l-5.2,5.2c-.52.52-1.07.52-1.6,0l-8.81-8.81Z"/>
        <path class="cls-3" d="M33.38,32.15c.14-.08.33-.19.51-.35.45-.46.49-1.22.23-1.84l-.2-.5-9.21-3.64c-.8-.31-.93-.93-.32-1.55l1.14-1.13c.48-.48.99-.56,1.57-.26l3.68,1.9c.54.28,1.44.89,1.44.89l.03-.03s-.57-.86-.87-1.37l-2.05-3.57c-.33-.59-.26-1.11.22-1.58l1.06-1.06c.58-.58,1.21-.48,1.56.28l4.64,10.12c1.05,2.3.32,4.19-.87,5.38-.39.4-.84.67-1.24.86-.63.32-1.18.01-1.44-.66l-.23-.61c-.25-.66-.02-1.04.34-1.3Z"/>
      </g>
    </g>
  </g>
</svg>