<?xml version="1.0" encoding="UTF-8" standalone="no"?>
<svg
   id="Warstwa_2"
   data-name="Warstwa 2"
   viewBox="0 0 132.04 54"
   version="1.1"
   sodipodi:docname="insly.svg"
   inkscape:version="1.2.2 (b0a8486541, 2022-12-01)"
   xmlns:inkscape="http://www.inkscape.org/namespaces/inkscape"
   xmlns:sodipodi="http://sodipodi.sourceforge.net/DTD/sodipodi-0.dtd"
   xmlns="http://www.w3.org/2000/svg"
   xmlns:svg="http://www.w3.org/2000/svg">
  <sodipodi:namedview
     id="namedview571"
     pagecolor="#ffffff"
     bordercolor="#000000"
     borderopacity="0.25"
     inkscape:showpageshadow="2"
     inkscape:pageopacity="0.0"
     inkscape:pagecheckerboard="0"
     inkscape:deskcolor="#d1d1d1"
     showgrid="false"
     inkscape:zoom="9.8757957"
     inkscape:cx="66.070625"
     inkscape:cy="27.086425"
     inkscape:window-width="1920"
     inkscape:window-height="1008"
     inkscape:window-x="0"
     inkscape:window-y="0"
     inkscape:window-maximized="1"
     inkscape:current-layer="Warstwa_2" />
  <defs
     id="defs545">
    <style
       id="style540">
      .cls-1 {
        fill: #ff7d00;
      }

      .cls-1, .cls-2, .cls-3 {
        stroke-width: 0px;
      }

      .cls-2 {
        fill: none;
      }

      .cls-3 {
        fill: #575757;
      }

      .cls-4 {
        clip-path: url(#clippath);
      }
    </style>
    <clipPath
       id="clippath">
      <rect
         class="cls-2"
         width="132.04"
         height="54"
         id="rect542" />
    </clipPath>
  </defs>
  <g
     id="Warstwa_1-2"
     data-name="Warstwa 1"
     transform="matrix(0.999,0,0,0.999,0.06602,0.027)">
    <g
       class="cls-4"
       clip-path="url(#clippath)"
       id="g567">
      <g
         id="g565">
        <path
           class="cls-3"
           d="m 67.89,20.74 c 0,-0.74 0.39,-1.14 1.14,-1.14 h 1.34 c 0.75,0 1.14,0.4 1.14,1.14 v 12.53 c 0,0.75 -0.4,1.14 -1.14,1.14 h -1.34 c -0.75,0 -1.14,-0.39 -1.14,-1.14 z"
           id="path547" />
        <path
           class="cls-3"
           d="m 77.16,20.74 c 0,-0.74 0.39,-1.14 1.14,-1.14 h 1.61 c 0.64,0 1.05,0.23 1.36,0.77 l 3.65,6.15 c 0.58,0.97 1.24,2.52 1.24,2.52 h 0.04 c 0,0 -0.16,-1.59 -0.16,-2.52 v -5.78 c 0,-0.74 0.39,-1.14 1.14,-1.14 h 1.35 c 0.75,0 1.14,0.4 1.14,1.14 v 12.53 c 0,0.75 -0.39,1.14 -1.14,1.14 h -1.61 c -0.62,0 -1.04,-0.23 -1.35,-0.77 L 81.91,27.52 C 81.33,26.55 80.67,25 80.67,25 h -0.04 c 0,0 0.17,1.59 0.17,2.52 v 5.75 c 0,0.75 -0.39,1.14 -1.14,1.14 h -1.34 c -0.74,0 -1.14,-0.39 -1.14,-1.14 V 20.74 Z"
           id="path549" />
        <path
           class="cls-3"
           d="m 94.84,31.61 0.65,-0.93 c 0.41,-0.6 0.89,-0.65 1.57,-0.27 0.48,0.25 1.41,0.92 2.69,0.92 1.07,0 1.57,-0.46 1.57,-1.04 0,-2.09 -6.54,-1.76 -6.54,-6.4 0,-2.73 2.28,-4.53 5.28,-4.53 1.72,0 3.3,0.6 4,1.1 0.6,0.44 0.66,0.96 0.35,1.56 l -0.5,0.97 c -0.41,0.8 -0.97,0.68 -1.56,0.39 -0.68,-0.33 -1.36,-0.68 -2.34,-0.68 -1.13,0 -1.61,0.46 -1.61,1.03 0,2.15 6.54,1.64 6.54,6.31 0,2.49 -1.86,4.62 -5.2,4.62 -2.07,0 -3.91,-0.85 -4.7,-1.47 -0.43,-0.35 -0.74,-0.8 -0.2,-1.57 z"
           id="path551" />
        <path
           class="cls-3"
           d="m 109.43,20.74 c 0,-0.74 0.39,-1.14 1.14,-1.14 h 1.34 c 0.75,0 1.14,0.4 1.14,1.14 V 31.3 h 4.91 c 0.75,0 1.14,0.39 1.14,1.14 v 0.83 c 0,0.75 -0.4,1.14 -1.14,1.14 h -7.39 c -0.75,0 -1.14,-0.39 -1.14,-1.14 z"
           id="path553" />
        <path
           class="cls-3"
           d="m 124.11,28.34 -4.12,-7.37 c -0.46,-0.78 -0.1,-1.37 0.79,-1.37 h 1.64 c 0.65,0 1.06,0.27 1.32,0.85 l 1.29,2.71 c 0.48,1.02 0.89,2.13 0.89,2.13 h 0.04 c 0,0 0.42,-1.12 0.89,-2.13 l 1.26,-2.71 c 0.27,-0.58 0.68,-0.85 1.32,-0.85 h 1.64 c 0.89,0 1.24,0.58 0.79,1.37 l -4.12,7.37 v 4.93 c 0,0.75 -0.39,1.14 -1.14,1.14 h -1.34 c -0.75,0 -1.14,-0.39 -1.14,-1.14 v -4.93 0 z"
           id="path555" />
        <path
           class="cls-1"
           d="m 3.17,23.9 c -1.71,1.71 -1.71,4.5 0,6.21 L 23.9,50.84 c 1.71,1.71 4.5,1.71 6.21,0 L 50.84,30.11 c 1.71,-1.71 1.71,-4.5 0,-6.21 L 30.11,3.16 c -1.71,-1.71 -4.5,-1.71 -6.21,0 z m 49,7.54 -20.73,20.73 c -2.45,2.44 -6.43,2.44 -8.87,0 L 1.83,31.44 c -2.44,-2.45 -2.44,-6.43 0,-8.88 L 22.57,1.83 c 2.44,-2.44 6.42,-2.44 8.87,0 l 20.73,20.73 c 2.45,2.44 2.45,6.42 0,8.87 z"
           id="path557" />
        <path
           class="cls-1"
           d="m 9.24,9.24 c -0.84,0.83 -1.29,1.94 -1.3,3.1 v 29.32 c 0,2.42 1.98,4.39 4.39,4.39 h 29.32 c 2.34,0 4.39,-2.06 4.39,-4.39 V 12.34 c 0,-2.42 -1.97,-4.39 -4.39,-4.39 H 12.34 c -1.16,0 -2.26,0.46 -3.1,1.29 z m 36.85,36.85 c -1.19,1.19 -2.77,1.84 -4.43,1.84 H 12.34 c -3.46,0 -6.27,-2.82 -6.27,-6.28 V 12.34 C 6.07,9 9,6.06 12.35,6.06 h 29.32 c 3.46,0 6.27,2.82 6.27,6.28 v 29.32 c 0,1.67 -0.65,3.24 -1.84,4.43 z"
           id="path559" />
        <path
           class="cls-3"
           d="m 15.25,29.21 c -0.52,-0.52 -0.53,-1.08 0,-1.6 l 0.94,-0.95 c 0.53,-0.53 1.08,-0.52 1.61,0 l 7.42,7.42 3.45,-3.45 c 0.52,-0.52 1.07,-0.52 1.6,0 l 0.58,0.58 c 0.52,0.52 0.52,1.07 0,1.6 l -5.2,5.2 c -0.52,0.52 -1.07,0.52 -1.6,0 L 15.24,29.2 Z"
           id="path561" />
        <path
           class="cls-3"
           d="m 33.38,32.15 c 0.14,-0.08 0.33,-0.19 0.51,-0.35 0.45,-0.46 0.49,-1.22 0.23,-1.84 l -0.2,-0.5 -9.21,-3.64 c -0.8,-0.31 -0.93,-0.93 -0.32,-1.55 l 1.14,-1.13 c 0.48,-0.48 0.99,-0.56 1.57,-0.26 l 3.68,1.9 c 0.54,0.28 1.44,0.89 1.44,0.89 l 0.03,-0.03 c 0,0 -0.57,-0.86 -0.87,-1.37 L 29.33,20.7 C 29,20.11 29.07,19.59 29.55,19.12 l 1.06,-1.06 c 0.58,-0.58 1.21,-0.48 1.56,0.28 l 4.64,10.12 c 1.05,2.3 0.32,4.19 -0.87,5.38 -0.39,0.4 -0.84,0.67 -1.24,0.86 -0.63,0.32 -1.18,0.01 -1.44,-0.66 l -0.23,-0.61 c -0.25,-0.66 -0.02,-1.04 0.34,-1.3 z"
           id="path563" />
      </g>
    </g>
  </g>
</svg>
