<?xml version="1.0" encoding="UTF-8"?>
<svg id="Warstwa_2" data-name="Warstwa 2" xmlns="http://www.w3.org/2000/svg" xmlns:xlink="http://www.w3.org/1999/xlink" viewBox="0 0 135.8 54">
  <defs>
    <style>
      .cls-1 {
        fill: #f08819;
      }

      .cls-1, .cls-2, .cls-3 {
        stroke-width: 0px;
      }

      .cls-2 {
        fill: #1e2d52;
      }

      .cls-3 {
        fill: none;
      }

      .cls-4 {
        clip-path: url(#clippath);
      }
    </style>
    <clipPath id="clippath">
      <rect class="cls-3" y="0" width="135.8" height="54"/>
    </clipPath>
  </defs>
  <g id="Warstwa_1-2" data-name="Warstwa 1">
    <g class="cls-4">
      <g>
        <path class="cls-1" d="M35.47,50.36l-14.53.1c-.6,0-.99-.17-1.32-.71l-7.37-12.16,15.17-.06c.52,0,.87.13,1.14.6l6.91,12.22Z"/>
        <path class="cls-1" d="M45.33,14.36l6.31,10.44c.26.43.36.8.07,1.28l-6.42,10.72-6.26-9.92c-.43-.68-.47-1.24-.03-1.97l6.33-10.54h0Z"/>
        <path class="cls-1" d="M36.48,24.18l-10.02.03c-.37,0-.88-.25-1.07-.54l-5.08-8.39,10.42-.07c.32,0,.79.21.94.47l4.81,8.51h0Z"/>
        <path class="cls-1" d="M33.57,2.13l-6.71,10.34c-.19.28-.65.54-.99.55l-11.96-.09,6.49-10.21c.3-.47.64-.67,1.19-.67l11.98.09h0Z"/>
        <path class="cls-1" d="M37.37,46.09l-5.05-8.62c-.16-.28-.23-.79-.08-1.04l5.19-8.6,5.16,8.4c.24.4.28.73.03,1.14l-5.25,8.72Z"/>
        <path class="cls-1" d="M18.34,35.16l-5.19-8.51c-.16-.28-.22-.79-.07-1.04l5.33-8.76,4.94,8.35c.18.32.25.89.08,1.19l-5.09,8.77Z"/>
        <path class="cls-1" d="M16.13,15.77l-5.02,8.24c-.19.3-.62.63-.94.64l-10.17-.1,5-8.28c.18-.28.59-.57.89-.57l10.23.07h0Z"/>
        <path class="cls-1" d="M38.05,21.7l-3.77-6.89c-.13-.25-.19-.69-.07-.92l3.85-6.8,4.22,6.85c.12.2.16.58.05.77l-4.28,7h0Z"/>
        <path class="cls-2" d="M60.17,0h-1.81v52.05h1.81V0Z"/>
        <path class="cls-2" d="M73.08,23.06c-1.12,0-1.99.39-2.63,1.18-.64.79-.96,1.88-.96,3.27s.31,2.55.92,3.3c.61.75,1.5,1.12,2.67,1.12.5,0,.99-.05,1.46-.15.47-.1.96-.23,1.47-.39v1.66c-.93.35-1.99.53-3.17.53-1.74,0-3.07-.52-4-1.58-.93-1.05-1.4-2.56-1.4-4.51,0-1.23.23-2.31.68-3.23.45-.92,1.1-1.63,1.96-2.12.86-.49,1.86-.74,3.01-.74,1.21,0,2.33.25,3.36.76l-.7,1.61c-.4-.19-.82-.36-1.27-.5-.45-.14-.91-.21-1.41-.21h0Z"/>
        <path class="cls-2" d="M82.24,33.58c-1.4,0-2.49-.41-3.28-1.22-.79-.81-1.18-1.93-1.18-3.36s.37-2.61,1.1-3.45c.73-.84,1.73-1.26,3.01-1.26,1.18,0,2.12.36,2.81,1.08.69.72,1.03,1.71,1.03,2.96v1.03h-5.98c.03.87.26,1.54.71,2.01.44.47,1.07.7,1.87.7.53,0,1.02-.05,1.48-.15.46-.1.95-.27,1.47-.5v1.55c-.47.22-.94.38-1.41.47-.48.09-1.02.14-1.63.14h0ZM81.89,25.74c-.61,0-1.09.19-1.46.58-.37.38-.58.94-.65,1.68h4.07c-.01-.74-.19-1.3-.53-1.68-.35-.38-.82-.57-1.43-.57Z"/>
        <path class="cls-2" d="M95.74,33.42h-1.92v-5.51c0-.69-.14-1.21-.42-1.55-.28-.34-.72-.51-1.33-.51-.8,0-1.4.24-1.77.71-.37.47-.56,1.27-.56,2.39v4.46h-1.91v-8.96h1.49l.27,1.17h.1c.27-.43.66-.76,1.15-.99.5-.23,1.05-.35,1.66-.35,2.15,0,3.23,1.09,3.23,3.28v5.84Z"/>
        <path class="cls-2" d="M101.69,32.04c.47,0,.93-.07,1.4-.22v1.43c-.21.09-.48.17-.82.23-.33.06-.68.09-1.04.09-1.81,0-2.71-.95-2.71-2.85v-4.83h-1.23v-.84l1.32-.7.65-1.9h1.18v1.99h2.56v1.44h-2.56v4.8c0,.46.12.8.34,1.02.23.22.53.33.91.33h0Z"/>
        <path class="cls-2" d="M109.39,24.3c.39,0,.7.03.95.08l-.19,1.78c-.27-.07-.55-.1-.84-.1-.76,0-1.38.25-1.86.74-.48.49-.71,1.14-.71,1.94v4.68h-1.91v-8.96h1.49l.25,1.58h.1c.3-.53.69-.96,1.16-1.27.48-.31.99-.47,1.55-.47h0Z"/>
        <path class="cls-2" d="M118.28,33.42l-.27-1.17h-.1c-.26.42-.64.74-1.13.98-.49.24-1.05.36-1.68.36-1.09,0-1.9-.27-2.44-.81-.53-.54-.8-1.36-.8-2.45v-5.86h1.92v5.53c0,.68.14,1.2.42,1.54.28.34.72.52,1.32.52.8,0,1.39-.24,1.77-.72.38-.48.56-1.28.56-2.4v-4.46h1.92v8.96h-1.5Z"/>
        <path class="cls-2" d="M130.02,33.42h-1.92v-5.53c0-.68-.13-1.2-.39-1.54-.26-.34-.67-.51-1.22-.51-.74,0-1.28.24-1.62.72-.34.48-.51,1.27-.51,2.39v4.46h-1.91v-8.96h1.49l.27,1.17h.1c.25-.43.61-.76,1.08-.99.48-.23.99-.35,1.56-.35,1.38,0,2.29.47,2.74,1.41h.13c.26-.44.64-.79,1.12-1.04.48-.25,1.03-.37,1.66-.37,1.07,0,1.85.27,2.34.81.49.54.73,1.36.73,2.47v5.84h-1.91v-5.53c0-.68-.13-1.2-.39-1.54-.26-.34-.67-.51-1.22-.51-.74,0-1.28.23-1.63.69-.34.46-.52,1.17-.52,2.13v4.75h0Z"/>
        <path class="cls-2" d="M75.39,50.01l-1.18-3.29h-4.54l-1.16,3.29h-2.05l4.44-11.89h2.11l4.44,11.89h-2.06ZM73.7,45.05l-1.11-3.22c-.08-.22-.19-.56-.34-1.02-.15-.46-.24-.81-.3-1.02-.15.66-.36,1.39-.64,2.18l-1.07,3.09h3.46Z"/>
        <path class="cls-2" d="M86.79,50.01h-1.92v-5.51c0-.69-.14-1.21-.42-1.55s-.72-.51-1.33-.51c-.8,0-1.4.24-1.77.71-.37.47-.56,1.27-.56,2.39v4.46h-1.91v-8.96h1.49l.27,1.17h.1c.27-.43.66-.76,1.15-.99.5-.23,1.05-.35,1.66-.35,2.15,0,3.23,1.09,3.23,3.28v5.84Z"/>
        <path class="cls-2" d="M95.12,50.01l-.38-1.25h-.07c-.43.55-.87.92-1.31,1.11-.44.2-1,.3-1.69.3-.88,0-1.57-.24-2.07-.71-.5-.47-.74-1.15-.74-2.02,0-.92.34-1.62,1.03-2.09.69-.47,1.73-.73,3.14-.77l1.55-.05v-.48c0-.57-.13-1-.4-1.28-.27-.28-.68-.42-1.25-.42-.46,0-.9.07-1.32.2-.42.13-.83.29-1.22.48l-.62-1.36c.49-.25,1.02-.45,1.6-.58.58-.13,1.13-.2,1.64-.2,1.14,0,2,.25,2.59.74.58.5.87,1.28.87,2.34v6.03h-1.36,0ZM92.28,48.72c.69,0,1.25-.19,1.67-.58.42-.39.63-.93.63-1.62v-.78l-1.15.05c-.9.03-1.55.18-1.96.45-.41.27-.61.68-.61,1.23,0,.4.12.71.36.93.24.22.59.33,1.07.33h0Z"/>
        <path class="cls-2" d="M101.13,50.01h-1.91v-12.61h1.91v12.61Z"/>
        <path class="cls-2" d="M103.8,38.68c0-.34.1-.6.28-.79.19-.18.45-.28.8-.28s.6.09.78.28c.19.18.28.44.28.79s-.1.58-.28.76c-.19.19-.45.28-.78.28s-.61-.09-.8-.28c-.19-.19-.28-.44-.28-.76ZM105.83,50.01h-1.91v-8.96h1.91v8.96Z"/>
        <path class="cls-2" d="M111.97,48.63c.47,0,.93-.07,1.4-.22v1.43c-.21.09-.48.17-.82.23-.33.06-.68.09-1.04.09-1.81,0-2.71-.95-2.71-2.85v-4.83h-1.23v-.84l1.32-.7.65-1.9h1.18v1.99h2.56v1.44h-2.56v4.8c0,.46.12.8.34,1.02.23.22.53.33.91.33h0Z"/>
        <path class="cls-2" d="M113.86,41.05h2.08l1.83,5.08c.28.72.46,1.41.55,2.04h.07c.05-.3.14-.66.27-1.08.13-.42.82-2.44,2.06-6.04h2.06l-3.84,10.15c-.7,1.86-1.86,2.8-3.49,2.8-.42,0-.83-.04-1.23-.14v-1.51c.29.07.61.1.98.1.92,0,1.57-.53,1.94-1.6l.33-.84-3.61-8.96h0Z"/>
        <path class="cls-2" d="M126.05,45.28l1.08-1.35,2.71-2.88h2.2l-3.61,3.85,3.84,5.11h-2.24l-2.88-3.93-1.05.86v3.07h-1.89v-12.61h1.89v6.15l-.1,1.73h.05,0Z"/>
        <path class="cls-2" d="M133.66,38.68c0-.34.1-.6.28-.79.19-.18.45-.28.8-.28s.6.09.78.28c.19.18.28.44.28.79s-.1.58-.28.76c-.19.19-.45.28-.78.28s-.61-.09-.8-.28c-.19-.19-.28-.44-.28-.76ZM135.68,50.01h-1.91v-8.96h1.91v8.96Z"/>
        <path class="cls-2" d="M120.29,16.69h3.93v-8.23l3.68,5.6h.08l3.7-5.64v8.28h3.99V2.29h-4.23l-3.46,5.58-3.45-5.58h-4.24v14.41Z"/>
        <path class="cls-2" d="M72.15,2.29h-4.01v14.41h4.01V2.29Z"/>
        <path class="cls-2" d="M77.08,9.3l5.67,7.4h-4.81l-5.69-7.38,5.57-7.02h4.71l-5.45,7.01Z"/>
        <path class="cls-2" d="M94.31,9.44v3.46c-.6.39-1.35.6-2.32.6-2.29,0-3.93-1.67-3.93-3.99v-.04c0-2.2,1.61-3.95,3.7-3.95,1.43,0,2.46.49,3.5,1.36l2.36-2.82c-1.53-1.32-3.33-2.1-5.87-2.1-4.48,0-7.79,3.29-7.79,7.49v.04c0,4.36,3.37,7.45,7.88,7.45,2.63,0,4.75-.97,6.29-2.22v-5.27h-3.8Z"/>
        <path class="cls-2" d="M102.31,16.69h4.01v-5.47h5.15v5.47h4.01V2.29h-4.01v5.39h-5.15V2.29h-4.01v14.41Z"/>
      </g>
    </g>
  </g>
</svg>