<?xml version="1.0" encoding="UTF-8" standalone="no"?>
<svg
   id="Warstwa_2"
   data-name="Warstwa 2"
   viewBox="0 0 136.8 55"
   version="1.1"
   sodipodi:docname="kghm.svg"
   inkscape:version="1.2.2 (b0a8486541, 2022-12-01)"
   width="136.8"
   height="55"
   xmlns:inkscape="http://www.inkscape.org/namespaces/inkscape"
   xmlns:sodipodi="http://sodipodi.sourceforge.net/DTD/sodipodi-0.dtd"
   xmlns="http://www.w3.org/2000/svg"
   xmlns:svg="http://www.w3.org/2000/svg">
  <sodipodi:namedview
     id="namedview817"
     pagecolor="#ffffff"
     bordercolor="#000000"
     borderopacity="0.25"
     inkscape:showpageshadow="2"
     inkscape:pageopacity="0.0"
     inkscape:pagecheckerboard="0"
     inkscape:deskcolor="#d1d1d1"
     showgrid="false"
     inkscape:zoom="9.6023562"
     inkscape:cx="67.952072"
     inkscape:cy="27.024617"
     inkscape:window-width="1920"
     inkscape:window-height="1008"
     inkscape:window-x="0"
     inkscape:window-y="0"
     inkscape:window-maximized="1"
     inkscape:current-layer="Warstwa_2" />
  <defs
     id="defs749">
    <style
       id="style744">
      .cls-1 {
        fill: #f08819;
      }

      .cls-1, .cls-2, .cls-3 {
        stroke-width: 0px;
      }

      .cls-2 {
        fill: #1e2d52;
      }

      .cls-3 {
        fill: none;
      }

      .cls-4 {
        clip-path: url(#clippath);
      }
    </style>
    <clipPath
       id="clippath">
      <rect
         class="cls-3"
         y="0"
         width="135.8"
         height="54"
         id="rect746"
         x="0" />
    </clipPath>
  </defs>
  <g
     id="Warstwa_1-2"
     data-name="Warstwa 1"
     transform="matrix(0.999,0,0,0.999,0.48446443,0.86012885)">
    <g
       class="cls-4"
       clip-path="url(#clippath)"
       id="g813">
      <g
         id="g811">
        <path
           class="cls-1"
           d="m 35.47,50.36 -14.53,0.1 c -0.6,0 -0.99,-0.17 -1.32,-0.71 L 12.25,37.59 27.42,37.53 c 0.52,0 0.87,0.13 1.14,0.6 l 6.91,12.22 z"
           id="path751" />
        <path
           class="cls-1"
           d="m 45.33,14.36 6.31,10.44 c 0.26,0.43 0.36,0.8 0.07,1.28 L 45.29,36.8 39.03,26.88 C 38.6,26.2 38.56,25.64 39,24.91 l 6.33,-10.54 v 0 z"
           id="path753" />
        <path
           class="cls-1"
           d="m 36.48,24.18 -10.02,0.03 c -0.37,0 -0.88,-0.25 -1.07,-0.54 l -5.08,-8.39 10.42,-0.07 c 0.32,0 0.79,0.21 0.94,0.47 l 4.81,8.51 v 0 z"
           id="path755" />
        <path
           class="cls-1"
           d="m 33.57,2.13 -6.71,10.34 c -0.19,0.28 -0.65,0.54 -0.99,0.55 L 13.91,12.93 20.4,2.72 c 0.3,-0.47 0.64,-0.67 1.19,-0.67 l 11.98,0.09 v 0 z"
           id="path757" />
        <path
           class="cls-1"
           d="m 37.37,46.09 -5.05,-8.62 c -0.16,-0.28 -0.23,-0.79 -0.08,-1.04 l 5.19,-8.6 5.16,8.4 c 0.24,0.4 0.28,0.73 0.03,1.14 z"
           id="path759" />
        <path
           class="cls-1"
           d="m 18.34,35.16 -5.19,-8.51 c -0.16,-0.28 -0.22,-0.79 -0.07,-1.04 l 5.33,-8.76 4.94,8.35 c 0.18,0.32 0.25,0.89 0.08,1.19 z"
           id="path761" />
        <path
           class="cls-1"
           d="m 16.13,15.77 -5.02,8.24 c -0.19,0.3 -0.62,0.63 -0.94,0.64 L 0,24.55 5,16.27 C 5.18,15.99 5.59,15.7 5.89,15.7 l 10.23,0.07 v 0 z"
           id="path763" />
        <path
           class="cls-1"
           d="m 38.05,21.7 -3.77,-6.89 c -0.13,-0.25 -0.19,-0.69 -0.07,-0.92 l 3.85,-6.8 4.22,6.85 c 0.12,0.2 0.16,0.58 0.05,0.77 l -4.28,7 v 0 z"
           id="path765" />
        <path
           class="cls-2"
           d="m 60.17,0 h -1.81 v 52.05 h 1.81 z"
           id="path767" />
        <path
           class="cls-2"
           d="m 73.08,23.06 c -1.12,0 -1.99,0.39 -2.63,1.18 -0.64,0.79 -0.96,1.88 -0.96,3.27 0,1.39 0.31,2.55 0.92,3.3 0.61,0.75 1.5,1.12 2.67,1.12 0.5,0 0.99,-0.05 1.46,-0.15 0.47,-0.1 0.96,-0.23 1.47,-0.39 v 1.66 c -0.93,0.35 -1.99,0.53 -3.17,0.53 -1.74,0 -3.07,-0.52 -4,-1.58 -0.93,-1.05 -1.4,-2.56 -1.4,-4.51 0,-1.23 0.23,-2.31 0.68,-3.23 0.45,-0.92 1.1,-1.63 1.96,-2.12 0.86,-0.49 1.86,-0.74 3.01,-0.74 1.21,0 2.33,0.25 3.36,0.76 l -0.7,1.61 c -0.4,-0.19 -0.82,-0.36 -1.27,-0.5 -0.45,-0.14 -0.91,-0.21 -1.41,-0.21 v 0 z"
           id="path769" />
        <path
           class="cls-2"
           d="m 82.24,33.58 c -1.4,0 -2.49,-0.41 -3.28,-1.22 -0.79,-0.81 -1.18,-1.93 -1.18,-3.36 0,-1.43 0.37,-2.61 1.1,-3.45 0.73,-0.84 1.73,-1.26 3.01,-1.26 1.18,0 2.12,0.36 2.81,1.08 0.69,0.72 1.03,1.71 1.03,2.96 v 1.03 h -5.98 c 0.03,0.87 0.26,1.54 0.71,2.01 0.44,0.47 1.07,0.7 1.87,0.7 0.53,0 1.02,-0.05 1.48,-0.15 0.46,-0.1 0.95,-0.27 1.47,-0.5 v 1.55 c -0.47,0.22 -0.94,0.38 -1.41,0.47 -0.48,0.09 -1.02,0.14 -1.63,0.14 z m -0.35,-7.84 c -0.61,0 -1.09,0.19 -1.46,0.58 -0.37,0.38 -0.58,0.94 -0.65,1.68 h 4.07 C 83.84,27.26 83.66,26.7 83.32,26.32 82.97,25.94 82.5,25.75 81.89,25.75 Z"
           id="path771" />
        <path
           class="cls-2"
           d="m 95.74,33.42 h -1.92 v -5.51 c 0,-0.69 -0.14,-1.21 -0.42,-1.55 -0.28,-0.34 -0.72,-0.51 -1.33,-0.51 -0.8,0 -1.4,0.24 -1.77,0.71 -0.37,0.47 -0.56,1.27 -0.56,2.39 v 4.46 h -1.91 v -8.96 h 1.49 l 0.27,1.17 h 0.1 c 0.27,-0.43 0.66,-0.76 1.15,-0.99 0.5,-0.23 1.05,-0.35 1.66,-0.35 2.15,0 3.23,1.09 3.23,3.28 v 5.84 z"
           id="path773" />
        <path
           class="cls-2"
           d="m 101.69,32.04 c 0.47,0 0.93,-0.07 1.4,-0.22 v 1.43 c -0.21,0.09 -0.48,0.17 -0.82,0.23 -0.33,0.06 -0.68,0.09 -1.04,0.09 -1.81,0 -2.71,-0.95 -2.71,-2.85 v -4.83 h -1.23 v -0.84 l 1.32,-0.7 0.65,-1.9 h 1.18 v 1.99 H 103 v 1.44 h -2.56 v 4.8 c 0,0.46 0.12,0.8 0.34,1.02 0.23,0.22 0.53,0.33 0.91,0.33 v 0 z"
           id="path775" />
        <path
           class="cls-2"
           d="m 109.39,24.3 c 0.39,0 0.7,0.03 0.95,0.08 l -0.19,1.78 c -0.27,-0.07 -0.55,-0.1 -0.84,-0.1 -0.76,0 -1.38,0.25 -1.86,0.74 -0.48,0.49 -0.71,1.14 -0.71,1.94 v 4.68 h -1.91 v -8.96 h 1.49 l 0.25,1.58 h 0.1 c 0.3,-0.53 0.69,-0.96 1.16,-1.27 0.48,-0.31 0.99,-0.47 1.55,-0.47 v 0 z"
           id="path777" />
        <path
           class="cls-2"
           d="m 118.28,33.42 -0.27,-1.17 h -0.1 c -0.26,0.42 -0.64,0.74 -1.13,0.98 -0.49,0.24 -1.05,0.36 -1.68,0.36 -1.09,0 -1.9,-0.27 -2.44,-0.81 -0.53,-0.54 -0.8,-1.36 -0.8,-2.45 v -5.86 h 1.92 V 30 c 0,0.68 0.14,1.2 0.42,1.54 0.28,0.34 0.72,0.52 1.32,0.52 0.8,0 1.39,-0.24 1.77,-0.72 0.38,-0.48 0.56,-1.28 0.56,-2.4 v -4.46 h 1.92 v 8.96 h -1.5 z"
           id="path779" />
        <path
           class="cls-2"
           d="m 130.02,33.42 h -1.92 v -5.53 c 0,-0.68 -0.13,-1.2 -0.39,-1.54 -0.26,-0.34 -0.67,-0.51 -1.22,-0.51 -0.74,0 -1.28,0.24 -1.62,0.72 -0.34,0.48 -0.51,1.27 -0.51,2.39 v 4.46 h -1.91 v -8.96 h 1.49 l 0.27,1.17 h 0.1 c 0.25,-0.43 0.61,-0.76 1.08,-0.99 0.48,-0.23 0.99,-0.35 1.56,-0.35 1.38,0 2.29,0.47 2.74,1.41 h 0.13 c 0.26,-0.44 0.64,-0.79 1.12,-1.04 0.48,-0.25 1.03,-0.37 1.66,-0.37 1.07,0 1.85,0.27 2.34,0.81 0.49,0.54 0.73,1.36 0.73,2.47 v 5.84 h -1.91 v -5.53 c 0,-0.68 -0.13,-1.2 -0.39,-1.54 -0.26,-0.34 -0.67,-0.51 -1.22,-0.51 -0.74,0 -1.28,0.23 -1.63,0.69 -0.34,0.46 -0.52,1.17 -0.52,2.13 v 4.75 0 z"
           id="path781" />
        <path
           class="cls-2"
           d="m 75.39,50.01 -1.18,-3.29 h -4.54 l -1.16,3.29 H 66.46 L 70.9,38.12 h 2.11 l 4.44,11.89 z M 73.7,45.05 72.59,41.83 C 72.51,41.61 72.4,41.27 72.25,40.81 72.1,40.35 72.01,40 71.95,39.79 c -0.15,0.66 -0.36,1.39 -0.64,2.18 l -1.07,3.09 h 3.46 z"
           id="path783" />
        <path
           class="cls-2"
           d="M 86.79,50.01 H 84.87 V 44.5 c 0,-0.69 -0.14,-1.21 -0.42,-1.55 -0.28,-0.34 -0.72,-0.51 -1.33,-0.51 -0.8,0 -1.4,0.24 -1.77,0.71 -0.37,0.47 -0.56,1.27 -0.56,2.39 V 50 h -1.91 v -8.96 h 1.49 l 0.27,1.17 h 0.1 c 0.27,-0.43 0.66,-0.76 1.15,-0.99 0.5,-0.23 1.05,-0.35 1.66,-0.35 2.15,0 3.23,1.09 3.23,3.28 v 5.84 z"
           id="path785" />
        <path
           class="cls-2"
           d="m 95.12,50.01 -0.38,-1.25 h -0.07 c -0.43,0.55 -0.87,0.92 -1.31,1.11 -0.44,0.2 -1,0.3 -1.69,0.3 -0.88,0 -1.57,-0.24 -2.07,-0.71 -0.5,-0.47 -0.74,-1.15 -0.74,-2.02 0,-0.92 0.34,-1.62 1.03,-2.09 0.69,-0.47 1.73,-0.73 3.14,-0.77 l 1.55,-0.05 v -0.48 c 0,-0.57 -0.13,-1 -0.4,-1.28 -0.27,-0.28 -0.68,-0.42 -1.25,-0.42 -0.46,0 -0.9,0.07 -1.32,0.2 -0.42,0.13 -0.83,0.29 -1.22,0.48 l -0.62,-1.36 c 0.49,-0.25 1.02,-0.45 1.6,-0.58 0.58,-0.13 1.13,-0.2 1.64,-0.2 1.14,0 2,0.25 2.59,0.74 0.58,0.5 0.87,1.28 0.87,2.34 V 50 h -1.36 v 0 z m -2.84,-1.29 c 0.69,0 1.25,-0.19 1.67,-0.58 0.42,-0.39 0.63,-0.93 0.63,-1.62 v -0.78 l -1.15,0.05 c -0.9,0.03 -1.55,0.18 -1.96,0.45 -0.41,0.27 -0.61,0.68 -0.61,1.23 0,0.4 0.12,0.71 0.36,0.93 0.24,0.22 0.59,0.33 1.07,0.33 v 0 z"
           id="path787" />
        <path
           class="cls-2"
           d="M 101.13,50.01 H 99.22 V 37.4 h 1.91 z"
           id="path789" />
        <path
           class="cls-2"
           d="m 103.8,38.68 c 0,-0.34 0.1,-0.6 0.28,-0.79 0.19,-0.18 0.45,-0.28 0.8,-0.28 0.35,0 0.6,0.09 0.78,0.28 0.19,0.18 0.28,0.44 0.28,0.79 0,0.35 -0.1,0.58 -0.28,0.76 -0.19,0.19 -0.45,0.28 -0.78,0.28 -0.33,0 -0.61,-0.09 -0.8,-0.28 -0.19,-0.19 -0.28,-0.44 -0.28,-0.76 z m 2.03,11.33 h -1.91 v -8.96 h 1.91 z"
           id="path791" />
        <path
           class="cls-2"
           d="m 111.97,48.63 c 0.47,0 0.93,-0.07 1.4,-0.22 v 1.43 c -0.21,0.09 -0.48,0.17 -0.82,0.23 -0.33,0.06 -0.68,0.09 -1.04,0.09 -1.81,0 -2.71,-0.95 -2.71,-2.85 v -4.83 h -1.23 v -0.84 l 1.32,-0.7 0.65,-1.9 h 1.18 v 1.99 h 2.56 v 1.44 h -2.56 v 4.8 c 0,0.46 0.12,0.8 0.34,1.02 0.23,0.22 0.53,0.33 0.91,0.33 v 0 z"
           id="path793" />
        <path
           class="cls-2"
           d="m 113.86,41.05 h 2.08 l 1.83,5.08 c 0.28,0.72 0.46,1.41 0.55,2.04 h 0.07 c 0.05,-0.3 0.14,-0.66 0.27,-1.08 0.13,-0.42 0.82,-2.44 2.06,-6.04 h 2.06 l -3.84,10.15 c -0.7,1.86 -1.86,2.8 -3.49,2.8 -0.42,0 -0.83,-0.04 -1.23,-0.14 v -1.51 c 0.29,0.07 0.61,0.1 0.98,0.1 0.92,0 1.57,-0.53 1.94,-1.6 l 0.33,-0.84 z"
           id="path795" />
        <path
           class="cls-2"
           d="m 126.05,45.28 1.08,-1.35 2.71,-2.88 h 2.2 l -3.61,3.85 3.84,5.11 h -2.24 l -2.88,-3.93 -1.05,0.86 v 3.07 h -1.89 V 37.4 h 1.89 v 6.15 l -0.1,1.73 z"
           id="path797" />
        <path
           class="cls-2"
           d="m 133.66,38.68 c 0,-0.34 0.1,-0.6 0.28,-0.79 0.19,-0.18 0.45,-0.28 0.8,-0.28 0.35,0 0.6,0.09 0.78,0.28 0.19,0.18 0.28,0.44 0.28,0.79 0,0.35 -0.1,0.58 -0.28,0.76 -0.19,0.19 -0.45,0.28 -0.78,0.28 -0.33,0 -0.61,-0.09 -0.8,-0.28 -0.19,-0.19 -0.28,-0.44 -0.28,-0.76 z m 2.02,11.33 h -1.91 v -8.96 h 1.91 z"
           id="path799" />
        <path
           class="cls-2"
           d="m 120.29,16.69 h 3.93 V 8.46 l 3.68,5.6 h 0.08 l 3.7,-5.64 v 8.28 h 3.99 V 2.29 h -4.23 l -3.46,5.58 -3.45,-5.58 h -4.24 V 16.7 Z"
           id="path801" />
        <path
           class="cls-2"
           d="M 72.15,2.29 H 68.14 V 16.7 h 4.01 z"
           id="path803" />
        <path
           class="cls-2"
           d="m 77.08,9.3 5.67,7.4 H 77.94 L 72.25,9.32 77.82,2.3 h 4.71 l -5.45,7.01 z"
           id="path805" />
        <path
           class="cls-2"
           d="m 94.31,9.44 v 3.46 c -0.6,0.39 -1.35,0.6 -2.32,0.6 -2.29,0 -3.93,-1.67 -3.93,-3.99 V 9.47 c 0,-2.2 1.61,-3.95 3.7,-3.95 1.43,0 2.46,0.49 3.5,1.36 l 2.36,-2.82 c -1.53,-1.32 -3.33,-2.1 -5.87,-2.1 -4.48,0 -7.79,3.29 -7.79,7.49 v 0.04 c 0,4.36 3.37,7.45 7.88,7.45 2.63,0 4.75,-0.97 6.29,-2.22 V 9.45 h -3.8 z"
           id="path807" />
        <path
           class="cls-2"
           d="m 102.31,16.69 h 4.01 v -5.47 h 5.15 v 5.47 h 4.01 V 2.29 h -4.01 v 5.39 h -5.15 V 2.29 h -4.01 V 16.7 Z"
           id="path809" />
      </g>
    </g>
  </g>
</svg>
