<?xml version="1.0" encoding="UTF-8"?>
<svg id="Warstwa_1" data-name="Warstwa 1" xmlns="http://www.w3.org/2000/svg" version="1.1" viewBox="0 0 248 123.9">
  <defs>
    <style>
      .cls-1 {
        fill: #30aee5;
      }

      .cls-1, .cls-2 {
        stroke-width: 0px;
      }

      .cls-2 {
        fill: #28253f;
      }
    </style>
  </defs>
  <path class="cls-2" d="M67.1,84.1c-4.7,0-8.6-1-11.7-2.9s-5.4-4.9-6.5-8.2l10.7-5.8c1.4,3.7,4,5.5,7.8,5.5s4.2-.7,4.2-2.2-.1-.8-.3-1.1-.6-.6-1.2-.8c-.6-.3-1.1-.5-1.5-.6s-1.2-.3-2.2-.7c-1.1-.3-1.9-.5-2.4-.7-8.6-2.6-12.9-7.2-12.9-13.9s1.4-7.2,4.2-9.8c2.9-2.5,6.6-3.9,11.3-3.9s6.9.8,9.8,2.6,5,4.2,6.3,7.5l-10.2,6c-1.2-3-3.1-4.6-5.9-4.6s-1.9.2-2.4.7-.8,1-.8,1.6.5,1.6,1.4,2.1,2.8,1.1,5.6,1.9c2,.6,3.7,1.2,5,1.8,1.3.5,2.7,1.3,4.1,2.4,1.4,1,2.5,2.3,3.2,3.9s1.1,3.5,1.1,5.6c0,4.4-1.5,7.8-4.5,10.2-2.8,2.4-6.9,3.6-12.1,3.6"/>
  <path class="cls-2" d="M92.7,50c-1.7,0-3.2-.7-4.4-1.9-1.2-1.2-1.9-2.8-1.9-4.4s.7-3.1,1.9-4.4c1.2-1.2,2.8-1.9,4.4-1.9s3.1.7,4.4,1.9,1.9,2.8,1.9,4.4-.7,3.1-1.9,4.4c-1.2,1.3-2.7,1.9-4.4,1.9M87,52.4h11.4v30.8h-11.4s0-30.8,0-30.8Z"/>
  <path class="cls-2" d="M139.6,51.5c3.6,0,6.4,1.1,8.4,3.3s3,5.4,3,9.6v18.7h-11.4v-17.2c0-2.4-1.1-3.5-3.1-3.5s-3.6,1.5-3.6,4.6v16.1h-11.4v-17.2c0-2.4-1.1-3.5-3.1-3.5s-3.6,1.5-3.6,4.6v16.1h-11.4v-30.8h11.4v2.9c2-2.5,4.8-3.7,8.4-3.7s6.1,1.2,7.7,3.8c2.2-2.5,5.2-3.8,8.8-3.8"/>
  <path class="cls-2" d="M175.1,51.5c4.1,0,7.5,1.6,10.1,4.7s3.9,6.9,3.9,11.6-1.3,8.6-3.9,11.7-6,4.7-10.1,4.7-6.3-1.2-8.2-3.7v15.1h-11.4v-43.1h11.4v2.8c2-2.4,4.7-3.6,8.2-3.6M168.3,71.9c1,1.1,2.4,1.6,4,1.6s2.9-.5,4-1.6c1-1.1,1.5-2.5,1.5-4.1s-.5-3-1.5-4.1c-1-1.1-2.4-1.6-4-1.6s-2.9.5-4,1.6c-1,1.1-1.5,2.5-1.5,4.1s.5,3,1.5,4.1"/>
  <polygon class="cls-2" points="192.8 83.1 192.8 44.9 204.1 38.2 204.1 83.1 192.8 83.1"/>
  <path class="cls-2" d="M239.5,71.6c.3-1.3.5-2.6.5-4s-.1-2.9-.5-4.2c-.6-2.8-2-5.2-4.1-7.3-3-3.1-6.9-4.6-11.5-4.6s-8.6,1.6-11.7,4.7-4.6,7-4.6,11.7,1.6,8.5,4.8,11.5c3.2,3.1,7.4,4.6,12.6,4.6s7.8-1,10.6-2.9l-4.9-8.4h0c-1.6,1.2-3.3,1.9-5.2,1.9-3.2,0-5.3-1.1-6.3-3.1h20.4ZM218.9,64.3c.9-2.5,2.7-3.7,5.4-3.7s4.3,1.2,5,3.7h-10.3Z"/>
  <path class="cls-1" d="M52.1,61.6c0,12.4-10.1,22.5-22.5,22.5s-22.5-10.1-22.5-22.5,10.1-22.5,22.5-22.5,22.5,10.1,22.5,22.5"/>
</svg>
