<?xml version="1.0" encoding="UTF-8" standalone="no"?>
<svg
   id="Warstwa_1"
   data-name="Warstwa 1"
   version="1.1"
   viewBox="0 0 271 123.9"
   sodipodi:docname="simple.svg"
   inkscape:version="1.2.2 (b0a8486541, 2022-12-01)"
   width="271"
   height="123.9"
   xmlns:inkscape="http://www.inkscape.org/namespaces/inkscape"
   xmlns:sodipodi="http://sodipodi.sourceforge.net/DTD/sodipodi-0.dtd"
   xmlns="http://www.w3.org/2000/svg"
   xmlns:svg="http://www.w3.org/2000/svg">
  <sodipodi:namedview
     id="namedview890"
     pagecolor="#ffffff"
     bordercolor="#000000"
     borderopacity="0.25"
     inkscape:showpageshadow="2"
     inkscape:pageopacity="0.0"
     inkscape:pagecheckerboard="0"
     inkscape:deskcolor="#d1d1d1"
     showgrid="false"
     inkscape:zoom="5.2580645"
     inkscape:cx="124.09509"
     inkscape:cy="62.095092"
     inkscape:window-width="2560"
     inkscape:window-height="1368"
     inkscape:window-x="1920"
     inkscape:window-y="0"
     inkscape:window-maximized="1"
     inkscape:current-layer="Warstwa_1" />
  <defs
     id="defs873">
    <style
       id="style871">
      .cls-1 {
        fill: #30aee5;
      }

      .cls-1, .cls-2 {
        stroke-width: 0px;
      }

      .cls-2 {
        fill: #28253f;
      }
    </style>
  </defs>
  <path
     class="cls-2"
     d="m 70.340069,97.280865 c -5.221964,0 -9.555084,-1.143782 -12.999358,-3.316966 -3.444275,-2.173186 -5.999706,-5.604531 -7.221868,-9.379011 l 11.888304,-6.633934 c 1.555478,4.231993 4.444226,6.290799 8.66624,6.290799 4.222014,0 4.666436,-0.800646 4.666436,-2.516319 0,-1.715673 -0.111105,-0.915026 -0.333316,-1.25816 -0.222212,-0.343135 -0.666634,-0.686269 -1.333268,-0.915026 -0.666634,-0.343134 -1.222162,-0.571891 -1.666584,-0.686269 -0.444424,-0.114378 -1.333268,-0.343134 -2.444324,-0.800647 -1.222162,-0.343135 -2.111008,-0.57189 -2.666536,-0.800647 -9.555084,-2.973833 -14.332628,-8.235229 -14.332628,-15.898567 0,-7.663338 1.555479,-8.235228 4.666438,-11.209061 3.222062,-2.859453 7.332972,-4.460748 12.554937,-4.460748 5.221965,0 7.666289,0.915025 10.888351,2.973832 3.222064,2.058807 5.555283,4.803884 6.999656,8.578363 l -11.332775,6.862691 c -1.333267,-3.431346 -3.444275,-5.261396 -6.555232,-5.261396 -3.110959,0 -2.111007,0.228757 -2.666535,0.800646 -0.555529,0.571891 -0.888846,1.143782 -0.888846,1.830052 0,0.686269 0.555528,1.830051 1.555479,2.401942 0.999951,0.571891 3.110957,1.25816 6.221916,2.173184 2.222113,0.68627 4.110909,1.372539 5.555282,2.058808 1.444373,0.571891 2.999852,1.486916 4.555331,2.745077 1.555479,1.14378 2.777641,2.630697 3.55538,4.460748 0.77774,1.830051 1.222162,4.003236 1.222162,6.405178 0,5.03264 -1.666584,8.921497 -4.999754,11.666574 -3.110957,2.745075 -7.666288,4.117614 -13.443782,4.117614"
     id="path875" />
  <path
     class="cls-2"
     d="m 98.783113,58.277908 c -1.888795,0 -3.55538,-0.800647 -4.888648,-2.173186 -1.333268,-1.372538 -2.111007,-3.202588 -2.111007,-5.032639 0,-1.830051 0.777739,-3.545723 2.111007,-5.03264 1.333268,-1.372538 3.110958,-2.173185 4.888648,-2.173185 1.777687,0 3.444277,0.800647 4.888647,2.173185 1.44437,1.372539 2.111,3.202589 2.111,5.03264 0,1.830051 -0.77773,3.545723 -2.111,5.032639 -1.33327,1.486917 -2.99985,2.173186 -4.888647,2.173186 m -6.333022,2.745076 H 105.11613 V 96.251462 H 92.450091 c 0,0 0,-35.228478 0,-35.228478 z"
     id="path877" />
  <path
     class="cls-2"
     d="m 150.89166,59.99358 c 3.99981,0 7.11077,1.25816 9.33287,3.774481 2.22211,2.516319 3.33318,6.176421 3.33318,10.980304 V 96.137083 H 150.89166 V 76.464038 c 0,-2.745077 -1.22217,-4.003237 -3.44427,-4.003237 -2.22212,0 -3.9998,1.715673 -3.9998,5.261396 V 96.137083 H 130.78153 V 76.464038 c 0,-2.745077 -1.22216,-4.003237 -3.44427,-4.003237 -2.2221,0 -3.9998,1.715673 -3.9998,5.261396 V 96.137083 H 110.67142 V 60.908606 h 12.66604 v 3.316967 c 2.22211,-2.859455 5.33307,-4.231993 9.33287,-4.231993 3.99981,0 6.77746,1.372538 8.55514,4.346371 2.44432,-2.859454 5.7775,-4.346371 9.7773,-4.346371"
     id="path879" />
  <path
     class="cls-2"
     d="m 190.33416,59.99358 c 4.55533,0 8.33293,1.830051 11.22167,5.375775 2.88874,3.545723 4.33312,7.892094 4.33312,13.267868 0,5.375774 -1.44438,9.836523 -4.33312,13.382246 -2.88874,3.545723 -6.66634,5.375775 -11.22167,5.375775 -4.55533,0 -6.99965,-1.372539 -9.11067,-4.231993 V 110.43436 H 168.55745 V 61.137362 h 12.66604 v 3.202589 c 2.22212,-2.745076 5.22198,-4.117615 9.11067,-4.117615 m -7.55518,23.104393 c 1.11105,1.258159 2.66653,1.83005 4.44422,1.83005 1.7777,0 3.22207,-0.571891 4.44423,-1.83005 1.11106,-1.25816 1.66658,-2.859455 1.66658,-4.689506 0,-1.83005 -0.55552,-3.431345 -1.66658,-4.689505 -1.11106,-1.25816 -2.66653,-1.830051 -4.44423,-1.830051 -1.77769,0 -3.22205,0.571891 -4.44422,1.830051 -1.11105,1.25816 -1.66659,2.859455 -1.66659,4.689505 0,1.830051 0.55554,3.431346 1.66659,4.689506"
     id="path881" />
  <polygon
     class="cls-2"
     points="204.1,83.1 192.8,83.1 192.8,44.9 204.1,38.2 "
     id="polygon883"
     transform="matrix(1.1110563,0,0,1.1437817,-4.2118131,1.0888203)" />
  <path
     class="cls-2"
     d="m 261.88619,82.983594 c 0.33332,-1.486916 0.55553,-2.973833 0.55553,-4.575128 0,-1.601293 -0.1111,-3.316966 -0.55553,-4.803883 -0.66664,-3.202588 -2.22212,-5.947665 -4.55532,-8.349606 -3.33318,-3.545724 -7.6663,-5.261397 -12.77716,-5.261397 -5.11086,0 -9.55508,1.830051 -12.99936,5.375775 -3.44427,3.545723 -5.11086,8.006472 -5.11086,13.382246 0,5.375774 1.7777,9.722145 5.33308,13.15349 3.55538,3.545724 8.22182,5.261396 13.99931,5.261396 5.77749,0 8.66623,-1.143782 11.77719,-3.316966 l -5.44418,-9.607768 v 0 c -1.77768,1.372539 -3.66648,2.173186 -5.77748,2.173186 -3.55538,0 -5.8886,-1.25816 -6.99966,-3.545723 h 22.66555 z m -22.88776,-8.349607 c 0.99996,-2.859455 2.99986,-4.231992 5.9997,-4.231992 2.99985,0 4.77755,1.372537 5.55528,4.231992 h -11.44387 z"
     id="path885" />
  <path
     class="cls-1"
     d="m 53.674225,71.545776 c 0,14.182894 -11.22167,25.735089 -24.99877,25.735089 -13.777098,0 -24.9987679,-11.552195 -24.9987679,-25.735089 0,-14.182893 11.2216699,-25.735089 24.9987679,-25.735089 13.7771,0 24.99877,11.552196 24.99877,25.735089"
     id="path887" />
</svg>
