<svg xmlns="http://www.w3.org/2000/svg" xmlns:xlink="http://www.w3.org/1999/xlink" viewBox="0 -25 261.1 85">
  <defs>
    <linearGradient id="linear-gradient" x1="56.147" y1="-99.566" x2="54.135" y2="-60.552" gradientUnits="objectBoundingBox">
      <stop offset="0" stop-color="#106096"/>
      <stop offset="1" stop-color="#3fa9f0"/>
    </linearGradient>
  </defs>
  <g id="ORDER_x0020_GREY.cdr" transform="translate(-5.2 -6.4)">
    <path id="Path_13" data-name="Path 13" d="M101.9,43.1a17.182,17.182,0,0,0,6.7,6.1,18.62,18.62,0,0,0,8.9,2.2,20.572,20.572,0,0,0,6.9-1.3,19.13,19.13,0,0,0,5.8-3.5,18.083,18.083,0,0,0,4-5.5,14.916,14.916,0,0,0,1.4-6.7,16.747,16.747,0,0,0-1.4-6.7,17.663,17.663,0,0,0-4-5.4,17.322,17.322,0,0,0-5.8-3.5,20.033,20.033,0,0,0-6.9-1.2,19.475,19.475,0,0,0-6.8,1.2,19.955,19.955,0,0,0-5.8,3.5,16.541,16.541,0,0,0-4,5.4,15.505,15.505,0,0,0-1.4,6.7A14.684,14.684,0,0,0,101.9,43.1Zm117.8-14a9.678,9.678,0,0,0-2.2-1.9,8.1,8.1,0,0,0-7.8,0,9.678,9.678,0,0,0-2.2,1.9ZM231,37H206.3a7.991,7.991,0,0,0,1.8,2.7,7.617,7.617,0,0,0,11.1,0l.1-.1.1-.1.1-.1.1-.1,5.3,7.6a17.213,17.213,0,0,1-4.6,2.8,18.383,18.383,0,0,1-6.6,1.2,17.927,17.927,0,0,1-8.5-2.2,17.046,17.046,0,0,1-6.4-6.1,16.269,16.269,0,0,1-2.4-8.7,16.747,16.747,0,0,1,1.4-6.7,16.006,16.006,0,0,1,3.8-5.4,15.586,15.586,0,0,1,5.6-3.5,16.293,16.293,0,0,1,6.5-1.2,18.382,18.382,0,0,1,6.6,1.2,18.2,18.2,0,0,1,5.6,3.5,16.006,16.006,0,0,1,3.8,5.4,16.747,16.747,0,0,1,1.4,6.7V37Zm19-9.1a3.379,3.379,0,0,0-2-.6h-.5c-2.5.1-3.8,1.8-3.8,5.2V51.2h-9.9V32.6c0-9,4.6-13.7,13.7-14.2h.5a12.31,12.31,0,0,1,2,.2ZM169.1,18h12.1V6.4l9.9.1V18h10.3a17.394,17.394,0,0,0-6.8,9.5h-3.5v7.1a15.671,15.671,0,0,1-2.5,8.5,16.229,16.229,0,0,1-6.7,6,18.62,18.62,0,0,1-8.9,2.2,19.439,19.439,0,0,1-12.7-4.8,17.248,17.248,0,0,1-4-5.4,14.916,14.916,0,0,1-1.4-6.7,16.747,16.747,0,0,1,1.4-6.7,16.541,16.541,0,0,1,4-5.4,18.255,18.255,0,0,1,5.8-3.6C167.1,18.4,168.1,18.2,169.1,18Zm12.1,9.5c-5.5,0-12.2-1.9-15.4,3a6.8,6.8,0,0,0-1.1,3.9,7.518,7.518,0,0,0,2.5,5.7,8.01,8.01,0,0,0,5.8,2.4,8.177,8.177,0,0,0,5.8-2.4,7.518,7.518,0,0,0,2.5-5.7V27.5Zm-63.8,15a8.177,8.177,0,0,1-5.8-2.4,7.887,7.887,0,0,1-2.5-5.7,8.308,8.308,0,0,1,1.1-4,8.632,8.632,0,0,1,3.1-2.9,8.388,8.388,0,0,1,4.1-1.1,8.686,8.686,0,0,1,4.1,1.1,9.45,9.45,0,0,1,3.1,2.9,6.9,6.9,0,0,1,1.1,4,7.887,7.887,0,0,1-2.5,5.7A8.251,8.251,0,0,1,117.4,42.5ZM153.3,27a3.173,3.173,0,0,0-2-.6h-.6c-2.5.1-3.8,1.8-3.8,5.2V50.3H137V31.7c0-9,4.5-13.7,13.6-14.2h.6a12.31,12.31,0,0,1,2,.2V27Z" fill="#9d9e9e" fill-rule="evenodd"/>
    <path id="Path_14" data-name="Path 14" d="M13.3,37.8a14.67,14.67,0,0,0,1.5,7.1,9.419,9.419,0,0,0,4.6,4.2,18.853,18.853,0,0,0,3.8,1.2V31.7h0V27.3h3.1c.3-3.1,2.7-6.3,5.1-8.3H23.3V7h-10V19H5.2v8.4h8.1Zm13,2.4v-.1h0ZM45.8,25.7a8.566,8.566,0,0,0-4.1,1,9.222,9.222,0,0,0-3,2.9,7.211,7.211,0,0,0-1.2,4A7.506,7.506,0,0,0,40,39.2a8.01,8.01,0,0,0,5.8,2.4,8.379,8.379,0,0,0,8.3-8,8.017,8.017,0,0,0-1.1-4,8.344,8.344,0,0,0-7.2-3.9Zm8.3,23a13.318,13.318,0,0,0-1.4.6,18.006,18.006,0,0,1-6.9,1.3,18.794,18.794,0,0,1-15.6-8.2,15.514,15.514,0,0,1-2.5-8.7A16.747,16.747,0,0,1,29.1,27a15.241,15.241,0,0,1,4-5.4,18,18,0,0,1,5.8-3.5A19.67,19.67,0,0,1,52.7,18a16.988,16.988,0,0,1,5.8,3.5,18.951,18.951,0,0,1,4,5.4A15.283,15.283,0,0,1,64,33.6l-.1,16.1-9.8-.1v-.9Zm21.8.9,6.5-9.1,6,9.1,11.8-.1-12-16.2L99.6,18H88.9l-6.1,8.8L77,18l-10.9.1L77,33.2,65.4,49.6Z" fill-rule="evenodd" fill="url(#linear-gradient)"/>
    <rect id="Rectangle_533" data-name="Rectangle 533" width="8.1" height="8.1" transform="translate(250 10.5)" fill="#2e8fd0"/>
    <rect id="Rectangle_534" data-name="Rectangle 534" width="8.1" height="8.1" transform="translate(258.2 18.6)" fill="#9d9e9e"/>
  </g>
</svg>
