<?xml version="1.0" encoding="UTF-8" standalone="no"?>
<svg
   viewBox="0 -25 213.1 75"
   version="1.1"
   id="svg561"
   sodipodi:docname="taxorder.svg"
   width="213.10001"
   height="75"
   inkscape:version="1.2.2 (b0a8486541, 2022-12-01)"
   xmlns:inkscape="http://www.inkscape.org/namespaces/inkscape"
   xmlns:sodipodi="http://sodipodi.sourceforge.net/DTD/sodipodi-0.dtd"
   xmlns="http://www.w3.org/2000/svg"
   xmlns:svg="http://www.w3.org/2000/svg">
  <sodipodi:namedview
     id="namedview563"
     pagecolor="#ffffff"
     bordercolor="#000000"
     borderopacity="0.25"
     inkscape:showpageshadow="2"
     inkscape:pageopacity="0.0"
     inkscape:pagecheckerboard="0"
     inkscape:deskcolor="#d1d1d1"
     showgrid="false"
     inkscape:zoom="4.994255"
     inkscape:cx="130.65012"
     inkscape:cy="42.548889"
     inkscape:window-width="2560"
     inkscape:window-height="1368"
     inkscape:window-x="1920"
     inkscape:window-y="0"
     inkscape:window-maximized="1"
     inkscape:current-layer="svg561" />
  <defs
     id="defs554">
    <linearGradient
       id="linear-gradient"
       x1="3617.0896"
       y1="-6397.6392"
       x2="3487.5991"
       y2="-3886.7356"
       gradientUnits="userSpaceOnUse"
       gradientTransform="scale(1.4760942,0.67746355)">
      <stop
         offset="0"
         stop-color="#106096"
         id="stop549" />
      <stop
         offset="1"
         stop-color="#3fa9f0"
         id="stop551" />
    </linearGradient>
  </defs>
  <g
     id="ORDER_x0020_GREY.cdr"
     transform="matrix(0.73619632,0,0,0.79532212,0.97730085,-3.8886812)">
    <path
       id="Path_13"
       data-name="Path 13"
       d="m 101.9,43.1 a 17.182,17.182 0 0 0 6.7,6.1 18.62,18.62 0 0 0 8.9,2.2 20.572,20.572 0 0 0 6.9,-1.3 19.13,19.13 0 0 0 5.8,-3.5 18.083,18.083 0 0 0 4,-5.5 14.916,14.916 0 0 0 1.4,-6.7 16.747,16.747 0 0 0 -1.4,-6.7 17.663,17.663 0 0 0 -4,-5.4 17.322,17.322 0 0 0 -5.8,-3.5 20.033,20.033 0 0 0 -6.9,-1.2 19.475,19.475 0 0 0 -6.8,1.2 19.955,19.955 0 0 0 -5.8,3.5 16.541,16.541 0 0 0 -4,5.4 15.505,15.505 0 0 0 -1.4,6.7 14.684,14.684 0 0 0 2.4,8.7 z m 117.8,-14 a 9.678,9.678 0 0 0 -2.2,-1.9 8.1,8.1 0 0 0 -7.8,0 9.678,9.678 0 0 0 -2.2,1.9 z M 231,37 h -24.7 a 7.991,7.991 0 0 0 1.8,2.7 7.617,7.617 0 0 0 11.1,0 l 0.1,-0.1 0.1,-0.1 0.1,-0.1 0.1,-0.1 5.3,7.6 a 17.213,17.213 0 0 1 -4.6,2.8 18.383,18.383 0 0 1 -6.6,1.2 17.927,17.927 0 0 1 -8.5,-2.2 17.046,17.046 0 0 1 -6.4,-6.1 16.269,16.269 0 0 1 -2.4,-8.7 16.747,16.747 0 0 1 1.4,-6.7 16.006,16.006 0 0 1 3.8,-5.4 15.586,15.586 0 0 1 5.6,-3.5 16.293,16.293 0 0 1 6.5,-1.2 18.382,18.382 0 0 1 6.6,1.2 18.2,18.2 0 0 1 5.6,3.5 16.006,16.006 0 0 1 3.8,5.4 16.747,16.747 0 0 1 1.4,6.7 V 37 Z m 19,-9.1 a 3.379,3.379 0 0 0 -2,-0.6 h -0.5 c -2.5,0.1 -3.8,1.8 -3.8,5.2 v 18.7 h -9.9 V 32.6 c 0,-9 4.6,-13.7 13.7,-14.2 h 0.5 a 12.31,12.31 0 0 1 2,0.2 z M 169.1,18 h 12.1 V 6.4 l 9.9,0.1 V 18 h 10.3 a 17.394,17.394 0 0 0 -6.8,9.5 h -3.5 v 7.1 a 15.671,15.671 0 0 1 -2.5,8.5 16.229,16.229 0 0 1 -6.7,6 18.62,18.62 0 0 1 -8.9,2.2 19.439,19.439 0 0 1 -12.7,-4.8 17.248,17.248 0 0 1 -4,-5.4 14.916,14.916 0 0 1 -1.4,-6.7 16.747,16.747 0 0 1 1.4,-6.7 16.541,16.541 0 0 1 4,-5.4 18.255,18.255 0 0 1 5.8,-3.6 c 1,-0.3 2,-0.5 3,-0.7 z m 12.1,9.5 c -5.5,0 -12.2,-1.9 -15.4,3 a 6.8,6.8 0 0 0 -1.1,3.9 7.518,7.518 0 0 0 2.5,5.7 8.01,8.01 0 0 0 5.8,2.4 8.177,8.177 0 0 0 5.8,-2.4 7.518,7.518 0 0 0 2.5,-5.7 v -6.9 z m -63.8,15 a 8.177,8.177 0 0 1 -5.8,-2.4 7.887,7.887 0 0 1 -2.5,-5.7 8.308,8.308 0 0 1 1.1,-4 8.632,8.632 0 0 1 3.1,-2.9 8.388,8.388 0 0 1 4.1,-1.1 8.686,8.686 0 0 1 4.1,1.1 9.45,9.45 0 0 1 3.1,2.9 6.9,6.9 0 0 1 1.1,4 7.887,7.887 0 0 1 -2.5,5.7 8.251,8.251 0 0 1 -5.8,2.4 z M 153.3,27 a 3.173,3.173 0 0 0 -2,-0.6 h -0.6 c -2.5,0.1 -3.8,1.8 -3.8,5.2 V 50.3 H 137 V 31.7 c 0,-9 4.5,-13.7 13.6,-14.2 h 0.6 a 12.31,12.31 0 0 1 2,0.2 V 27 Z"
       fill="#9d9e9e"
       fill-rule="evenodd" />
    <path
       id="Path_14"
       data-name="Path 14"
       d="m 13.3,37.8 a 14.67,14.67 0 0 0 1.5,7.1 9.419,9.419 0 0 0 4.6,4.2 18.853,18.853 0 0 0 3.8,1.2 v -18.6 0 -4.4 h 3.1 C 26.6,24.2 29,21 31.4,19 H 23.3 V 7 h -10 V 19 H 5.2 v 8.4 h 8.1 z m 13,2.4 v -0.1 0 z M 45.8,25.7 a 8.566,8.566 0 0 0 -4.1,1 9.222,9.222 0 0 0 -3,2.9 7.211,7.211 0 0 0 -1.2,4 7.506,7.506 0 0 0 2.5,5.6 8.01,8.01 0 0 0 5.8,2.4 8.379,8.379 0 0 0 8.3,-8 8.017,8.017 0 0 0 -1.1,-4 8.344,8.344 0 0 0 -7.2,-3.9 z m 8.3,23 a 13.318,13.318 0 0 0 -1.4,0.6 18.006,18.006 0 0 1 -6.9,1.3 18.794,18.794 0 0 1 -15.6,-8.2 15.514,15.514 0 0 1 -2.5,-8.7 16.747,16.747 0 0 1 1.4,-6.7 15.241,15.241 0 0 1 4,-5.4 18,18 0 0 1 5.8,-3.5 19.67,19.67 0 0 1 13.8,-0.1 16.988,16.988 0 0 1 5.8,3.5 18.951,18.951 0 0 1 4,5.4 15.283,15.283 0 0 1 1.5,6.7 l -0.1,16.1 -9.8,-0.1 z m 21.8,0.9 6.5,-9.1 6,9.1 11.8,-0.1 L 88.2,33.3 99.6,18 H 88.9 L 82.8,26.8 77,18 66.1,18.1 77,33.2 65.4,49.6 Z"
       fill-rule="evenodd"
       fill="url(#linear-gradient)"
       style="fill:url(#linear-gradient)" />
    <rect
       id="Rectangle_533"
       data-name="Rectangle 533"
       width="8.1000004"
       height="8.1000004"
       transform="translate(250,10.5)"
       fill="#2e8fd0"
       x="0"
       y="0" />
    <rect
       id="Rectangle_534"
       data-name="Rectangle 534"
       width="8.1000004"
       height="8.1000004"
       transform="translate(258.2,18.6)"
       fill="#9d9e9e"
       x="0"
       y="0" />
  </g>
</svg>
