<?xml version="1.0" encoding="UTF-8"?>
<svg id="Warstwa_2" data-name="Warstwa 2" xmlns="http://www.w3.org/2000/svg" viewBox="0 0 148.2 54">
  <defs>
    <style>
      .cls-1 {
        fill: #6d6e71;
      }

      .cls-1, .cls-2 {
        stroke-width: 0px;
      }

      .cls-2 {
        fill: #ffde17;
      }
    </style>
  </defs>
  <g id="Warstwa_1-2" data-name="Warstwa 1">
    <g>
      <path class="cls-1" d="M.12,11.89c-.08-.15-.12-.3-.12-.44,0-.23.09-.45.27-.65.29-.35.66-.52,1.1-.52h4.21c1,0,1.76.61,2.29,1.83l7.44,16.58,7.44-16.58c.53-1.21,1.29-1.81,2.29-1.83h4.21c.45,0,.81.17,1.1.52.18.21.27.43.27.65,0,.14-.03.29-.09.44l-11.08,24.01c-.6,1.31-1.52,1.96-2.75,1.96h-2.77c-1.23,0-2.15-.65-2.75-1.96L.12,11.89Z"/>
      <path class="cls-1" d="M33.4,12.82v-.67c0-.69.2-1.25.58-1.65s.93-.61,1.63-.61h2.38c.68,0,1.22.2,1.62.6.39.4.6.95.6,1.67v.67c0,.69-.2,1.25-.58,1.65-.39.41-.93.61-1.63.61h-2.38c-.68,0-1.22-.21-1.62-.61-.39-.41-.6-.95-.6-1.65h0ZM33.47,36.69v-18.17c0-.35.11-.62.34-.84.22-.21.51-.32.84-.32h4.31c.35,0,.63.11.84.33.22.22.32.5.32.83v18.17c0,.35-.11.62-.34.84s-.51.32-.84.32h-4.31c-.35,0-.63-.11-.84-.32s-.32-.5-.32-.84h0Z"/>
      <path class="cls-1" d="M44.94,29.59V11.47c0-.35.11-.63.34-.85.22-.22.51-.34.84-.34h4.31c.35,0,.63.11.84.34.22.22.32.51.32.85v6.41h5.37c.35,0,.63.11.84.33.22.22.32.51.32.85v2.3c0,.35-.11.63-.34.85-.22.22-.51.33-.84.33h-5.37v7.14c0,1.33.31,2.34.92,3.07.62.72,1.44,1.08,2.46,1.08.35,0,.8-.04,1.38-.12.58-.08.99-.12,1.25-.12h.71c.35,0,.63.1.85.32s.34.49.34.82v2c0,.28-.11.54-.34.75-.22.21-.51.34-.85.39-1.31.25-3.01.37-5.11.37-5.52.02-8.27-2.87-8.27-8.66h.02Z"/>
      <path class="cls-1" d="M63.63,36.47c-1.7-1.18-2.55-2.85-2.55-5s.85-3.81,2.55-4.96,3.89-1.73,6.57-1.73h6.37c0-1.5-.32-2.55-.95-3.13-.63-.59-1.63-.88-2.99-.88-1.78,0-3.04.43-3.76,1.31-.55.68-1.29,1.02-2.21,1.02h-2.86c-.35,0-.63-.11-.85-.34-.22-.22-.34-.51-.34-.84,0-3.68,3.5-5.52,10.48-5.52,3.05,0,5.51.69,7.35,2.05s2.77,3.48,2.77,6.34v11.91c0,.35-.11.63-.32.84s-.5.32-.84.32h-3.71c-.35,0-.63-.11-.84-.34-.22-.22-.32-.51-.32-.84v-.6c-2.03,1.45-4.35,2.17-6.96,2.15-2.68,0-4.87-.59-6.57-1.77h-.02ZM67.74,31.47c0,.7.27,1.29.81,1.73.54.45,1.3.67,2.3.67,1.98,0,3.89-.58,5.73-1.73v-3h-5.92c-.9,0-1.61.22-2.13.65-.52.43-.78.99-.78,1.67h0Z"/>
      <path class="cls-1" d="M118.57,21.76h1.25c.21,0,.39-.09.53-.24h5.97l1.44,4.91,1.76-4.93h2.97l1.14-4.36,2.36,14.72,1.63-10.35h1.85l.52-3.2,2.49,7.47,2.41-4.28h3.31v-.9h-3.84l-1.67,2.97-3.01-9.02-.98,6.05h-1.85l-.87,5.52-2.15-13.35-2.04,7.83h-2.9l-1.04,2.92-.85-2.9h-6.59c-.13-.17-.34-.3-.58-.3h-1.25c-.39,0-.72.32-.72.72s.32.72.72.72h0Z"/>
      <polygon class="cls-1" points="110.53 0 129.69 0 129.69 11.49 127.81 11.49 127.81 1.87 112.42 1.87 112.43 19.43 93.91 19.43 93.91 34.67 112.43 34.67 112.43 52.07 127.81 52.07 127.81 34.6 146.32 34.6 146.32 21.48 148.2 21.48 148.2 36.47 129.69 36.47 129.69 53.95 110.54 53.95 110.54 36.54 92.04 36.54 92.04 17.54 110.54 17.54 110.53 0"/>
      <path class="cls-2" d="M39.91,44.55h-2.62v3.69h2.62c1.41,0,2.45-.28,2.45-1.85s-1.04-1.85-2.45-1.85Z"/>
      <path class="cls-2" d="M32.16,40.55v13.45h50.83v-13.45h-50.83ZM40.73,50.14h-3.44v1.52c0,.35-.29.63-.68.63h-1.35c-.37,0-.68-.29-.68-.63v-8.39c0-.36.29-.63.66-.63h5.48c2.74,0,4.34,1.16,4.34,3.75s-1.6,3.75-4.34,3.75h0ZM56.66,51.66c0,.36-.31.63-.68.63h-8.29c-.37,0-.68-.28-.68-.62v-8.39c0-.36.29-.65.68-.65h1.36c.38,0,.68.29.68.65v7.1h6.25c.37,0,.68.28.68.63v.65ZM68.22,48.48c0,2.44-1.53,3.87-4.53,3.87h-1.29c-3,0-4.53-1.44-4.53-3.87v-5.2c0-.36.31-.63.69-.63h1.34c.37,0,.68.28.68.63v5.22c0,1.33.59,1.96,1.89,1.96h1.14c1.31,0,1.89-.63,1.89-1.96v-5.22c0-.36.31-.63.68-.63h1.34c.38,0,.69.28.69.63v5.2h0ZM76.18,52.35h-2.18c-1.85,0-3.84-1.01-3.84-2.49,0-.62.54-.74.73-.74h.85c.41,0,.73.18.97.63.24.47.8.69,1.53.69h2.52c.88,0,1.26-.29,1.26-.77,0-1.6-7.78-.7-7.78-4.28,0-1.66,1.03-2.82,4.56-2.82h1.82c1.85,0,3.84,1.01,3.84,2.49,0,.62-.54.74-.73.74h-.85c-.41,0-.73-.18-.97-.63-.24-.47-.8-.69-1.53-.69h-2.16c-.88,0-1.26.29-1.26.77,0,1.6,7.78.68,7.78,4.28,0,1.66-1.03,2.82-4.56,2.82Z"/>
    </g>
  </g>
</svg>